<?xml version="1.0" encoding="UTF-8"?>
<svg id="_图层_2" data-name="图层 2" xmlns="http://www.w3.org/2000/svg" viewBox="0 0 713.89 296.12">
  <defs>
    <style>
      .cls-1 {
        fill: none;
        stroke: #0b6535;
        stroke-miterlimit: 10;
        stroke-width: 3px;
      }

      .cls-2 {
        fill: #378d39;
      }

      .cls-3 {
        fill: #231815;
        font-family: MiSans-Normal, 'MiSans Normal';
        font-size: 24px;
      }
    </style>
  </defs>
  <g id="_图层_1-2" data-name="图层 1">
    <g>
      <path class="cls-2" d="M104.08,17.79c19.11,43.43,19.26,96.12,0,139.52-19.26-43.4-19.12-96.09,0-139.52h0Z"/>
      <path class="cls-2" d="M499.53,92.28c9.32,16.4,9.39,36.3,0,52.69-9.39-16.39-9.32-36.29,0-52.69h0Z"/>
      <path class="cls-2" d="M653.53,92.28c9.32,16.4,9.39,36.3,0,52.69-9.39-16.39-9.32-36.29,0-52.69h0Z"/>
      <path class="cls-2" d="M558.53,39.24c9.32,16.4,9.39,36.3,0,52.69-9.39-16.39-9.32-36.29,0-52.69h0Z"/>
      <text class="cls-3" transform="translate(36 231.54)"><tspan x="0" y="0">每一粒稻谷</tspan><tspan x="-36" y="28.8">代表一个农耕节日</tspan></text>
      <text class="cls-3" transform="translate(464.45 231.73)"><tspan x="0" y="0">稻谷的位置取决于</tspan><tspan x="0" y="28.8">节日的日期与地点</tspan></text>
      <text class="cls-3" transform="translate(424.88 25.88)"><tspan x="0" y="0">地区</tspan></text>
      <text class="cls-3" transform="translate(665.27 176.32)"><tspan x="0" y="0">时间</tspan></text>
      <polyline class="cls-1" points="410.1 26.7 421.22 5.97 421.22 182.29 709.16 182.29 688.13 197.11"/>
    </g>
  </g>
</svg>