<?xml version="1.0" encoding="UTF-8"?>
<svg id="_图层_1" data-name="图层 1" xmlns="http://www.w3.org/2000/svg" viewBox="0 0 2153.95 1211.6">
  <defs>
    <style>
      .cls-1 {
        stroke: #0b6535;
        stroke-width: 3px;
      }

      .cls-1, .cls-2, .cls-3, .cls-4, .cls-5, .cls-6, .cls-7, .cls-8, .cls-9, .cls-10, .cls-11, .cls-12, .cls-13, .cls-14, .cls-15, .cls-16, .cls-17, .cls-18 {
        stroke-miterlimit: 10;
      }

      .cls-1, .cls-2, .cls-4, .cls-7, .cls-8, .cls-9, .cls-11, .cls-12, .cls-13, .cls-15, .cls-17, .cls-18 {
        fill: none;
      }

      .cls-2 {
        stroke: #e1e2b6;
      }

      .cls-2, .cls-4, .cls-5, .cls-7, .cls-8, .cls-9, .cls-11, .cls-12, .cls-17, .cls-18 {
        stroke-width: 2px;
      }

      .cls-2, .cls-5, .cls-7, .cls-8, .cls-9, .cls-11, .cls-12, .cls-15, .cls-17, .cls-18 {
        stroke-dasharray: 24 .5 1 .5;
      }

      .cls-19 {
        fill: #6bab69;
      }

      .cls-20 {
        fill: #f4f1ef;
      }

      .cls-21 {
        fill: #e6a275;
      }

      .cls-3, .cls-5 {
        fill: #3c7c3a;
        stroke: #3c803b;
      }

      .cls-22 {
        fill: #c56d64;
      }

      .cls-4, .cls-14 {
        stroke: #cabc83;
      }

      .cls-6, .cls-13 {
        stroke: #ccd57b;
      }

      .cls-6, .cls-13, .cls-14 {
        stroke-width: .15px;
      }

      .cls-6, .cls-14 {
        fill: #cabc83;
      }

      .cls-7 {
        stroke: #00523d;
      }

      .cls-8 {
        stroke: #91ca8c;
      }

      .cls-23 {
        fill: #cd7066;
      }

      .cls-24 {
        fill: #00523d;
      }

      .cls-25 {
        fill: #a4d19f;
      }

      .cls-9 {
        stroke: #d2dd7d;
      }

      .cls-10 {
        fill: #be6a62;
      }

      .cls-10, .cls-15, .cls-16 {
        stroke-width: .5px;
      }

      .cls-10, .cls-16 {
        stroke: #f4f3f2;
      }

      .cls-11, .cls-15 {
        stroke: #7faa67;
      }

      .cls-12 {
        stroke: #be6a62;
      }

      .cls-26 {
        fill: #e5e6b9;
      }

      .cls-27 {
        font-size: 18px;
      }

      .cls-27, .cls-28 {
        fill: #231815;
        font-family: MiSans-Normal, 'MiSans Normal';
      }

      .cls-28 {
        font-size: 24px;
      }

      .cls-29 {
        fill: #7e9b67;
      }

      .cls-16 {
        fill: #d2dd7d;
      }

      .cls-30 {
        fill: #ecd46e;
      }

      .cls-17 {
        stroke: #6bab69;
      }

      .cls-31 {
        fill: #9dce83;
      }

      .cls-18 {
        stroke: #7b9865;
      }

      .cls-32 {
        fill: #d9e47f;
      }
    </style>
  </defs>
  <g>
    <g>
      <path class="cls-30" d="M993.87,664.63c-6.84,10.47-8.96,25.79-5.61,41.15,6.87-10.45,8.93-25.8,5.61-41.15h0Z"/>
      <path class="cls-30" d="M993.87,640.6c-6.84,10.47-8.96,25.79-5.61,41.15,6.87-10.45,8.93-25.8,5.61-41.15h0Z"/>
      <path class="cls-30" d="M981.99,652.12c6.84,10.47,8.96,25.79,5.61,41.15-6.87-10.45-8.93-25.8-5.61-41.15h0Z"/>
      <path class="cls-30" d="M981.99,628.08c6.84,10.47,8.96,25.79,5.61,41.15-6.87-10.45-8.93-25.8-5.61-41.15h0Z"/>
      <path class="cls-30" d="M993.87,616.56c-6.84,10.47-8.96,25.79-5.61,41.15,6.87-10.45,8.93-25.8,5.61-41.15h0Z"/>
      <path class="cls-30" d="M993.87,592.52c-6.84,10.47-8.96,25.79-5.61,41.15,6.87-10.45,8.93-25.8,5.61-41.15h0Z"/>
      <path class="cls-30" d="M981.99,604.04c6.84,10.47,8.96,25.79,5.61,41.15-6.87-10.45-8.93-25.8-5.61-41.15h0Z"/>
      <path class="cls-30" d="M981.99,580c6.84,10.47,8.96,25.79,5.61,41.15-6.87-10.45-8.93-25.8-5.61-41.15h0Z"/>
    </g>
    <g>
      <path class="cls-32" d="M392.14,973.31c-3.28,4.05-5.79,8.72-7.54,13.8-1.75-5.08-4.26-9.75-7.54-13.8,0,14.45-.26,11.44-.12,19.74.24,14.39,1.65,21.69,7.66,29.43,6-7.74,7.42-15.04,7.66-29.43.14-8.3-.12-5.29-.12-19.74Z"/>
      <path class="cls-32" d="M392.26,950.09c-3.28,4.05-5.91,8.72-7.66,13.8-1.75-5.08-4.38-9.75-7.66-13.8,0,2.73-.14-4.95,0,3.35.24,14.39,1.65,21.69,7.66,29.43,6-7.74,7.42-15.04,7.66-29.43.14-8.3,0-.62,0-3.35Z"/>
      <path class="cls-32" d="M392.26,926.87c-3.28,4.05-5.91,8.72-7.66,13.8-1.75-5.08-4.38-9.75-7.66-13.8,0,2.73-.14-4.95,0,3.35.24,14.39,1.65,21.69,7.66,29.43,6-7.74,7.42-15.04,7.66-29.43.14-8.3,0-.62,0-3.35Z"/>
      <path class="cls-32" d="M392.26,903.65c-3.28,4.05-5.91,8.72-7.66,13.8-1.75-5.08-4.38-9.75-7.66-13.8,0,2.73-.14-4.95,0,3.35.24,14.39,1.65,21.69,7.66,29.43,6-7.74,7.42-15.04,7.66-29.43.14-8.3,0-.62,0-3.35Z"/>
      <path class="cls-32" d="M392.26,880.25c-3.28,4.05-5.91,8.72-7.66,13.8-1.75-5.08-4.38-9.75-7.66-13.8,0,2.73-.14-4.95,0,3.35.24,14.39,1.65,21.69,7.66,29.43,6-7.74,7.42-15.04,7.66-29.43.14-8.3,0-.62,0-3.35Z"/>
    </g>
    <g>
      <path class="cls-23" d="M147.14,975.59c-3.28,4.05-5.79,8.72-7.54,13.8-1.75-5.08-4.26-9.75-7.54-13.8,0,14.45-.26,11.44-.12,19.74.24,14.39,1.65,21.69,7.66,29.43,6-7.74,7.42-15.04,7.66-29.43.14-8.3-.12-5.29-.12-19.74Z"/>
      <path class="cls-23" d="M147.26,952.37c-3.28,4.05-5.91,8.72-7.66,13.8-1.75-5.08-4.38-9.75-7.66-13.8,0,2.73-.14-4.95,0,3.35.24,14.39,1.65,21.69,7.66,29.43,6-7.74,7.42-15.04,7.66-29.43.14-8.3,0-.62,0-3.35Z"/>
      <path class="cls-23" d="M147.26,929.15c-3.28,4.05-5.91,8.72-7.66,13.8-1.75-5.08-4.38-9.75-7.66-13.8,0,2.73-.14-4.95,0,3.35.24,14.39,1.65,21.69,7.66,29.43,6-7.74,7.42-15.04,7.66-29.43.14-8.3,0-.62,0-3.35Z"/>
      <path class="cls-23" d="M147.26,905.93c-3.28,4.05-5.91,8.72-7.66,13.8-1.75-5.08-4.38-9.75-7.66-13.8,0,2.73-.14-4.95,0,3.35.24,14.39,1.65,21.69,7.66,29.43,6-7.74,7.42-15.04,7.66-29.43.14-8.3,0-.62,0-3.35Z"/>
      <path class="cls-23" d="M147.26,882.53c-3.28,4.05-5.91,8.72-7.66,13.8-1.75-5.08-4.38-9.75-7.66-13.8,0,2.73-.14-4.95,0,3.35.24,14.39,1.65,21.69,7.66,29.43,6-7.74,7.42-15.04,7.66-29.43.14-8.3,0-.62,0-3.35Z"/>
    </g>
    <g>
      <path class="cls-21" d="M320.14,972.75c-3.28,4.05-5.79,8.72-7.54,13.8-1.75-5.08-4.26-9.75-7.54-13.8,0,14.45-.26,11.44-.12,19.74.24,14.39,1.65,21.69,7.66,29.43,6-7.74,7.42-15.04,7.66-29.43.14-8.3-.12-5.29-.12-19.74Z"/>
      <path class="cls-21" d="M320.26,949.53c-3.28,4.05-5.91,8.72-7.66,13.8-1.75-5.08-4.38-9.75-7.66-13.8,0,2.73-.14-4.95,0,3.35.24,14.39,1.65,21.69,7.66,29.43,6-7.74,7.42-15.04,7.66-29.43.14-8.3,0-.62,0-3.35Z"/>
      <path class="cls-21" d="M320.26,926.31c-3.28,4.05-5.91,8.72-7.66,13.8-1.75-5.08-4.38-9.75-7.66-13.8,0,2.73-.14-4.95,0,3.35.24,14.39,1.65,21.69,7.66,29.43,6-7.74,7.42-15.04,7.66-29.43.14-8.3,0-.62,0-3.35Z"/>
      <path class="cls-21" d="M320.26,903.09c-3.28,4.05-5.91,8.72-7.66,13.8-1.75-5.08-4.38-9.75-7.66-13.8,0,2.73-.14-4.95,0,3.35.24,14.39,1.65,21.69,7.66,29.43,6-7.74,7.42-15.04,7.66-29.43.14-8.3,0-.62,0-3.35Z"/>
      <path class="cls-21" d="M320.26,879.69c-3.28,4.05-5.91,8.72-7.66,13.8-1.75-5.08-4.38-9.75-7.66-13.8,0,2.73-.14-4.95,0,3.35.24,14.39,1.65,21.69,7.66,29.43,6-7.74,7.42-15.04,7.66-29.43.14-8.3,0-.62,0-3.35Z"/>
    </g>
    <g>
      <path class="cls-16" d="M1383.63,887.38c8.3,9.81,12.47,25.52,9.11,37.83-8.34-9.79-12.43-25.52-9.11-37.83h0Z"/>
      <line class="cls-6" x1="1389.27" y1="913.62" x2="1381.94" y2="880.1"/>
      <path class="cls-16" d="M1398.95,887.38c-8.3,9.81-12.47,25.52-9.11,37.83,8.34-9.79,12.43-25.52,9.11-37.83h0Z"/>
      <line class="cls-13" x1="1393.31" y1="913.62" x2="1400.64" y2="880.1"/>
      <path class="cls-16" d="M1383.63,902.64c8.3,9.81,12.47,25.52,9.11,37.83-8.34-9.79-12.43-25.52-9.11-37.83h0Z"/>
      <line class="cls-13" x1="1389.27" y1="928.89" x2="1381.94" y2="895.36"/>
      <path class="cls-16" d="M1398.95,902.64c-8.3,9.81-12.47,25.52-9.11,37.83,8.34-9.79,12.43-25.52,9.11-37.83h0Z"/>
      <line class="cls-6" x1="1393.31" y1="928.89" x2="1400.64" y2="895.36"/>
      <path class="cls-16" d="M1383.63,918.03c7.97,9.42,12.13,24.29,9.48,36.36-.13.58-.97.74-1.34.26-7.67-9.84-11.31-24.81-8.13-36.62h0Z"/>
      <line class="cls-13" x1="1389.27" y1="944.15" x2="1381.94" y2="910.62"/>
      <path class="cls-16" d="M1398.95,917.9c-8.3,9.81-12.47,25.52-9.11,37.83,8.34-9.79,12.43-25.52,9.11-37.83h0Z"/>
      <line class="cls-13" x1="1393.31" y1="944.15" x2="1400.64" y2="910.62"/>
      <path class="cls-16" d="M1383.63,932.19c8.3,9.81,12.47,25.52,9.11,37.83-8.34-9.79-12.43-25.52-9.11-37.83h0Z"/>
      <line class="cls-6" x1="1389.27" y1="958.44" x2="1381.94" y2="924.91"/>
      <path class="cls-16" d="M1398.95,932.19c-8.3,9.81-12.47,25.52-9.11,37.83,8.34-9.79,12.43-25.52,9.11-37.83h0Z"/>
      <line class="cls-13" x1="1393.31" y1="958.44" x2="1400.64" y2="924.91"/>
      <path class="cls-16" d="M1383.63,947.45c8.3,9.81,12.47,25.52,9.11,37.83-8.34-9.79-12.43-25.52-9.11-37.83h0Z"/>
      <line class="cls-13" x1="1389.27" y1="973.7" x2="1381.94" y2="940.17"/>
      <path class="cls-16" d="M1398.95,947.45c-8.3,9.81-12.47,25.52-9.11,37.83,8.34-9.79,12.43-25.52,9.11-37.83h0Z"/>
      <line class="cls-6" x1="1393.31" y1="973.7" x2="1400.64" y2="940.17"/>
      <path class="cls-16" d="M1383.63,962.85c7.97,9.42,12.13,24.29,9.48,36.36-.13.58-.97.74-1.34.26-7.67-9.84-11.31-24.81-8.13-36.62h0Z"/>
      <line class="cls-13" x1="1389.27" y1="988.96" x2="1381.94" y2="955.43"/>
      <path class="cls-16" d="M1398.95,962.71c-8.3,9.81-12.47,25.52-9.11,37.83,8.34-9.79,12.43-25.52,9.11-37.83h0Z"/>
      <line class="cls-13" x1="1393.31" y1="988.96" x2="1400.64" y2="955.43"/>
      <path class="cls-16" d="M1383.63,977.01c8.3,9.81,12.47,25.52,9.11,37.83-8.34-9.79-12.43-25.52-9.11-37.83h0Z"/>
      <line class="cls-6" x1="1389.27" y1="1003.25" x2="1381.94" y2="969.73"/>
      <path class="cls-16" d="M1398.95,977.01c-8.3,9.81-12.47,25.52-9.11,37.83,8.34-9.79,12.43-25.52,9.11-37.83h0Z"/>
      <line class="cls-13" x1="1393.31" y1="1003.25" x2="1400.64" y2="969.73"/>
      <path class="cls-16" d="M1383.63,992.27c8.3,9.81,12.47,25.52,9.11,37.83-8.34-9.79-12.43-25.52-9.11-37.83h0Z"/>
      <line class="cls-13" x1="1389.27" y1="1018.51" x2="1381.94" y2="984.99"/>
      <path class="cls-16" d="M1398.95,992.27c-8.3,9.81-12.47,25.52-9.11,37.83,8.34-9.79,12.43-25.52,9.11-37.83h0Z"/>
      <line class="cls-6" x1="1393.31" y1="1018.51" x2="1400.64" y2="984.99"/>
    </g>
  </g>
  <g>
    <g>
      <line class="cls-11" x1="223.66" y1="308.1" x2="223.66" y2="113.1"/>
      <path class="cls-31" d="M231.11,276.18c-3.35,4.13-6.03,8.9-7.82,14.09-1.78-5.18-4.47-9.96-7.82-14.09,0,2.79-.14-5.05,0,3.42.24,14.69,1.69,22.14,7.82,30.04,6.13-7.9,7.58-15.35,7.82-30.04.14-8.47,0-.63,0-3.42Z"/>
      <g>
        <path class="cls-31" d="M230.96,103.17c-3.35,4.13-5.91,8.9-7.69,14.09-1.78-5.18-4.35-9.96-7.69-14.09,0,14.75-.26,11.68-.12,20.15.24,14.69,1.69,22.14,7.82,30.04,6.13-7.9,7.58-15.35,7.82-30.04.14-8.47-.12-5.4-.12-20.15Z"/>
        <path class="cls-31" d="M231.11,80.76c-3.35,4.13-6.03,8.9-7.82,14.09-1.78-5.18-4.47-9.96-7.82-14.09,0,2.79-.14-5.05,0,3.42.24,14.69,1.69,22.14,7.82,30.04,6.13-7.9,7.58-15.35,7.82-30.04.14-8.47,0-.63,0-3.42Z"/>
      </g>
    </g>
    <g>
      <line class="cls-11" x1="273.66" y1="308.1" x2="273.66" y2="113.1"/>
      <path class="cls-31" d="M281.11,276.18c-3.35,4.13-6.03,8.9-7.82,14.09-1.78-5.18-4.47-9.96-7.82-14.09,0,2.79-.14-5.05,0,3.42.24,14.69,1.69,22.14,7.82,30.04,6.13-7.9,7.58-15.35,7.82-30.04.14-8.47,0-.63,0-3.42Z"/>
      <g>
        <path class="cls-31" d="M280.96,103.17c-3.35,4.13-5.91,8.9-7.69,14.09-1.78-5.18-4.35-9.96-7.69-14.09,0,14.75-.26,11.68-.12,20.15.24,14.69,1.69,22.14,7.82,30.04,6.13-7.9,7.58-15.35,7.82-30.04.14-8.47-.12-5.4-.12-20.15Z"/>
        <path class="cls-31" d="M281.11,80.76c-3.35,4.13-6.03,8.9-7.82,14.09-1.78-5.18-4.47-9.96-7.82-14.09,0,2.79-.14-5.05,0,3.42.24,14.69,1.69,22.14,7.82,30.04,6.13-7.9,7.58-15.35,7.82-30.04.14-8.47,0-.63,0-3.42Z"/>
      </g>
    </g>
    <g>
      <line class="cls-8" x1="483.02" y1="626.52" x2="483.02" y2="497.17"/>
      <path class="cls-25" d="M483,486.36c6.1,13.85,6.14,30.65,0,44.49-6.14-13.84-6.1-30.64,0-44.49h0Z"/>
      <path class="cls-25" d="M490.66,590.77c-2.9,4.67-5.12,10.07-6.66,15.93-1.55-5.86-3.76-11.26-6.66-15.93,0,16.68-.23,5.33-.11,14.9.21,16.61,1.46,15.58,6.77,24.51,5.31-8.93,6.56-7.9,6.77-24.51.12-9.57-.11,1.78-.11-14.9Z"/>
    </g>
    <g>
      <line class="cls-18" x1="988.66" y1="296.6" x2="988.66" y2="146.1"/>
      <g>
        <path class="cls-29" d="M993.06,94.51c-5.08,7.78-6.66,19.15-4.16,30.56,5.11-7.76,6.63-19.16,4.16-30.56h0Z"/>
        <path class="cls-29" d="M982.85,82.42c5.08,7.78,6.66,19.15,4.16,30.56-5.11-7.76-6.63-19.16-4.16-30.56h0Z"/>
        <g>
          <path class="cls-29" d="M981.49,102.01c7,13.75,9.44,31.26,6.37,46.38-7.03-13.73-9.4-31.25-6.37-46.38h0Z"/>
          <path class="cls-29" d="M993.3,117.47c2.9,13.08,1.12,28.33-4.81,40.35-2.94-13.08-1.09-28.31,4.81-40.35h0Z"/>
        </g>
      </g>
      <g>
        <path class="cls-29" d="M982.6,268c6.65,13.16,9.15,29.83,6.55,44.16-6.68-13.15-9.12-29.83-6.55-44.16h0Z"/>
        <path class="cls-29" d="M993.22,277.25c2.67,11.14,1.03,24.13-4.42,34.37-2.7-11.14-1-24.12,4.42-34.37h0Z"/>
      </g>
      <g>
        <path class="cls-29" d="M982.6,170c6.65,13.16,9.15,29.83,6.55,44.16-6.68-13.15-9.12-29.83-6.55-44.16h0Z"/>
        <path class="cls-29" d="M993.22,179.25c2.67,11.14,1.03,24.13-4.42,34.37-2.7-11.14-1-24.12,4.42-34.37h0Z"/>
      </g>
    </g>
    <g>
      <line class="cls-17" x1="480" y1="632.52" x2="480" y2="503.17"/>
      <path class="cls-19" d="M486.66,593.77c-2.9,4.67-5.12,10.07-6.66,15.93-1.55-5.86-3.76-11.26-6.66-15.93,0,16.68-.23,5.33-.11,14.9.21,16.61,1.46,15.58,6.77,24.51,5.31-8.93,6.56-7.9,6.77-24.51.12-9.57-.11,1.78-.11-14.9Z"/>
      <path class="cls-19" d="M480,489.36c6.1,13.85,6.14,30.65,0,44.49-6.14-13.84-6.1-30.64,0-44.49h0Z"/>
    </g>
    <g>
      <line class="cls-2" x1="389" y1="625.52" x2="389" y2="496.17"/>
      <path class="cls-26" d="M395.66,590.77c-2.9,4.67-5.12,10.07-6.66,15.93-1.55-5.86-3.76-11.26-6.66-15.93,0,16.68-.23,5.33-.11,14.9.21,16.61,1.46,15.58,6.77,24.51,5.31-8.93,6.56-7.9,6.77-24.51.12-9.57-.11,1.78-.11-14.9Z"/>
      <path class="cls-26" d="M389,483.36c6.1,13.85,6.14,30.65,0,44.49-6.14-13.84-6.1-30.64,0-44.49h0Z"/>
    </g>
    <g>
      <line class="cls-4" x1="1139.66" y1="521.6" x2="1139.66" y2="407.1"/>
      <g>
        <path class="cls-14" d="M1133.12,493.95c6.3,7.44,9.46,19.36,6.91,28.7-6.33-7.43-9.43-19.36-6.91-28.7h0Z"/>
        <line class="cls-14" x1="1136.81" y1="511.71" x2="1131.25" y2="486.28"/>
        <path class="cls-14" d="M1146.15,493.95c-6.3,7.44-9.46,19.36-6.91,28.7,6.33-7.43,9.43-19.36,6.91-28.7h0Z"/>
        <line class="cls-14" x1="1142.46" y1="511.71" x2="1148.02" y2="486.28"/>
      </g>
      <g>
        <path class="cls-14" d="M1133.12,388.95c6.3,7.44,9.46,19.36,6.91,28.7-6.33-7.43-9.43-19.36-6.91-28.7h0Z"/>
        <line class="cls-14" x1="1136.81" y1="406.71" x2="1131.25" y2="381.28"/>
        <path class="cls-14" d="M1146.15,388.95c-6.3,7.44-9.46,19.36-6.91,28.7,6.33-7.43,9.43-19.36,6.91-28.7h0Z"/>
        <line class="cls-14" x1="1142.46" y1="406.71" x2="1148.02" y2="381.28"/>
      </g>
    </g>
    <g>
      <line class="cls-18" x1="1089.31" y1="639.7" x2="1088.01" y2="504.5"/>
      <g>
        <path class="cls-29" d="M1082.1,487c6.65,13.16,9.15,29.83,6.55,44.16-6.68-13.15-9.12-29.83-6.55-44.16h0Z"/>
        <path class="cls-29" d="M1092.72,496.25c2.67,11.14,1.03,24.13-4.42,34.37-2.7-11.14-1-24.12,4.42-34.37h0Z"/>
      </g>
      <g>
        <path class="cls-29" d="M1093.45,591.23c-5.06,7.74-6.63,19.06-4.14,30.42,5.08-7.73,6.6-19.07,4.14-30.42h0Z"/>
        <path class="cls-29" d="M1083.27,579.08c5.06,7.76,6.64,19.1,4.15,30.47-5.09-7.74-6.61-19.1-4.15-30.47h0Z"/>
        <g>
          <path class="cls-29" d="M1081.93,598.69c6.97,13.68,9.4,31.11,6.34,46.16-7-13.67-9.36-31.11-6.34-46.16h0Z"/>
          <path class="cls-29" d="M1093.68,614.09c2.89,13.02,1.11,28.19-4.79,40.16-2.92-13.02-1.08-28.18,4.79-40.16h0Z"/>
        </g>
      </g>
    </g>
    <g>
      <line class="cls-9" x1="385" y1="630.52" x2="385" y2="501.17"/>
      <path class="cls-32" d="M391.66,595.77c-2.9,4.67-5.12,10.07-6.66,15.93-1.55-5.86-3.76-11.26-6.66-15.93,0,16.68-.23,5.33-.11,14.9.21,16.61,1.46,15.58,6.77,24.51,5.31-8.93,6.56-7.9,6.77-24.51.12-9.57-.11,1.78-.11-14.9Z"/>
      <path class="cls-32" d="M385,487.36c6.1,13.85,6.14,30.65,0,44.49-6.14-13.84-6.1-30.64,0-44.49h0Z"/>
    </g>
    <g>
      <line class="cls-2" x1="1396.05" y1="617.1" x2="1396.05" y2="504.46"/>
      <path class="cls-26" d="M1402.71,587.05c-2.9,4.67-5.12,10.07-6.66,15.93-1.55-5.86-3.76-11.26-6.66-15.93,0,16.68-.23,5.33-.11,14.9.21,16.61,1.46,15.58,6.77,24.51,5.31-8.93,6.56-7.9,6.77-24.51.12-9.57-.11,1.78-.11-14.9Z"/>
      <path class="cls-26" d="M1396.05,490.65c6.1,13.85,6.14,30.65,0,44.49-6.14-13.84-6.1-30.64,0-44.49h0Z"/>
    </g>
    <g>
      <line class="cls-9" x1="1392.05" y1="618.1" x2="1392.05" y2="511.46"/>
      <path class="cls-32" d="M1398.71,594.05c-2.9,4.67-5.12,10.07-6.66,15.93-1.55-5.86-3.76-11.26-6.66-15.93,0,16.68-.23,5.33-.11,14.9.21,16.61,1.46,15.58,6.77,24.51,5.31-8.93,6.56-7.9,6.77-24.51.12-9.57-.11,1.78-.11-14.9Z"/>
      <path class="cls-32" d="M1392.05,497.65c6.1,13.85,6.14,30.65,0,44.49-6.14-13.84-6.1-30.64,0-44.49h0Z"/>
    </g>
    <g>
      <line class="cls-7" x1="670.02" y1="626.52" x2="670.02" y2="497.17"/>
      <g>
        <path class="cls-24" d="M676.81,680.33c-6.84,10.47-8.96,25.79-5.61,41.15,6.87-10.45,8.93-25.8,5.61-41.15h0Z"/>
        <path class="cls-24" d="M676.81,649.08c-6.84,10.47-8.96,25.79-5.61,41.15,6.87-10.45,8.93-25.8,5.61-41.15h0Z"/>
        <path class="cls-24" d="M663.06,664.05c6.84,10.47,8.96,25.79,5.61,41.15-6.87-10.45-8.93-25.8-5.61-41.15h0Z"/>
        <path class="cls-24" d="M663.06,632.81c6.84,10.47,8.96,25.79,5.61,41.15-6.87-10.45-8.93-25.8-5.61-41.15h0Z"/>
        <path class="cls-24" d="M676.81,617.83c-6.84,10.47-8.96,25.79-5.61,41.15,6.87-10.45,8.93-25.8,5.61-41.15h0Z"/>
        <path class="cls-24" d="M676.81,586.58c-6.84,10.47-8.96,25.79-5.61,41.15,6.87-10.45,8.93-25.8,5.61-41.15h0Z"/>
        <path class="cls-24" d="M663.06,601.56c6.84,10.47,8.96,25.79,5.61,41.15-6.87-10.45-8.93-25.8-5.61-41.15h0Z"/>
        <path class="cls-24" d="M663.06,570.31c6.84,10.47,8.96,25.79,5.61,41.15-6.87-10.45-8.93-25.8-5.61-41.15h0Z"/>
      </g>
      <path class="cls-24" d="M669.66,489.36c6.1,13.85,6.14,30.65,0,44.49-6.14-13.84-6.1-30.64,0-44.49h0Z"/>
    </g>
    <g>
      <line class="cls-11" x1="105.16" y1="403.1" x2="105.16" y2="298.1"/>
      <g>
        <path class="cls-31" d="M113.11,276.11c-3.35,4.13-6.03,8.9-7.82,14.09-1.78-5.18-4.47-9.96-7.82-14.09v3.42c0,14.69,1.69,22.14,7.82,30.04,6.13-7.9,7.82-15.35,7.82-30.04v-3.42Z"/>
        <path class="cls-31" d="M113.11,380.11c-3.35,4.13-6.03,8.9-7.82,14.09-1.78-5.18-4.47-9.96-7.82-14.09v3.42c0,14.69,1.69,22.14,7.82,30.04,6.13-7.9,7.82-15.35,7.82-30.04v-3.42Z"/>
      </g>
    </g>
    <g>
      <path class="cls-10" d="M1668.38,585.17c.33,11.92-5.72,25.87-15.24,33.07-.37-11.93,5.76-25.85,15.24-33.07h0Z"/>
      <path class="cls-10" d="M1668.38,598.47c.33,11.92-5.72,25.87-15.24,33.07-.37-11.93,5.76-25.85,15.24-33.07h0Z"/>
      <path class="cls-10" d="M1647.63,601.97c-.33,11.92,5.72,25.87,15.24,33.07.37-11.93-5.76-25.85-15.24-33.07h0Z"/>
      <path class="cls-10" d="M1668.36,612.03c.24,8.71-2.92,18.5-8.36,25.95-2.11,2.89-6.66.8-5.85-2.69,2.11-9.07,7.26-17.97,14.21-23.26h0Z"/>
      <path class="cls-10" d="M1647.63,615.27c-.33,11.92,5.72,25.87,15.24,33.07.37-11.93-5.76-25.85-15.24-33.07h0Z"/>
      <path class="cls-10" d="M1647.63,588.67c-.33,11.92,5.72,25.87,15.24,33.07.37-11.93-5.76-25.85-15.24-33.07h0Z"/>
      <g>
        <path class="cls-22" d="M1667.96,703.48c.17,6.02-1.39,12.59-4.24,18.44-2.18,4.46-8.97,1.53-7.08-3.06,2.53-6.11,6.46-11.67,11.32-15.37h0Z"/>
        <path class="cls-22" d="M1649.97,701.71c-.31,11.28,5.41,24.48,14.42,31.29.35-11.29-5.45-24.46-14.42-31.29h0Z"/>
      </g>
      <g>
        <path class="cls-22" d="M1667.96,499.48c.17,6.02-1.39,12.59-4.24,18.44-2.18,4.46-8.97,1.53-7.08-3.06,2.53-6.11,6.46-11.67,11.32-15.37h0Z"/>
        <path class="cls-22" d="M1649.97,497.71c-.31,11.28,5.41,24.48,14.42,31.29.35-11.29-5.45-24.46-14.42-31.29h0Z"/>
      </g>
      <line class="cls-12" x1="1658.66" y1="718.1" x2="1658.66" y2="512.1"/>
    </g>
  </g>
  <g id="duiyin">
    <rect class="cls-20" x="605.06" width="943.84" height="350.03"/>
    <line class="cls-15" x1="1148.04" y1="268.63" x2="1148.04" y2="319.57"/>
    <line class="cls-15" x1="1355.04" y1="268.63" x2="1355.04" y2="319.57"/>
    <line class="cls-15" x1="1467.04" y1="268.63" x2="1467.04" y2="319.57"/>
    <line class="cls-15" x1="1253.04" y1="165" x2="1253.04" y2="319.57"/>
    <g>
      <line class="cls-17" x1="1252.75" y1="175.95" x2="1252.75" y2="46.6"/>
      <path class="cls-19" d="M1259.41,137.19c-2.9,4.67-5.12,10.07-6.66,15.93-1.55-5.86-3.76-11.26-6.66-15.93,0,16.68-.23,5.33-.11,14.9.21,16.61,1.46,15.58,6.77,24.51,5.31-8.93,6.56-7.9,6.77-24.51.12-9.57-.11,1.78-.11-14.9Z"/>
      <path class="cls-19" d="M1252.75,32.79c6.1,13.85,6.14,30.65,0,44.49-6.14-13.84-6.1-30.64,0-44.49h0Z"/>
    </g>
    <g>
      <line class="cls-5" x1="1354.6" y1="266" x2="1354.6" y2="46.6"/>
      <path class="cls-3" d="M1361.12,137.19c-2.84,4.67-5.01,10.07-6.52,15.93-1.51-5.86-3.68-11.26-6.52-15.93,0,16.68-.22,5.33-.11,14.9.2,16.61,1.43,15.58,6.62,24.51,5.19-8.93,6.42-7.9,6.62-24.51.12-9.57-.11,1.78-.11-14.9Z"/>
      <path class="cls-3" d="M1361.12,241.87c-2.84,4.67-5.01,10.07-6.52,15.93-1.51-5.86-3.68-11.26-6.52-15.93,0,16.68-.22,5.33-.11,14.9.2,16.61,1.43,15.58,6.62,24.51,5.19-8.93,6.42-7.9,6.62-24.51.12-9.57-.11,1.78-.11-14.9Z"/>
      <path class="cls-3" d="M1354.6,32.79c5.96,13.85,6.01,30.65,0,44.49-6.01-13.84-5.96-30.64,0-44.49h0Z"/>
      <line class="cls-5" x1="1466.6" y1="266" x2="1466.6" y2="46.6"/>
      <path class="cls-3" d="M1473.12,241.87c-2.84,4.67-5.01,10.07-6.52,15.93-1.51-5.86-3.68-11.26-6.52-15.93,0,16.68-.22,5.33-.11,14.9.2,16.61,1.43,15.58,6.62,24.51,5.19-8.93,6.42-7.9,6.62-24.51.12-9.57-.11,1.78-.11-14.9Z"/>
      <path class="cls-3" d="M1466.6,32.79c5.96,13.85,6.01,30.65,0,44.49-6.01-13.84-5.96-30.64,0-44.49h0Z"/>
    </g>
    <g>
      <line class="cls-11" x1="1147.91" y1="265.52" x2="1147.91" y2="160.52"/>
      <g>
        <path class="cls-31" d="M1155.86,138.53c-3.35,4.13-6.03,8.9-7.82,14.09-1.78-5.18-4.47-9.96-7.82-14.09v3.42c0,14.69,1.69,22.14,7.82,30.04,6.13-7.9,7.82-15.35,7.82-30.04v-3.42Z"/>
        <path class="cls-31" d="M1155.86,242.53c-3.35,4.13-6.03,8.9-7.82,14.09-1.78-5.18-4.47-9.96-7.82-14.09v3.42c0,14.69,1.69,22.14,7.82,30.04,6.13-7.9,7.82-15.35,7.82-30.04v-3.42Z"/>
      </g>
    </g>
    <polyline class="cls-1" points="1044.26 33 1044.26 319.57 1512.26 319.57"/>
    <circle class="cls-19" cx="1011.26" cy="264" r="7"/>
    <text class="cls-27" transform="translate(984.51 294.57)"><tspan x="0" y="0">地区一</tspan></text>
    <circle class="cls-19" cx="1011.26" cy="161" r="7"/>
    <text class="cls-27" transform="translate(984.51 191.57)"><tspan x="0" y="0">地区二</tspan></text>
    <circle class="cls-19" cx="1011.26" cy="58" r="7"/>
    <text class="cls-27" transform="translate(984.51 88.57)"><tspan x="0" y="0">地区三</tspan></text>
    <text class="cls-28" transform="translate(670.02 171.51)"><tspan x="0" y="0">粗线链接两个稻谷代表</tspan><tspan x="12" y="28.8">同一节日在多地发展</tspan></text>
  </g>
</svg>