<?xml version="1.0" encoding="UTF-8"?>
<svg id="_图层_2" data-name="图层 2" xmlns="http://www.w3.org/2000/svg" viewBox="0 0 842.24 289.55">
  <defs>
    <style>
      .cls-1 {
        stroke: #0b6535;
        stroke-width: 3px;
      }

      .cls-1, .cls-2, .cls-3, .cls-4, .cls-5, .cls-6 {
        stroke-miterlimit: 10;
      }

      .cls-1, .cls-4, .cls-5, .cls-6 {
        fill: none;
      }

      .cls-7 {
        fill: #6bab69;
      }

      .cls-2, .cls-3 {
        fill: #3c7c3a;
        stroke: #3c803b;
      }

      .cls-3, .cls-4, .cls-5, .cls-6 {
        stroke-dasharray: 24 .5 1 .5;
      }

      .cls-3, .cls-4, .cls-6 {
        stroke-width: 2px;
      }

      .cls-4, .cls-5 {
        stroke: #7faa67;
      }

      .cls-8 {
        font-size: 18px;
      }

      .cls-8, .cls-9 {
        fill: #231815;
        font-family: MiSans-Normal, 'MiSans Normal';
      }

      .cls-5 {
        stroke-width: .5px;
      }

      .cls-9 {
        font-size: 24px;
      }

      .cls-6 {
        stroke: #6bab69;
      }

      .cls-10 {
        fill: #9dce83;
      }
    </style>
  </defs>
  <g id="_图层_1-2" data-name="图层 1">
    <line class="cls-5" x1="478.03" y1="237.1" x2="478.03" y2="288.05"/>
    <line class="cls-5" x1="685.03" y1="237.1" x2="685.03" y2="288.05"/>
    <line class="cls-5" x1="797.03" y1="237.1" x2="797.03" y2="288.05"/>
    <line class="cls-5" x1="583.03" y1="133.48" x2="583.03" y2="288.05"/>
    <g>
      <line class="cls-6" x1="582.73" y1="144.43" x2="582.73" y2="15.08"/>
      <path class="cls-7" d="M589.39,105.67c-2.9,4.67-5.12,10.07-6.66,15.93-1.55-5.86-3.76-11.26-6.66-15.93,0,16.68-.23,5.33-.11,14.9.21,16.61,1.46,15.58,6.77,24.51,5.31-8.93,6.56-7.9,6.77-24.51.12-9.57-.11,1.78-.11-14.9Z"/>
      <path class="cls-7" d="M582.73,1.26c6.1,13.85,6.14,30.65,0,44.49-6.14-13.84-6.1-30.64,0-44.49h0Z"/>
    </g>
    <g>
      <line class="cls-3" x1="684.58" y1="234.48" x2="684.58" y2="15.08"/>
      <path class="cls-2" d="M691.1,105.67c-2.84,4.67-5.01,10.07-6.52,15.93-1.51-5.86-3.68-11.26-6.52-15.93,0,16.68-.22,5.33-.11,14.9.2,16.61,1.43,15.58,6.62,24.51,5.19-8.93,6.42-7.9,6.62-24.51.12-9.57-.11,1.78-.11-14.9Z"/>
      <path class="cls-2" d="M691.1,210.35c-2.84,4.67-5.01,10.07-6.52,15.93-1.51-5.86-3.68-11.26-6.52-15.93,0,16.68-.22,5.33-.11,14.9.2,16.61,1.43,15.58,6.62,24.51,5.19-8.93,6.42-7.9,6.62-24.51.12-9.57-.11,1.78-.11-14.9Z"/>
      <path class="cls-2" d="M684.58,1.26c5.96,13.85,6.01,30.65,0,44.49-6.01-13.84-5.96-30.64,0-44.49h0Z"/>
      <line class="cls-3" x1="796.58" y1="234.48" x2="796.58" y2="15.08"/>
      <path class="cls-2" d="M803.1,210.35c-2.84,4.67-5.01,10.07-6.52,15.93-1.51-5.86-3.68-11.26-6.52-15.93,0,16.68-.22,5.33-.11,14.9.2,16.61,1.43,15.58,6.62,24.51,5.19-8.93,6.42-7.9,6.62-24.51.12-9.57-.11,1.78-.11-14.9Z"/>
      <path class="cls-2" d="M796.58,1.26c5.96,13.85,6.01,30.65,0,44.49-6.01-13.84-5.96-30.64,0-44.49h0Z"/>
    </g>
    <g>
      <line class="cls-4" x1="477.9" y1="234" x2="477.9" y2="129"/>
      <g>
        <path class="cls-10" d="M485.84,107.01c-3.35,4.13-6.03,8.9-7.82,14.09-1.78-5.18-4.47-9.96-7.82-14.09v3.42c0,14.69,1.69,22.14,7.82,30.04,6.13-7.9,7.82-15.35,7.82-30.04v-3.42Z"/>
        <path class="cls-10" d="M485.84,211.01c-3.35,4.13-6.03,8.9-7.82,14.09-1.78-5.18-4.47-9.96-7.82-14.09v3.42c0,14.69,1.69,22.14,7.82,30.04,6.13-7.9,7.82-15.35,7.82-30.04v-3.42Z"/>
      </g>
    </g>
    <polyline class="cls-1" points="374.24 1.48 374.24 288.05 842.24 288.05"/>
    <circle class="cls-7" cx="341.24" cy="232.48" r="7"/>
    <text class="cls-8" transform="translate(314.49 263.04)"><tspan x="0" y="0">地区一</tspan></text>
    <circle class="cls-7" cx="341.24" cy="129.48" r="7"/>
    <text class="cls-8" transform="translate(314.49 160.04)"><tspan x="0" y="0">地区二</tspan></text>
    <circle class="cls-7" cx="341.24" cy="26.48" r="7"/>
    <text class="cls-8" transform="translate(314.49 57.04)"><tspan x="0" y="0">地区三</tspan></text>
    <text class="cls-9" transform="translate(0 139.99)"><tspan x="0" y="0">粗线链接两个稻谷代表</tspan><tspan x="12" y="28.8">同一节日在多地发展</tspan></text>
  </g>
</svg>