<?xml version="1.0" encoding="UTF-8"?>
<svg id="_图层_2" data-name="图层 2" xmlns="http://www.w3.org/2000/svg" viewBox="0 0 1074.32 323.41">
  <defs>
    <style>
      .cls-1, .cls-2 {
        font-size: 31.78px;
      }

      .cls-1, .cls-2, .cls-3, .cls-4 {
        fill: #231815;
      }

      .cls-1, .cls-3, .cls-4 {
        font-family: MiSans-Normal, 'MiSans Normal';
      }

      .cls-2 {
        font-family: MiSans-Medium, 'MiSans Medium';
        font-weight: 500;
      }

      .cls-5, .cls-6 {
        fill: #2f823a;
      }

      .cls-6, .cls-7, .cls-8, .cls-9 {
        font-family: MiSans-Demibold, 'MiSans Demibold';
        font-size: 95.49px;
        font-weight: 300;
      }

      .cls-10, .cls-8 {
        fill: #c5a673;
      }

      .cls-3 {
        font-size: 47.66px;
      }

      .cls-7, .cls-11 {
        fill: #82c47c;
      }

      .cls-12, .cls-9 {
        fill: #967566;
      }

      .cls-4 {
        font-size: 24px;
      }
    </style>
  </defs>
  <g id="_图层_1-2" data-name="图层 1">
    <text class="cls-3" transform="translate(39.9 226.57)"><tspan x="0" y="0">春</tspan></text>
    <text class="cls-1" transform="translate(0 27.96)"><tspan x="0" y="0">节日数量</tspan></text>
    <text class="cls-7" transform="translate(2.84 121.55)"><tspan x="0" y="0">50</tspan></text>
    <text class="cls-2" transform="translate(30 173.95)"><tspan x="0" y="0">36%</tspan></text>
    <text class="cls-3" transform="translate(300.62 226.57)"><tspan x="0" y="0">夏</tspan></text>
    <text class="cls-1" transform="translate(260.76 27.96)"><tspan x="0" y="0">节日数量</tspan></text>
    <text class="cls-6" transform="translate(265.65 121.55)"><tspan x="0" y="0">35</tspan></text>
    <text class="cls-2" transform="translate(291.33 173.95)"><tspan x="0" y="0">25%</tspan></text>
    <text class="cls-3" transform="translate(725.04 226.57)"><tspan x="0" y="0">秋</tspan></text>
    <text class="cls-1" transform="translate(685.06 27.96)"><tspan x="0" y="0">节日数量</tspan></text>
    <text class="cls-8" transform="translate(691.77 121.55)"><tspan x="0" y="0">32</tspan></text>
    <text class="cls-2" transform="translate(716.17 173.95)"><tspan x="0" y="0">23%</tspan></text>
    <text class="cls-3" transform="translate(986.85 226.57)"><tspan x="0" y="0">冬</tspan></text>
    <text class="cls-1" transform="translate(947.21 27.96)"><tspan x="0" y="0">节日数量</tspan></text>
    <text class="cls-9" transform="translate(964.14 121.55)"><tspan x="0" y="0">21</tspan></text>
    <text class="cls-2" transform="translate(980.02 173.95)"><tspan x="0" y="0">15%</tspan></text>
    <g>
      <g id="viz">
        <path class="cls-11" d="M459.04,86.91c.14-41.31,33.75-74.69,75.07-74.55,17.6.06,34.62,6.33,48.06,17.7l-24.09,28.27c-15.92-13.38-39.68-11.32-53.06,4.61-5.64,6.72-8.77,15.2-8.83,23.97h-37.14Z"/>
        <path class="cls-5" d="M582.56,30.4c31.35,26.9,34.96,74.13,8.05,105.48-.26.3-.52.6-.78.89l-27.72-24.73c13.74-15.62,12.22-39.41-3.4-53.15-.08-.07-.17-.15-.25-.22l24.09-28.27Z"/>
        <path class="cls-10" d="M589.49,137.17c-25.28,28.14-67.59,32.98-98.57,11.27l21.42-30.35c15.55,10.82,36.73,8.4,49.44-5.65l27.72,24.73Z"/>
        <path class="cls-12" d="M490.5,148.13c-19.66-13.98-31.37-36.58-31.45-60.7h37.14c.08,12.05,5.93,23.34,15.73,30.36l-21.42,30.35Z"/>
      </g>
      <g id="viz-2" data-name="viz">
        <path class="cls-11" d="M510.68,87.09c.04-12.8,10.45-23.13,23.25-23.09,5.45.02,10.72,1.96,14.89,5.48l-7.46,8.76c-4.93-4.14-12.29-3.51-16.44,1.43-1.75,2.08-2.72,4.71-2.73,7.42h-11.5Z"/>
        <path class="cls-5" d="M548.94,69.59c9.71,8.33,10.83,22.96,2.49,32.67-.08.09-.16.18-.24.28l-8.58-7.66c4.26-4.84,3.78-12.21-1.05-16.46-.03-.02-.05-.05-.08-.07l7.46-8.76Z"/>
        <path class="cls-10" d="M551.08,102.66c-7.83,8.72-20.94,10.21-30.53,3.49l6.63-9.4c4.82,3.35,11.38,2.6,15.31-1.75l8.58,7.66Z"/>
        <path class="cls-12" d="M520.42,106.05c-6.09-4.33-9.72-11.33-9.74-18.8h11.5c.03,3.73,1.84,7.23,4.87,9.4l-6.63,9.4Z"/>
      </g>
      <g>
        <path class="cls-11" d="M519.3,74.95c6.75-8.03,18.73-9.07,26.77-2.32l12.15-14.26c-6.78-5.74-15.36-8.9-24.24-8.93-20.84-.07-37.79,16.76-37.86,37.6h18.74c.03-4.43,1.61-8.7,4.45-12.09Z"/>
        <path class="cls-5" d="M558.42,58.54l-12.15,14.26s.09.07.13.11c7.88,6.93,8.64,18.94,1.71,26.81l13.98,12.47c.13-.15.26-.3.39-.45,13.57-15.82,11.75-39.64-4.06-53.21Z"/>
        <path class="cls-10" d="M523,102.77l-10.8,15.31c15.63,10.95,36.97,8.51,49.72-5.68l-13.98-12.47c-6.41,7.09-17.09,8.31-24.94,2.85Z"/>
        <path class="cls-12" d="M514.85,87.3h-18.74c.04,12.17,5.95,23.57,15.87,30.62l10.8-15.31c-4.94-3.54-7.89-9.23-7.93-15.31Z"/>
        <path class="cls-11" d="M526.7,81.16c3.32-3.95,9.21-4.46,13.16-1.14l5.97-7.01c-3.33-2.82-7.55-4.37-11.92-4.39-10.24-.04-18.58,8.24-18.61,18.48h9.21c.02-2.18.79-4.28,2.19-5.94Z"/>
        <path class="cls-5" d="M547.92,99.25c6.67-7.77,5.78-19.48-2-26.15l-5.97,7.01s.04.04.06.06c3.87,3.41,4.25,9.31.84,13.18l6.87,6.13c.06-.07.13-.15.19-.22Z"/>
        <path class="cls-10" d="M547.64,99.57l-6.87-6.13c-3.15,3.48-8.4,4.08-12.26,1.4l-5.31,7.52c7.68,5.38,18.17,4.18,24.44-2.79Z"/>
        <path class="cls-12" d="M523.1,102.29l5.31-7.52c-2.43-1.74-3.88-4.54-3.9-7.53h-9.21c.02,5.98,2.92,11.58,7.8,15.05Z"/>
      </g>
      <g>
        <path class="cls-11" d="M530.02,83.96c1.78-2.11,4.93-2.39,7.04-.61l3.2-3.75c-1.78-1.51-4.04-2.34-6.38-2.35-5.48-.02-9.95,4.41-9.96,9.9h4.93c0-1.16.42-2.29,1.17-3.18Z"/>
        <path class="cls-5" d="M540.31,79.64l-3.2,3.75s.02.02.03.03c2.07,1.82,2.27,4.98.45,7.06l3.68,3.28s.07-.08.1-.12c3.57-4.16,3.09-10.43-1.07-14Z"/>
        <path class="cls-10" d="M530.99,91.28l-2.84,4.03c4.11,2.88,9.73,2.24,13.08-1.5l-3.68-3.28c-1.69,1.87-4.5,2.19-6.56.75Z"/>
        <path class="cls-12" d="M528.85,87.21h-4.93c.01,3.2,1.57,6.2,4.18,8.06l2.84-4.03c-1.3-.93-2.08-2.43-2.09-4.03Z"/>
        <path class="cls-11" d="M531.97,85.59c.87-1.04,2.42-1.17,3.46-.3l1.57-1.84c-.88-.74-1.99-1.15-3.14-1.15-2.7,0-4.89,2.17-4.9,4.86h2.42c0-.57.21-1.13.58-1.56Z"/>
        <path class="cls-5" d="M537.55,90.35c1.76-2.05,1.52-5.13-.53-6.88l-1.57,1.84s.01,0,.02.01c1.02.9,1.12,2.45.22,3.47l1.81,1.61s.03-.04.05-.06Z"/>
        <path class="cls-10" d="M537.48,90.43l-1.81-1.61c-.83.92-2.21,1.07-3.23.37l-1.4,1.98c2.02,1.42,4.78,1.1,6.43-.74Z"/>
        <path class="cls-12" d="M531.02,91.15l1.4-1.98c-.64-.46-1.02-1.19-1.03-1.98h-2.42c0,1.57.77,3.05,2.05,3.96Z"/>
      </g>
      <g>
        <path class="cls-11" d="M532.57,86.1c.59-.7,1.64-.8,2.35-.2l1.07-1.25c-.59-.5-1.35-.78-2.13-.78-1.83,0-3.32,1.47-3.32,3.3h1.64c0-.39.14-.76.39-1.06Z"/>
        <path class="cls-5" d="M536,84.66l-1.07,1.25s0,0,.01,0c.69.61.76,1.66.15,2.35l1.23,1.09s.02-.03.03-.04c1.19-1.39,1.03-3.48-.36-4.67Z"/>
        <path class="cls-10" d="M532.9,88.54l-.95,1.34c1.37.96,3.24.75,4.36-.5l-1.23-1.09c-.56.62-1.5.73-2.19.25Z"/>
        <path class="cls-12" d="M532.18,87.18h-1.64c0,1.07.52,2.07,1.39,2.69l.95-1.34c-.43-.31-.69-.81-.7-1.34Z"/>
        <path class="cls-11" d="M533.22,86.65c.29-.35.81-.39,1.15-.1l.52-.61c-.29-.25-.66-.38-1.05-.38-.9,0-1.63.72-1.63,1.62h.81c0-.19.07-.38.19-.52Z"/>
        <path class="cls-5" d="M535.08,88.23c.59-.68.51-1.71-.18-2.29l-.52.61s0,0,0,0c.34.3.37.82.07,1.16l.6.54s.01-.01.02-.02Z"/>
        <path class="cls-10" d="M535.06,88.26l-.6-.54c-.28.31-.74.36-1.08.12l-.47.66c.67.47,1.59.37,2.14-.25Z"/>
        <path class="cls-12" d="M532.91,88.5l.47-.66c-.21-.15-.34-.4-.34-.66h-.81c0,.52.26,1.02.68,1.32Z"/>
      </g>
    </g>
    <text class="cls-4" transform="translate(149 316.62)"><tspan x="0" y="0">从季节上看，春季的农耕节日最多，夏、秋节日数量接近，冬季节日较少</tspan></text>
  </g>
</svg>