<?xml version="1.0" encoding="UTF-8"?>
<svg id="_图层_2" data-name="图层 2" xmlns="http://www.w3.org/2000/svg" viewBox="0 0 854.43 239.85">
  <defs>
    <style>
      .cls-1 {
        fill: #cabc83;
        stroke: #f4f3f2;
        stroke-width: .5px;
      }

      .cls-1, .cls-2, .cls-3 {
        stroke-miterlimit: 10;
      }

      .cls-4 {
        fill: #378d39;
      }

      .cls-5 {
        fill: #967566;
      }

      .cls-6 {
        fill: #579140;
      }

      .cls-7 {
        fill: #82c47c;
      }

      .cls-8 {
        fill: #231815;
        font-family: MiSans-Normal, 'MiSans Normal';
        font-size: 24px;
      }

      .cls-2 {
        stroke: #cabc83;
        stroke-width: .75px;
      }

      .cls-2, .cls-3 {
        fill: none;
      }

      .cls-3 {
        stroke: #378d39;
        stroke-width: 1.5px;
      }
    </style>
  </defs>
  <g id="_图层_1-2" data-name="图层 1">
    <g>
      <path class="cls-4" d="M395.61,67.13c-4.83,5.96-8.52,12.84-11.09,20.31-2.57-7.47-6.27-14.36-11.09-20.31,0,21.27-.38,16.84-.18,29.05.35,21.18,2.44,31.93,11.27,43.32,8.84-11.39,10.93-22.13,11.27-43.32.2-12.21-.18-7.79-.18-29.05Z"/>
      <path class="cls-4" d="M395.79,34.01c-4.83,5.96-8.7,12.84-11.27,20.31-2.57-7.47-6.45-14.36-11.27-20.31,0,4.02-.2-7.28,0,4.93.35,21.18,2.44,31.93,11.27,43.32,8.84-11.39,10.93-22.13,11.27-43.32.2-12.21,0-.91,0-4.93Z"/>
      <path class="cls-4" d="M395.79.94c-4.83,5.96-8.7,12.84-11.27,20.31-2.57-7.47-6.45-14.36-11.27-20.31,0,4.02-.2-7.28,0,4.93.35,21.18,2.44,31.93,11.27,43.32,8.84-11.39,10.93-22.13,11.27-43.32.2-12.21,0-.91,0-4.93Z"/>
    </g>
    <path class="cls-4" d="M197.41,53.14c-6.56,9.86-11.82,21.26-15.31,33.64-3.49-12.38-8.76-23.78-15.31-33.64,0,6.66-.27-12.06,0,8.17.47,35.08,3.31,52.88,15.31,71.74,12.01-18.86,14.84-36.65,15.31-71.74.27-20.22,0-1.51,0-8.17Z"/>
    <g>
      <path class="cls-4" d="M301.34,66.22c-4.89,6.03-8.63,13-11.23,20.57-2.6-7.57-6.34-14.54-11.23-20.57,0,21.54-.38,17.06-.18,29.42.35,21.45,2.47,32.33,11.41,43.86,8.95-11.53,11.06-22.41,11.41-43.86.2-12.36-.18-7.88-.18-29.42Z"/>
      <path class="cls-4" d="M301.55,33c-4.89,6.03-8.81,13-11.41,20.57-2.6-7.57-6.53-14.54-11.41-20.57,0,4.07-.2-7.37,0,4.99.35,21.45,2.47,32.33,11.41,43.86,8.95-11.53,11.06-22.41,11.41-43.86.2-12.36,0-.92,0-4.99Z"/>
    </g>
    <path class="cls-4" d="M85.57,58c10.41,23.66,10.49,52.37,0,76.02-10.49-23.65-10.42-52.35,0-76.02h0Z"/>
    <path class="cls-1" d="M725.24,42.2c14.82,17.51,22.27,45.57,16.28,67.55-14.89-17.48-22.19-45.57-16.28-67.55h0Z"/>
    <line class="cls-2" x1="734.71" y1="86.87" x2="721.63" y2="27"/>
    <path class="cls-1" d="M758.67,42.2c-14.82,17.51-22.27,45.57-16.28,67.55,14.89-17.48,22.19-45.57,16.28-67.55h0Z"/>
    <line class="cls-2" x1="749.2" y1="86.87" x2="762.29" y2="27"/>
    <path class="cls-5" d="M854.4,43.7c-7.28,5.54-13.66,12.86-18.88,21.15-5.69-10.45-13.16-19.73-21.94-26.41-.74,26.54,12.75,57.62,33.95,73.65.25-8.11-.86-16.63-3.1-25.01,6.71-13.77,10.37-29.22,9.97-43.38Z"/>
    <path class="cls-7" d="M581.8,39.13c-5.45,8.79-9.83,18.95-12.74,29.98-2.91-11.03-7.29-21.19-12.74-29.98,0,5.93-.23-10.74,0,7.28.39,31.27,2.75,47.13,12.74,63.93,9.99-16.81,12.35-32.67,12.74-63.93.23-18.02,0-1.34,0-7.28Z"/>
    <path class="cls-6" d="M651.4,49.05h0c-5.07,21.19-1.95,45.89,8.41,65.36"/>
    <path class="cls-6" d="M670.17,32.54c-12.64,25.03-17.41,56.74-12.45,83.98,12.7-25,17.34-56.72,12.45-83.98h0Z"/>
    <text class="cls-8" transform="translate(556.96 143.98)"><tspan x="0" y="0">春</tspan></text>
    <text class="cls-8" transform="translate(652.75 143.18)"><tspan x="0" y="0">夏</tspan></text>
    <text class="cls-8" transform="translate(734.41 143.89)"><tspan x="0" y="0">秋</tspan></text>
    <text class="cls-8" transform="translate(822.17 144.08)"><tspan x="0" y="0">冬</tspan></text>
    <polyline class="cls-3" points="158.66 148.88 405.7 148.88 391.98 141.09"/>
    <polyline class="cls-3" points="313.06 148.88 66.02 148.88 79.75 141.09"/>
    <text class="cls-8" transform="translate(32.71 45.48)"><tspan x="0" y="0">非</tspan><tspan x="0" y="24">遗</tspan><tspan x="0" y="48">等</tspan><tspan x="0" y="72">级</tspan><tspan x="0" y="96">低</tspan><tspan x="-28.8" y="0">影</tspan><tspan x="-28.8" y="24">响</tspan><tspan x="-28.8" y="48">力</tspan><tspan x="-28.8" y="72">小</tspan></text>
    <text class="cls-8" transform="translate(153.49 204.26)"><tspan x="0" y="0">以稻谷成长状态</tspan><tspan x="-24" y="28.8">代表节日影响力大小</tspan></text>
    <text class="cls-8" transform="translate(613.49 204.26)"><tspan x="0" y="0">稻谷的颜色与形状</tspan><tspan x="-12" y="28.8">代表节日的不同季节</tspan></text>
    <text class="cls-8" transform="translate(448.71 53.48)"><tspan x="0" y="0">非</tspan><tspan x="0" y="24">遗</tspan><tspan x="0" y="48">等</tspan><tspan x="0" y="72">级</tspan><tspan x="0" y="96">高</tspan><tspan x="-28.8" y="0">影</tspan><tspan x="-28.8" y="24">响</tspan><tspan x="-28.8" y="48">力</tspan><tspan x="-28.8" y="72">大</tspan></text>
  </g>
</svg>