<?xml version="1.0" encoding="UTF-8"?>
<svg id="_图层_1" data-name="图层 1" xmlns="http://www.w3.org/2000/svg" viewBox="0 0 2153.95 1211.6">
  <defs>
    <style>
      .cls-1, .cls-2, .cls-3, .cls-4, .cls-5, .cls-6, .cls-7, .cls-8, .cls-9, .cls-10, .cls-11 {
        stroke-miterlimit: 10;
      }

      .cls-1, .cls-2, .cls-5, .cls-11 {
        stroke-width: .15px;
      }

      .cls-1, .cls-5, .cls-12, .cls-6, .cls-8 {
        fill: none;
      }

      .cls-1, .cls-11 {
        stroke: #c5a673;
      }

      .cls-13 {
        fill: #6bab69;
      }

      .cls-2, .cls-5 {
        stroke: #be6a62;
      }

      .cls-2, .cls-11 {
        fill: #cabc83;
      }

      .cls-3 {
        fill: #c5a673;
      }

      .cls-3, .cls-4, .cls-7 {
        stroke: #f4f3f2;
      }

      .cls-3, .cls-4, .cls-7, .cls-9, .cls-10 {
        stroke-width: .5px;
      }

      .cls-4 {
        fill: #00543f;
      }

      .cls-14 {
        fill: #d2dd7d;
      }

      .cls-6 {
        stroke: #d2dd7d;
      }

      .cls-6, .cls-8 {
        stroke-dasharray: 24 .5 1 .5;
        stroke-width: 2px;
      }

      .cls-15 {
        fill: #967566;
      }

      .cls-16 {
        fill: #579140;
      }

      .cls-7 {
        fill: #be6a62;
      }

      .cls-8 {
        stroke: #7faa67;
      }

      .cls-17 {
        fill: #82c47c;
      }

      .cls-9 {
        fill: #c56d64;
      }

      .cls-9, .cls-10 {
        stroke: #fff;
      }

      .cls-18 {
        fill: #7e9b67;
      }

      .cls-19 {
        fill: #9dce83;
      }

      .cls-10 {
        fill: #b7947a;
      }

      .cls-20 {
        fill: #d9e47f;
      }
    </style>
  </defs>
  <rect class="cls-12" y="-.72" width="2152.84" height="1211.5" transform="translate(2152.84 1210.05) rotate(180)"/>
  <g>
    <path class="cls-19" d="M206.65,556.36c6.1,13.85,6.14,30.65,0,44.49-6.14-13.84-6.1-30.64,0-44.49h0Z"/>
    <path class="cls-4" d="M1473.66,555.36c6.1,13.85,6.14,30.65,0,44.49-6.14-13.84-6.1-30.64,0-44.49h0Z"/>
    <g>
      <path class="cls-17" d="M376.16,173.92c-3.35,4.13-5.91,8.9-7.69,14.09-1.78-5.18-4.35-9.96-7.69-14.09,0,14.75-.26,11.68-.12,20.15.24,14.69,1.69,22.14,7.82,30.04,6.13-7.9,7.58-15.35,7.82-30.04.14-8.47-.12-5.4-.12-20.15Z"/>
      <path class="cls-17" d="M376.31,151.51c-3.35,4.13-6.03,8.9-7.82,14.09-1.78-5.18-4.47-9.96-7.82-14.09,0,2.79-.14-5.05,0,3.42.24,14.69,1.69,22.14,7.82,30.04,6.13-7.9,7.58-15.35,7.82-30.04.14-8.47,0-.63,0-3.42Z"/>
    </g>
    <g>
      <path class="cls-13" d="M448.23,880.44c-3.21,4.13-5.67,8.9-7.38,14.09-1.71-5.18-4.17-9.96-7.38-14.09,0,14.75-.25,11.68-.12,20.15.23,14.69,1.62,22.14,7.5,30.04,5.88-7.9,7.27-15.35,7.5-30.04.13-8.47-.12-5.4-.12-20.15Z"/>
      <path class="cls-13" d="M448.35,857.69c-3.21,4.13-5.79,8.9-7.5,14.09-1.71-5.18-4.29-9.96-7.5-14.09,0,2.79-.13-5.05,0,3.42.23,14.69,1.62,22.14,7.5,30.04,5.88-7.9,7.27-15.35,7.5-30.04.13-8.47,0-.63,0-3.42Z"/>
    </g>
    <g>
      <path class="cls-13" d="M532.23,880.27c-3.22,4.1-5.69,8.84-7.4,13.98-1.72-5.15-4.18-9.88-7.4-13.98,0,14.64-.25,11.6-.12,20,.23,14.58,1.62,21.98,7.52,29.82,5.9-7.84,7.29-15.24,7.52-29.82.13-8.41-.12-5.36-.12-20Z"/>
      <path class="cls-13" d="M532.35,857.69c-3.22,4.1-5.81,8.84-7.52,13.98-1.72-5.15-4.3-9.88-7.52-13.98,0,2.77-.13-5.01,0,3.4.23,14.58,1.62,21.98,7.52,29.82,5.9-7.84,7.29-15.24,7.52-29.82.13-8.41,0-.63,0-3.39Z"/>
    </g>
    <g>
      <path class="cls-16" d="M882.02,868.87c-5.08,6.9-6.66,16.98-4.16,27.1,5.11-6.88,6.63-16.99,4.16-27.1h0Z"/>
      <path class="cls-16" d="M871.8,858.16c5.08,6.9,6.66,16.98,4.16,27.1-5.11-6.88-6.63-16.99-4.16-27.1h0Z"/>
      <g>
        <path class="cls-16" d="M870.45,875.53c7,12.19,9.44,27.72,6.37,41.12-7.03-12.18-9.4-27.71-6.37-41.12h0Z"/>
        <path class="cls-16" d="M882.26,889.24c2.9,11.6,1.12,25.12-4.81,35.78-2.94-11.6-1.09-25.1,4.81-35.78h0Z"/>
      </g>
    </g>
    <g>
      <path class="cls-10" d="M1747.23,866.17c.33,11.92-5.72,25.87-15.24,33.07-.37-11.93,5.76-25.85,15.24-33.07h0Z"/>
      <path class="cls-10" d="M1747.23,879.47c.33,11.92-5.72,25.87-15.24,33.07-.37-11.93,5.76-25.85,15.24-33.07h0Z"/>
      <path class="cls-10" d="M1726.49,882.97c-.33,11.92,5.72,25.87,15.24,33.07.37-11.93-5.76-25.85-15.24-33.07h0Z"/>
      <path class="cls-10" d="M1747.22,893.03c.24,8.54-2.81,18.13-8.06,25.53-2.14,3.01-6.91.82-6.04-2.77,2.18-8.9,7.26-17.56,14.09-22.76h0Z"/>
      <path class="cls-10" d="M1726.49,896.27c-.33,11.92,5.72,25.87,15.24,33.07.37-11.93-5.76-25.85-15.24-33.07h0Z"/>
      <path class="cls-10" d="M1726.49,869.67c-.33,11.92,5.72,25.87,15.24,33.07.37-11.93-5.76-25.85-15.24-33.07h0Z"/>
    </g>
    <g>
      <path class="cls-3" d="M1564.11,864.55c6.3,7.91,9.46,20.59,6.91,30.53-6.33-7.9-9.43-20.6-6.91-30.53h0Z"/>
      <line class="cls-11" x1="1567.8" y1="883.45" x2="1562.24" y2="856.39"/>
      <path class="cls-3" d="M1577.15,864.55c-6.3,7.91-9.46,20.59-6.91,30.53,6.33-7.9,9.43-20.6,6.91-30.53h0Z"/>
      <line class="cls-1" x1="1573.46" y1="883.45" x2="1579.02" y2="856.39"/>
      <path class="cls-3" d="M1564.11,880.56c6.3,7.91,9.46,20.59,6.91,30.53-6.33-7.9-9.43-20.6-6.91-30.53h0Z"/>
      <line class="cls-1" x1="1567.8" y1="899.46" x2="1562.24" y2="872.4"/>
      <path class="cls-3" d="M1577.15,880.56c-6.3,7.91-9.46,20.59-6.91,30.53,6.33-7.9,9.43-20.6,6.91-30.53h0Z"/>
      <line class="cls-11" x1="1573.46" y1="899.46" x2="1579.02" y2="872.4"/>
      <path class="cls-3" d="M1564.11,896.57c6.05,7.6,9.21,19.6,7.19,29.34-.1.47-.74.6-1.02.21-5.82-7.94-8.58-20.02-6.17-29.56h0Z"/>
      <line class="cls-1" x1="1567.8" y1="915.47" x2="1562.24" y2="888.41"/>
      <path class="cls-3" d="M1577.15,896.57c-6.3,7.91-9.46,20.59-6.91,30.53,6.33-7.9,9.43-20.6,6.91-30.53h0Z"/>
      <line class="cls-1" x1="1573.46" y1="915.47" x2="1579.02" y2="888.41"/>
    </g>
    <g>
      <path class="cls-9" d="M1792.38,555.17c.33,11.92-5.72,25.87-15.24,33.07-.37-11.93,5.76-25.85,15.24-33.07h0Z"/>
      <path class="cls-9" d="M1792.38,568.47c.33,11.92-5.72,25.87-15.24,33.07-.37-11.93,5.76-25.85,15.24-33.07h0Z"/>
      <path class="cls-9" d="M1772.63,572.97c-.33,11.92,5.72,25.87,15.24,33.07.37-11.93-5.76-25.85-15.24-33.07h0Z"/>
      <path class="cls-9" d="M1792.36,582.03c.3,10.61-4.47,22.83-12.23,30.46-1.13,1.11-3.03.19-2.9-1.4.91-10.91,6.69-22.64,15.13-29.06h0Z"/>
      <path class="cls-9" d="M1771.63,585.27c-.33,11.92,5.72,25.87,15.24,33.07.37-11.93-5.76-25.85-15.24-33.07h0Z"/>
      <path class="cls-9" d="M1771.63,558.67c-.33,11.92,5.72,25.87,15.24,33.07.37-11.93-5.76-25.85-15.24-33.07h0Z"/>
    </g>
    <path class="cls-17" d="M398.17,763.34c-2.9,4.67-5.12,10.07-6.66,15.93-1.55-5.86-3.76-11.26-6.66-15.93,0,16.68-.23,5.33-.11,14.9.21,16.61,1.46,15.58,6.77,24.51,5.31-8.93,6.56-7.9,6.77-24.51.12-9.57-.11,1.78-.11-14.9Z"/>
    <path class="cls-17" d="M447.66,348.95c-2.9,4.67-5.12,10.07-6.66,15.93-1.55-5.86-3.76-11.26-6.66-15.93,0,16.68-.23,5.33-.11,14.9.21,16.61,1.46,15.58,6.77,24.51,5.31-8.93,6.56-7.9,6.77-24.51.12-9.57-.11,1.78-.11-14.9Z"/>
    <g>
      <path class="cls-16" d="M888.06,159.51c-5.08,7.78-6.66,19.15-4.16,30.56,5.11-7.76,6.63-19.16,4.16-30.56h0Z"/>
      <path class="cls-16" d="M877.85,147.42c5.08,7.78,6.66,19.15,4.16,30.56-5.11-7.76-6.63-19.16-4.16-30.56h0Z"/>
      <g>
        <path class="cls-16" d="M876.49,167.01c7,13.75,9.44,31.26,6.37,46.38-7.03-13.73-9.4-31.25-6.37-46.38h0Z"/>
        <path class="cls-16" d="M888.3,182.47c2.9,13.08,1.12,28.33-4.81,40.35-2.94-13.08-1.09-28.31,4.81-40.35h0Z"/>
      </g>
    </g>
    <path class="cls-4" d="M1025.63,757.36c6.1,13.85,6.14,30.65,0,44.49-6.14-13.84-6.1-30.64,0-44.49h0Z"/>
    <g>
      <path class="cls-18" d="M993.6,55c6.65,13.16,9.15,29.83,6.55,44.16-6.68-13.15-9.12-29.83-6.55-44.16h0Z"/>
      <path class="cls-18" d="M1004.22,64.25c2.67,11.14,1.03,24.13-4.42,34.37-2.7-11.14-1-24.12,4.42-34.37h0Z"/>
    </g>
    <path class="cls-4" d="M1150.11,555.36c6.1,13.85,6.14,30.65,0,44.49-6.14-13.84-6.1-30.64,0-44.49h0Z"/>
    <g>
      <path class="cls-7" d="M1612.82,464.46c6.3,7.44,9.46,19.36,6.91,28.7-6.33-7.43-9.43-19.36-6.91-28.7h0Z"/>
      <line class="cls-2" x1="1616.51" y1="482.22" x2="1610.95" y2="456.79"/>
      <path class="cls-7" d="M1625.86,464.46c-6.3,7.44-9.46,19.36-6.91,28.7,6.33-7.43,9.43-19.36,6.91-28.7h0Z"/>
      <line class="cls-5" x1="1622.17" y1="482.22" x2="1627.73" y2="456.79"/>
      <path class="cls-7" d="M1612.82,479.51c6.3,7.44,9.46,19.36,6.91,28.7-6.33-7.43-9.43-19.36-6.91-28.7h0Z"/>
      <line class="cls-5" x1="1616.51" y1="497.28" x2="1610.95" y2="471.84"/>
      <path class="cls-7" d="M1625.86,479.51c-6.3,7.44-9.46,19.36-6.91,28.7,6.33-7.43,9.43-19.36,6.91-28.7h0Z"/>
      <line class="cls-2" x1="1622.17" y1="497.28" x2="1627.73" y2="471.84"/>
      <path class="cls-7" d="M1612.82,494.56c6.05,7.15,9.21,18.43,7.19,27.59-.1.44-.74.56-1.02.2-5.82-7.47-8.58-18.82-6.17-27.79h0Z"/>
      <line class="cls-5" x1="1616.51" y1="512.33" x2="1610.95" y2="486.89"/>
      <path class="cls-7" d="M1625.86,494.56c-6.3,7.44-9.46,19.36-6.91,28.7,6.33-7.43,9.43-19.36,6.91-28.7h0Z"/>
      <line class="cls-5" x1="1622.17" y1="512.33" x2="1627.73" y2="486.89"/>
    </g>
    <g>
      <path class="cls-18" d="M1043.4,348.49c7.92,15.68,10.9,35.54,7.8,52.61-7.96-15.66-10.86-35.53-7.8-52.61h0Z"/>
      <path class="cls-18" d="M1056.05,359.51c3.18,13.28,1.22,28.74-5.27,40.94-3.21-13.27-1.19-28.73,5.27-40.94h0Z"/>
    </g>
    <path class="cls-15" d="M1899.72,237.36c6.1,13.85,6.14,30.65,0,44.49-6.14-13.84-6.1-30.64,0-44.49h0Z"/>
    <g>
      <path class="cls-14" d="M2047.96,673.48c.17,6.02-1.39,12.59-4.24,18.44-2.18,4.46-8.97,1.53-7.08-3.06,2.53-6.11,6.46-11.67,11.32-15.37h0Z"/>
      <path class="cls-14" d="M2029.97,671.71c-.31,11.28,5.41,24.48,14.42,31.29.35-11.29-5.45-24.46-14.42-31.29h0Z"/>
    </g>
    <g>
      <line class="cls-6" x1="1392.05" y1="610.81" x2="1392.05" y2="481.46"/>
      <path class="cls-20" d="M1398.71,564.05c-2.9,4.67-5.12,10.07-6.66,15.93-1.55-5.86-3.76-11.26-6.66-15.93,0,16.68-.23,5.33-.11,14.9.21,16.61,1.46,15.58,6.77,24.51,5.31-8.93,6.56-7.9,6.77-24.51.12-9.57-.11,1.78-.11-14.9Z"/>
      <path class="cls-20" d="M1392.05,467.65c6.1,13.85,6.14,30.65,0,44.49-6.14-13.84-6.1-30.64,0-44.49h0Z"/>
    </g>
    <g>
      <line class="cls-8" x1="105.16" y1="391.3" x2="105.16" y2="250.9"/>
      <path class="cls-19" d="M113.11,246.11c-3.35,4.13-6.03,8.9-7.82,14.09-1.78-5.18-4.47-9.96-7.82-14.09v3.42c0,14.69,1.69,22.14,7.82,30.04,6.13-7.9,7.82-15.35,7.82-30.04v-3.42Z"/>
      <path class="cls-19" d="M113.11,350.11c-3.35,4.13-6.03,8.9-7.82,14.09-1.78-5.18-4.47-9.96-7.82-14.09v3.42c0,14.69,1.69,22.14,7.82,30.04,6.13-7.9,7.82-15.35,7.82-30.04v-3.42Z"/>
    </g>
  </g>
</svg>