<?xml version="1.0" encoding="UTF-8"?>
<svg id="_图层_1" data-name="图层 1" xmlns="http://www.w3.org/2000/svg" viewBox="0 0 2153.95 1211.6">
  <defs>
    <style>
      .cls-1, .cls-2, .cls-3, .cls-4, .cls-5, .cls-6, .cls-7, .cls-8, .cls-9, .cls-10, .cls-11, .cls-12, .cls-13, .cls-14, .cls-15, .cls-16, .cls-17, .cls-18, .cls-19 {
        stroke-miterlimit: 10;
      }

      .cls-1, .cls-4, .cls-7, .cls-8, .cls-10, .cls-11, .cls-17, .cls-18 {
        stroke-width: .15px;
      }

      .cls-1, .cls-7, .cls-10, .cls-16, .cls-18, .cls-19 {
        fill: none;
      }

      .cls-1, .cls-17 {
        stroke: #c5a673;
      }

      .cls-2 {
        fill: #d6bd7e;
      }

      .cls-2, .cls-3, .cls-5, .cls-6, .cls-9, .cls-12, .cls-13, .cls-14, .cls-15 {
        stroke-width: .5px;
      }

      .cls-2, .cls-3, .cls-5, .cls-9 {
        stroke: #f4f3f2;
      }

      .cls-20 {
        fill: #2f823a;
      }

      .cls-3, .cls-4, .cls-8, .cls-11, .cls-17 {
        fill: #cabc83;
      }

      .cls-21 {
        fill: #6bab69;
      }

      .cls-22 {
        fill: #f4f1ef;
      }

      .cls-4, .cls-7 {
        stroke: #be6a62;
      }

      .cls-5 {
        fill: #c5a673;
      }

      .cls-6 {
        fill: #78504b;
      }

      .cls-6, .cls-12, .cls-13, .cls-14, .cls-15 {
        stroke: #fff;
      }

      .cls-23, .cls-13 {
        fill: #c56d64;
      }

      .cls-24 {
        fill: #d2dd7d;
      }

      .cls-25 {
        opacity: .8;
      }

      .cls-26 {
        fill: #94ad7d;
      }

      .cls-27 {
        fill: #cd7066;
      }

      .cls-28 {
        fill: #00523d;
      }

      .cls-29 {
        fill: #a4d19f;
      }

      .cls-8, .cls-18 {
        stroke: #d6bd7e;
      }

      .cls-30 {
        fill: #378d39;
      }

      .cls-31, .cls-12 {
        fill: #967566;
      }

      .cls-32 {
        fill: #579140;
      }

      .cls-9 {
        fill: #be6a62;
      }

      .cls-10, .cls-11, .cls-16 {
        stroke: #cabc83;
      }

      .cls-33 {
        fill: #82c47c;
      }

      .cls-34 {
        fill: #e5e6b9;
      }

      .cls-35 {
        fill: #231815;
        font-family: MiSans-Normal, 'MiSans Normal';
        font-size: 24px;
      }

      .cls-36, .cls-14 {
        fill: #7e9b67;
      }

      .cls-37, .cls-15 {
        fill: #b7947a;
      }

      .cls-38 {
        fill: #9dce83;
      }

      .cls-16 {
        stroke-width: .75px;
      }

      .cls-19 {
        stroke: #378d39;
        stroke-width: 1.5px;
      }

      .cls-39 {
        opacity: .7;
      }

      .cls-40 {
        fill: #d9e47f;
      }
    </style>
  </defs>
  <g>
    <g>
      <path class="cls-33" d="M376.16,203.92c-3.35,4.13-5.91,8.9-7.69,14.09-1.78-5.18-4.35-9.96-7.69-14.09,0,14.75-.26,11.68-.12,20.15.24,14.69,1.69,22.14,7.82,30.04,6.13-7.9,7.58-15.35,7.82-30.04.14-8.47-.12-5.4-.12-20.15Z"/>
      <path class="cls-33" d="M376.31,181.51c-3.35,4.13-6.03,8.9-7.82,14.09-1.78-5.18-4.47-9.96-7.82-14.09,0,2.79-.14-5.05,0,3.42.24,14.69,1.69,22.14,7.82,30.04,6.13-7.9,7.58-15.35,7.82-30.04.14-8.47,0-.63,0-3.42Z"/>
    </g>
    <g>
      <path class="cls-29" d="M469.5,197.92c-3.35,4.13-5.91,8.9-7.69,14.09-1.78-5.18-4.35-9.96-7.69-14.09,0,14.75-.26,11.68-.12,20.15.24,14.69,1.69,22.14,7.82,30.04,6.13-7.9,7.58-15.35,7.82-30.04.14-8.47-.12-5.4-.12-20.15Z"/>
      <path class="cls-29" d="M469.64,175.51c-3.35,4.13-6.03,8.9-7.82,14.09-1.78-5.18-4.47-9.96-7.82-14.09,0,2.79-.14-5.05,0,3.42.24,14.69,1.69,22.14,7.82,30.04,6.13-7.9,7.58-15.35,7.82-30.04.14-8.47,0-.63,0-3.42Z"/>
    </g>
    <g>
      <path class="cls-38" d="M238.53,606.92c-3.35,4.13-5.91,8.9-7.69,14.09-1.78-5.18-4.35-9.96-7.69-14.09,0,14.75-.26,11.68-.12,20.15.24,14.69,1.69,22.14,7.82,30.04,6.13-7.9,7.58-15.35,7.82-30.04.14-8.47-.12-5.4-.12-20.15Z"/>
      <path class="cls-38" d="M238.67,584.51c-3.35,4.13-6.03,8.9-7.82,14.09-1.78-5.18-4.47-9.96-7.82-14.09,0,2.79-.14-5.05,0,3.42.24,14.69,1.69,22.14,7.82,30.04,6.13-7.9,7.58-15.35,7.82-30.04.14-8.47,0-.63,0-3.42Z"/>
    </g>
    <g>
      <path class="cls-38" d="M560.53,606.92c-3.35,4.13-5.91,8.9-7.69,14.09-1.78-5.18-4.35-9.96-7.69-14.09,0,14.75-.26,11.68-.12,20.15.24,14.69,1.69,22.14,7.82,30.04,6.13-7.9,7.58-15.35,7.82-30.04.14-8.47-.12-5.4-.12-20.15Z"/>
      <path class="cls-38" d="M560.67,584.51c-3.35,4.13-6.03,8.9-7.82,14.09-1.78-5.18-4.47-9.96-7.82-14.09,0,2.79-.14-5.05,0,3.42.24,14.69,1.69,22.14,7.82,30.04,6.13-7.9,7.58-15.35,7.82-30.04.14-8.47,0-.63,0-3.42Z"/>
    </g>
    <path class="cls-33" d="M280.12,910.44c-3,4.13-5.29,8.9-6.89,14.09-1.6-5.18-3.89-9.96-6.89-14.09,0,14.75-.24,11.68-.11,20.15.22,14.69,1.51,22.14,7,30.04,5.49-7.9,6.79-15.35,7-30.04.12-8.47-.11-5.4-.11-20.15Z"/>
    <path class="cls-33" d="M280.24,887.69c-3,4.13-5.41,8.9-7,14.09-1.6-5.18-4.01-9.96-7-14.09,0,2.79-.12-5.05,0,3.42.22,14.69,1.51,22.14,7,30.04,5.49-7.9,6.79-15.35,7-30.04.12-8.47,0-.63,0-3.42Z"/>
    <path class="cls-33" d="M364.15,910.44c-3.06,4.13-5.4,8.9-7.03,14.09-1.63-5.18-3.97-9.96-7.03-14.09,0,14.75-.24,11.68-.11,20.15.22,14.69,1.54,22.14,7.14,30.04,5.6-7.9,6.92-15.35,7.14-30.04.13-8.47-.11-5.4-.11-20.15Z"/>
    <path class="cls-33" d="M364.27,887.69c-3.06,4.13-5.51,8.9-7.14,14.09-1.63-5.18-4.08-9.96-7.14-14.09,0,2.79-.13-5.05,0,3.42.22,14.69,1.54,22.14,7.14,30.04,5.6-7.9,6.92-15.35,7.14-30.04.13-8.47,0-.63,0-3.42Z"/>
    <g>
      <path class="cls-21" d="M448.23,910.44c-3.21,4.13-5.67,8.9-7.38,14.09-1.71-5.18-4.17-9.96-7.38-14.09,0,14.75-.25,11.68-.12,20.15.23,14.69,1.62,22.14,7.5,30.04,5.88-7.9,7.27-15.35,7.5-30.04.13-8.47-.12-5.4-.12-20.15Z"/>
      <path class="cls-21" d="M448.35,887.69c-3.21,4.13-5.79,8.9-7.5,14.09-1.71-5.18-4.29-9.96-7.5-14.09,0,2.79-.13-5.05,0,3.42.23,14.69,1.62,22.14,7.5,30.04,5.88-7.9,7.27-15.35,7.5-30.04.13-8.47,0-.63,0-3.42Z"/>
    </g>
    <g>
      <path class="cls-20" d="M703.04,899.49c-5.08,7.78-6.66,19.15-4.16,30.56,5.11-7.76,6.63-19.16,4.16-30.56h0Z"/>
      <path class="cls-20" d="M692.83,887.4c5.08,7.78,6.66,19.15,4.16,30.56-5.11-7.76-6.63-19.16-4.16-30.56h0Z"/>
      <g>
        <path class="cls-20" d="M691.47,906.99c7,13.75,9.44,31.26,6.37,46.38-7.03-13.73-9.4-31.25-6.37-46.38h0Z"/>
        <path class="cls-20" d="M703.28,922.45c2.9,13.08,1.12,28.33-4.81,40.35-2.94-13.08-1.09-28.31,4.81-40.35h0Z"/>
      </g>
    </g>
    <g>
      <path class="cls-20" d="M619.04,899.49c-5.08,7.78-6.66,19.15-4.16,30.56,5.11-7.76,6.63-19.16,4.16-30.56h0Z"/>
      <path class="cls-20" d="M608.83,887.4c5.08,7.78,6.66,19.15,4.16,30.56-5.11-7.76-6.63-19.16-4.16-30.56h0Z"/>
      <g>
        <path class="cls-20" d="M607.47,906.99c7,13.75,9.44,31.26,6.37,46.38-7.03-13.73-9.4-31.25-6.37-46.38h0Z"/>
        <path class="cls-20" d="M619.28,922.45c2.9,13.08,1.12,28.33-4.81,40.35-2.94-13.08-1.09-28.31,4.81-40.35h0Z"/>
      </g>
    </g>
    <g>
      <path class="cls-32" d="M792.47,899.49c-5.08,7.78-6.66,19.15-4.16,30.56,5.11-7.76,6.63-19.16,4.16-30.56h0Z"/>
      <path class="cls-32" d="M782.26,887.4c5.08,7.78,6.66,19.15,4.16,30.56-5.11-7.76-6.63-19.16-4.16-30.56h0Z"/>
      <g>
        <path class="cls-32" d="M780.9,906.99c7,13.75,9.44,31.26,6.37,46.38-7.03-13.73-9.4-31.25-6.37-46.38h0Z"/>
        <path class="cls-32" d="M792.71,922.45c2.9,13.08,1.12,28.33-4.81,40.35-2.94-13.08-1.09-28.31,4.81-40.35h0Z"/>
      </g>
    </g>
    <g>
      <path class="cls-32" d="M882.02,898.87c-5.08,6.9-6.66,16.98-4.16,27.1,5.11-6.88,6.63-16.99,4.16-27.1h0Z"/>
      <path class="cls-32" d="M871.8,888.16c5.08,6.9,6.66,16.98,4.16,27.1-5.11-6.88-6.63-16.99-4.16-27.1h0Z"/>
      <g>
        <path class="cls-32" d="M870.45,905.53c7,12.19,9.44,27.72,6.37,41.12-7.03-12.18-9.4-27.71-6.37-41.12h0Z"/>
        <path class="cls-32" d="M882.26,919.24c2.9,11.6,1.12,25.12-4.81,35.78-2.94-11.6-1.09-25.1,4.81-35.78h0Z"/>
      </g>
    </g>
    <g>
      <path class="cls-36" d="M965.79,898.87c-5.08,6.9-6.66,16.98-4.16,27.1,5.11-6.88,6.63-16.99,4.16-27.1h0Z"/>
      <path class="cls-36" d="M955.57,888.16c5.08,6.9,6.66,16.98,4.16,27.1-5.11-6.88-6.63-16.99-4.16-27.1h0Z"/>
      <g>
        <path class="cls-36" d="M954.21,905.53c7,12.19,9.44,27.72,6.37,41.12-7.03-12.18-9.4-27.71-6.37-41.12h0Z"/>
        <path class="cls-36" d="M966.02,919.24c2.9,11.6,1.12,25.12-4.81,35.78-2.94-11.6-1.09-25.1,4.81-35.78h0Z"/>
      </g>
    </g>
    <g>
      <path class="cls-14" d="M1055.25,898.92c-5.08,6.9-6.66,16.98-4.16,27.1,5.11-6.88,6.63-16.99,4.16-27.1h0Z"/>
      <path class="cls-14" d="M1045.04,888.2c5.08,6.9,6.66,16.98,4.16,27.1-5.11-6.88-6.63-16.99-4.16-27.1h0Z"/>
      <g>
        <path class="cls-36" d="M1043.68,905.57c7,12.19,9.44,27.72,6.37,41.12-7.03-12.18-9.4-27.71-6.37-41.12h0Z"/>
        <path class="cls-36" d="M1055.49,919.28c2.9,11.6,1.12,25.12-4.81,35.78-2.94-11.6-1.09-25.1,4.81-35.78h0Z"/>
      </g>
    </g>
    <g>
      <path class="cls-38" d="M196.07,910.44c-2.88,4.13-5.09,8.9-6.63,14.09-1.54-5.18-3.74-9.96-6.63-14.09,0,14.75-.23,11.68-.11,20.15.21,14.69,1.45,22.14,6.73,30.04,5.28-7.9,6.53-15.35,6.73-30.04.12-8.47-.11-5.4-.11-20.15Z"/>
      <path class="cls-38" d="M196.18,887.69c-2.88,4.13-5.2,8.9-6.73,14.09-1.54-5.18-3.85-9.96-6.73-14.09,0,2.79-.12-5.05,0,3.42.21,14.69,1.45,22.14,6.73,30.04,5.28-7.9,6.53-15.35,6.73-30.04.12-8.47,0-.63,0-3.42Z"/>
    </g>
    <g>
      <path class="cls-38" d="M112.07,910.44c-2.88,4.13-5.09,8.9-6.63,14.09-1.54-5.18-3.74-9.96-6.63-14.09,0,14.75-.23,11.68-.11,20.15.21,14.69,1.45,22.14,6.73,30.04,5.28-7.9,6.53-15.35,6.73-30.04.12-8.47-.11-5.4-.11-20.15Z"/>
      <path class="cls-38" d="M112.18,887.69c-2.88,4.13-5.2,8.9-6.73,14.09-1.54-5.18-3.85-9.96-6.73-14.09,0,2.79-.12-5.05,0,3.42.21,14.69,1.45,22.14,6.73,30.04,5.28-7.9,6.53-15.35,6.73-30.04.12-8.47,0-.63,0-3.42Z"/>
    </g>
    <g>
      <path class="cls-3" d="M1133.59,894.06c6.3,8.39,9.46,21.84,6.91,32.37-6.33-8.38-9.43-21.84-6.91-32.37h0Z"/>
      <line class="cls-11" x1="1137.28" y1="914.09" x2="1131.72" y2="885.41"/>
      <path class="cls-3" d="M1146.63,894.06c-6.3,8.39-9.46,21.84-6.91,32.37,6.33-8.38,9.43-21.84,6.91-32.37h0Z"/>
      <line class="cls-10" x1="1142.94" y1="914.09" x2="1148.5" y2="885.41"/>
      <path class="cls-3" d="M1133.59,911.03c6.3,8.39,9.46,21.84,6.91,32.37-6.33-8.38-9.43-21.84-6.91-32.37h0Z"/>
      <line class="cls-10" x1="1137.28" y1="931.07" x2="1131.72" y2="902.38"/>
      <path class="cls-3" d="M1146.63,911.03c-6.3,8.39-9.46,21.84-6.91,32.37,6.33-8.38,9.43-21.84,6.91-32.37h0Z"/>
      <line class="cls-11" x1="1142.94" y1="931.07" x2="1148.5" y2="902.38"/>
      <path class="cls-3" d="M1133.59,928.01c6.05,8.06,9.21,20.78,7.19,31.11-.1.49-.74.64-1.02.23-5.82-8.42-8.58-21.23-6.17-31.34h0Z"/>
      <line class="cls-10" x1="1137.28" y1="948.04" x2="1131.72" y2="919.36"/>
      <path class="cls-3" d="M1146.63,928.01c-6.3,8.39-9.46,21.84-6.91,32.37,6.33-8.38,9.43-21.84,6.91-32.37h0Z"/>
      <line class="cls-10" x1="1142.94" y1="948.04" x2="1148.5" y2="919.36"/>
    </g>
    <g>
      <path class="cls-3" d="M1217.59,894.06c6.3,8.39,9.46,21.84,6.91,32.37-6.33-8.38-9.43-21.84-6.91-32.37h0Z"/>
      <line class="cls-11" x1="1221.28" y1="914.09" x2="1215.72" y2="885.41"/>
      <path class="cls-3" d="M1230.63,894.06c-6.3,8.39-9.46,21.84-6.91,32.37,6.33-8.38,9.43-21.84,6.91-32.37h0Z"/>
      <line class="cls-10" x1="1226.94" y1="914.09" x2="1232.5" y2="885.41"/>
      <path class="cls-3" d="M1217.59,911.03c6.3,8.39,9.46,21.84,6.91,32.37-6.33-8.38-9.43-21.84-6.91-32.37h0Z"/>
      <line class="cls-10" x1="1221.28" y1="931.07" x2="1215.72" y2="902.38"/>
      <path class="cls-3" d="M1230.63,911.03c-6.3,8.39-9.46,21.84-6.91,32.37,6.33-8.38,9.43-21.84,6.91-32.37h0Z"/>
      <line class="cls-11" x1="1226.94" y1="931.07" x2="1232.5" y2="902.38"/>
      <path class="cls-3" d="M1217.59,928.01c6.05,8.06,9.21,20.78,7.19,31.11-.1.49-.74.64-1.02.23-5.82-8.42-8.58-21.23-6.17-31.34h0Z"/>
      <line class="cls-10" x1="1221.28" y1="948.04" x2="1215.72" y2="919.36"/>
      <path class="cls-3" d="M1230.63,928.01c-6.3,8.39-9.46,21.84-6.91,32.37,6.33-8.38,9.43-21.84,6.91-32.37h0Z"/>
      <line class="cls-10" x1="1226.94" y1="948.04" x2="1232.5" y2="919.36"/>
    </g>
    <g>
      <path class="cls-3" d="M1284.59,780.84c6.3,8.39,9.46,21.84,6.91,32.37-6.33-8.38-9.43-21.84-6.91-32.37h0Z"/>
      <line class="cls-11" x1="1288.28" y1="800.88" x2="1282.72" y2="772.19"/>
      <path class="cls-3" d="M1297.63,780.84c-6.3,8.39-9.46,21.84-6.91,32.37,6.33-8.38,9.43-21.84,6.91-32.37h0Z"/>
      <line class="cls-10" x1="1293.94" y1="800.88" x2="1299.5" y2="772.19"/>
      <path class="cls-3" d="M1284.59,797.82c6.3,8.39,9.46,21.84,6.91,32.37-6.33-8.38-9.43-21.84-6.91-32.37h0Z"/>
      <line class="cls-10" x1="1288.28" y1="817.86" x2="1282.72" y2="789.17"/>
      <path class="cls-3" d="M1297.63,797.82c-6.3,8.39-9.46,21.84-6.91,32.37,6.33-8.38,9.43-21.84,6.91-32.37h0Z"/>
      <line class="cls-11" x1="1293.94" y1="817.86" x2="1299.5" y2="789.17"/>
      <path class="cls-3" d="M1284.59,814.8c6.05,8.06,9.21,20.78,7.19,31.11-.1.49-.74.64-1.02.23-5.82-8.42-8.58-21.23-6.17-31.34h0Z"/>
      <line class="cls-10" x1="1288.28" y1="834.83" x2="1282.72" y2="806.15"/>
      <path class="cls-3" d="M1297.63,814.8c-6.3,8.39-9.46,21.84-6.91,32.37,6.33-8.38,9.43-21.84,6.91-32.37h0Z"/>
      <line class="cls-10" x1="1293.94" y1="834.83" x2="1299.5" y2="806.15"/>
    </g>
    <g>
      <path class="cls-2" d="M1390.77,894.55c6.3,7.91,9.46,20.59,6.91,30.53-6.33-7.9-9.43-20.6-6.91-30.53h0Z"/>
      <line class="cls-8" x1="1394.46" y1="913.45" x2="1388.9" y2="886.39"/>
      <path class="cls-2" d="M1403.8,894.55c-6.3,7.91-9.46,20.59-6.91,30.53,6.33-7.9,9.43-20.6,6.91-30.53h0Z"/>
      <line class="cls-18" x1="1400.11" y1="913.45" x2="1405.67" y2="886.39"/>
      <path class="cls-2" d="M1390.77,910.56c6.3,7.91,9.46,20.59,6.91,30.53-6.33-7.9-9.43-20.6-6.91-30.53h0Z"/>
      <line class="cls-18" x1="1394.46" y1="929.46" x2="1388.9" y2="902.4"/>
      <path class="cls-2" d="M1403.8,910.56c-6.3,7.91-9.46,20.59-6.91,30.53,6.33-7.9,9.43-20.6,6.91-30.53h0Z"/>
      <line class="cls-8" x1="1400.11" y1="929.46" x2="1405.67" y2="902.4"/>
      <path class="cls-2" d="M1390.77,926.57c6.05,7.6,9.21,19.6,7.19,29.34-.1.47-.74.6-1.02.21-5.82-7.94-8.58-20.02-6.17-29.56h0Z"/>
      <line class="cls-18" x1="1394.46" y1="945.47" x2="1388.9" y2="918.41"/>
      <path class="cls-2" d="M1403.8,926.57c-6.3,7.91-9.46,20.59-6.91,30.53,6.33-7.9,9.43-20.6,6.91-30.53h0Z"/>
      <line class="cls-18" x1="1400.11" y1="945.47" x2="1405.67" y2="918.41"/>
    </g>
    <g>
      <path class="cls-15" d="M1663.38,896.17c.33,11.92-5.72,25.87-15.24,33.07-.37-11.93,5.76-25.85,15.24-33.07h0Z"/>
      <path class="cls-15" d="M1663.38,909.47c.33,11.92-5.72,25.87-15.24,33.07-.37-11.93,5.76-25.85,15.24-33.07h0Z"/>
      <path class="cls-15" d="M1642.63,912.97c-.33,11.92,5.72,25.87,15.24,33.07.37-11.93-5.76-25.85-15.24-33.07h0Z"/>
      <path class="cls-15" d="M1663.36,923.03c.24,8.56-2.82,18.17-8.09,25.57-2.13,3-6.89.81-6.02-2.76,2.17-8.91,7.26-17.6,14.11-22.81h0Z"/>
      <path class="cls-15" d="M1642.63,926.27c-.33,11.92,5.72,25.87,15.24,33.07.37-11.93-5.76-25.85-15.24-33.07h0Z"/>
      <path class="cls-15" d="M1642.63,899.67c-.33,11.92,5.72,25.87,15.24,33.07.37-11.93-5.76-25.85-15.24-33.07h0Z"/>
    </g>
    <g>
      <path class="cls-15" d="M1747.23,896.17c.33,11.92-5.72,25.87-15.24,33.07-.37-11.93,5.76-25.85,15.24-33.07h0Z"/>
      <path class="cls-15" d="M1747.23,909.47c.33,11.92-5.72,25.87-15.24,33.07-.37-11.93,5.76-25.85,15.24-33.07h0Z"/>
      <path class="cls-15" d="M1726.49,912.97c-.33,11.92,5.72,25.87,15.24,33.07.37-11.93-5.76-25.85-15.24-33.07h0Z"/>
      <path class="cls-15" d="M1747.22,923.03c.24,8.54-2.81,18.13-8.06,25.53-2.14,3.01-6.91.82-6.04-2.77,2.18-8.9,7.26-17.56,14.09-22.76h0Z"/>
      <path class="cls-15" d="M1726.49,926.27c-.33,11.92,5.72,25.87,15.24,33.07.37-11.93-5.76-25.85-15.24-33.07h0Z"/>
      <path class="cls-15" d="M1726.49,899.67c-.33,11.92,5.72,25.87,15.24,33.07.37-11.93-5.76-25.85-15.24-33.07h0Z"/>
    </g>
    <g>
      <path class="cls-12" d="M1825.23,896.17c.33,11.92-5.72,25.87-15.24,33.07-.37-11.93,5.76-25.85,15.24-33.07h0Z"/>
      <path class="cls-12" d="M1825.23,909.47c.33,11.92-5.72,25.87-15.24,33.07-.37-11.93,5.76-25.85,15.24-33.07h0Z"/>
      <path class="cls-12" d="M1804.49,912.97c-.33,11.92,5.72,25.87,15.24,33.07.37-11.93-5.76-25.85-15.24-33.07h0Z"/>
      <path class="cls-12" d="M1825.22,923.03c.23,8.33-2.66,17.65-7.67,24.97-2.23,3.26-7.26.96-6.26-2.86,2.26-8.67,7.27-17.04,13.93-22.11h0Z"/>
      <path class="cls-12" d="M1804.49,926.27c-.33,11.92,5.72,25.87,15.24,33.07.37-11.93-5.76-25.85-15.24-33.07h0Z"/>
      <path class="cls-12" d="M1804.49,899.67c-.33,11.92,5.72,25.87,15.24,33.07.37-11.93-5.76-25.85-15.24-33.07h0Z"/>
    </g>
    <g>
      <path class="cls-12" d="M1909.23,896.17c.33,11.92-5.72,25.87-15.24,33.07-.37-11.93,5.76-25.85,15.24-33.07h0Z"/>
      <path class="cls-12" d="M1909.23,909.47c.33,11.92-5.72,25.87-15.24,33.07-.37-11.93,5.76-25.85,15.24-33.07h0Z"/>
      <path class="cls-12" d="M1888.49,912.97c-.33,11.92,5.72,25.87,15.24,33.07.37-11.93-5.76-25.85-15.24-33.07h0Z"/>
      <path class="cls-12" d="M1909.22,923.03c.25,8.89-3.06,18.9-8.7,26.41-2.08,2.76-6.38.78-5.64-2.59,2.02-9.26,7.24-18.41,14.34-23.82h0Z"/>
      <path class="cls-12" d="M1888.49,926.27c-.33,11.92,5.72,25.87,15.24,33.07.37-11.93-5.76-25.85-15.24-33.07h0Z"/>
      <path class="cls-12" d="M1888.49,899.67c-.33,11.92,5.72,25.87,15.24,33.07.37-11.93-5.76-25.85-15.24-33.07h0Z"/>
    </g>
    <g>
      <path class="cls-6" d="M1993.23,896.17c.33,11.92-5.72,25.87-15.24,33.07-.37-11.93,5.76-25.85,15.24-33.07h0Z"/>
      <path class="cls-6" d="M1993.23,909.47c.33,11.92-5.72,25.87-15.24,33.07-.37-11.93,5.76-25.85,15.24-33.07h0Z"/>
      <path class="cls-6" d="M1972.49,912.97c-.33,11.92,5.72,25.87,15.24,33.07.37-11.93-5.76-25.85-15.24-33.07h0Z"/>
      <path class="cls-6" d="M1993.22,923.03c.25,8.95-3.1,19.04-8.82,26.56-2,2.63-6.25.68-5.56-2.55,1.99-9.33,7.23-18.57,14.38-24.01h0Z"/>
      <path class="cls-6" d="M1972.49,926.27c-.33,11.92,5.72,25.87,15.24,33.07.37-11.93-5.76-25.85-15.24-33.07h0Z"/>
      <path class="cls-6" d="M1972.49,899.67c-.33,11.92,5.72,25.87,15.24,33.07.37-11.93-5.76-25.85-15.24-33.07h0Z"/>
    </g>
    <g>
      <path class="cls-6" d="M2077.23,896.17c.33,11.92-5.72,25.87-15.24,33.07-.37-11.93,5.76-25.85,15.24-33.07h0Z"/>
      <path class="cls-6" d="M2077.23,909.47c.33,11.92-5.72,25.87-15.24,33.07-.37-11.93,5.76-25.85,15.24-33.07h0Z"/>
      <path class="cls-6" d="M2056.49,912.97c-.33,11.92,5.72,25.87,15.24,33.07.37-11.93-5.76-25.85-15.24-33.07h0Z"/>
      <path class="cls-6" d="M2077.22,923.03c.25,8.97-3.12,19.09-8.86,26.62-1.99,2.62-6.22.68-5.54-2.54,1.98-9.35,7.23-18.62,14.39-24.07h0Z"/>
      <path class="cls-6" d="M2056.49,926.27c-.33,11.92,5.72,25.87,15.24,33.07.37-11.93-5.76-25.85-15.24-33.07h0Z"/>
      <path class="cls-6" d="M2056.49,899.67c-.33,11.92,5.72,25.87,15.24,33.07.37-11.93-5.76-25.85-15.24-33.07h0Z"/>
    </g>
    <g>
      <path class="cls-36" d="M1044.45,591.23c-5.06,7.74-6.63,19.06-4.14,30.42,5.08-7.73,6.6-19.07,4.14-30.42h0Z"/>
      <path class="cls-36" d="M1034.27,579.08c5.06,7.76,6.64,19.1,4.15,30.47-5.09-7.74-6.61-19.1-4.15-30.47h0Z"/>
      <g>
        <path class="cls-36" d="M1032.93,598.69c6.97,13.68,9.4,31.11,6.34,46.16-7-13.67-9.36-31.11-6.34-46.16h0Z"/>
        <path class="cls-36" d="M1044.68,614.09c2.89,13.02,1.11,28.19-4.79,40.16-2.92-13.02-1.08-28.18,4.79-40.16h0Z"/>
      </g>
    </g>
    <g>
      <path class="cls-20" d="M764.45,591.23c-5.06,7.74-6.63,19.06-4.14,30.42,5.08-7.73,6.6-19.07,4.14-30.42h0Z"/>
      <path class="cls-20" d="M754.27,579.08c5.06,7.76,6.64,19.1,4.15,30.47-5.09-7.74-6.61-19.1-4.15-30.47h0Z"/>
      <g>
        <path class="cls-20" d="M752.93,598.69c6.97,13.68,9.4,31.11,6.34,46.16-7-13.67-9.36-31.11-6.34-46.16h0Z"/>
        <path class="cls-20" d="M764.68,614.09c2.89,13.02,1.11,28.19-4.79,40.16-2.92-13.02-1.08-28.18,4.79-40.16h0Z"/>
      </g>
    </g>
    <g>
      <path class="cls-5" d="M1564.11,894.55c6.3,7.91,9.46,20.59,6.91,30.53-6.33-7.9-9.43-20.6-6.91-30.53h0Z"/>
      <line class="cls-17" x1="1567.8" y1="913.45" x2="1562.24" y2="886.39"/>
      <path class="cls-5" d="M1577.15,894.55c-6.3,7.91-9.46,20.59-6.91,30.53,6.33-7.9,9.43-20.6,6.91-30.53h0Z"/>
      <line class="cls-1" x1="1573.46" y1="913.45" x2="1579.02" y2="886.39"/>
      <path class="cls-5" d="M1564.11,910.56c6.3,7.91,9.46,20.59,6.91,30.53-6.33-7.9-9.43-20.6-6.91-30.53h0Z"/>
      <line class="cls-1" x1="1567.8" y1="929.46" x2="1562.24" y2="902.4"/>
      <path class="cls-5" d="M1577.15,910.56c-6.3,7.91-9.46,20.59-6.91,30.53,6.33-7.9,9.43-20.6,6.91-30.53h0Z"/>
      <line class="cls-17" x1="1573.46" y1="929.46" x2="1579.02" y2="902.4"/>
      <path class="cls-5" d="M1564.11,926.57c6.05,7.6,9.21,19.6,7.19,29.34-.1.47-.74.6-1.02.21-5.82-7.94-8.58-20.02-6.17-29.56h0Z"/>
      <line class="cls-1" x1="1567.8" y1="945.47" x2="1562.24" y2="918.41"/>
      <path class="cls-5" d="M1577.15,926.57c-6.3,7.91-9.46,20.59-6.91,30.53,6.33-7.9,9.43-20.6,6.91-30.53h0Z"/>
      <line class="cls-1" x1="1573.46" y1="945.47" x2="1579.02" y2="918.41"/>
    </g>
    <g>
      <path class="cls-20" d="M668.4,689.49c7.92,15.68,10.9,35.54,7.8,52.61-7.96-15.66-10.86-35.53-7.8-52.61h0Z"/>
      <path class="cls-20" d="M681.05,700.51c3.18,13.28,1.22,28.74-5.27,40.94-3.21-13.27-1.19-28.73,5.27-40.94h0Z"/>
    </g>
    <g>
      <path class="cls-32" d="M779.4,581.49c7.92,15.68,10.9,35.54,7.8,52.61-7.96-15.66-10.86-35.53-7.8-52.61h0Z"/>
      <path class="cls-32" d="M792.05,592.51c3.18,13.28,1.22,28.74-5.27,40.94-3.21-13.27-1.19-28.73,5.27-40.94h0Z"/>
    </g>
    <path class="cls-34" d="M379.65,586.36c6.1,13.85,6.14,30.65,0,44.49-6.14-13.84-6.1-30.64,0-44.49h0Z"/>
    <g>
      <path class="cls-15" d="M1780.38,585.17c.33,11.92-5.72,25.87-15.24,33.07-.37-11.93,5.76-25.85,15.24-33.07h0Z"/>
      <path class="cls-15" d="M1780.38,598.47c.33,11.92-5.72,25.87-15.24,33.07-.37-11.93,5.76-25.85,15.24-33.07h0Z"/>
      <path class="cls-15" d="M1759.63,601.97c-.33,11.92,5.72,25.87,15.24,33.07.37-11.93-5.76-25.85-15.24-33.07h0Z"/>
      <path class="cls-15" d="M1780.36,612.03c.24,8.65-2.88,18.38-8.26,25.81-2.12,2.93-6.75.8-5.91-2.72,2.13-9.02,7.26-17.84,14.17-23.1h0Z"/>
      <path class="cls-15" d="M1759.63,615.27c-.33,11.92,5.72,25.87,15.24,33.07.37-11.93-5.76-25.85-15.24-33.07h0Z"/>
      <path class="cls-15" d="M1759.63,588.67c-.33,11.92,5.72,25.87,15.24,33.07.37-11.93-5.76-25.85-15.24-33.07h0Z"/>
    </g>
    <g>
      <path class="cls-13" d="M1792.38,585.17c.33,11.92-5.72,25.87-15.24,33.07-.37-11.93,5.76-25.85,15.24-33.07h0Z"/>
      <path class="cls-13" d="M1792.38,598.47c.33,11.92-5.72,25.87-15.24,33.07-.37-11.93,5.76-25.85,15.24-33.07h0Z"/>
      <path class="cls-13" d="M1772.63,602.97c-.33,11.92,5.72,25.87,15.24,33.07.37-11.93-5.76-25.85-15.24-33.07h0Z"/>
      <path class="cls-13" d="M1792.36,612.03c.23,8.32-2.65,17.62-7.64,24.94-2.23,3.27-7.28.96-6.27-2.87,2.27-8.65,7.27-17,13.92-22.07h0Z"/>
      <path class="cls-13" d="M1771.63,615.27c-.33,11.92,5.72,25.87,15.24,33.07.37-11.93-5.76-25.85-15.24-33.07h0Z"/>
      <path class="cls-13" d="M1771.63,588.67c-.33,11.92,5.72,25.87,15.24,33.07.37-11.93-5.76-25.85-15.24-33.07h0Z"/>
    </g>
    <g>
      <path class="cls-15" d="M1713.38,701.5c.33,11.92-5.72,25.87-15.24,33.07-.37-11.93,5.76-25.85,15.24-33.07h0Z"/>
      <path class="cls-15" d="M1713.38,714.8c.33,11.92-5.72,25.87-15.24,33.07-.37-11.93,5.76-25.85,15.24-33.07h0Z"/>
      <path class="cls-15" d="M1692.63,718.3c-.33,11.92,5.72,25.87,15.24,33.07.37-11.93-5.76-25.85-15.24-33.07h0Z"/>
      <path class="cls-15" d="M1713.36,728.36c.25,8.81-3,18.74-8.56,26.22-2.09,2.81-6.49.79-5.73-2.63,2.06-9.19,7.25-18.24,14.29-23.59h0Z"/>
      <path class="cls-15" d="M1692.63,731.59c-.33,11.92,5.72,25.87,15.24,33.07.37-11.93-5.76-25.85-15.24-33.07h0Z"/>
      <path class="cls-15" d="M1692.63,705c-.33,11.92,5.72,25.87,15.24,33.07.37-11.93-5.76-25.85-15.24-33.07h0Z"/>
    </g>
    <g>
      <path class="cls-37" d="M1705.96,756.59c.17,6.02-1.39,12.59-4.24,18.44-2.18,4.46-8.97,1.53-7.08-3.06,2.53-6.11,6.46-11.67,11.32-15.37h0Z"/>
      <path class="cls-37" d="M1687.97,754.81c-.31,11.28,5.41,24.48,14.42,31.29.35-11.29-5.45-24.46-14.42-31.29h0Z"/>
    </g>
    <path class="cls-33" d="M398.17,793.34c-2.9,4.67-5.12,10.07-6.66,15.93-1.55-5.86-3.76-11.26-6.66-15.93,0,16.68-.23,5.33-.11,14.9.21,16.61,1.46,15.58,6.77,24.51,5.31-8.93,6.56-7.9,6.77-24.51.12-9.57-.11,1.78-.11-14.9Z"/>
    <path class="cls-27" d="M168.17,587.77c-2.9,4.67-5.12,10.07-6.66,15.93-1.55-5.86-3.76-11.26-6.66-15.93,0,16.68-.23,5.33-.11,14.9.21,16.61,1.46,15.58,6.77,24.51,5.31-8.93,6.56-7.9,6.77-24.51.12-9.57-.11,1.78-.11-14.9Z"/>
    <path class="cls-27" d="M140.17,505.77c-2.9,4.67-5.12,10.07-6.66,15.93-1.55-5.86-3.76-11.26-6.66-15.93,0,16.68-.23,5.33-.11,14.9.21,16.61,1.46,15.58,6.77,24.51,5.31-8.93,6.56-7.9,6.77-24.51.12-9.57-.11,1.78-.11-14.9Z"/>
    <path class="cls-27" d="M309.17,793.34c-2.9,4.67-5.12,10.07-6.66,15.93-1.55-5.86-3.76-11.26-6.66-15.93,0,16.68-.23,5.33-.11,14.9.21,16.61,1.46,15.58,6.77,24.51,5.31-8.93,6.56-7.9,6.77-24.51.12-9.57-.11,1.78-.11-14.9Z"/>
    <path class="cls-33" d="M413.1,700.77c-2.9,4.67-5.12,10.07-6.66,15.93-1.55-5.86-3.76-11.26-6.66-15.93,0,16.68-.23,5.33-.11,14.9.21,16.61,1.46,15.58,6.77,24.51,5.31-8.93,6.56-7.9,6.77-24.51.12-9.57-.11,1.78-.11-14.9Z"/>
    <path class="cls-40" d="M319.1,700.77c-2.9,4.67-5.12,10.07-6.66,15.93-1.55-5.86-3.76-11.26-6.66-15.93,0,16.68-.23,5.33-.11,14.9.21,16.61,1.46,15.58,6.77,24.51,5.31-8.93,6.56-7.9,6.77-24.51.12-9.57-.11,1.78-.11-14.9Z"/>
    <path class="cls-33" d="M447.66,378.95c-2.9,4.67-5.12,10.07-6.66,15.93-1.55-5.86-3.76-11.26-6.66-15.93,0,16.68-.23,5.33-.11,14.9.21,16.61,1.46,15.58,6.77,24.51,5.31-8.93,6.56-7.9,6.77-24.51.12-9.57-.11,1.78-.11-14.9Z"/>
    <path class="cls-21" d="M560.33,700.77c-2.9,4.67-5.12,10.07-6.66,15.93-1.55-5.86-3.76-11.26-6.66-15.93,0,16.68-.23,5.33-.11,14.9.21,16.61,1.46,15.58,6.77,24.51,5.31-8.93,6.56-7.9,6.77-24.51.12-9.57-.11,1.78-.11-14.9Z"/>
    <g>
      <path class="cls-32" d="M888.06,189.51c-5.08,7.78-6.66,19.15-4.16,30.56,5.11-7.76,6.63-19.16,4.16-30.56h0Z"/>
      <path class="cls-32" d="M877.85,177.42c5.08,7.78,6.66,19.15,4.16,30.56-5.11-7.76-6.63-19.16-4.16-30.56h0Z"/>
      <g>
        <path class="cls-32" d="M876.49,197.01c7,13.75,9.44,31.26,6.37,46.38-7.03-13.73-9.4-31.25-6.37-46.38h0Z"/>
        <path class="cls-32" d="M888.3,212.47c2.9,13.08,1.12,28.33-4.81,40.35-2.94-13.08-1.09-28.31,4.81-40.35h0Z"/>
      </g>
    </g>
    <g>
      <path class="cls-27" d="M1013.97,490c-6.65,13.16-9.15,29.83-6.55,44.16,6.68-13.15,9.12-29.83,6.55-44.16h0Z"/>
      <path class="cls-27" d="M1003.35,499.25c-2.67,11.14-1.03,24.13,4.42,34.37,2.7-11.14,1-24.12-4.42-34.37h0Z"/>
    </g>
    <g>
      <path class="cls-36" d="M993.6,88c6.65,13.16,9.15,29.83,6.55,44.16-6.68-13.15-9.12-29.83-6.55-44.16h0Z"/>
      <path class="cls-36" d="M1004.22,97.25c2.67,11.14,1.03,24.13-4.42,34.37-2.7-11.14-1-24.12,4.42-34.37h0Z"/>
    </g>
    <g>
      <path class="cls-33" d="M463.16,203.92c-3.35,4.13-5.91,8.9-7.69,14.09-1.78-5.18-4.35-9.96-7.69-14.09,0,14.75-.26,11.68-.12,20.15.24,14.69,1.69,22.14,7.82,30.04,6.13-7.9,7.58-15.35,7.82-30.04.14-8.47-.12-5.4-.12-20.15Z"/>
      <path class="cls-33" d="M463.31,181.51c-3.35,4.13-6.03,8.9-7.82,14.09-1.78-5.18-4.47-9.96-7.82-14.09,0,2.79-.14-5.05,0,3.42.24,14.69,1.69,22.14,7.82,30.04,6.13-7.9,7.58-15.35,7.82-30.04.14-8.47,0-.63,0-3.42Z"/>
    </g>
    <g>
      <path class="cls-26" d="M991.9,580.49c7.92,15.68,10.9,35.54,7.8,52.61-7.96-15.66-10.86-35.53-7.8-52.61h0Z"/>
      <path class="cls-26" d="M1004.55,591.51c3.18,13.28,1.22,28.74-5.27,40.94-3.21-13.27-1.19-28.73,5.27-40.94h0Z"/>
    </g>
    <g>
      <path class="cls-27" d="M147.14,813.32c-3.28,4.05-5.79,8.72-7.54,13.8-1.75-5.08-4.26-9.75-7.54-13.8,0,14.45-.26,11.44-.12,19.74.24,14.39,1.65,21.69,7.66,29.43,6-7.74,7.42-15.04,7.66-29.43.14-8.3-.12-5.29-.12-19.74Z"/>
      <path class="cls-27" d="M147.26,790.1c-3.28,4.05-5.91,8.72-7.66,13.8-1.75-5.08-4.38-9.75-7.66-13.8,0,2.73-.14-4.95,0,3.35.24,14.39,1.65,21.69,7.66,29.43,6-7.74,7.42-15.04,7.66-29.43.14-8.3,0-.62,0-3.35Z"/>
    </g>
    <g>
      <path class="cls-9" d="M1512.11,590.46c6.3,7.44,9.46,19.36,6.91,28.7-6.33-7.43-9.43-19.36-6.91-28.7h0Z"/>
      <line class="cls-4" x1="1515.8" y1="608.22" x2="1510.24" y2="582.79"/>
      <path class="cls-9" d="M1525.15,590.46c-6.3,7.44-9.46,19.36-6.91,28.7,6.33-7.43,9.43-19.36,6.91-28.7h0Z"/>
      <line class="cls-7" x1="1521.46" y1="608.22" x2="1527.02" y2="582.79"/>
      <path class="cls-9" d="M1512.11,605.51c6.3,7.44,9.46,19.36,6.91,28.7-6.33-7.43-9.43-19.36-6.91-28.7h0Z"/>
      <line class="cls-7" x1="1515.8" y1="623.28" x2="1510.24" y2="597.84"/>
      <path class="cls-9" d="M1525.15,605.51c-6.3,7.44-9.46,19.36-6.91,28.7,6.33-7.43,9.43-19.36,6.91-28.7h0Z"/>
      <line class="cls-4" x1="1521.46" y1="623.28" x2="1527.02" y2="597.84"/>
      <path class="cls-9" d="M1512.11,620.56c6.05,7.15,9.21,18.43,7.19,27.59-.1.44-.74.56-1.02.2-5.82-7.47-8.58-18.82-6.17-27.79h0Z"/>
      <line class="cls-7" x1="1515.8" y1="638.33" x2="1510.24" y2="612.89"/>
      <path class="cls-9" d="M1525.15,620.56c-6.3,7.44-9.46,19.36-6.91,28.7,6.33-7.43,9.43-19.36,6.91-28.7h0Z"/>
      <line class="cls-7" x1="1521.46" y1="638.33" x2="1527.02" y2="612.89"/>
    </g>
    <g>
      <path class="cls-9" d="M1612.82,494.46c6.3,7.44,9.46,19.36,6.91,28.7-6.33-7.43-9.43-19.36-6.91-28.7h0Z"/>
      <line class="cls-4" x1="1616.51" y1="512.22" x2="1610.95" y2="486.79"/>
      <path class="cls-9" d="M1625.86,494.46c-6.3,7.44-9.46,19.36-6.91,28.7,6.33-7.43,9.43-19.36,6.91-28.7h0Z"/>
      <line class="cls-7" x1="1622.17" y1="512.22" x2="1627.73" y2="486.79"/>
      <path class="cls-9" d="M1612.82,509.51c6.3,7.44,9.46,19.36,6.91,28.7-6.33-7.43-9.43-19.36-6.91-28.7h0Z"/>
      <line class="cls-7" x1="1616.51" y1="527.28" x2="1610.95" y2="501.84"/>
      <path class="cls-9" d="M1625.86,509.51c-6.3,7.44-9.46,19.36-6.91,28.7,6.33-7.43,9.43-19.36,6.91-28.7h0Z"/>
      <line class="cls-4" x1="1622.17" y1="527.28" x2="1627.73" y2="501.84"/>
      <path class="cls-9" d="M1612.82,524.56c6.05,7.15,9.21,18.43,7.19,27.59-.1.44-.74.56-1.02.2-5.82-7.47-8.58-18.82-6.17-27.79h0Z"/>
      <line class="cls-7" x1="1616.51" y1="542.33" x2="1610.95" y2="516.89"/>
      <path class="cls-9" d="M1625.86,524.56c-6.3,7.44-9.46,19.36-6.91,28.7,6.33-7.43,9.43-19.36,6.91-28.7h0Z"/>
      <line class="cls-7" x1="1622.17" y1="542.33" x2="1627.73" y2="516.89"/>
    </g>
    <g>
      <path class="cls-36" d="M1043.4,378.49c7.92,15.68,10.9,35.54,7.8,52.61-7.96-15.66-10.86-35.53-7.8-52.61h0Z"/>
      <path class="cls-36" d="M1056.05,389.51c3.18,13.28,1.22,28.74-5.27,40.94-3.21-13.27-1.19-28.73,5.27-40.94h0Z"/>
    </g>
    <g class="cls-25">
      <path class="cls-20" d="M695.4,377.43c7.92,15.68,10.9,35.54,7.8,52.61-7.96-15.66-10.86-35.53-7.8-52.61h0Z"/>
      <path class="cls-20" d="M708.05,388.44c3.18,13.28,1.22,28.74-5.27,40.94-3.21-13.27-1.19-28.73,5.27-40.94h0Z"/>
    </g>
    <g>
      <path class="cls-32" d="M779.4,377.43c7.92,15.68,10.9,35.54,7.8,52.61-7.96-15.66-10.86-35.53-7.8-52.61h0Z"/>
      <path class="cls-32" d="M792.05,388.44c3.18,13.28,1.22,28.74-5.27,40.94-3.21-13.27-1.19-28.73,5.27-40.94h0Z"/>
    </g>
    <g class="cls-25">
      <path class="cls-32" d="M784.4,377.43c7.92,15.68,10.9,35.54,7.8,52.61-7.96-15.66-10.86-35.53-7.8-52.61h0Z"/>
      <path class="cls-32" d="M797.05,388.44c3.18,13.28,1.22,28.74-5.27,40.94-3.21-13.27-1.19-28.73,5.27-40.94h0Z"/>
    </g>
    <path class="cls-5" d="M1564.51,593.18c6.3,7.44,9.46,19.36,6.91,28.7-6.33-7.43-9.43-19.36-6.91-28.7h0Z"/>
    <line class="cls-17" x1="1568.79" y1="613" x2="1563.23" y2="587.56"/>
    <path class="cls-5" d="M1576.14,593.18c-6.3,7.44-9.46,19.36-6.91,28.7,6.33-7.43,9.43-19.36,6.91-28.7h0Z"/>
    <line class="cls-1" x1="1571.86" y1="613" x2="1577.42" y2="587.56"/>
    <g>
      <path class="cls-24" d="M2047.96,703.48c.17,6.02-1.39,12.59-4.24,18.44-2.18,4.46-8.97,1.53-7.08-3.06,2.53-6.11,6.46-11.67,11.32-15.37h0Z"/>
      <path class="cls-24" d="M2029.97,701.71c-.31,11.28,5.41,24.48,14.42,31.29.35-11.29-5.45-24.46-14.42-31.29h0Z"/>
    </g>
    <g>
      <path class="cls-31" d="M1906.96,587.15c.17,6.02-1.39,12.59-4.24,18.44-2.18,4.46-8.97,1.53-7.08-3.06,2.53-6.11,6.46-11.67,11.32-15.37h0Z"/>
      <path class="cls-31" d="M1888.97,585.38c-.31,11.28,5.41,24.48,14.42,31.29.35-11.29-5.45-24.46-14.42-31.29h0Z"/>
    </g>
    <g>
      <path class="cls-31" d="M1906.96,766.26c.17,6.02-1.39,12.59-4.24,18.44-2.18,4.46-8.97,1.53-7.08-3.06,2.53-6.11,6.46-11.67,11.32-15.37h0Z"/>
      <path class="cls-31" d="M1888.97,764.49c-.31,11.28,5.41,24.48,14.42,31.29.35-11.29-5.45-24.46-14.42-31.29h0Z"/>
    </g>
    <g class="cls-25">
      <path class="cls-31" d="M1912.96,766.26c.17,6.02-1.39,12.59-4.24,18.44-2.18,4.46-8.97,1.53-7.08-3.06,2.53-6.11,6.46-11.67,11.32-15.37h0Z"/>
      <path class="cls-31" d="M1894.97,764.49c-.31,11.28,5.41,24.48,14.42,31.29.35-11.29-5.45-24.46-14.42-31.29h0Z"/>
    </g>
    <g>
      <path class="cls-23" d="M1684.96,592.48c.17,6.02-1.39,12.59-4.24,18.44-2.18,4.46-8.97,1.53-7.08-3.06,2.53-6.11,6.46-11.67,11.32-15.37h0Z"/>
      <path class="cls-23" d="M1666.97,590.71c-.31,11.28,5.41,24.48,14.42,31.29.35-11.29-5.45-24.46-14.42-31.29h0Z"/>
    </g>
    <path class="cls-34" d="M1386.7,584.65c6.1,13.85,6.14,30.65,0,44.49-6.14-13.84-6.1-30.64,0-44.49h0Z"/>
    <g class="cls-39">
      <path class="cls-28" d="M672.66,489.36c6.1,13.85,6.14,30.65,0,44.49-6.14-13.84-6.1-30.64,0-44.49h0Z"/>
    </g>
    <g>
      <path class="cls-21" d="M532.23,910.27c-3.22,4.1-5.69,8.84-7.4,13.98-1.72-5.15-4.18-9.88-7.4-13.98,0,14.64-.25,11.6-.12,20,.23,14.58,1.62,21.98,7.52,29.82,5.9-7.84,7.29-15.24,7.52-29.82.13-8.41-.12-5.36-.12-20Z"/>
      <path class="cls-21" d="M532.35,887.69c-3.22,4.1-5.81,8.84-7.52,13.98-1.72-5.15-4.3-9.88-7.52-13.98,0,2.77-.13-5.01,0,3.4.23,14.58,1.62,21.98,7.52,29.82,5.9-7.84,7.29-15.24,7.52-29.82.13-8.41,0-.63,0-3.39Z"/>
    </g>
    <g>
      <path class="cls-2" d="M1306.95,895.55c6.3,8.25,9.46,21.46,6.91,31.82-6.33-8.23-9.43-21.47-6.91-31.82h0Z"/>
      <line class="cls-8" x1="1310.64" y1="915.24" x2="1305.08" y2="887.04"/>
      <path class="cls-2" d="M1319.99,895.55c-6.3,8.25-9.46,21.46-6.91,31.82,6.33-8.23,9.43-21.47,6.91-31.82h0Z"/>
      <line class="cls-18" x1="1316.3" y1="915.24" x2="1321.86" y2="887.04"/>
      <path class="cls-2" d="M1306.95,912.23c6.3,8.25,9.46,21.46,6.91,31.82-6.33-8.23-9.43-21.47-6.91-31.82h0Z"/>
      <line class="cls-18" x1="1310.64" y1="931.93" x2="1305.08" y2="903.73"/>
      <path class="cls-2" d="M1319.99,912.23c-6.3,8.25-9.46,21.46-6.91,31.82,6.33-8.23,9.43-21.47,6.91-31.82h0Z"/>
      <line class="cls-8" x1="1316.3" y1="931.93" x2="1321.86" y2="903.73"/>
      <path class="cls-2" d="M1306.95,928.92c6.05,7.92,9.21,20.43,7.19,30.58-.1.49-.74.62-1.02.22-5.82-8.28-8.58-20.87-6.17-30.8h0Z"/>
      <line class="cls-18" x1="1310.64" y1="948.61" x2="1305.08" y2="920.42"/>
      <path class="cls-2" d="M1319.99,928.92c-6.3,8.25-9.46,21.46-6.91,31.82,6.33-8.23,9.43-21.47,6.91-31.82h0Z"/>
      <line class="cls-18" x1="1316.3" y1="948.61" x2="1321.86" y2="920.42"/>
    </g>
    <g>
      <path class="cls-5" d="M1480.28,895.32c6.3,8.02,9.46,20.89,6.91,30.96-6.33-8.01-9.43-20.89-6.91-30.96h0Z"/>
      <line class="cls-17" x1="1483.97" y1="914.48" x2="1478.41" y2="887.04"/>
      <path class="cls-5" d="M1493.31,895.32c-6.3,8.02-9.46,20.89-6.91,30.96,6.33-8.01,9.43-20.89,6.91-30.96h0Z"/>
      <line class="cls-1" x1="1489.62" y1="914.48" x2="1495.18" y2="887.04"/>
      <path class="cls-5" d="M1480.28,911.55c6.3,8.02,9.46,20.89,6.91,30.96-6.33-8.01-9.43-20.89-6.91-30.96h0Z"/>
      <line class="cls-1" x1="1483.97" y1="930.72" x2="1478.41" y2="903.28"/>
      <path class="cls-5" d="M1493.31,911.55c-6.3,8.02-9.46,20.89-6.91,30.96,6.33-8.01,9.43-20.89,6.91-30.96h0Z"/>
      <line class="cls-17" x1="1489.62" y1="930.72" x2="1495.18" y2="903.28"/>
      <path class="cls-5" d="M1480.28,927.79c6.05,7.71,9.21,19.88,7.19,29.76-.1.47-.74.61-1.02.22-5.82-8.05-8.58-20.3-6.17-29.97h0Z"/>
      <line class="cls-1" x1="1483.97" y1="946.96" x2="1478.41" y2="919.52"/>
      <path class="cls-5" d="M1493.31,927.79c-6.3,8.02-9.46,20.89-6.91,30.96,6.33-8.01,9.43-20.89,6.91-30.96h0Z"/>
      <line class="cls-1" x1="1489.62" y1="946.96" x2="1495.18" y2="919.52"/>
    </g>
    <g>
      <path class="cls-36" d="M1020.88,377.08c6.59,15.5,9.07,35.14,6.49,52.02-6.62-15.48-9.04-35.14-6.49-52.02h0Z"/>
      <path class="cls-36" d="M1031.41,387.97c2.64,13.13,1.02,28.42-4.39,40.48-2.67-13.12-.99-28.41,4.39-40.48h0Z"/>
    </g>
    <g>
      <path class="cls-38" d="M547.53,398.1c-3.35,4.13-5.91,8.9-7.69,14.09-1.78-5.18-4.35-9.96-7.69-14.09,0,14.75-.26,11.68-.12,20.15.24,14.69,1.69,22.14,7.82,30.04,6.13-7.9,7.58-15.35,7.82-30.04.14-8.47-.12-5.4-.12-20.15Z"/>
      <path class="cls-38" d="M547.67,375.69c-3.35,4.13-6.03,8.9-7.82,14.09-1.78-5.18-4.47-9.96-7.82-14.09,0,2.79-.14-5.05,0,3.42.24,14.69,1.69,22.14,7.82,30.04,6.13-7.9,7.58-15.35,7.82-30.04.14-8.47,0-.63,0-3.42Z"/>
    </g>
    <path class="cls-27" d="M141.24,482.87c-3.28,4.05-5.91,8.72-7.66,13.8-1.75-5.08-4.38-9.75-7.66-13.8,0,2.73-.14-4.95,0,3.35.24,14.39,1.65,21.69,7.66,29.43,6-7.74,7.42-15.04,7.66-29.43.14-8.3,0-.62,0-3.35Z"/>
    <g>
      <path class="cls-15" d="M1660.38,585.17c.33,11.92-5.72,25.87-15.24,33.07-.37-11.93,5.76-25.85,15.24-33.07h0Z"/>
      <path class="cls-15" d="M1660.38,598.47c.33,11.92-5.72,25.87-15.24,33.07-.37-11.93,5.76-25.85,15.24-33.07h0Z"/>
      <path class="cls-15" d="M1639.63,601.97c-.33,11.92,5.72,25.87,15.24,33.07.37-11.93-5.76-25.85-15.24-33.07h0Z"/>
      <path class="cls-15" d="M1660.36,612.03c.23,8.35-2.67,17.71-7.71,25.03-2.23,3.24-7.22.96-6.24-2.85,2.25-8.69,7.27-17.1,13.95-22.18h0Z"/>
      <path class="cls-15" d="M1639.63,615.27c-.33,11.92,5.72,25.87,15.24,33.07.37-11.93-5.76-25.85-15.24-33.07h0Z"/>
      <path class="cls-15" d="M1639.63,588.67c-.33,11.92,5.72,25.87,15.24,33.07.37-11.93-5.76-25.85-15.24-33.07h0Z"/>
    </g>
  </g>
  <g id="duiyin">
    <rect class="cls-22" x="605.06" width="943.84" height="350.03"/>
    <g>
      <path class="cls-30" d="M1032.14,128.38c-4.83,5.96-8.52,12.84-11.09,20.31-2.57-7.47-6.27-14.36-11.09-20.31,0,21.27-.38,16.84-.18,29.05.35,21.18,2.44,31.93,11.27,43.32,8.84-11.39,10.93-22.13,11.27-43.32.2-12.21-.18-7.79-.18-29.05Z"/>
      <path class="cls-30" d="M1032.32,95.26c-4.83,5.96-8.7,12.84-11.27,20.31-2.57-7.47-6.45-14.36-11.27-20.31,0,4.02-.2-7.28,0,4.93.35,21.18,2.44,31.93,11.27,43.32,8.84-11.39,10.93-22.13,11.27-43.32.2-12.21,0-.91,0-4.93Z"/>
      <path class="cls-30" d="M1032.32,62.19c-4.83,5.96-8.7,12.84-11.27,20.31-2.57-7.47-6.45-14.36-11.27-20.31,0,4.02-.2-7.28,0,4.93.35,21.18,2.44,31.93,11.27,43.32,8.84-11.39,10.93-22.13,11.27-43.32.2-12.21,0-.91,0-4.93Z"/>
    </g>
    <path class="cls-30" d="M833.94,114.39c-6.56,9.86-11.82,21.26-15.31,33.64-3.49-12.38-8.76-23.78-15.31-33.64,0,6.66-.27-12.06,0,8.17.47,35.08,3.31,52.88,15.31,71.74,12.01-18.86,14.84-36.65,15.31-71.74.27-20.22,0-1.51,0-8.17Z"/>
    <g>
      <path class="cls-30" d="M937.87,127.47c-4.89,6.03-8.63,13-11.23,20.57-2.6-7.57-6.34-14.54-11.23-20.57,0,21.54-.38,17.06-.18,29.42.35,21.45,2.47,32.33,11.41,43.86,8.95-11.53,11.06-22.41,11.41-43.86.2-12.36-.18-7.88-.18-29.42Z"/>
      <path class="cls-30" d="M938.09,94.26c-4.89,6.03-8.81,13-11.41,20.57-2.6-7.57-6.53-14.54-11.41-20.57,0,4.07-.2-7.37,0,4.99.35,21.45,2.47,32.33,11.41,43.86,8.95-11.53,11.06-22.41,11.41-43.86.2-12.36,0-.92,0-4.99Z"/>
    </g>
    <path class="cls-30" d="M722.1,119.25c10.41,23.66,10.49,52.37,0,76.02-10.49-23.65-10.42-52.35,0-76.02h0Z"/>
    <path class="cls-3" d="M1361.77,103.45c14.82,17.51,22.27,45.57,16.28,67.55-14.89-17.48-22.19-45.57-16.28-67.55h0Z"/>
    <line class="cls-16" x1="1371.24" y1="148.12" x2="1358.16" y2="88.25"/>
    <path class="cls-3" d="M1395.2,103.45c-14.82,17.51-22.27,45.57-16.28,67.55,14.89-17.48,22.19-45.57,16.28-67.55h0Z"/>
    <line class="cls-16" x1="1385.73" y1="148.12" x2="1398.82" y2="88.25"/>
    <path class="cls-31" d="M1490.94,104.96c-7.28,5.54-13.66,12.86-18.88,21.15-5.69-10.45-13.16-19.73-21.94-26.41-.74,26.54,12.75,57.62,33.95,73.65.25-8.11-.86-16.63-3.1-25.01,6.71-13.77,10.37-29.22,9.97-43.38Z"/>
    <path class="cls-33" d="M1218.33,100.39c-5.45,8.79-9.83,18.95-12.74,29.98-2.91-11.03-7.29-21.19-12.74-29.98,0,5.93-.23-10.74,0,7.28.39,31.27,2.75,47.13,12.74,63.93,9.99-16.81,12.35-32.67,12.74-63.93.23-18.02,0-1.34,0-7.28Z"/>
    <path class="cls-32" d="M1287.93,110.3h0c-5.07,21.19-1.95,45.89,8.41,65.36"/>
    <path class="cls-32" d="M1306.7,93.8c-12.64,25.03-17.41,56.74-12.45,83.98,12.7-25,17.34-56.72,12.45-83.98h0Z"/>
    <text class="cls-35" transform="translate(1193.5 205.24)"><tspan x="0" y="0">春</tspan></text>
    <text class="cls-35" transform="translate(1289.28 204.44)"><tspan x="0" y="0">夏</tspan></text>
    <text class="cls-35" transform="translate(1370.94 205.15)"><tspan x="0" y="0">秋</tspan></text>
    <text class="cls-35" transform="translate(1458.7 205.33)"><tspan x="0" y="0">冬</tspan></text>
    <polyline class="cls-19" points="795.19 210.13 1042.23 210.13 1028.51 202.34"/>
    <polyline class="cls-19" points="949.59 210.13 702.55 210.13 716.28 202.34"/>
    <text class="cls-35" transform="translate(669.24 106.74)"><tspan x="0" y="0">非</tspan><tspan x="0" y="24">遗</tspan><tspan x="0" y="48">等</tspan><tspan x="0" y="72">级</tspan><tspan x="0" y="96">低</tspan><tspan x="-28.8" y="0">影</tspan><tspan x="-28.8" y="24">响</tspan><tspan x="-28.8" y="48">力</tspan><tspan x="-28.8" y="72">小</tspan></text>
    <text class="cls-35" transform="translate(790.02 265.51)"><tspan x="0" y="0">以稻谷成长状态</tspan><tspan x="-24" y="28.8">代表节日影响力大小</tspan></text>
    <text class="cls-35" transform="translate(1250.02 265.51)"><tspan x="0" y="0">稻谷的颜色与形状</tspan><tspan x="-12" y="28.8">代表节日的不同季节</tspan></text>
    <text class="cls-35" transform="translate(1085.24 114.74)"><tspan x="0" y="0">非</tspan><tspan x="0" y="24">遗</tspan><tspan x="0" y="48">等</tspan><tspan x="0" y="72">级</tspan><tspan x="0" y="96">高</tspan><tspan x="-28.8" y="0">影</tspan><tspan x="-28.8" y="24">响</tspan><tspan x="-28.8" y="48">力</tspan><tspan x="-28.8" y="72">大</tspan></text>
  </g>
</svg>