<?xml version="1.0" encoding="UTF-8"?>
<svg id="_图层_1" data-name="图层 1" xmlns="http://www.w3.org/2000/svg" viewBox="0 0 2153.95 1211.6">
  <defs>
    <style>
      .cls-1 {
        fill: #d6bd7e;
      }

      .cls-1, .cls-2, .cls-3, .cls-4, .cls-5, .cls-6, .cls-7, .cls-8, .cls-9, .cls-10, .cls-11 {
        stroke-miterlimit: 10;
      }

      .cls-1, .cls-3, .cls-4, .cls-7, .cls-11 {
        stroke-width: .5px;
      }

      .cls-1, .cls-3, .cls-7 {
        stroke: #f4f3f2;
      }

      .cls-12 {
        fill: #2f823a;
      }

      .cls-13 {
        fill: #6bab69;
      }

      .cls-2, .cls-5, .cls-8 {
        stroke: #be6a62;
      }

      .cls-2, .cls-5, .cls-9 {
        stroke-width: .15px;
      }

      .cls-2, .cls-9 {
        fill: #cabc83;
      }

      .cls-3 {
        fill: #00543f;
      }

      .cls-4 {
        fill: #78504b;
      }

      .cls-4, .cls-11 {
        stroke: #fff;
      }

      .cls-5, .cls-6, .cls-14, .cls-8, .cls-10 {
        fill: none;
      }

      .cls-15 {
        fill: #e6a275;
      }

      .cls-16 {
        fill: #c56d64;
      }

      .cls-6, .cls-8, .cls-10 {
        stroke-width: 2px;
      }

      .cls-6, .cls-9 {
        stroke: #cabc83;
      }

      .cls-17 {
        opacity: .8;
      }

      .cls-18 {
        fill: #cd7066;
      }

      .cls-19 {
        fill: #967566;
      }

      .cls-7 {
        fill: #be6a62;
      }

      .cls-8, .cls-10 {
        stroke-dasharray: 24 .5 1 .5;
      }

      .cls-20 {
        fill: #82c47c;
      }

      .cls-21 {
        fill: #7e9b67;
      }

      .cls-22, .cls-11 {
        fill: #b7947a;
      }

      .cls-10 {
        stroke: #6bab69;
      }

      .cls-23 {
        fill: #9dce83;
      }

      .cls-24 {
        opacity: .7;
      }
    </style>
  </defs>
  <rect class="cls-14" y="-.72" width="2152.84" height="1211.5" transform="translate(2152.84 1210.05) rotate(180)"/>
  <g>
    <g>
      <path class="cls-7" d="M1668.38,555.17c.33,11.92-5.72,25.87-15.24,33.07-.37-11.93,5.76-25.85,15.24-33.07h0Z"/>
      <g>
        <path class="cls-16" d="M1667.96,673.48c.17,6.02-1.39,12.59-4.24,18.44-2.18,4.46-8.97,1.53-7.08-3.06,2.53-6.11,6.46-11.67,11.32-15.37h0Z"/>
        <path class="cls-16" d="M1649.97,671.71c-.31,11.28,5.41,24.48,14.42,31.29.35-11.29-5.45-24.46-14.42-31.29h0Z"/>
      </g>
      <g>
        <path class="cls-16" d="M1667.96,469.48c.17,6.02-1.39,12.59-4.24,18.44-2.18,4.46-8.97,1.53-7.08-3.06,2.53-6.11,6.46-11.67,11.32-15.37h0Z"/>
        <path class="cls-16" d="M1649.97,467.71c-.31,11.28,5.41,24.48,14.42,31.29.35-11.29-5.45-24.46-14.42-31.29h0Z"/>
      </g>
      <line class="cls-8" x1="1658.66" y1="691.1" x2="1658.66" y2="484.1"/>
    </g>
    <path class="cls-20" d="M334.65,556.36c6.1,13.85,6.14,30.65,0,44.49-6.14-13.84-6.1-30.64,0-44.49h0Z"/>
    <path class="cls-15" d="M1441.87,555.36c6.37,13.85,6.42,30.65,0,44.49-6.42-13.84-6.37-30.64,0-44.49h0Z"/>
    <path class="cls-1" d="M1357.72,757.36c6.1,13.85,6.14,30.65,0,44.49-6.14-13.84-6.1-30.64,0-44.49h0Z"/>
    <g>
      <path class="cls-12" d="M619.04,869.49c-5.08,7.78-6.66,19.15-4.16,30.56,5.11-7.76,6.63-19.16,4.16-30.56h0Z"/>
      <path class="cls-12" d="M608.83,857.4c5.08,7.78,6.66,19.15,4.16,30.56-5.11-7.76-6.63-19.16-4.16-30.56h0Z"/>
      <g>
        <path class="cls-12" d="M607.47,876.99c7,13.75,9.44,31.26,6.37,46.38-7.03-13.73-9.4-31.25-6.37-46.38h0Z"/>
        <path class="cls-12" d="M619.28,892.45c2.9,13.08,1.12,28.33-4.81,40.35-2.94-13.08-1.09-28.31,4.81-40.35h0Z"/>
      </g>
    </g>
    <g>
      <path class="cls-21" d="M965.79,868.87c-5.08,6.9-6.66,16.98-4.16,27.1,5.11-6.88,6.63-16.99,4.16-27.1h0Z"/>
      <path class="cls-21" d="M955.57,858.16c5.08,6.9,6.66,16.98,4.16,27.1-5.11-6.88-6.63-16.99-4.16-27.1h0Z"/>
      <g>
        <path class="cls-21" d="M954.21,875.53c7,12.19,9.44,27.72,6.37,41.12-7.03-12.18-9.4-27.71-6.37-41.12h0Z"/>
        <path class="cls-21" d="M966.02,889.24c2.9,11.6,1.12,25.12-4.81,35.78-2.94-11.6-1.09-25.1,4.81-35.78h0Z"/>
      </g>
    </g>
    <g>
      <path class="cls-23" d="M112.07,880.44c-2.88,4.13-5.09,8.9-6.63,14.09-1.54-5.18-3.74-9.96-6.63-14.09,0,14.75-.23,11.68-.11,20.15.21,14.69,1.45,22.14,6.73,30.04,5.28-7.9,6.53-15.35,6.73-30.04.12-8.47-.11-5.4-.11-20.15Z"/>
      <path class="cls-23" d="M112.18,857.69c-2.88,4.13-5.2,8.9-6.73,14.09-1.54-5.18-3.85-9.96-6.73-14.09,0,2.79-.12-5.05,0,3.42.21,14.69,1.45,22.14,6.73,30.04,5.28-7.9,6.53-15.35,6.73-30.04.12-8.47,0-.63,0-3.42Z"/>
    </g>
    <g>
      <path class="cls-11" d="M1663.38,866.17c.33,11.92-5.72,25.87-15.24,33.07-.37-11.93,5.76-25.85,15.24-33.07h0Z"/>
      <path class="cls-11" d="M1663.38,879.47c.33,11.92-5.72,25.87-15.24,33.07-.37-11.93,5.76-25.85,15.24-33.07h0Z"/>
      <path class="cls-11" d="M1642.63,882.97c-.33,11.92,5.72,25.87,15.24,33.07.37-11.93-5.76-25.85-15.24-33.07h0Z"/>
      <path class="cls-11" d="M1663.36,893.03c.24,8.56-2.82,18.17-8.09,25.57-2.13,3-6.89.81-6.02-2.76,2.17-8.91,7.26-17.6,14.11-22.81h0Z"/>
      <path class="cls-11" d="M1642.63,896.27c-.33,11.92,5.72,25.87,15.24,33.07.37-11.93-5.76-25.85-15.24-33.07h0Z"/>
      <path class="cls-11" d="M1642.63,869.67c-.33,11.92,5.72,25.87,15.24,33.07.37-11.93-5.76-25.85-15.24-33.07h0Z"/>
    </g>
    <g>
      <path class="cls-4" d="M2077.23,866.17c.33,11.92-5.72,25.87-15.24,33.07-.37-11.93,5.76-25.85,15.24-33.07h0Z"/>
      <path class="cls-4" d="M2077.23,879.47c.33,11.92-5.72,25.87-15.24,33.07-.37-11.93,5.76-25.85,15.24-33.07h0Z"/>
      <path class="cls-4" d="M2056.49,882.97c-.33,11.92,5.72,25.87,15.24,33.07.37-11.93-5.76-25.85-15.24-33.07h0Z"/>
      <path class="cls-4" d="M2077.22,893.03c.25,8.97-3.12,19.09-8.86,26.62-1.99,2.62-6.22.68-5.54-2.54,1.98-9.35,7.23-18.62,14.39-24.07h0Z"/>
      <path class="cls-4" d="M2056.49,896.27c-.33,11.92,5.72,25.87,15.24,33.07.37-11.93-5.76-25.85-15.24-33.07h0Z"/>
      <path class="cls-4" d="M2056.49,869.67c-.33,11.92,5.72,25.87,15.24,33.07.37-11.93-5.76-25.85-15.24-33.07h0Z"/>
    </g>
    <g>
      <path class="cls-22" d="M1705.96,726.59c.17,6.02-1.39,12.59-4.24,18.44-2.18,4.46-8.97,1.53-7.08-3.06,2.53-6.11,6.46-11.67,11.32-15.37h0Z"/>
      <path class="cls-22" d="M1687.97,724.81c-.31,11.28,5.41,24.48,14.42,31.29.35-11.29-5.45-24.46-14.42-31.29h0Z"/>
    </g>
    <path class="cls-18" d="M309.17,763.34c-2.9,4.67-5.12,10.07-6.66,15.93-1.55-5.86-3.76-11.26-6.66-15.93,0,16.68-.23,5.33-.11,14.9.21,16.61,1.46,15.58,6.77,24.51,5.31-8.93,6.56-7.9,6.77-24.51.12-9.57-.11,1.78-.11-14.9Z"/>
    <path class="cls-13" d="M560.33,670.77c-2.9,4.67-5.12,10.07-6.66,15.93-1.55-5.86-3.76-11.26-6.66-15.93,0,16.68-.23,5.33-.11,14.9.21,16.61,1.46,15.58,6.77,24.51,5.31-8.93,6.56-7.9,6.77-24.51.12-9.57-.11,1.78-.11-14.9Z"/>
    <g>
      <line class="cls-10" x1="480" y1="602.52" x2="480" y2="473.17"/>
      <path class="cls-13" d="M486.66,563.77c-2.9,4.67-5.12,10.07-6.66,15.93-1.55-5.86-3.76-11.26-6.66-15.93,0,16.68-.23,5.33-.11,14.9.21,16.61,1.46,15.58,6.77,24.51,5.31-8.93,6.56-7.9,6.77-24.51.12-9.57-.11,1.78-.11-14.9Z"/>
      <path class="cls-13" d="M480,459.36c6.1,13.85,6.14,30.65,0,44.49-6.14-13.84-6.1-30.64,0-44.49h0Z"/>
    </g>
    <path class="cls-3" d="M1346.03,555.36c6.1,13.85,6.14,30.65,0,44.49-6.14-13.84-6.1-30.64,0-44.49h0Z"/>
    <g>
      <path class="cls-7" d="M1512.11,560.46c6.3,7.44,9.46,19.36,6.91,28.7-6.33-7.43-9.43-19.36-6.91-28.7h0Z"/>
      <line class="cls-2" x1="1515.8" y1="578.22" x2="1510.24" y2="552.79"/>
      <path class="cls-7" d="M1525.15,560.46c-6.3,7.44-9.46,19.36-6.91,28.7,6.33-7.43,9.43-19.36,6.91-28.7h0Z"/>
      <line class="cls-5" x1="1521.46" y1="578.22" x2="1527.02" y2="552.79"/>
      <path class="cls-7" d="M1512.11,575.51c6.3,7.44,9.46,19.36,6.91,28.7-6.33-7.43-9.43-19.36-6.91-28.7h0Z"/>
      <line class="cls-5" x1="1515.8" y1="593.28" x2="1510.24" y2="567.84"/>
      <path class="cls-7" d="M1525.15,575.51c-6.3,7.44-9.46,19.36-6.91,28.7,6.33-7.43,9.43-19.36,6.91-28.7h0Z"/>
      <line class="cls-2" x1="1521.46" y1="593.28" x2="1527.02" y2="567.84"/>
      <path class="cls-7" d="M1512.11,590.56c6.05,7.15,9.21,18.43,7.19,27.59-.1.44-.74.56-1.02.2-5.82-7.47-8.58-18.82-6.17-27.79h0Z"/>
      <line class="cls-5" x1="1515.8" y1="608.33" x2="1510.24" y2="582.89"/>
      <path class="cls-7" d="M1525.15,590.56c-6.3,7.44-9.46,19.36-6.91,28.7,6.33-7.43,9.43-19.36,6.91-28.7h0Z"/>
      <line class="cls-5" x1="1521.46" y1="608.33" x2="1527.02" y2="582.89"/>
    </g>
    <g>
      <line class="cls-6" x1="1139.66" y1="491.6" x2="1139.66" y2="380.1"/>
      <g>
        <path class="cls-9" d="M1133.12,463.95c6.3,7.44,9.46,19.36,6.91,28.7-6.33-7.43-9.43-19.36-6.91-28.7h0Z"/>
        <line class="cls-9" x1="1136.81" y1="481.71" x2="1131.25" y2="456.28"/>
        <path class="cls-9" d="M1146.15,463.95c-6.3,7.44-9.46,19.36-6.91,28.7,6.33-7.43,9.43-19.36,6.91-28.7h0Z"/>
        <line class="cls-9" x1="1142.46" y1="481.71" x2="1148.02" y2="456.28"/>
      </g>
      <g>
        <path class="cls-9" d="M1133.12,358.95c6.3,7.44,9.46,19.36,6.91,28.7-6.33-7.43-9.43-19.36-6.91-28.7h0Z"/>
        <line class="cls-9" x1="1136.81" y1="376.71" x2="1131.25" y2="351.28"/>
        <path class="cls-9" d="M1146.15,358.95c-6.3,7.44-9.46,19.36-6.91,28.7,6.33-7.43,9.43-19.36,6.91-28.7h0Z"/>
        <line class="cls-9" x1="1142.46" y1="376.71" x2="1148.02" y2="351.28"/>
      </g>
    </g>
    <path class="cls-20" d="M440.65,237.36c6.1,13.85,6.14,30.65,0,44.49-6.14-13.84-6.1-30.64,0-44.49h0Z"/>
    <g class="cls-17">
      <path class="cls-12" d="M695.4,347.43c7.92,15.68,10.9,35.54,7.8,52.61-7.96-15.66-10.86-35.53-7.8-52.61h0Z"/>
      <path class="cls-12" d="M708.05,358.44c3.18,13.28,1.22,28.74-5.27,40.94-3.21-13.27-1.19-28.73,5.27-40.94h0Z"/>
    </g>
    <path class="cls-19" d="M1899.72,154.18c6.1,13.85,6.14,30.65,0,44.49-6.14-13.84-6.1-30.64,0-44.49h0Z"/>
    <g class="cls-17">
      <path class="cls-19" d="M1912.96,736.26c.17,6.02-1.39,12.59-4.24,18.44-2.18,4.46-8.97,1.53-7.08-3.06,2.53-6.11,6.46-11.67,11.32-15.37h0Z"/>
      <path class="cls-19" d="M1894.97,734.49c-.31,11.28,5.41,24.48,14.42,31.29.35-11.29-5.45-24.46-14.42-31.29h0Z"/>
    </g>
    <path class="cls-15" d="M155.65,671.36c6.1,13.85,6.14,30.65,0,44.49-6.14-13.84-6.1-30.64,0-44.49h0Z"/>
    <g class="cls-24">
      <path class="cls-15" d="M302.65,556.36c6.1,13.85,6.14,30.65,0,44.49-6.14-13.84-6.1-30.64,0-44.49h0Z"/>
    </g>
    <path class="cls-13" d="M546.83,556.36c6.1,13.85,6.14,30.65,0,44.49-6.14-13.84-6.1-30.64,0-44.49h0Z"/>
    <path class="cls-7" d="M1647.63,558.67c-.33,11.92,5.72,25.87,15.24,33.07.37-11.93-5.76-25.85-15.24-33.07h0Z"/>
    <path class="cls-7" d="M1668.38,568.47c.33,11.92-5.72,25.87-15.24,33.07-.37-11.93,5.76-25.85,15.24-33.07h0Z"/>
    <path class="cls-7" d="M1647.63,571.97c-.33,11.92,5.72,25.87,15.24,33.07.37-11.93-5.76-25.85-15.24-33.07h0Z"/>
    <path class="cls-7" d="M1668.36,582.03c.3,10.61-4.47,22.83-12.23,30.46-1.13,1.11-3.03.19-2.9-1.4.91-10.91,6.69-22.64,15.13-29.06h0Z"/>
    <path class="cls-7" d="M1647.63,585.27c-.33,11.92,5.72,25.87,15.24,33.07.37-11.93-5.76-25.85-15.24-33.07h0Z"/>
  </g>
</svg>