<?xml version="1.0" encoding="UTF-8"?>
<svg id="_图层_1" data-name="图层 1" xmlns="http://www.w3.org/2000/svg" viewBox="0 0 2153.95 1211.6">
  <defs>
    <style>
      .cls-1 {
        fill: #84c08a;
      }

      .cls-1, .cls-2, .cls-3, .cls-4, .cls-5, .cls-6, .cls-7, .cls-8, .cls-9, .cls-10, .cls-11, .cls-12, .cls-13, .cls-14, .cls-15, .cls-16, .cls-17, .cls-18, .cls-19, .cls-20 {
        stroke-miterlimit: 10;
      }

      .cls-1, .cls-5, .cls-10 {
        stroke: #e99a33;
      }

      .cls-2 {
        stroke: #378839;
      }

      .cls-2, .cls-21, .cls-18, .cls-20 {
        fill: #378d39;
      }

      .cls-22 {
        fill: #e5ce6e;
      }

      .cls-3 {
        stroke: #c4c4c4;
      }

      .cls-3, .cls-23 {
        fill: #c4c4c4;
      }

      .cls-3, .cls-15 {
        stroke-width: 2px;
      }

      .cls-4 {
        stroke: #b89d60;
      }

      .cls-4, .cls-6, .cls-24, .cls-9, .cls-15, .cls-19 {
        fill: none;
      }

      .cls-4, .cls-6, .cls-9, .cls-19 {
        stroke-dasharray: 12 1 1 1;
      }

      .cls-4, .cls-6, .cls-19 {
        stroke-width: 1.2px;
      }

      .cls-5, .cls-10 {
        fill: #e99a33;
      }

      .cls-6, .cls-9 {
        stroke: #529960;
      }

      .cls-7 {
        stroke: #f4f3f2;
      }

      .cls-7, .cls-9 {
        stroke-width: .5px;
      }

      .cls-7, .cls-12, .cls-13, .cls-25 {
        fill: #00543f;
      }

      .cls-8, .cls-10, .cls-11, .cls-17, .cls-18 {
        stroke-width: 3px;
      }

      .cls-8, .cls-16 {
        fill: #d2dd7d;
        stroke: #d2dd7d;
      }

      .cls-26, .cls-14, .cls-17 {
        fill: #e6605f;
      }

      .cls-11 {
        fill: #ecca42;
        stroke: #ecca42;
      }

      .cls-12 {
        stroke: #e5ce6e;
      }

      .cls-13 {
        stroke: #c56d64;
      }

      .cls-27, .cls-28 {
        fill: #231815;
      }

      .cls-14, .cls-17 {
        stroke: #e6605f;
      }

      .cls-15, .cls-18, .cls-20 {
        stroke: #378d39;
      }

      .cls-28 {
        font-family: AdobeSongStd-Light-GBpc-EUC-H, 'Adobe Song Std';
        font-size: 14px;
        font-weight: 300;
      }

      .cls-29 {
        fill: #f6bd59;
      }

      .cls-19 {
        stroke: #947466;
      }

      .cls-30 {
        fill: #88c78e;
      }
    </style>
  </defs>
  <rect class="cls-24" y="-.72" width="2152.84" height="1211.5" transform="translate(2152.84 1210.05) rotate(180)"/>
  <g>
    <line class="cls-9" x1="440.85" y1="1129.65" x2="440.85" y2="257.1"/>
    <circle class="cls-3" cx="88.78" cy="1130.22" r="1.61"/>
    <circle class="cls-23" cx="94.37" cy="1130.22" r="1.61"/>
    <circle class="cls-23" cx="94.58" cy="1100.97" r="1.61"/>
    <circle class="cls-23" cx="89" cy="1100.97" r="1.61"/>
    <path class="cls-27" d="M87.41,1145.38h5.79v1.1h-7.34v-.85c.38-.71.87-1.4,1.46-2.06.57-.63,1.24-1.24,2-1.81.97-.72,1.63-1.32,2-1.79.33-.42.5-.87.5-1.35,0-.6-.18-1.08-.54-1.43-.38-.37-.93-.55-1.66-.55-.6,0-1.11.18-1.53.54s-.71.9-.88,1.61l-1.19-.35c.24-.93.69-1.64,1.34-2.13s1.48-.73,2.48-.73c1.06,0,1.9.29,2.5.87.55.53.83,1.21.83,2.04,0,.72-.19,1.34-.56,1.85-.35.5-1.04,1.11-2.07,1.85-1.43,1.04-2.48,2.1-3.14,3.19Z"/>
    <circle class="cls-21" cx="55.97" cy="876.99" r="6.69"/>
    <g>
      <circle class="cls-21" cx="55.97" cy="54.99" r="3.1"/>
      <text class="cls-28" transform="translate(48.66 74.72)"><tspan x="0" y="0">东</tspan><tspan x="0" y="16.8">北</tspan></text>
    </g>
    <g>
      <circle class="cls-21" cx="55.97" cy="156.85" r="3.1"/>
      <text class="cls-28" transform="translate(48.66 176.58)"><tspan x="0" y="0">西</tspan><tspan x="0" y="16.8">北</tspan></text>
    </g>
    <g>
      <circle class="cls-21" cx="55.97" cy="256.71" r="3.1"/>
      <text class="cls-28" transform="translate(48.66 277.44)"><tspan x="0" y="0">黄</tspan><tspan x="0" y="16.8">淮</tspan></text>
    </g>
    <g>
      <circle class="cls-21" cx="55.97" cy="358.57" r="3.1"/>
      <text class="cls-28" transform="translate(48.66 378.29)"><tspan x="0" y="0">长</tspan><tspan x="0" y="16.8">中</tspan><tspan x="0" y="33.6">下</tspan></text>
    </g>
    <g>
      <circle class="cls-21" cx="55.97" cy="770.99" r="3.1"/>
      <text class="cls-28" transform="translate(48.66 791.72)"><tspan x="0" y="0">青</tspan><tspan x="0" y="16.8">藏</tspan></text>
    </g>
    <text class="cls-28" transform="translate(48.66 899.72)"><tspan x="0" y="0">全</tspan><tspan x="0" y="16.8">国</tspan></text>
    <g>
      <circle class="cls-21" cx="55.97" cy="461.42" r="3.1"/>
      <text class="cls-28" transform="translate(48.66 483.15)"><tspan x="0" y="0">四</tspan><tspan x="0" y="16.8">川</tspan></text>
    </g>
    <g>
      <circle class="cls-21" cx="55.97" cy="565.28" r="3.1"/>
      <text class="cls-28" transform="translate(48.66 587.01)"><tspan x="0" y="0">云</tspan><tspan x="0" y="16.8">贵</tspan></text>
    </g>
    <g>
      <circle class="cls-21" cx="55.97" cy="669.14" r="3.1"/>
      <text class="cls-28" transform="translate(48.66 690.87)"><tspan x="0" y="0">华</tspan><tspan x="0" y="16.8">南</tspan></text>
    </g>
    <line class="cls-9" x1="334.66" y1="1060.1" x2="334.66" y2="567.1"/>
    <line class="cls-9" x1="206.3" y1="1100.6" x2="206.3" y2="565.1"/>
    <line class="cls-9" x1="139.3" y1="1100.6" x2="139.3" y2="585.1"/>
    <line class="cls-9" x1="223.28" y1="1101.1" x2="223.28" y2="249.1"/>
    <line class="cls-9" x1="368.29" y1="1130.1" x2="368.29" y2="176.1"/>
    <line class="cls-9" x1="455.66" y1="1056.1" x2="455.66" y2="176.1"/>
    <line class="cls-9" x1="461.66" y1="1056.1" x2="461.66" y2="176.1"/>
    <line class="cls-9" x1="217.66" y1="1101.1" x2="217.66" y2="588.1"/>
    <line class="cls-9" x1="1038.66" y1="1099.1" x2="1038.66" y2="591.1"/>
    <line class="cls-9" x1="1256.22" y1="1100.98" x2="1256.95" y2="591.98"/>
    <line class="cls-9" x1="1368.23" y1="1101.1" x2="1368.23" y2="568.1"/>
    <line class="cls-9" x1="1422.36" y1="1050.32" x2="1423.01" y2="592.22"/>
    <line class="cls-9" x1="1441.36" y1="1050.32" x2="1442.01" y2="592.22"/>
    <line class="cls-9" x1="1290.66" y1="1054.1" x2="1290.66" y2="776.87"/>
    <line class="cls-9" x1="1357.66" y1="1044.33" x2="1357.66" y2="767.1"/>
    <line class="cls-9" x1="391.66" y1="1056.1" x2="391.66" y2="786.12"/>
    <line class="cls-9" x1="1025.63" y1="1056.1" x2="1025.63" y2="786.12"/>
    <line class="cls-9" x1="842.66" y1="1056.1" x2="842.66" y2="584.1"/>
    <line class="cls-9" x1="161.52" y1="1006.04" x2="161.52" y2="588.1"/>
    <line class="cls-9" x1="468.66" y1="1100.1" x2="468.66" y2="567.1"/>
    <line class="cls-9" x1="479.91" y1="1100.1" x2="479.91" y2="363.1"/>
    <line class="cls-9" x1="546.83" y1="1100.1" x2="546.83" y2="567.1"/>
    <line class="cls-9" x1="1193.36" y1="1048.71" x2="1194.02" y2="585.07"/>
    <line class="cls-9" x1="1213.36" y1="1048.71" x2="1214.02" y2="585.07"/>
    <line class="cls-9" x1="1473.36" y1="1048.71" x2="1474.02" y2="585.07"/>
    <line class="cls-9" x1="1769.66" y1="1048.1" x2="1769.66" y2="571.1"/>
    <line class="cls-9" x1="1432.66" y1="1044.33" x2="1432.66" y2="767.1"/>
    <line class="cls-9" x1="2099.66" y1="1101.1" x2="2099.66" y2="571.1"/>
    <line class="cls-9" x1="2038.66" y1="1101.1" x2="2038.66" y2="691.1"/>
    <line class="cls-9" x1="1781.66" y1="1101.1" x2="1781.66" y2="571.1"/>
    <line class="cls-9" x1="988.28" y1="1101.1" x2="988.28" y2="249.1"/>
    <path class="cls-9" d="M988.66,1101.1s11-208.2,11-707.87V85.1"/>
    <line class="cls-9" x1="882.66" y1="1019.1" x2="882.66" y2="198.1"/>
    <line class="cls-9" x1="189.44" y1="1129.65" x2="189.44" y2="907.54"/>
    <line class="cls-9" x1="273.23" y1="1129.65" x2="273.23" y2="261.1"/>
    <line class="cls-9" x1="357.12" y1="1129.65" x2="357.12" y2="386.1"/>
    <line class="cls-9" x1="351.39" y1="1100.1" x2="351.39" y2="569.1"/>
    <line class="cls-9" x1="312.66" y1="1100.1" x2="312.66" y2="690.1"/>
    <line class="cls-9" x1="306.91" y1="1100.1" x2="306.91" y2="578.1"/>
    <line class="cls-9" x1="384.66" y1="1129.1" x2="384.66" y2="576.1"/>
    <line class="cls-9" x1="614.2" y1="1130.1" x2="614.2" y2="897.79"/>
    <line class="cls-9" x1="1139.66" y1="1130.1" x2="1139.66" y2="897.79"/>
    <line class="cls-9" x1="698.02" y1="1129.65" x2="698.02" y2="379.34"/>
    <line class="cls-9" x1="787.45" y1="1129.66" x2="787.45" y2="374.1"/>
    <line class="cls-9" x1="876.99" y1="1129.66" x2="876.99" y2="583.1"/>
    <line class="cls-9" x1="960.76" y1="1129.66" x2="960.76" y2="585.1"/>
    <line class="cls-9" x1="1050.23" y1="1129.66" x2="1050.23" y2="379.1"/>
    <line class="cls-9" x1="105.44" y1="1129.65" x2="105.44" y2="907.54"/>
    <line class="cls-6" x1="105.44" y1="1155.6" x2="105.44" y2="40.1"/>
    <line class="cls-6" x1="614.2" y1="1155.6" x2="614.2" y2="40.1"/>
    <line class="cls-4" x1="1139.66" y1="1155.6" x2="1139.66" y2="40.1"/>
    <line class="cls-19" x1="1653.81" y1="1155.6" x2="1653.81" y2="40.1"/>
    <line class="cls-9" x1="1223.49" y1="1130.1" x2="1223.49" y2="897.79"/>
    <line class="cls-9" x1="1396.66" y1="1130.1" x2="1396.66" y2="689.1"/>
    <line class="cls-9" x1="1697.66" y1="1148.1" x2="1697.66" y2="749.07"/>
    <line class="cls-9" x1="1737.66" y1="1130.1" x2="1737.66" y2="897.79"/>
    <line class="cls-9" x1="1815.66" y1="1130.1" x2="1815.66" y2="897.79"/>
    <line class="cls-9" x1="1899.66" y1="1130.1" x2="1899.66" y2="182.1"/>
    <line class="cls-9" x1="1983.66" y1="1130.1" x2="1983.66" y2="897.79"/>
    <line class="cls-9" x1="2067.66" y1="1130.1" x2="2067.66" y2="897.79"/>
    <line class="cls-9" x1="1088.66" y1="1100.1" x2="1088.66" y2="560.1"/>
    <line class="cls-9" x1="1570.01" y1="1130.1" x2="1570.01" y2="579.1"/>
    <line class="cls-9" x1="675.66" y1="1100.1" x2="675.66" y2="700.1"/>
    <line class="cls-9" x1="669.91" y1="1100.1" x2="669.91" y2="477.1"/>
    <line class="cls-9" x1="965.91" y1="1100.1" x2="965.91" y2="562.1"/>
    <line class="cls-9" x1="1005.16" y1="1100.1" x2="1005.16" y2="486.1"/>
    <line class="cls-9" x1="709.04" y1="1100.1" x2="709.04" y2="700.1"/>
    <line class="cls-9" x1="406.44" y1="1055.64" x2="406.44" y2="700.1"/>
    <line class="cls-9" x1="230.44" y1="1055.64" x2="230.44" y2="617.1"/>
    <path class="cls-9" d="M329.66,1100.1c2.73-11,5-27,5-39"/>
    <line class="cls-9" x1="1093.42" y1="1023.1" x2="1093.42" y2="579.1"/>
    <path class="cls-9" d="M1088.66,1100.1c2.59-22.28,4.75-54.69,4.75-79"/>
    <path class="cls-9" d="M339.66,1100.1c-2.73-11-5-27-5-39"/>
    <path class="cls-9" d="M871.66,1130.1c6-32.72,11-80.31,11-116"/>
    <path class="cls-9" d="M893.66,1130.1c-6-32.72-11-80.31-11-116"/>
    <line class="cls-9" x1="759.16" y1="993.55" x2="759.16" y2="586.1"/>
    <path class="cls-9" d="M753.66,1101.1c3-31.7,5.5-77.81,5.5-112.39"/>
    <path class="cls-9" d="M764.66,1101.1c-3-31.7-5.5-77.81-5.5-112.39"/>
    <line class="cls-9" x1="1703.66" y1="1100.24" x2="1703.66" y2="704.1"/>
    <line class="cls-9" x1="302.52" y1="1005.04" x2="302.52" y2="789.1"/>
    <line class="cls-9" x1="553.66" y1="1055.64" x2="553.66" y2="700.1"/>
    <line class="cls-9" x1="539.66" y1="1055.64" x2="539.66" y2="399.64"/>
    <path class="cls-9" d="M139.66,1101.1c10.42-14,21.9-36.54,21.9-94"/>
    <path class="cls-9" d="M183.41,1101.1c-10.42-14-21.9-36.54-21.9-94"/>
    <line class="cls-9" x1="147.53" y1="1005.04" x2="147.53" y2="595.1"/>
    <path class="cls-9" d="M133.41,1100.1c6.73-14,14.14-36.54,14.14-94"/>
    <path class="cls-9" d="M161.66,1100.1c-6.73-14-14.14-36.54-14.14-94"/>
    <line class="cls-9" x1="702.66" y1="740.22" x2="702.66" y2="381.96"/>
    <path class="cls-9" d="M698.66,823.29c1.9-12.23,4-31.93,4-82.15"/>
    <line class="cls-9" x1="1518.95" y1="1006.04" x2="1518.95" y2="596.1"/>
    <line class="cls-9" x1="1548.95" y1="1006.04" x2="1548.95" y2="586.1"/>
    <path class="cls-9" d="M1384.41,1101.1c64.1-14,134.76-36.54,134.76-94"/>
    <path class="cls-9" d="M1653.66,1101.1c-64.1-14-134.76-36.54-134.76-94"/>
    <line class="cls-9" x1="1380.94" y1="1006.04" x2="1380.94" y2="787.1"/>
    <path class="cls-9" d="M1228.41,1101.1c72.67-14,152.78-36.54,152.78-94"/>
    <path class="cls-9" d="M1533.66,1101.1c-72.67-14-152.78-36.54-152.78-94"/>
    <path class="cls-9" d="M1620.41,1100.1c18.15-14,38.16-36.54,38.16-94"/>
    <path class="cls-9" d="M1696.66,1100.1c-18.15-14-38.16-36.54-38.16-94"/>
    <line class="cls-9" x1="1269.31" y1="1050.32" x2="1269.31" y2="696.1"/>
    <line class="cls-9" x1="1669.66" y1="1101.1" x2="1670.39" y2="592.1"/>
    <line class="cls-9" x1="1658.5" y1="1014.1" x2="1658.5" y2="484.1"/>
    <line class="cls-9" x1="1345.66" y1="1101.1" x2="1345.66" y2="490.1"/>
    <line class="cls-9" x1="1150.11" y1="1101.1" x2="1150.12" y2="586.06"/>
    <line class="cls-9" x1="1391.66" y1="1129.1" x2="1391.66" y2="564.1"/>
    <line class="cls-9" x1="1619.66" y1="1101.1" x2="1619.66" y2="501.1"/>
    <line class="cls-9" x1="133.66" y1="1101.1" x2="133.66" y2="501.1"/>
    <line class="cls-9" x1="1675.66" y1="1099.1" x2="1675.66" y2="581.1"/>
    <line class="cls-9" x1="791.66" y1="740.22" x2="791.66" y2="381.96"/>
    <path class="cls-9" d="M787.66,823.29c1.9-12.23,4-31.93,4-82.15"/>
    <line class="cls-9" x1="1904.2" y1="860.38" x2="1904.2" y2="758.1"/>
    <line class="cls-9" x1="1649.67" y1="782.04" x2="1649.67" y2="604.1"/>
    <path class="cls-9" d="M1653.66,823.29c-1.9-6.08-4-15.86-4-40.8"/>
    <line class="cls-9" x1="1027.18" y1="1101.91" x2="1027.18" y2="374.1"/>
    <path class="cls-9" d="M552.66,617.1c0,46-6,64-6,121"/>
    <g>
      <path class="cls-27" d="M1612.73,1117.35v-8.82c-.64.8-1.75,1.57-3.33,2.3l-.03-1.15c1.79-.83,3-1.89,3.64-3.18h1v10.86h-1.29Z"/>
      <path class="cls-27" d="M1620.65,1106.42c1.23,0,2.17.48,2.82,1.43s.97,2.33.97,4.11-.32,3.22-.97,4.16c-.63.93-1.56,1.39-2.79,1.39-1.11,0-1.99-.4-2.63-1.2-.77-.95-1.15-2.4-1.15-4.34,0-1.76.34-3.13,1.02-4.1.67-.97,1.58-1.45,2.73-1.45ZM1620.68,1116.49c.77,0,1.35-.34,1.75-1.02.42-.75.64-1.91.64-3.49s-.21-2.73-.62-3.48c-.41-.7-1-1.06-1.79-1.06-.74,0-1.32.36-1.73,1.08-.44.78-.66,1.93-.66,3.45s.23,2.71.68,3.46c.41.7.99,1.04,1.75,1.04Z"/>
    </g>
    <g>
      <path class="cls-27" d="M1442,1146.41v-8.82c-.64.8-1.75,1.57-3.33,2.3l-.03-1.15c1.79-.83,3-1.89,3.64-3.18h1v10.86h-1.29Z"/>
      <path class="cls-27" d="M1449.91,1135.47c1.23,0,2.17.48,2.82,1.43.65.96.97,2.33.97,4.11s-.32,3.22-.97,4.16c-.63.93-1.56,1.39-2.79,1.39-1.11,0-1.99-.4-2.63-1.2-.77-.95-1.15-2.4-1.15-4.34,0-1.76.34-3.13,1.02-4.1.67-.97,1.58-1.45,2.73-1.45ZM1449.94,1145.54c.77,0,1.35-.34,1.75-1.02.42-.75.64-1.91.64-3.49s-.21-2.73-.62-3.48c-.41-.7-1-1.06-1.79-1.06-.74,0-1.32.36-1.73,1.08-.44.78-.66,1.93-.66,3.45s.23,2.71.68,3.46c.41.7.99,1.04,1.75,1.04Z"/>
    </g>
    <g>
      <path class="cls-27" d="M1948.46,1117.43v-8.82c-.64.8-1.75,1.57-3.33,2.3l-.03-1.15c1.79-.83,3-1.89,3.64-3.18h1v10.86h-1.29Z"/>
      <path class="cls-27" d="M1954.01,1116.32h5.79v1.1h-7.34v-.85c.38-.71.87-1.4,1.46-2.06.57-.63,1.24-1.24,2-1.81.97-.72,1.63-1.32,2-1.79.33-.42.5-.87.5-1.35,0-.6-.18-1.08-.54-1.43-.38-.37-.93-.55-1.66-.55-.6,0-1.11.18-1.53.54s-.71.9-.88,1.61l-1.19-.35c.24-.93.69-1.64,1.34-2.13s1.47-.73,2.48-.73c1.06,0,1.9.29,2.5.87.55.53.83,1.21.83,2.04,0,.72-.19,1.34-.56,1.85-.35.5-1.04,1.11-2.07,1.85-1.43,1.04-2.48,2.1-3.14,3.19Z"/>
    </g>
    <g>
      <path class="cls-27" d="M1781.01,1146.49v-8.82c-.64.8-1.75,1.57-3.33,2.3l-.03-1.15c1.79-.83,3-1.89,3.64-3.18h1v10.86h-1.29Z"/>
      <path class="cls-27" d="M1786.56,1145.38h5.79v1.1h-7.34v-.85c.38-.71.87-1.4,1.46-2.06.57-.63,1.24-1.24,2-1.81.97-.72,1.63-1.32,2-1.79.33-.42.5-.87.5-1.35,0-.6-.18-1.08-.54-1.43-.38-.37-.93-.55-1.66-.55-.6,0-1.11.18-1.53.54s-.71.9-.88,1.61l-1.19-.35c.24-.93.69-1.64,1.34-2.13s1.47-.73,2.48-.73c1.06,0,1.9.29,2.5.87.55.53.83,1.21.83,2.04,0,.72-.19,1.34-.56,1.85-.35.5-1.04,1.11-2.07,1.85-1.43,1.04-2.48,2.1-3.14,3.19Z"/>
    </g>
    <path class="cls-27" d="M139.16,1116.93v-8.07c-.64.73-1.75,1.44-3.33,2.11l-.03-1.05c1.79-.76,3-1.73,3.64-2.91h1v9.93h-1.29Z"/>
    <path class="cls-27" d="M298.65,1116.32h5.79v1.1h-7.34v-.85c.38-.71.87-1.4,1.46-2.06.57-.63,1.24-1.24,2-1.81.97-.72,1.63-1.32,2-1.79.33-.42.5-.87.5-1.35,0-.6-.18-1.08-.54-1.43-.38-.37-.93-.55-1.66-.55-.6,0-1.11.18-1.53.54s-.71.9-.88,1.61l-1.19-.35c.24-.93.69-1.64,1.34-2.13s1.48-.73,2.48-.73c1.06,0,1.9.29,2.5.87.55.53.83,1.21.83,2.04,0,.72-.19,1.34-.56,1.85-.35.5-1.04,1.11-2.07,1.85-1.43,1.04-2.48,2.1-3.14,3.19Z"/>
    <path class="cls-27" d="M464.97,1114.62l1.33-.28c.13.73.41,1.28.85,1.64.41.35.95.53,1.61.53.77,0,1.36-.2,1.79-.61.41-.39.62-.92.62-1.58,0-.59-.2-1.06-.61-1.41-.46-.4-1.18-.6-2.15-.61h-.96v-1.03h.78c.72,0,1.3-.12,1.73-.38.57-.33.85-.86.85-1.57,0-.57-.18-1.02-.53-1.35-.36-.35-.87-.53-1.53-.53-.63,0-1.14.18-1.52.53-.38.34-.63.84-.76,1.5l-1.27-.28c.2-.87.6-1.54,1.2-2.02.63-.5,1.44-.74,2.42-.74,1.04,0,1.86.28,2.48.84.55.51.83,1.15.84,1.94.02.64-.18,1.19-.58,1.64-.39.43-.9.73-1.53.89.02,0,.04,0,.07.01.77.14,1.37.47,1.8.99.39.48.58,1.03.58,1.66,0,.93-.32,1.68-.97,2.25-.68.59-1.6.88-2.77.88-1.04,0-1.86-.23-2.48-.7-.62-.47-1.06-1.2-1.3-2.19Z"/>
    <path class="cls-27" d="M246.07,1143.68l1.33-.28c.13.73.41,1.28.85,1.64.41.35.95.53,1.61.53.77,0,1.36-.2,1.79-.61.41-.39.62-.92.62-1.58,0-.59-.2-1.06-.61-1.41-.46-.4-1.18-.6-2.15-.61h-.96v-1.03h.78c.72,0,1.3-.12,1.73-.38.57-.33.85-.86.85-1.57,0-.57-.18-1.02-.53-1.35-.36-.35-.87-.53-1.53-.53-.63,0-1.14.18-1.52.53-.38.34-.63.84-.76,1.5l-1.27-.28c.2-.87.6-1.54,1.2-2.02.63-.5,1.44-.74,2.42-.74,1.04,0,1.86.28,2.48.84.55.51.83,1.15.84,1.94.02.64-.18,1.19-.58,1.64-.39.43-.9.73-1.53.89.02,0,.04,0,.07.01.77.14,1.37.47,1.8.99.39.48.58,1.03.58,1.66,0,.93-.32,1.68-.97,2.25-.68.59-1.6.88-2.77.88-1.04,0-1.86-.23-2.48-.7-.62-.47-1.06-1.2-1.3-2.19Z"/>
    <path class="cls-27" d="M632.79,1113.86h1.43v.99h-1.43v2.54h-1.18v-2.54h-5.35v-.84l5.33-7.47h1.19v7.32ZM627.55,1113.86h4.06v-4.48c0-.53.02-.99.03-1.38-.25.41-.5.79-.74,1.15l-3.34,4.71Z"/>
    <path class="cls-27" d="M425.94,1142.92h1.43v.99h-1.43v2.54h-1.18v-2.54h-5.35v-.84l5.33-7.47h1.19v7.32ZM420.7,1142.92h4.06v-4.48c0-.53.02-.99.03-1.38-.25.41-.5.79-.74,1.15l-3.34,4.71Z"/>
    <path class="cls-27" d="M789.75,1114.49l1.29-.28c.13.74.41,1.29.84,1.65.41.35.95.53,1.61.53.75,0,1.34-.24,1.79-.73.45-.48.68-1.11.68-1.89s-.22-1.39-.65-1.85c-.45-.48-1.05-.72-1.8-.72-1.03,0-1.8.42-2.3,1.22l-1.03-.07.53-5.81h6.01v1.08s-4.93,0-4.93,0l-.37,3.57c.6-.65,1.41-.97,2.41-.97s1.87.32,2.5.97c.61.63.92,1.46.92,2.49,0,1.14-.33,2.04-.99,2.71-.66.68-1.57,1.02-2.73,1.02-1.02,0-1.85-.25-2.49-.76-.63-.49-1.06-1.2-1.29-2.15Z"/>
    <path class="cls-27" d="M588.37,1143.55l1.29-.28c.13.74.41,1.29.84,1.65.41.35.95.53,1.61.53.75,0,1.34-.24,1.79-.73.45-.48.68-1.11.68-1.89s-.22-1.39-.65-1.85c-.45-.48-1.05-.72-1.8-.72-1.03,0-1.8.42-2.3,1.22l-1.03-.07.53-5.81h6.01v1.08s-4.93,0-4.93,0l-.37,3.57c.6-.65,1.41-.97,2.41-.97s1.87.32,2.5.97c.61.63.92,1.46.92,2.49,0,1.14-.33,2.04-.99,2.71-.66.68-1.57,1.02-2.73,1.02-1.02,0-1.85-.25-2.49-.76-.63-.49-1.06-1.2-1.29-2.15Z"/>
    <path class="cls-27" d="M767.91,1138.01l-1.2.26c-.16-.59-.42-1.03-.78-1.33-.36-.31-.81-.46-1.34-.45-.8,0-1.43.33-1.88.99-.48.68-.74,1.67-.8,2.98,0,.24,0,.47-.01.69.28-.56.66-.99,1.15-1.29.5-.3,1.09-.45,1.77-.45.99,0,1.8.34,2.44,1.02.61.64.92,1.45.92,2.42,0,1.08-.32,1.96-.96,2.64-.66.71-1.55,1.07-2.67,1.07-1.06.02-1.92-.27-2.56-.87-.64-.6-1.05-1.47-1.23-2.63-.09-.54-.14-1.16-.14-1.87,0-1.83.35-3.24,1.04-4.24.69-.99,1.66-1.49,2.94-1.49.9,0,1.65.24,2.23.73.53.44.89,1.04,1.08,1.8ZM764.5,1145.55c.72,0,1.3-.25,1.75-.74.42-.48.64-1.1.64-1.87s-.21-1.34-.62-1.81c-.42-.47-1-.7-1.72-.7-.85,0-1.51.28-1.99.81-.37.42-.56.95-.57,1.57.04.86.29,1.53.74,2.02.44.49,1.03.73,1.77.73Z"/>
    <path class="cls-27" d="M1121.04,1117.33h-1.37c.23-1.58.69-3.21,1.41-4.89.69-1.62,1.57-3.21,2.64-4.76h-5.9v-1.08h7.36v.93c-1.16,1.6-2.09,3.2-2.79,4.82-.7,1.63-1.15,3.29-1.35,4.98Z"/>
    <path class="cls-27" d="M931.7,1146.39h-1.37c.23-1.58.69-3.21,1.41-4.89.69-1.62,1.57-3.21,2.64-4.76h-5.9v-1.08h7.36v.93c-1.16,1.6-2.09,3.2-2.79,4.82-.7,1.63-1.15,3.29-1.35,4.98Z"/>
    <path class="cls-27" d="M1287.96,1111.74h0c-.57-.18-1.02-.49-1.37-.92-.34-.45-.51-.97-.51-1.57,0-.78.31-1.45.93-1.99.65-.57,1.49-.85,2.52-.85s1.85.29,2.5.88c.62.54.93,1.2.93,1.96,0,.6-.16,1.12-.49,1.54-.34.44-.83.75-1.45.92h0c.68.17,1.23.49,1.65.97.44.51.66,1.11.66,1.79,0,.94-.34,1.67-1,2.21-.69.55-1.66.83-2.91.84-1.14,0-2.05-.28-2.73-.84-.68-.55-1.02-1.29-1.02-2.21,0-.63.19-1.2.6-1.71.42-.52.98-.87,1.68-1.03ZM1289.52,1116.55c.76,0,1.36-.19,1.81-.58.45-.37.68-.86.68-1.48,0-.71-.27-1.27-.8-1.66-.43-.33-1.01-.53-1.75-.58-.72.05-1.29.25-1.71.6-.49.4-.73.93-.73,1.61,0,.63.23,1.14.69,1.52.46.39,1.06.58,1.8.58ZM1289.53,1107.38c-.63,0-1.14.18-1.53.54-.39.35-.58.8-.58,1.35s.17,1.02.51,1.35c.36.35.89.56,1.6.61.65-.04,1.16-.23,1.52-.54.39-.35.58-.82.58-1.41s-.19-1.03-.58-1.38c-.39-.35-.89-.53-1.52-.53Z"/>
    <path class="cls-27" d="M1104.09,1140.8h0c-.57-.18-1.02-.49-1.37-.92-.34-.45-.51-.97-.51-1.57,0-.78.31-1.45.93-1.99.65-.57,1.49-.85,2.52-.85s1.85.29,2.5.88c.62.54.93,1.2.93,1.96,0,.6-.16,1.12-.49,1.54-.34.44-.83.75-1.45.92h0c.68.17,1.23.49,1.65.97.44.51.66,1.11.66,1.79,0,.94-.34,1.67-1,2.21-.69.55-1.66.83-2.91.84-1.14,0-2.05-.28-2.73-.84-.68-.55-1.02-1.29-1.02-2.21,0-.63.19-1.2.6-1.71.42-.52.98-.87,1.68-1.03ZM1105.65,1145.61c.76,0,1.36-.19,1.81-.58.45-.37.68-.86.68-1.48,0-.71-.27-1.27-.8-1.66-.43-.33-1.01-.53-1.75-.58-.72.05-1.29.25-1.71.6-.49.4-.73.93-.73,1.61,0,.63.23,1.14.69,1.52.46.39,1.06.58,1.8.58ZM1105.66,1136.44c-.63,0-1.14.18-1.53.54-.39.35-.58.8-.58,1.35s.17,1.02.51,1.35c.36.35.89.56,1.6.61.65-.04,1.16-.23,1.52-.54.39-.35.58-.82.58-1.41s-.19-1.03-.58-1.38c-.39-.35-.89-.53-1.52-.53Z"/>
    <path class="cls-27" d="M1453.75,1114.98l1.2-.26c.15.59.41,1.03.78,1.33.36.31.81.46,1.35.45.82,0,1.45-.32,1.89-.96.48-.68.74-1.69.8-3.03.02-.24.02-.46.01-.66-.28.57-.67,1-1.16,1.3-.5.3-1.08.45-1.76.45-.95,0-1.73-.3-2.34-.91-.66-.63-.99-1.48-.99-2.54s.32-1.96.97-2.64c.67-.71,1.56-1.07,2.68-1.07s1.93.3,2.57.91c.61.59,1.01,1.45,1.18,2.59.08.59.12,1.19.12,1.8,0,2-.37,3.49-1.11,4.45-.67.89-1.64,1.34-2.91,1.34-.88,0-1.61-.23-2.18-.68-.56-.44-.93-1.06-1.12-1.85ZM1459.74,1110.19c-.04-.86-.27-1.53-.7-2-.43-.49-1.03-.73-1.79-.73s-1.34.24-1.77.73c-.42.47-.64,1.09-.64,1.87,0,.78.21,1.39.65,1.85.42.45.98.68,1.68.68.79,0,1.41-.23,1.88-.68.45-.44.68-1.02.69-1.72Z"/>
    <path class="cls-27" d="M1275.36,1144.03l1.2-.26c.15.59.41,1.03.78,1.33.36.31.81.46,1.35.45.82,0,1.45-.32,1.89-.96.48-.68.74-1.69.8-3.03.02-.24.02-.46.01-.66-.28.57-.67,1-1.16,1.3-.5.3-1.08.45-1.76.45-.95,0-1.73-.3-2.34-.91-.66-.63-.99-1.48-.99-2.54s.32-1.96.97-2.64c.67-.71,1.56-1.07,2.68-1.07s1.93.3,2.57.91c.61.59,1.01,1.45,1.18,2.59.08.59.12,1.19.12,1.8,0,2-.37,3.49-1.11,4.45-.67.89-1.64,1.34-2.91,1.34-.88,0-1.61-.23-2.18-.68-.56-.44-.93-1.06-1.12-1.85ZM1281.34,1139.24c-.04-.86-.27-1.53-.7-2-.43-.49-1.03-.73-1.79-.73s-1.34.24-1.77.73c-.42.47-.64,1.09-.64,1.87,0,.78.21,1.39.65,1.85.42.45.98.68,1.68.68.79,0,1.41-.23,1.88-.68.45-.44.68-1.02.69-1.72Z"/>
    <g>
      <path class="cls-27" d="M1781.29,1117.39v-8.82c-.64.8-1.75,1.57-3.33,2.3l-.03-1.15c1.79-.83,3-1.89,3.64-3.18h1v10.86h-1.29Z"/>
      <path class="cls-27" d="M1788.48,1117.39v-8.82c-.64.8-1.75,1.57-3.33,2.3l-.03-1.15c1.79-.83,3-1.89,3.64-3.18h1v10.86h-1.29Z"/>
    </g>
    <g>
      <path class="cls-27" d="M1613.84,1146.45v-8.82c-.64.8-1.75,1.57-3.33,2.3l-.03-1.15c1.79-.83,3-1.89,3.64-3.18h1v10.86h-1.29Z"/>
      <path class="cls-27" d="M1621.03,1146.45v-8.82c-.64.8-1.75,1.57-3.33,2.3l-.03-1.15c1.79-.83,3-1.89,3.64-3.18h1v10.86h-1.29Z"/>
    </g>
    <circle class="cls-23" cx="144.86" cy="1100.97" r="1.61"/>
    <circle class="cls-23" cx="150.44" cy="1100.97" r="1.61"/>
    <circle class="cls-23" cx="161.61" cy="1100.97" r="1.61"/>
    <circle class="cls-23" cx="167.2" cy="1100.97" r="1.61"/>
    <circle class="cls-23" cx="172.79" cy="1100.97" r="1.61"/>
    <circle class="cls-23" cx="178.37" cy="1100.97" r="1.61"/>
    <circle class="cls-23" cx="189.55" cy="1100.97" r="1.61"/>
    <circle class="cls-23" cx="195.13" cy="1100.97" r="1.61"/>
    <circle class="cls-23" cx="200.72" cy="1100.97" r="1.61"/>
    <circle class="cls-20" cx="206.3" cy="1100.97" r="1.61"/>
    <circle class="cls-23" cx="211.89" cy="1100.97" r="1.61"/>
    <circle class="cls-20" cx="217.48" cy="1100.97" r="1.61"/>
    <circle class="cls-2" cx="223.06" cy="1100.97" r="1.61"/>
    <circle class="cls-23" cx="228.65" cy="1100.97" r="1.61"/>
    <circle class="cls-23" cx="234.23" cy="1100.97" r="1.61"/>
    <circle class="cls-23" cx="239.82" cy="1100.97" r="1.61"/>
    <circle class="cls-23" cx="245.41" cy="1100.97" r="1.61"/>
    <circle class="cls-23" cx="250.99" cy="1100.97" r="1.61"/>
    <circle class="cls-23" cx="256.58" cy="1100.97" r="1.61"/>
    <circle class="cls-23" cx="262.16" cy="1100.97" r="1.61"/>
    <circle class="cls-23" cx="267.75" cy="1100.97" r="1.61"/>
    <circle class="cls-2" cx="273.34" cy="1100.97" r="1.61"/>
    <circle class="cls-23" cx="278.92" cy="1100.97" r="1.61"/>
    <circle class="cls-23" cx="284.51" cy="1100.97" r="1.61"/>
    <circle class="cls-23" cx="290.09" cy="1100.97" r="1.61"/>
    <circle class="cls-23" cx="295.68" cy="1100.97" r="1.61"/>
    <circle class="cls-23" cx="99.96" cy="1130.22" r="1.61"/>
    <circle class="cls-23" cx="111.14" cy="1130.22" r="1.61"/>
    <circle class="cls-23" cx="116.73" cy="1130.22" r="1.61"/>
    <circle class="cls-23" cx="122.32" cy="1130.22" r="1.61"/>
    <circle class="cls-23" cx="127.91" cy="1130.22" r="1.61"/>
    <circle class="cls-23" cx="133.5" cy="1130.22" r="1.61"/>
    <circle class="cls-23" cx="139.09" cy="1130.22" r="1.61"/>
    <circle class="cls-23" cx="144.68" cy="1130.22" r="1.61"/>
    <circle class="cls-23" cx="150.27" cy="1130.22" r="1.61"/>
    <circle class="cls-23" cx="155.86" cy="1130.22" r="1.61"/>
    <circle class="cls-23" cx="161.45" cy="1130.22" r="1.61"/>
    <circle class="cls-23" cx="167.04" cy="1130.22" r="1.61"/>
    <circle class="cls-23" cx="172.63" cy="1130.22" r="1.61"/>
    <circle class="cls-23" cx="178.22" cy="1130.22" r="1.61"/>
    <circle class="cls-23" cx="183.81" cy="1130.22" r="1.61"/>
    <circle class="cls-23" cx="189.4" cy="1130.22" r="1.61"/>
    <circle class="cls-23" cx="194.99" cy="1130.22" r="1.61"/>
    <circle class="cls-23" cx="200.58" cy="1130.22" r="1.61"/>
    <circle class="cls-23" cx="206.17" cy="1130.22" r="1.61"/>
    <circle class="cls-23" cx="211.76" cy="1130.22" r="1.61"/>
    <circle class="cls-23" cx="217.34" cy="1130.22" r="1.61"/>
    <circle class="cls-23" cx="222.93" cy="1130.22" r="1.61"/>
    <circle class="cls-23" cx="228.52" cy="1130.22" r="1.61"/>
    <circle class="cls-23" cx="234.11" cy="1130.22" r="1.61"/>
    <circle class="cls-23" cx="239.7" cy="1130.22" r="1.61"/>
    <circle class="cls-23" cx="245.29" cy="1130.22" r="1.61"/>
    <circle class="cls-3" cx="250.88" cy="1130.22" r="1.61"/>
    <circle class="cls-23" cx="256.47" cy="1130.22" r="1.61"/>
    <circle class="cls-23" cx="262.06" cy="1130.22" r="1.61"/>
    <circle class="cls-23" cx="267.65" cy="1130.22" r="1.61"/>
    <circle class="cls-23" cx="273.24" cy="1130.22" r="1.61"/>
    <circle class="cls-23" cx="278.83" cy="1130.22" r="1.61"/>
    <circle class="cls-23" cx="284.42" cy="1130.22" r="1.61"/>
    <circle class="cls-23" cx="290.01" cy="1130.22" r="1.61"/>
    <circle class="cls-23" cx="295.6" cy="1130.22" r="1.61"/>
    <circle class="cls-23" cx="301.19" cy="1130.22" r="1.61"/>
    <circle class="cls-23" cx="306.78" cy="1130.22" r="1.61"/>
    <circle class="cls-23" cx="312.37" cy="1130.22" r="1.61"/>
    <circle class="cls-23" cx="317.96" cy="1130.22" r="1.61"/>
    <circle class="cls-23" cx="323.55" cy="1130.22" r="1.61"/>
    <circle class="cls-23" cx="329.14" cy="1130.22" r="1.61"/>
    <circle class="cls-23" cx="334.73" cy="1130.22" r="1.61"/>
    <circle class="cls-23" cx="340.32" cy="1130.22" r="1.61"/>
    <circle class="cls-23" cx="345.91" cy="1130.22" r="1.61"/>
    <circle class="cls-23" cx="351.5" cy="1130.22" r="1.61"/>
    <circle class="cls-23" cx="357.09" cy="1130.22" r="1.61"/>
    <circle class="cls-23" cx="362.68" cy="1130.22" r="1.61"/>
    <circle class="cls-30" cx="368.27" cy="1130.22" r="1.61"/>
    <circle class="cls-23" cx="373.86" cy="1130.22" r="1.61"/>
    <circle class="cls-23" cx="379.45" cy="1130.22" r="1.61"/>
    <circle class="cls-23" cx="390.63" cy="1130.22" r="1.61"/>
    <circle class="cls-23" cx="396.22" cy="1130.22" r="1.61"/>
    <circle class="cls-23" cx="401.81" cy="1130.22" r="1.61"/>
    <circle class="cls-23" cx="407.4" cy="1130.22" r="1.61"/>
    <circle class="cls-23" cx="474.43" cy="1100.97" r="1.61"/>
    <circle class="cls-23" cx="485.61" cy="1100.97" r="1.61"/>
    <circle class="cls-23" cx="491.19" cy="1100.97" r="1.61"/>
    <circle class="cls-23" cx="496.78" cy="1100.97" r="1.61"/>
    <circle class="cls-23" cx="502.36" cy="1100.97" r="1.61"/>
    <circle class="cls-23" cx="507.95" cy="1100.97" r="1.61"/>
    <circle class="cls-23" cx="513.54" cy="1100.97" r="1.61"/>
    <circle class="cls-23" cx="519.12" cy="1100.97" r="1.61"/>
    <circle class="cls-23" cx="524.71" cy="1100.97" r="1.61"/>
    <circle class="cls-23" cx="530.3" cy="1100.97" r="1.61"/>
    <circle class="cls-23" cx="535.88" cy="1100.97" r="1.61"/>
    <circle class="cls-23" cx="541.47" cy="1100.97" r="1.61"/>
    <circle class="cls-23" cx="552.64" cy="1100.97" r="1.61"/>
    <circle class="cls-23" cx="558.23" cy="1100.97" r="1.61"/>
    <circle class="cls-23" cx="563.81" cy="1100.97" r="1.61"/>
    <circle class="cls-23" cx="569.4" cy="1100.97" r="1.61"/>
    <circle class="cls-23" cx="574.98" cy="1100.97" r="1.61"/>
    <circle class="cls-23" cx="580.57" cy="1100.97" r="1.61"/>
    <circle class="cls-23" cx="586.16" cy="1100.97" r="1.61"/>
    <circle class="cls-23" cx="591.74" cy="1100.97" r="1.61"/>
    <circle class="cls-23" cx="597.33" cy="1100.97" r="1.61"/>
    <circle class="cls-23" cx="602.91" cy="1100.97" r="1.61"/>
    <circle class="cls-23" cx="608.5" cy="1100.97" r="1.61"/>
    <circle class="cls-23" cx="614.09" cy="1100.97" r="1.61"/>
    <circle class="cls-23" cx="619.67" cy="1100.97" r="1.61"/>
    <circle class="cls-23" cx="625.26" cy="1100.97" r="1.61"/>
    <circle class="cls-3" cx="630.84" cy="1100.97" r="1.61"/>
    <circle class="cls-23" cx="636.43" cy="1100.97" r="1.61"/>
    <circle class="cls-23" cx="642.02" cy="1100.97" r="1.61"/>
    <circle class="cls-23" cx="647.6" cy="1100.97" r="1.61"/>
    <circle class="cls-23" cx="653.19" cy="1100.97" r="1.61"/>
    <circle class="cls-23" cx="658.77" cy="1100.97" r="1.61"/>
    <circle class="cls-23" cx="664.36" cy="1100.97" r="1.61"/>
    <circle class="cls-23" cx="681.12" cy="1100.97" r="1.61"/>
    <circle class="cls-23" cx="686.71" cy="1100.97" r="1.61"/>
    <circle class="cls-23" cx="692.29" cy="1100.97" r="1.61"/>
    <circle class="cls-23" cx="697.88" cy="1100.97" r="1.61"/>
    <circle class="cls-23" cx="703.46" cy="1100.97" r="1.61"/>
    <circle class="cls-23" cx="714.64" cy="1100.97" r="1.61"/>
    <circle class="cls-23" cx="720.22" cy="1100.97" r="1.61"/>
    <circle class="cls-23" cx="725.81" cy="1100.97" r="1.61"/>
    <circle class="cls-23" cx="731.39" cy="1100.97" r="1.61"/>
    <circle class="cls-23" cx="736.98" cy="1100.97" r="1.61"/>
    <circle class="cls-23" cx="742.57" cy="1100.97" r="1.61"/>
    <circle class="cls-23" cx="748.15" cy="1100.97" r="1.61"/>
    <circle class="cls-23" cx="759.32" cy="1100.97" r="1.61"/>
    <circle class="cls-23" cx="770.5" cy="1100.97" r="1.61"/>
    <circle class="cls-23" cx="776.08" cy="1100.97" r="1.61"/>
    <circle class="cls-23" cx="781.67" cy="1100.97" r="1.61"/>
    <circle class="cls-23" cx="787.25" cy="1100.97" r="1.61"/>
    <circle class="cls-3" cx="792.84" cy="1100.97" r="1.61"/>
    <circle class="cls-23" cx="798.43" cy="1100.97" r="1.61"/>
    <circle class="cls-23" cx="804.01" cy="1100.97" r="1.61"/>
    <circle class="cls-23" cx="809.6" cy="1100.97" r="1.61"/>
    <circle class="cls-23" cx="815.18" cy="1100.97" r="1.61"/>
    <circle class="cls-23" cx="820.77" cy="1100.97" r="1.61"/>
    <circle class="cls-23" cx="826.36" cy="1100.97" r="1.61"/>
    <circle class="cls-23" cx="831.94" cy="1100.97" r="1.61"/>
    <circle class="cls-23" cx="837.53" cy="1100.97" r="1.61"/>
    <circle class="cls-23" cx="843.11" cy="1100.97" r="1.61"/>
    <circle class="cls-23" cx="848.7" cy="1100.97" r="1.61"/>
    <circle class="cls-23" cx="854.29" cy="1100.97" r="1.61"/>
    <circle class="cls-23" cx="859.87" cy="1100.97" r="1.61"/>
    <circle class="cls-23" cx="865.46" cy="1100.97" r="1.61"/>
    <circle class="cls-23" cx="871.05" cy="1100.97" r="1.61"/>
    <circle class="cls-23" cx="876.63" cy="1100.97" r="1.61"/>
    <circle class="cls-23" cx="882.22" cy="1100.97" r="1.61"/>
    <circle class="cls-23" cx="887.8" cy="1100.97" r="1.61"/>
    <circle class="cls-23" cx="893.39" cy="1100.97" r="1.61"/>
    <circle class="cls-23" cx="898.98" cy="1100.97" r="1.61"/>
    <circle class="cls-23" cx="904.56" cy="1100.97" r="1.61"/>
    <circle class="cls-23" cx="910.15" cy="1100.97" r="1.61"/>
    <circle class="cls-23" cx="915.73" cy="1100.97" r="1.61"/>
    <circle class="cls-23" cx="921.32" cy="1100.97" r="1.61"/>
    <circle class="cls-23" cx="926.91" cy="1100.97" r="1.61"/>
    <circle class="cls-23" cx="932.49" cy="1100.97" r="1.61"/>
    <circle class="cls-23" cx="938.08" cy="1100.97" r="1.61"/>
    <circle class="cls-23" cx="943.66" cy="1100.97" r="1.61"/>
    <circle class="cls-23" cx="949.25" cy="1100.97" r="1.61"/>
    <circle class="cls-23" cx="954.84" cy="1100.97" r="1.61"/>
    <circle class="cls-3" cx="1290" cy="1100.97" r="1.61"/>
    <circle class="cls-23" cx="1295.59" cy="1100.97" r="1.61"/>
    <circle class="cls-23" cx="1301.17" cy="1100.97" r="1.61"/>
    <circle class="cls-23" cx="1306.76" cy="1100.97" r="1.61"/>
    <circle class="cls-23" cx="1312.34" cy="1100.97" r="1.61"/>
    <circle class="cls-23" cx="1317.93" cy="1100.97" r="1.61"/>
    <circle class="cls-23" cx="1323.52" cy="1100.97" r="1.61"/>
    <circle class="cls-23" cx="1329.1" cy="1100.97" r="1.61"/>
    <circle class="cls-23" cx="1334.69" cy="1100.97" r="1.61"/>
    <circle class="cls-23" cx="1340.27" cy="1100.97" r="1.61"/>
    <circle class="cls-23" cx="1351.45" cy="1100.97" r="1.61"/>
    <circle class="cls-23" cx="1357.03" cy="1100.97" r="1.61"/>
    <circle class="cls-23" cx="1362.62" cy="1100.97" r="1.61"/>
    <circle class="cls-7" cx="1368.2" cy="1100.97" r="1.61"/>
    <circle class="cls-23" cx="1373.79" cy="1100.97" r="1.61"/>
    <circle class="cls-23" cx="1379.38" cy="1100.97" r="1.61"/>
    <circle class="cls-23" cx="1390.55" cy="1100.97" r="1.61"/>
    <circle class="cls-23" cx="1396.14" cy="1100.97" r="1.61"/>
    <circle class="cls-23" cx="1401.72" cy="1100.97" r="1.61"/>
    <circle class="cls-23" cx="1407.31" cy="1100.97" r="1.61"/>
    <circle class="cls-23" cx="1412.89" cy="1100.97" r="1.61"/>
    <circle class="cls-23" cx="1418.48" cy="1100.97" r="1.61"/>
    <circle class="cls-23" cx="1424.07" cy="1100.97" r="1.61"/>
    <circle class="cls-23" cx="1429.65" cy="1100.97" r="1.61"/>
    <circle class="cls-23" cx="1435.24" cy="1100.97" r="1.61"/>
    <circle class="cls-23" cx="1440.82" cy="1100.97" r="1.61"/>
    <circle class="cls-23" cx="1446.41" cy="1100.97" r="1.61"/>
    <circle class="cls-23" cx="1452" cy="1100.97" r="1.61"/>
    <circle class="cls-3" cx="1122.42" cy="1100.97" r="1.61"/>
    <circle class="cls-23" cx="1128" cy="1100.97" r="1.61"/>
    <circle class="cls-23" cx="1133.59" cy="1100.97" r="1.61"/>
    <circle class="cls-23" cx="1139.18" cy="1100.97" r="1.61"/>
    <circle class="cls-23" cx="1144.76" cy="1100.97" r="1.61"/>
    <circle class="cls-23" cx="1155.93" cy="1100.97" r="1.61"/>
    <circle class="cls-23" cx="1161.52" cy="1100.97" r="1.61"/>
    <circle class="cls-23" cx="1167.11" cy="1100.97" r="1.61"/>
    <circle class="cls-23" cx="1172.69" cy="1100.97" r="1.61"/>
    <circle class="cls-23" cx="1178.28" cy="1100.97" r="1.61"/>
    <circle class="cls-23" cx="1183.86" cy="1100.97" r="1.61"/>
    <circle class="cls-23" cx="1189.45" cy="1100.97" r="1.61"/>
    <circle class="cls-23" cx="1195.04" cy="1100.97" r="1.61"/>
    <circle class="cls-23" cx="1200.62" cy="1100.97" r="1.61"/>
    <circle class="cls-23" cx="1206.21" cy="1100.97" r="1.61"/>
    <circle class="cls-23" cx="1211.8" cy="1100.97" r="1.61"/>
    <circle class="cls-23" cx="1217.38" cy="1100.97" r="1.61"/>
    <circle class="cls-23" cx="1222.97" cy="1100.97" r="1.61"/>
    <circle class="cls-14" cx="1228.55" cy="1100.97" r="1.61"/>
    <circle class="cls-23" cx="1234.14" cy="1100.97" r="1.61"/>
    <circle class="cls-23" cx="1239.73" cy="1100.97" r="1.61"/>
    <circle class="cls-23" cx="1245.31" cy="1100.97" r="1.61"/>
    <circle class="cls-23" cx="1250.9" cy="1100.97" r="1.61"/>
    <circle class="cls-21" cx="1256.48" cy="1100.97" r="1.61"/>
    <circle class="cls-23" cx="1262.07" cy="1100.97" r="1.61"/>
    <circle class="cls-23" cx="1267.66" cy="1100.97" r="1.61"/>
    <circle class="cls-23" cx="1273.24" cy="1100.97" r="1.61"/>
    <circle class="cls-23" cx="1278.83" cy="1100.97" r="1.61"/>
    <circle class="cls-23" cx="1284.41" cy="1100.97" r="1.61"/>
    <circle class="cls-3" cx="960.42" cy="1100.97" r="1.61"/>
    <circle class="cls-23" cx="971.59" cy="1100.97" r="1.61"/>
    <circle class="cls-23" cx="977.18" cy="1100.97" r="1.61"/>
    <circle class="cls-23" cx="982.77" cy="1100.97" r="1.61"/>
    <circle class="cls-23" cx="993.94" cy="1100.97" r="1.61"/>
    <circle class="cls-23" cx="999.52" cy="1100.97" r="1.61"/>
    <circle class="cls-13" cx="1005.11" cy="1100.97" r="1.61"/>
    <circle class="cls-23" cx="1010.7" cy="1100.97" r="1.61"/>
    <circle class="cls-23" cx="1016.28" cy="1100.97" r="1.61"/>
    <circle class="cls-23" cx="1021.87" cy="1100.97" r="1.61"/>
    <circle class="cls-23" cx="1033.04" cy="1100.97" r="1.61"/>
    <circle class="cls-21" cx="1038.63" cy="1100.97" r="1.61"/>
    <circle class="cls-21" cx="1044.21" cy="1100.97" r="1.61"/>
    <circle class="cls-23" cx="1049.8" cy="1100.97" r="1.61"/>
    <circle class="cls-23" cx="1055.39" cy="1100.97" r="1.61"/>
    <circle class="cls-23" cx="1060.97" cy="1100.97" r="1.61"/>
    <circle class="cls-23" cx="1066.56" cy="1100.97" r="1.61"/>
    <circle class="cls-23" cx="1072.14" cy="1100.97" r="1.61"/>
    <circle class="cls-23" cx="1077.73" cy="1100.97" r="1.61"/>
    <circle class="cls-23" cx="1083.32" cy="1100.97" r="1.61"/>
    <circle class="cls-23" cx="1094.49" cy="1100.97" r="1.61"/>
    <circle class="cls-23" cx="1100.07" cy="1100.97" r="1.61"/>
    <circle class="cls-23" cx="1105.66" cy="1100.97" r="1.61"/>
    <circle class="cls-23" cx="1111.25" cy="1100.97" r="1.61"/>
    <circle class="cls-23" cx="1116.83" cy="1100.97" r="1.61"/>
    <circle class="cls-3" cx="1457.58" cy="1100.97" r="1.61"/>
    <circle class="cls-23" cx="1463.17" cy="1100.97" r="1.61"/>
    <circle class="cls-23" cx="1468.75" cy="1100.97" r="1.61"/>
    <circle class="cls-23" cx="1474.34" cy="1100.97" r="1.61"/>
    <circle class="cls-23" cx="1479.93" cy="1100.97" r="1.61"/>
    <circle class="cls-23" cx="1485.51" cy="1100.97" r="1.61"/>
    <circle class="cls-23" cx="1491.1" cy="1100.97" r="1.61"/>
    <circle class="cls-23" cx="1496.68" cy="1100.97" r="1.61"/>
    <circle class="cls-23" cx="1502.27" cy="1100.97" r="1.61"/>
    <circle class="cls-23" cx="1507.86" cy="1100.97" r="1.61"/>
    <circle class="cls-23" cx="1513.44" cy="1100.97" r="1.61"/>
    <circle class="cls-23" cx="1519.03" cy="1100.97" r="1.61"/>
    <circle class="cls-23" cx="1524.61" cy="1100.97" r="1.61"/>
    <circle class="cls-23" cx="1530.2" cy="1100.97" r="1.61"/>
    <circle class="cls-14" cx="1535.79" cy="1100.97" r="1.61"/>
    <circle class="cls-23" cx="1541.37" cy="1100.97" r="1.61"/>
    <circle class="cls-23" cx="1546.96" cy="1100.97" r="1.61"/>
    <circle class="cls-23" cx="1552.55" cy="1100.97" r="1.61"/>
    <circle class="cls-23" cx="1558.13" cy="1100.97" r="1.61"/>
    <circle class="cls-23" cx="1563.72" cy="1100.97" r="1.61"/>
    <circle class="cls-23" cx="1569.3" cy="1100.97" r="1.61"/>
    <circle class="cls-23" cx="1574.89" cy="1100.97" r="1.61"/>
    <circle class="cls-23" cx="1580.48" cy="1100.97" r="1.61"/>
    <circle class="cls-23" cx="1586.06" cy="1100.97" r="1.61"/>
    <circle class="cls-23" cx="1591.65" cy="1100.97" r="1.61"/>
    <circle class="cls-23" cx="1597.23" cy="1100.97" r="1.61"/>
    <circle class="cls-23" cx="1602.82" cy="1100.97" r="1.61"/>
    <circle class="cls-23" cx="1608.41" cy="1100.97" r="1.61"/>
    <circle class="cls-23" cx="1613.99" cy="1100.97" r="1.61"/>
    <circle class="cls-3" cx="1954.74" cy="1100.97" r="1.61"/>
    <circle class="cls-23" cx="1960.33" cy="1100.97" r="1.61"/>
    <circle class="cls-23" cx="1965.91" cy="1100.97" r="1.61"/>
    <circle class="cls-23" cx="1971.5" cy="1100.97" r="1.61"/>
    <circle class="cls-23" cx="1977.09" cy="1100.97" r="1.61"/>
    <circle class="cls-23" cx="1982.67" cy="1100.97" r="1.61"/>
    <circle class="cls-23" cx="1988.26" cy="1100.97" r="1.61"/>
    <circle class="cls-23" cx="1993.84" cy="1100.97" r="1.61"/>
    <circle class="cls-23" cx="1999.43" cy="1100.97" r="1.61"/>
    <circle class="cls-23" cx="2005.02" cy="1100.97" r="1.61"/>
    <circle class="cls-23" cx="2010.6" cy="1100.97" r="1.61"/>
    <circle class="cls-23" cx="2016.19" cy="1100.97" r="1.61"/>
    <circle class="cls-23" cx="2021.77" cy="1100.97" r="1.61"/>
    <circle class="cls-23" cx="2027.36" cy="1100.97" r="1.61"/>
    <circle class="cls-23" cx="2032.95" cy="1100.97" r="1.61"/>
    <circle class="cls-23" cx="2044.12" cy="1100.97" r="1.61"/>
    <circle class="cls-23" cx="2049.7" cy="1100.97" r="1.61"/>
    <circle class="cls-23" cx="2055.29" cy="1100.97" r="1.61"/>
    <circle class="cls-23" cx="2060.88" cy="1100.97" r="1.61"/>
    <circle class="cls-23" cx="2066.46" cy="1100.97" r="1.61"/>
    <circle class="cls-23" cx="2072.05" cy="1100.97" r="1.61"/>
    <circle class="cls-23" cx="2077.64" cy="1100.97" r="1.61"/>
    <circle class="cls-23" cx="2083.22" cy="1100.97" r="1.61"/>
    <circle class="cls-23" cx="2088.81" cy="1100.97" r="1.61"/>
    <circle class="cls-23" cx="2094.39" cy="1100.97" r="1.61"/>
    <circle class="cls-21" cx="2099.98" cy="1100.97" r="1.61"/>
    <circle class="cls-23" cx="2105.57" cy="1100.97" r="1.61"/>
    <circle class="cls-23" cx="2111.15" cy="1100.97" r="1.61"/>
    <circle class="cls-3" cx="1787.16" cy="1100.97" r="1.61"/>
    <circle class="cls-23" cx="1792.75" cy="1100.97" r="1.61"/>
    <circle class="cls-23" cx="1798.33" cy="1100.97" r="1.61"/>
    <circle class="cls-23" cx="1803.92" cy="1100.97" r="1.61"/>
    <circle class="cls-23" cx="1809.5" cy="1100.97" r="1.61"/>
    <circle class="cls-23" cx="1815.09" cy="1100.97" r="1.61"/>
    <circle class="cls-23" cx="1820.68" cy="1100.97" r="1.61"/>
    <circle class="cls-23" cx="1826.26" cy="1100.97" r="1.61"/>
    <circle class="cls-23" cx="1831.85" cy="1100.97" r="1.61"/>
    <circle class="cls-23" cx="1837.43" cy="1100.97" r="1.61"/>
    <circle class="cls-23" cx="1843.02" cy="1100.97" r="1.61"/>
    <circle class="cls-23" cx="1848.61" cy="1100.97" r="1.61"/>
    <circle class="cls-23" cx="1854.19" cy="1100.97" r="1.61"/>
    <circle class="cls-23" cx="1859.78" cy="1100.97" r="1.61"/>
    <circle class="cls-23" cx="1865.36" cy="1100.97" r="1.61"/>
    <circle class="cls-23" cx="1870.95" cy="1100.97" r="1.61"/>
    <circle class="cls-23" cx="1876.54" cy="1100.97" r="1.61"/>
    <circle class="cls-23" cx="1882.12" cy="1100.97" r="1.61"/>
    <circle class="cls-23" cx="1887.71" cy="1100.97" r="1.61"/>
    <circle class="cls-23" cx="1893.3" cy="1100.97" r="1.61"/>
    <circle class="cls-23" cx="1898.88" cy="1100.97" r="1.61"/>
    <circle class="cls-23" cx="1904.47" cy="1100.97" r="1.61"/>
    <circle class="cls-23" cx="1910.05" cy="1100.97" r="1.61"/>
    <circle class="cls-23" cx="1915.64" cy="1100.97" r="1.61"/>
    <circle class="cls-23" cx="1921.23" cy="1100.97" r="1.61"/>
    <circle class="cls-23" cx="1926.81" cy="1100.97" r="1.61"/>
    <circle class="cls-23" cx="1932.4" cy="1100.97" r="1.61"/>
    <circle class="cls-23" cx="1937.98" cy="1100.97" r="1.61"/>
    <circle class="cls-23" cx="1943.57" cy="1100.97" r="1.61"/>
    <circle class="cls-23" cx="1949.16" cy="1100.97" r="1.61"/>
    <circle class="cls-23" cx="1625.16" cy="1100.97" r="1.61"/>
    <circle class="cls-23" cx="1630.75" cy="1100.97" r="1.61"/>
    <circle class="cls-23" cx="1636.34" cy="1100.97" r="1.61"/>
    <circle class="cls-23" cx="1641.92" cy="1100.97" r="1.61"/>
    <circle class="cls-23" cx="1647.51" cy="1100.97" r="1.61"/>
    <circle class="cls-23" cx="1653.09" cy="1100.97" r="1.61"/>
    <circle class="cls-23" cx="1658.68" cy="1100.97" r="1.61"/>
    <circle class="cls-23" cx="1664.27" cy="1100.97" r="1.61"/>
    <circle class="cls-23" cx="1681.02" cy="1100.97" r="1.61"/>
    <circle class="cls-23" cx="1686.61" cy="1100.97" r="1.61"/>
    <circle class="cls-23" cx="1692.2" cy="1100.97" r="1.61"/>
    <circle class="cls-23" cx="1708.95" cy="1100.97" r="1.61"/>
    <circle class="cls-23" cx="1714.54" cy="1100.97" r="1.61"/>
    <circle class="cls-23" cx="1720.13" cy="1100.97" r="1.61"/>
    <circle class="cls-23" cx="1725.71" cy="1100.97" r="1.61"/>
    <circle class="cls-23" cx="1731.3" cy="1100.97" r="1.61"/>
    <circle class="cls-23" cx="1736.89" cy="1100.97" r="1.61"/>
    <circle class="cls-23" cx="1742.47" cy="1100.97" r="1.61"/>
    <circle class="cls-23" cx="1748.06" cy="1100.97" r="1.61"/>
    <circle class="cls-23" cx="1753.64" cy="1100.97" r="1.61"/>
    <circle class="cls-23" cx="1759.23" cy="1100.97" r="1.61"/>
    <circle class="cls-23" cx="1764.82" cy="1100.97" r="1.61"/>
    <circle class="cls-23" cx="1770.4" cy="1100.97" r="1.61"/>
    <circle class="cls-23" cx="1775.99" cy="1100.97" r="1.61"/>
    <circle class="cls-3" cx="301.27" cy="1100.97" r="1.61"/>
    <circle class="cls-23" cx="100.17" cy="1100.97" r="1.61"/>
    <circle class="cls-23" cx="105.75" cy="1100.97" r="1.61"/>
    <circle class="cls-23" cx="111.34" cy="1100.97" r="1.61"/>
    <circle class="cls-23" cx="116.93" cy="1100.97" r="1.61"/>
    <circle class="cls-23" cx="122.51" cy="1100.97" r="1.61"/>
    <circle class="cls-23" cx="128.1" cy="1100.97" r="1.61"/>
    <circle class="cls-23" cx="318.02" cy="1100.97" r="1.61"/>
    <circle class="cls-23" cx="323.61" cy="1100.97" r="1.61"/>
    <circle class="cls-23" cx="334.78" cy="1100.97" r="1.61"/>
    <circle class="cls-23" cx="340.37" cy="1100.97" r="1.61"/>
    <circle class="cls-23" cx="345.96" cy="1100.97" r="1.61"/>
    <circle class="cls-2" cx="351.54" cy="1100.97" r="1.61"/>
    <circle class="cls-23" cx="357.13" cy="1100.97" r="1.61"/>
    <circle class="cls-23" cx="362.71" cy="1100.97" r="1.61"/>
    <circle class="cls-23" cx="368.3" cy="1100.97" r="1.61"/>
    <circle class="cls-23" cx="373.89" cy="1100.97" r="1.61"/>
    <circle class="cls-23" cx="379.47" cy="1100.97" r="1.61"/>
    <circle class="cls-23" cx="385.06" cy="1100.97" r="1.61"/>
    <circle class="cls-23" cx="390.64" cy="1100.97" r="1.61"/>
    <circle class="cls-23" cx="396.23" cy="1100.97" r="1.61"/>
    <circle class="cls-23" cx="401.82" cy="1100.97" r="1.61"/>
    <circle class="cls-23" cx="407.4" cy="1100.97" r="1.61"/>
    <circle class="cls-23" cx="412.99" cy="1100.97" r="1.61"/>
    <circle class="cls-23" cx="418.57" cy="1100.97" r="1.61"/>
    <circle class="cls-23" cx="412.99" cy="1130.22" r="1.61"/>
    <circle class="cls-3" cx="424.16" cy="1130.22" r="1.61"/>
    <circle class="cls-23" cx="429.75" cy="1130.22" r="1.61"/>
    <circle class="cls-23" cx="435.34" cy="1130.22" r="1.61"/>
    <circle class="cls-23" cx="440.93" cy="1130.22" r="1.61"/>
    <circle class="cls-23" cx="446.52" cy="1130.22" r="1.61"/>
    <circle class="cls-23" cx="452.11" cy="1130.22" r="1.61"/>
    <circle class="cls-23" cx="457.7" cy="1130.22" r="1.61"/>
    <circle class="cls-23" cx="463.29" cy="1130.22" r="1.61"/>
    <circle class="cls-23" cx="468.88" cy="1130.22" r="1.61"/>
    <circle class="cls-23" cx="474.47" cy="1130.22" r="1.61"/>
    <circle class="cls-23" cx="480.06" cy="1130.22" r="1.61"/>
    <circle class="cls-23" cx="485.65" cy="1130.22" r="1.61"/>
    <circle class="cls-23" cx="491.24" cy="1130.22" r="1.61"/>
    <circle class="cls-23" cx="496.83" cy="1130.22" r="1.61"/>
    <circle class="cls-23" cx="502.42" cy="1130.22" r="1.61"/>
    <circle class="cls-23" cx="508.01" cy="1130.22" r="1.61"/>
    <circle class="cls-23" cx="513.6" cy="1130.22" r="1.61"/>
    <circle class="cls-23" cx="519.19" cy="1130.22" r="1.61"/>
    <circle class="cls-23" cx="524.78" cy="1130.22" r="1.61"/>
    <circle class="cls-23" cx="530.37" cy="1130.22" r="1.61"/>
    <circle class="cls-23" cx="535.96" cy="1130.22" r="1.61"/>
    <circle class="cls-23" cx="541.55" cy="1130.22" r="1.61"/>
    <circle class="cls-23" cx="547.14" cy="1130.22" r="1.61"/>
    <circle class="cls-23" cx="552.73" cy="1130.22" r="1.61"/>
    <circle class="cls-23" cx="558.32" cy="1130.22" r="1.61"/>
    <circle class="cls-23" cx="563.91" cy="1130.22" r="1.61"/>
    <circle class="cls-23" cx="569.5" cy="1130.22" r="1.61"/>
    <circle class="cls-23" cx="575.09" cy="1130.22" r="1.61"/>
    <circle class="cls-23" cx="580.68" cy="1130.22" r="1.61"/>
    <circle class="cls-23" cx="586.27" cy="1130.22" r="1.61"/>
    <circle class="cls-3" cx="765.14" cy="1130.22" r="1.61"/>
    <circle class="cls-23" cx="770.73" cy="1130.22" r="1.61"/>
    <circle class="cls-23" cx="776.32" cy="1130.22" r="1.61"/>
    <circle class="cls-23" cx="781.91" cy="1130.22" r="1.61"/>
    <circle class="cls-23" cx="787.5" cy="1130.22" r="1.61"/>
    <circle class="cls-23" cx="793.09" cy="1130.22" r="1.61"/>
    <circle class="cls-23" cx="798.68" cy="1130.22" r="1.61"/>
    <circle class="cls-23" cx="804.27" cy="1130.22" r="1.61"/>
    <circle class="cls-23" cx="809.86" cy="1130.22" r="1.61"/>
    <circle class="cls-23" cx="815.44" cy="1130.22" r="1.61"/>
    <circle class="cls-23" cx="821.03" cy="1130.22" r="1.61"/>
    <circle class="cls-23" cx="826.62" cy="1130.22" r="1.61"/>
    <circle class="cls-23" cx="832.21" cy="1130.22" r="1.61"/>
    <circle class="cls-23" cx="837.8" cy="1130.22" r="1.61"/>
    <circle class="cls-23" cx="843.39" cy="1130.22" r="1.61"/>
    <circle class="cls-23" cx="848.98" cy="1130.22" r="1.61"/>
    <circle class="cls-23" cx="854.57" cy="1130.22" r="1.61"/>
    <circle class="cls-23" cx="860.16" cy="1130.22" r="1.61"/>
    <circle class="cls-23" cx="865.75" cy="1130.22" r="1.61"/>
    <circle class="cls-23" cx="876.93" cy="1130.22" r="1.61"/>
    <circle class="cls-23" cx="882.52" cy="1130.22" r="1.61"/>
    <circle class="cls-23" cx="888.11" cy="1130.22" r="1.61"/>
    <circle class="cls-23" cx="899.29" cy="1130.22" r="1.61"/>
    <circle class="cls-23" cx="904.88" cy="1130.22" r="1.61"/>
    <circle class="cls-23" cx="910.47" cy="1130.22" r="1.61"/>
    <circle class="cls-23" cx="916.06" cy="1130.22" r="1.61"/>
    <circle class="cls-23" cx="921.65" cy="1130.22" r="1.61"/>
    <circle class="cls-23" cx="927.24" cy="1130.22" r="1.61"/>
    <circle class="cls-23" cx="418.57" cy="1130.22" r="1.61"/>
    <circle class="cls-3" cx="591.86" cy="1130.22" r="1.61"/>
    <circle class="cls-23" cx="597.45" cy="1130.22" r="1.61"/>
    <circle class="cls-23" cx="603.04" cy="1130.22" r="1.61"/>
    <circle class="cls-23" cx="608.63" cy="1130.22" r="1.61"/>
    <circle class="cls-23" cx="614.21" cy="1130.22" r="1.61"/>
    <circle class="cls-23" cx="619.8" cy="1130.22" r="1.61"/>
    <circle class="cls-23" cx="625.39" cy="1130.22" r="1.61"/>
    <circle class="cls-23" cx="630.98" cy="1130.22" r="1.61"/>
    <circle class="cls-23" cx="636.57" cy="1130.22" r="1.61"/>
    <circle class="cls-23" cx="642.16" cy="1130.22" r="1.61"/>
    <circle class="cls-23" cx="647.75" cy="1130.22" r="1.61"/>
    <circle class="cls-23" cx="653.34" cy="1130.22" r="1.61"/>
    <circle class="cls-23" cx="658.93" cy="1130.22" r="1.61"/>
    <circle class="cls-23" cx="664.52" cy="1130.22" r="1.61"/>
    <circle class="cls-23" cx="670.11" cy="1130.22" r="1.61"/>
    <circle class="cls-23" cx="675.7" cy="1130.22" r="1.61"/>
    <circle class="cls-23" cx="681.29" cy="1130.22" r="1.61"/>
    <circle class="cls-23" cx="686.88" cy="1130.22" r="1.61"/>
    <circle class="cls-23" cx="692.47" cy="1130.22" r="1.61"/>
    <circle class="cls-23" cx="703.65" cy="1130.22" r="1.61"/>
    <circle class="cls-23" cx="709.24" cy="1130.22" r="1.61"/>
    <circle class="cls-23" cx="714.83" cy="1130.22" r="1.61"/>
    <circle class="cls-23" cx="720.42" cy="1130.22" r="1.61"/>
    <circle class="cls-23" cx="726.01" cy="1130.22" r="1.61"/>
    <circle class="cls-23" cx="731.6" cy="1130.22" r="1.61"/>
    <circle class="cls-23" cx="737.19" cy="1130.22" r="1.61"/>
    <circle class="cls-23" cx="742.78" cy="1130.22" r="1.61"/>
    <circle class="cls-23" cx="748.37" cy="1130.22" r="1.61"/>
    <circle class="cls-23" cx="753.96" cy="1130.22" r="1.61"/>
    <circle class="cls-23" cx="759.55" cy="1130.22" r="1.61"/>
    <circle class="cls-3" cx="932.83" cy="1130.22" r="1.61"/>
    <circle class="cls-23" cx="938.42" cy="1130.22" r="1.61"/>
    <circle class="cls-23" cx="944.01" cy="1130.22" r="1.61"/>
    <circle class="cls-23" cx="949.6" cy="1130.22" r="1.61"/>
    <circle class="cls-23" cx="955.19" cy="1130.22" r="1.61"/>
    <circle class="cls-23" cx="960.78" cy="1130.22" r="1.61"/>
    <circle class="cls-23" cx="966.37" cy="1130.22" r="1.61"/>
    <circle class="cls-23" cx="971.96" cy="1130.22" r="1.61"/>
    <circle class="cls-23" cx="977.55" cy="1130.22" r="1.61"/>
    <circle class="cls-23" cx="983.14" cy="1130.22" r="1.61"/>
    <circle class="cls-23" cx="988.73" cy="1130.22" r="1.61"/>
    <circle class="cls-23" cx="994.32" cy="1130.22" r="1.61"/>
    <circle class="cls-23" cx="999.91" cy="1130.22" r="1.61"/>
    <circle class="cls-23" cx="1005.5" cy="1130.22" r="1.61"/>
    <circle class="cls-23" cx="1011.09" cy="1130.22" r="1.61"/>
    <circle class="cls-23" cx="1016.67" cy="1130.22" r="1.61"/>
    <circle class="cls-23" cx="1022.26" cy="1130.22" r="1.61"/>
    <circle class="cls-23" cx="1027.85" cy="1130.22" r="1.61"/>
    <circle class="cls-23" cx="1033.44" cy="1130.22" r="1.61"/>
    <circle class="cls-23" cx="1039.03" cy="1130.22" r="1.61"/>
    <circle class="cls-23" cx="1044.62" cy="1130.22" r="1.61"/>
    <circle class="cls-23" cx="1050.21" cy="1130.22" r="1.61"/>
    <circle class="cls-23" cx="1055.8" cy="1130.22" r="1.61"/>
    <circle class="cls-23" cx="1061.39" cy="1130.22" r="1.61"/>
    <circle class="cls-23" cx="1066.98" cy="1130.22" r="1.61"/>
    <circle class="cls-23" cx="1072.57" cy="1130.22" r="1.61"/>
    <circle class="cls-23" cx="1078.16" cy="1130.22" r="1.61"/>
    <circle class="cls-23" cx="1083.75" cy="1130.22" r="1.61"/>
    <circle class="cls-23" cx="1089.34" cy="1130.22" r="1.61"/>
    <circle class="cls-23" cx="1094.93" cy="1130.22" r="1.61"/>
    <circle class="cls-23" cx="1100.52" cy="1130.22" r="1.61"/>
    <circle class="cls-3" cx="1106.11" cy="1130.22" r="1.61"/>
    <circle class="cls-23" cx="1111.7" cy="1130.22" r="1.61"/>
    <circle class="cls-23" cx="1117.29" cy="1130.22" r="1.61"/>
    <circle class="cls-23" cx="1122.88" cy="1130.22" r="1.61"/>
    <circle class="cls-23" cx="1128.47" cy="1130.22" r="1.61"/>
    <circle class="cls-23" cx="1134.06" cy="1130.22" r="1.61"/>
    <circle class="cls-23" cx="1139.65" cy="1130.22" r="1.61"/>
    <circle class="cls-23" cx="1145.24" cy="1130.22" r="1.61"/>
    <circle class="cls-23" cx="1150.83" cy="1130.22" r="1.61"/>
    <circle class="cls-23" cx="1156.42" cy="1130.22" r="1.61"/>
    <circle class="cls-23" cx="1162.01" cy="1130.22" r="1.61"/>
    <circle class="cls-23" cx="1167.6" cy="1130.22" r="1.61"/>
    <circle class="cls-23" cx="1173.19" cy="1130.22" r="1.61"/>
    <circle class="cls-23" cx="1178.78" cy="1130.22" r="1.61"/>
    <circle class="cls-23" cx="1184.37" cy="1130.22" r="1.61"/>
    <circle class="cls-23" cx="1189.96" cy="1130.22" r="1.61"/>
    <circle class="cls-23" cx="1195.55" cy="1130.22" r="1.61"/>
    <circle class="cls-23" cx="1201.14" cy="1130.22" r="1.61"/>
    <circle class="cls-23" cx="1206.73" cy="1130.22" r="1.61"/>
    <circle class="cls-23" cx="1212.31" cy="1130.22" r="1.61"/>
    <circle class="cls-23" cx="1217.9" cy="1130.22" r="1.61"/>
    <circle class="cls-23" cx="1223.49" cy="1130.22" r="1.61"/>
    <circle class="cls-23" cx="1229.08" cy="1130.22" r="1.61"/>
    <circle class="cls-23" cx="1234.67" cy="1130.22" r="1.61"/>
    <circle class="cls-23" cx="1240.26" cy="1130.22" r="1.61"/>
    <circle class="cls-23" cx="1245.85" cy="1130.22" r="1.61"/>
    <circle class="cls-23" cx="1251.44" cy="1130.22" r="1.61"/>
    <circle class="cls-23" cx="1257.03" cy="1130.22" r="1.61"/>
    <circle class="cls-23" cx="1262.62" cy="1130.22" r="1.61"/>
    <circle class="cls-23" cx="1268.21" cy="1130.22" r="1.61"/>
    <circle class="cls-3" cx="1279.39" cy="1130.22" r="1.61"/>
    <circle class="cls-23" cx="1284.98" cy="1130.22" r="1.61"/>
    <circle class="cls-23" cx="1290.57" cy="1130.22" r="1.61"/>
    <circle class="cls-23" cx="1296.16" cy="1130.22" r="1.61"/>
    <circle class="cls-23" cx="1301.75" cy="1130.22" r="1.61"/>
    <circle class="cls-23" cx="1307.34" cy="1130.22" r="1.61"/>
    <circle class="cls-23" cx="1312.93" cy="1130.22" r="1.61"/>
    <circle class="cls-23" cx="1318.52" cy="1130.22" r="1.61"/>
    <circle class="cls-23" cx="1324.11" cy="1130.22" r="1.61"/>
    <circle class="cls-23" cx="1329.7" cy="1130.22" r="1.61"/>
    <circle class="cls-23" cx="1335.29" cy="1130.22" r="1.61"/>
    <circle class="cls-23" cx="1340.88" cy="1130.22" r="1.61"/>
    <circle class="cls-23" cx="1346.47" cy="1130.22" r="1.61"/>
    <circle class="cls-23" cx="1352.06" cy="1130.22" r="1.61"/>
    <circle class="cls-23" cx="1357.65" cy="1130.22" r="1.61"/>
    <circle class="cls-23" cx="1363.24" cy="1130.22" r="1.61"/>
    <circle class="cls-23" cx="1368.83" cy="1130.22" r="1.61"/>
    <circle class="cls-23" cx="1374.42" cy="1130.22" r="1.61"/>
    <circle class="cls-23" cx="1380.01" cy="1130.22" r="1.61"/>
    <circle class="cls-23" cx="1385.6" cy="1130.22" r="1.61"/>
    <circle class="cls-23" cx="1396.78" cy="1130.22" r="1.61"/>
    <circle class="cls-23" cx="1402.37" cy="1130.22" r="1.61"/>
    <circle class="cls-23" cx="1407.96" cy="1130.22" r="1.61"/>
    <circle class="cls-23" cx="1413.54" cy="1130.22" r="1.61"/>
    <circle class="cls-23" cx="1419.13" cy="1130.22" r="1.61"/>
    <circle class="cls-23" cx="1424.72" cy="1130.22" r="1.61"/>
    <circle class="cls-23" cx="1430.31" cy="1130.22" r="1.61"/>
    <circle class="cls-23" cx="1435.9" cy="1130.22" r="1.61"/>
    <circle class="cls-23" cx="1441.49" cy="1130.22" r="1.61"/>
    <circle class="cls-3" cx="1620.36" cy="1130.22" r="1.61"/>
    <circle class="cls-23" cx="1625.95" cy="1130.22" r="1.61"/>
    <circle class="cls-23" cx="1631.54" cy="1130.22" r="1.61"/>
    <circle class="cls-23" cx="1637.13" cy="1130.22" r="1.61"/>
    <circle class="cls-23" cx="1642.72" cy="1130.22" r="1.61"/>
    <circle class="cls-23" cx="1648.31" cy="1130.22" r="1.61"/>
    <circle class="cls-23" cx="1653.9" cy="1130.22" r="1.61"/>
    <circle class="cls-23" cx="1659.49" cy="1130.22" r="1.61"/>
    <circle class="cls-23" cx="1665.08" cy="1130.22" r="1.61"/>
    <circle class="cls-23" cx="1670.67" cy="1130.22" r="1.61"/>
    <circle class="cls-23" cx="1676.26" cy="1130.22" r="1.61"/>
    <circle class="cls-23" cx="1681.85" cy="1130.22" r="1.61"/>
    <circle class="cls-23" cx="1687.44" cy="1130.22" r="1.61"/>
    <circle class="cls-23" cx="1693.03" cy="1130.22" r="1.61"/>
    <circle class="cls-23" cx="1698.62" cy="1130.22" r="1.61"/>
    <circle class="cls-23" cx="1704.21" cy="1130.22" r="1.61"/>
    <circle class="cls-23" cx="1709.8" cy="1130.22" r="1.61"/>
    <circle class="cls-23" cx="1715.39" cy="1130.22" r="1.61"/>
    <circle class="cls-23" cx="1720.98" cy="1130.22" r="1.61"/>
    <circle class="cls-23" cx="1726.57" cy="1130.22" r="1.61"/>
    <circle class="cls-23" cx="1732.16" cy="1130.22" r="1.61"/>
    <circle class="cls-23" cx="1737.75" cy="1130.22" r="1.61"/>
    <circle class="cls-23" cx="1743.34" cy="1130.22" r="1.61"/>
    <circle class="cls-23" cx="1748.93" cy="1130.22" r="1.61"/>
    <circle class="cls-23" cx="1754.52" cy="1130.22" r="1.61"/>
    <circle class="cls-23" cx="1760.11" cy="1130.22" r="1.61"/>
    <circle class="cls-23" cx="1765.7" cy="1130.22" r="1.61"/>
    <circle class="cls-23" cx="1771.29" cy="1130.22" r="1.61"/>
    <circle class="cls-23" cx="1776.88" cy="1130.22" r="1.61"/>
    <circle class="cls-23" cx="1782.47" cy="1130.22" r="1.61"/>
    <circle class="cls-3" cx="1788.06" cy="1130.22" r="1.61"/>
    <circle class="cls-23" cx="1793.65" cy="1130.22" r="1.61"/>
    <circle class="cls-23" cx="1799.24" cy="1130.22" r="1.61"/>
    <circle class="cls-23" cx="1804.83" cy="1130.22" r="1.61"/>
    <circle class="cls-23" cx="1810.41" cy="1130.22" r="1.61"/>
    <circle class="cls-23" cx="1816" cy="1130.22" r="1.61"/>
    <circle class="cls-23" cx="1821.59" cy="1130.22" r="1.61"/>
    <circle class="cls-23" cx="1827.18" cy="1130.22" r="1.61"/>
    <circle class="cls-23" cx="1832.77" cy="1130.22" r="1.61"/>
    <circle class="cls-23" cx="1838.36" cy="1130.22" r="1.61"/>
    <circle class="cls-23" cx="1843.95" cy="1130.22" r="1.61"/>
    <circle class="cls-23" cx="1849.54" cy="1130.22" r="1.61"/>
    <circle class="cls-23" cx="1855.13" cy="1130.22" r="1.61"/>
    <circle class="cls-23" cx="1860.72" cy="1130.22" r="1.61"/>
    <circle class="cls-23" cx="1866.31" cy="1130.22" r="1.61"/>
    <circle class="cls-23" cx="1871.9" cy="1130.22" r="1.61"/>
    <circle class="cls-23" cx="1877.49" cy="1130.22" r="1.61"/>
    <circle class="cls-23" cx="1883.08" cy="1130.22" r="1.61"/>
    <circle class="cls-23" cx="1888.67" cy="1130.22" r="1.61"/>
    <circle class="cls-23" cx="1894.26" cy="1130.22" r="1.61"/>
    <circle class="cls-23" cx="1899.85" cy="1130.22" r="1.61"/>
    <circle class="cls-23" cx="1905.44" cy="1130.22" r="1.61"/>
    <circle class="cls-23" cx="1911.03" cy="1130.22" r="1.61"/>
    <circle class="cls-23" cx="1916.62" cy="1130.22" r="1.61"/>
    <circle class="cls-23" cx="1922.21" cy="1130.22" r="1.61"/>
    <circle class="cls-23" cx="1927.8" cy="1130.22" r="1.61"/>
    <circle class="cls-23" cx="1933.39" cy="1130.22" r="1.61"/>
    <circle class="cls-23" cx="1938.98" cy="1130.22" r="1.61"/>
    <circle class="cls-23" cx="1944.57" cy="1130.22" r="1.61"/>
    <circle class="cls-23" cx="1950.16" cy="1130.22" r="1.61"/>
    <circle class="cls-23" cx="1955.75" cy="1130.22" r="1.61"/>
    <circle class="cls-3" cx="1961.34" cy="1130.22" r="1.61"/>
    <circle class="cls-23" cx="1966.93" cy="1130.22" r="1.61"/>
    <circle class="cls-23" cx="1972.52" cy="1130.22" r="1.61"/>
    <circle class="cls-23" cx="1978.11" cy="1130.22" r="1.61"/>
    <circle class="cls-23" cx="1983.7" cy="1130.22" r="1.61"/>
    <circle class="cls-23" cx="1989.29" cy="1130.22" r="1.61"/>
    <circle class="cls-23" cx="1994.88" cy="1130.22" r="1.61"/>
    <circle class="cls-23" cx="2000.47" cy="1130.22" r="1.61"/>
    <circle class="cls-23" cx="2006.06" cy="1130.22" r="1.61"/>
    <circle class="cls-23" cx="2011.64" cy="1130.22" r="1.61"/>
    <circle class="cls-23" cx="2017.23" cy="1130.22" r="1.61"/>
    <circle class="cls-23" cx="2022.82" cy="1130.22" r="1.61"/>
    <circle class="cls-23" cx="2028.41" cy="1130.22" r="1.61"/>
    <circle class="cls-23" cx="2034" cy="1130.22" r="1.61"/>
    <circle class="cls-23" cx="2039.59" cy="1130.22" r="1.61"/>
    <circle class="cls-23" cx="2045.18" cy="1130.22" r="1.61"/>
    <circle class="cls-23" cx="2050.77" cy="1130.22" r="1.61"/>
    <circle class="cls-23" cx="2056.36" cy="1130.22" r="1.61"/>
    <circle class="cls-23" cx="2061.95" cy="1130.22" r="1.61"/>
    <circle class="cls-23" cx="2067.54" cy="1130.22" r="1.61"/>
    <circle class="cls-23" cx="2073.13" cy="1130.22" r="1.61"/>
    <circle class="cls-23" cx="2078.72" cy="1130.22" r="1.61"/>
    <circle class="cls-23" cx="2084.31" cy="1130.22" r="1.61"/>
    <circle class="cls-23" cx="2089.9" cy="1130.22" r="1.61"/>
    <circle class="cls-23" cx="2095.49" cy="1130.22" r="1.61"/>
    <circle class="cls-23" cx="2101.08" cy="1130.22" r="1.61"/>
    <circle class="cls-23" cx="2106.67" cy="1130.22" r="1.61"/>
    <circle class="cls-23" cx="2112.26" cy="1130.22" r="1.61"/>
    <circle class="cls-23" cx="1273.8" cy="1130.22" r="1.61"/>
    <circle class="cls-3" cx="1447.08" cy="1130.22" r="1.61"/>
    <circle class="cls-23" cx="1452.67" cy="1130.22" r="1.61"/>
    <circle class="cls-23" cx="1458.26" cy="1130.22" r="1.61"/>
    <circle class="cls-23" cx="1463.85" cy="1130.22" r="1.61"/>
    <circle class="cls-23" cx="1469.44" cy="1130.22" r="1.61"/>
    <circle class="cls-23" cx="1475.03" cy="1130.22" r="1.61"/>
    <circle class="cls-23" cx="1480.62" cy="1130.22" r="1.61"/>
    <circle class="cls-23" cx="1486.21" cy="1130.22" r="1.61"/>
    <circle class="cls-23" cx="1491.8" cy="1130.22" r="1.61"/>
    <circle class="cls-23" cx="1497.39" cy="1130.22" r="1.61"/>
    <circle class="cls-23" cx="1502.98" cy="1130.22" r="1.61"/>
    <circle class="cls-23" cx="1508.57" cy="1130.22" r="1.61"/>
    <circle class="cls-23" cx="1514.16" cy="1130.22" r="1.61"/>
    <circle class="cls-23" cx="1519.75" cy="1130.22" r="1.61"/>
    <circle class="cls-23" cx="1525.34" cy="1130.22" r="1.61"/>
    <circle class="cls-23" cx="1530.93" cy="1130.22" r="1.61"/>
    <circle class="cls-23" cx="1536.52" cy="1130.22" r="1.61"/>
    <circle class="cls-23" cx="1542.11" cy="1130.22" r="1.61"/>
    <circle class="cls-23" cx="1547.7" cy="1130.22" r="1.61"/>
    <circle class="cls-23" cx="1553.29" cy="1130.22" r="1.61"/>
    <circle class="cls-23" cx="1558.88" cy="1130.22" r="1.61"/>
    <circle class="cls-23" cx="1564.47" cy="1130.22" r="1.61"/>
    <circle class="cls-23" cx="1570.06" cy="1130.22" r="1.61"/>
    <circle class="cls-23" cx="1575.65" cy="1130.22" r="1.61"/>
    <circle class="cls-23" cx="1581.24" cy="1130.22" r="1.61"/>
    <circle class="cls-23" cx="1586.83" cy="1130.22" r="1.61"/>
    <circle class="cls-23" cx="1592.42" cy="1130.22" r="1.61"/>
    <circle class="cls-23" cx="1598.01" cy="1130.22" r="1.61"/>
    <circle class="cls-23" cx="1603.6" cy="1130.22" r="1.61"/>
    <circle class="cls-23" cx="1609.18" cy="1130.22" r="1.61"/>
    <circle class="cls-23" cx="1614.77" cy="1130.22" r="1.61"/>
    <circle class="cls-23" cx="424.16" cy="1100.97" r="1.61"/>
    <circle class="cls-23" cx="429.75" cy="1100.97" r="1.61"/>
    <circle class="cls-23" cx="435.33" cy="1100.97" r="1.61"/>
    <circle class="cls-23" cx="440.92" cy="1100.97" r="1.61"/>
    <circle class="cls-23" cx="446.5" cy="1100.97" r="1.61"/>
    <circle class="cls-23" cx="452.09" cy="1100.97" r="1.61"/>
    <circle class="cls-23" cx="457.68" cy="1100.97" r="1.61"/>
    <circle class="cls-23" cx="463.26" cy="1100.97" r="1.61"/>
    <path class="cls-27" d="M1959.05,1145.99v-8.07c-.64.73-1.75,1.44-3.33,2.11l-.03-1.05c1.79-.76,3-1.73,3.64-2.91h1v9.93h-1.29Z"/>
    <line class="cls-15" x1="85.66" y1="1155.1" x2="2115.16" y2="1155.1"/>
    <circle class="cls-21" cx="105.55" cy="1130.22" r="1.61"/>
    <circle class="cls-21" cx="1816" cy="1130.22" r="1.61"/>
    <circle class="cls-21" cx="1899.85" cy="1130.22" r="1.61"/>
    <circle class="cls-21" cx="1983.7" cy="1130.22" r="1.61"/>
    <circle class="cls-21" cx="2067.5" cy="1130.22" r="1.61"/>
    <circle class="cls-5" cx="156.03" cy="1100.97" r="1.61"/>
    <circle class="cls-21" cx="189.4" cy="1130.22" r="1.61"/>
    <circle class="cls-21" cx="357.09" cy="1130.22" r="1.61"/>
    <circle class="cls-21" cx="273.24" cy="1130.22" r="1.61"/>
    <circle class="cls-21" cx="440.93" cy="1130.22" r="1.61"/>
    <circle class="cls-21" cx="524.78" cy="1130.22" r="1.61"/>
    <circle class="cls-21" cx="614.21" cy="1130.22" r="1.61"/>
    <circle class="cls-21" cx="698.06" cy="1130.22" r="1.61"/>
    <circle class="cls-21" cx="787.5" cy="1130.22" r="1.61"/>
    <circle class="cls-21" cx="876.93" cy="1130.22" r="1.61"/>
    <circle class="cls-21" cx="960.78" cy="1130.22" r="1.61"/>
    <path class="cls-27" d="M963.82,1108.95l-1.2.26c-.16-.59-.42-1.03-.78-1.33-.36-.31-.81-.46-1.34-.45-.8,0-1.43.33-1.88.99-.48.68-.74,1.67-.8,2.98,0,.24,0,.47-.01.69.28-.56.66-.99,1.15-1.29.5-.3,1.09-.45,1.77-.45.99,0,1.8.34,2.44,1.02.61.64.92,1.45.92,2.42,0,1.08-.32,1.96-.96,2.64-.66.71-1.55,1.07-2.67,1.07-1.06.02-1.92-.27-2.56-.87-.64-.6-1.05-1.47-1.23-2.63-.09-.54-.14-1.16-.14-1.87,0-1.83.35-3.24,1.04-4.24.69-.99,1.66-1.49,2.94-1.49.9,0,1.65.24,2.23.73.53.44.89,1.04,1.08,1.8ZM960.41,1116.49c.72,0,1.3-.25,1.75-.74.42-.48.64-1.1.64-1.87s-.21-1.34-.62-1.81c-.42-.47-1-.7-1.72-.7-.85,0-1.51.28-1.99.81-.37.42-.56.95-.57,1.57.04.86.29,1.53.74,2.02.44.49,1.03.73,1.77.73Z"/>
    <circle class="cls-21" cx="1050.21" cy="1130.22" r="1.61"/>
    <circle class="cls-21" cx="1139.65" cy="1130.22" r="1.61"/>
    <line class="cls-9" x1="1312.66" y1="1128.35" x2="1312.66" y2="899.21"/>
    <line class="cls-9" x1="1485.98" y1="1129.1" x2="1485.98" y2="899.96"/>
    <circle class="cls-21" cx="1223.49" cy="1130.22" r="1.61"/>
    <circle class="cls-21" cx="1312.93" cy="1130.22" r="1.61"/>
    <circle class="cls-21" cx="1396.78" cy="1130.22" r="1.61"/>
    <circle class="cls-21" cx="1486.21" cy="1130.22" r="1.61"/>
    <circle class="cls-21" cx="1570.06" cy="1130.22" r="1.61"/>
    <circle class="cls-21" cx="1653.9" cy="1130.22" r="1.61"/>
    <circle class="cls-21" cx="1737.75" cy="1130.22" r="1.61"/>
    <circle class="cls-20" cx="675.53" cy="1100.97" r="1.61"/>
    <circle class="cls-2" cx="329.2" cy="1100.97" r="1.61"/>
    <circle class="cls-29" cx="1697.78" cy="1100.97" r="1.61"/>
    <circle class="cls-29" cx="1703.37" cy="1100.97" r="1.61"/>
    <line class="cls-9" x1="156.16" y1="1100.1" x2="156.16" y2="690.1"/>
    <circle class="cls-23" cx="871.34" cy="1130.22" r="1.61"/>
    <circle class="cls-23" cx="893.7" cy="1130.22" r="1.61"/>
    <circle class="cls-21" cx="966.01" cy="1100.97" r="1.61"/>
    <circle class="cls-21" cx="1088.9" cy="1100.97" r="1.61"/>
    <circle class="cls-21" cx="753.74" cy="1100.97" r="1.61"/>
    <circle class="cls-21" cx="764.91" cy="1100.97" r="1.61"/>
    <circle class="cls-18" cx="468.85" cy="1100.97" r="1.61"/>
    <circle class="cls-1" cx="480.02" cy="1100.97" r="1.61"/>
    <circle class="cls-1" cx="547.05" cy="1100.97" r="1.61"/>
    <circle class="cls-12" cx="988.35" cy="1100.97" r="1.61"/>
    <circle class="cls-7" cx="1345.86" cy="1100.97" r="1.61"/>
    <circle class="cls-7" cx="1150.35" cy="1100.97" r="1.61"/>
    <circle class="cls-17" cx="139.27" cy="1100.97" r="1.61"/>
    <circle class="cls-14" cx="1781.57" cy="1100.97" r="1.61"/>
    <circle class="cls-14" cx="133.68" cy="1100.97" r="1.61"/>
    <circle class="cls-23" cx="602.91" cy="1100.97" r="1.61"/>
    <circle class="cls-14" cx="1384.96" cy="1100.97" r="1.61"/>
    <circle class="cls-25" cx="1669.85" cy="1100.97" r="1.61"/>
    <circle class="cls-14" cx="1675.44" cy="1100.97" r="1.61"/>
    <g>
      <path class="cls-22" d="M1619.58,1103.34c-1.3,0-2.36-1.06-2.36-2.36s1.06-2.36,2.36-2.36,2.36,1.06,2.36,2.36-1.06,2.36-2.36,2.36Z"/>
      <path class="cls-26" d="M1619.58,1099.36c.89,0,1.61.72,1.61,1.61s-.72,1.61-1.61,1.61-1.61-.72-1.61-1.61.72-1.61,1.61-1.61M1619.58,1097.86c-1.72,0-3.11,1.4-3.11,3.11s1.4,3.11,3.11,3.11,3.11-1.4,3.11-3.11-1.4-3.11-3.11-3.11h0Z"/>
    </g>
    <circle class="cls-8" cx="385.04" cy="1130.22" r="1.61"/>
    <circle class="cls-8" cx="1391.19" cy="1130.22" r="1.61"/>
    <circle class="cls-16" cx="2038.53" cy="1100.97" r="1.61"/>
    <circle class="cls-10" cx="312.44" cy="1100.97" r="1.61"/>
    <circle class="cls-5" cx="306.85" cy="1100.97" r="1.61"/>
    <circle class="cls-29" cx="709.05" cy="1100.97" r="1.61"/>
    <circle class="cls-11" cx="669.95" cy="1100.97" r="1.61"/>
    <circle class="cls-23" cx="183.96" cy="1100.97" r="1.61"/>
    <circle class="cls-21" cx="1027.45" cy="1100.97" r="1.61"/>
    <line class="cls-9" x1="524.81" y1="1130.6" x2="524.81" y2="899.19"/>
    <line class="cls-9" x1="1653.81" y1="1130.1" x2="1653.81" y2="897.79"/>
  </g>
</svg>