<?xml version="1.0" encoding="UTF-8"?>
<svg id="_图层_1" data-name="图层 1" xmlns="http://www.w3.org/2000/svg" viewBox="0 0 2153.95 1211.6">
  <defs>
    <style>
      .cls-1 {
        fill: #2f823a;
      }

      .cls-2 {
        stroke: #f4f3f2;
      }

      .cls-2, .cls-3 {
        stroke-width: .5px;
      }

      .cls-2, .cls-3, .cls-4 {
        stroke-miterlimit: 10;
      }

      .cls-2, .cls-5 {
        fill: #00543f;
      }

      .cls-3 {
        fill: #78504b;
        stroke: #fff;
      }

      .cls-6 {
        fill: #e6a275;
      }

      .cls-7, .cls-4 {
        fill: none;
      }

      .cls-8 {
        opacity: .8;
      }

      .cls-9 {
        fill: #94ad7d;
      }

      .cls-10 {
        fill: #cd7066;
      }

      .cls-11 {
        fill: #967566;
      }

      .cls-12 {
        fill: #579140;
      }

      .cls-4 {
        stroke: #7faa67;
        stroke-dasharray: 24 .5 1 .5;
        stroke-width: 2px;
      }

      .cls-13 {
        fill: #82c47c;
      }

      .cls-14 {
        fill: #7e9b67;
      }

      .cls-15 {
        fill: #9dce83;
      }

      .cls-16 {
        fill: #d9e47f;
      }
    </style>
  </defs>
  <rect class="cls-7" y="-.72" width="2152.84" height="1211.5" transform="translate(2152.84 1210.05) rotate(180)"/>
  <g>
    <g>
      <path class="cls-9" d="M991.9,550.49c7.92,15.68,10.9,35.54,7.8,52.61-7.96-15.66-10.86-35.53-7.8-52.61h0Z"/>
      <path class="cls-9" d="M1004.55,561.51c3.18,13.28,1.22,28.74-5.27,40.94-3.21-13.27-1.19-28.73,5.27-40.94h0Z"/>
    </g>
    <path class="cls-13" d="M280.24,858.25c-3,4.13-5.41,8.9-7,14.09-1.6-5.18-4.01-9.96-7-14.09,0,2.79-.12-5.05,0,3.42.22,14.69,1.51,22.14,7,30.04,5.49-7.9,6.79-15.35,7-30.04.12-8.47,0-.63,0-3.42Z"/>
    <g>
      <path class="cls-15" d="M217.65,556.36c6.1,13.85,6.14,30.65,0,44.49-6.14-13.84-6.1-30.64,0-44.49h0Z"/>
      <path class="cls-2" d="M1213.66,555.36c6.1,13.85,6.14,30.65,0,44.49-6.14-13.84-6.1-30.64,0-44.49h0Z"/>
      <g>
        <line class="cls-4" x1="273.66" y1="278.1" x2="273.66" y2="69.03"/>
        <path class="cls-15" d="M281.11,246.18c-3.35,4.13-6.03,8.9-7.82,14.09-1.78-5.18-4.47-9.96-7.82-14.09,0,2.79-.14-5.05,0,3.42.24,14.69,1.69,22.14,7.82,30.04,6.13-7.9,7.58-15.35,7.82-30.04.14-8.47,0-.63,0-3.42Z"/>
        <g>
          <path class="cls-15" d="M280.96,67.17c-3.35,4.13-5.91,8.9-7.69,14.09-1.78-5.18-4.35-9.96-7.69-14.09,0,14.75-.26,11.68-.12,20.15.24,14.69,1.69,22.14,7.82,30.04,6.13-7.9,7.58-15.35,7.82-30.04.14-8.47-.12-5.4-.12-20.15Z"/>
          <path class="cls-15" d="M281.11,44.76c-3.35,4.13-6.03,8.9-7.82,14.09-1.78-5.18-4.47-9.96-7.82-14.09,0,2.79-.14-5.05,0,3.42.24,14.69,1.69,22.14,7.82,30.04,6.13-7.9,7.58-15.35,7.82-30.04.14-8.47,0-.63,0-3.42Z"/>
        </g>
      </g>
      <path class="cls-13" d="M280.12,880.74c-3,4.13-5.29,8.9-6.89,14.09-1.6-5.18-3.89-9.96-6.89-14.09,0,14.75-.24,11.68-.11,20.15.22,14.69,1.51,22.14,7,30.04,5.49-7.9,6.79-15.35,7-30.04.12-8.47-.11-5.4-.11-20.15Z"/>
      <g>
        <path class="cls-12" d="M792.47,869.49c-5.08,7.78-6.66,19.15-4.16,30.56,5.11-7.76,6.63-19.16,4.16-30.56h0Z"/>
        <path class="cls-12" d="M782.26,857.4c5.08,7.78,6.66,19.15,4.16,30.56-5.11-7.76-6.63-19.16-4.16-30.56h0Z"/>
        <g>
          <path class="cls-12" d="M780.9,876.99c7,13.75,9.44,31.26,6.37,46.38-7.03-13.73-9.4-31.25-6.37-46.38h0Z"/>
          <path class="cls-12" d="M792.71,892.45c2.9,13.08,1.12,28.33-4.81,40.35-2.94-13.08-1.09-28.31,4.81-40.35h0Z"/>
        </g>
      </g>
      <g>
        <path class="cls-3" d="M1993.23,866.17c.33,11.92-5.72,25.87-15.24,33.07-.37-11.93,5.76-25.85,15.24-33.07h0Z"/>
        <path class="cls-3" d="M1993.23,879.47c.33,11.92-5.72,25.87-15.24,33.07-.37-11.93,5.76-25.85,15.24-33.07h0Z"/>
        <path class="cls-3" d="M1972.49,882.97c-.33,11.92,5.72,25.87,15.24,33.07.37-11.93-5.76-25.85-15.24-33.07h0Z"/>
        <path class="cls-3" d="M1993.22,893.03c.25,8.95-3.1,19.04-8.82,26.56-2,2.63-6.25.68-5.56-2.55,1.99-9.33,7.23-18.57,14.38-24.01h0Z"/>
        <path class="cls-3" d="M1972.49,896.27c-.33,11.92,5.72,25.87,15.24,33.07.37-11.93-5.76-25.85-15.24-33.07h0Z"/>
        <path class="cls-3" d="M1972.49,869.67c-.33,11.92,5.72,25.87,15.24,33.07.37-11.93-5.76-25.85-15.24-33.07h0Z"/>
      </g>
      <g>
        <path class="cls-12" d="M779.4,551.49c7.92,15.68,10.9,35.54,7.8,52.61-7.96-15.66-10.86-35.53-7.8-52.61h0Z"/>
        <path class="cls-12" d="M792.05,562.51c3.18,13.28,1.22,28.74-5.27,40.94-3.21-13.27-1.19-28.73,5.27-40.94h0Z"/>
      </g>
      <path class="cls-16" d="M357.65,348.36c6.1,13.85,6.14,30.65,0,44.49-6.14-13.84-6.1-30.64,0-44.49h0Z"/>
      <path class="cls-10" d="M168.17,557.77c-2.9,4.67-5.12,10.07-6.66,15.93-1.55-5.86-3.76-11.26-6.66-15.93,0,16.68-.23,5.33-.11,14.9.21,16.61,1.46,15.58,6.77,24.51,5.31-8.93,6.56-7.9,6.77-24.51.12-9.57-.11,1.78-.11-14.9Z"/>
      <path class="cls-12" d="M877.15,555.36c6.1,13.85,6.14,30.65,0,44.49-6.14-13.84-6.1-30.64,0-44.49h0Z"/>
      <g>
        <path class="cls-13" d="M463.16,173.92c-3.35,4.13-5.91,8.9-7.69,14.09-1.78-5.18-4.35-9.96-7.69-14.09,0,14.75-.26,11.68-.12,20.15.24,14.69,1.69,22.14,7.82,30.04,6.13-7.9,7.58-15.35,7.82-30.04.14-8.47-.12-5.4-.12-20.15Z"/>
        <path class="cls-13" d="M463.31,151.51c-3.35,4.13-6.03,8.9-7.82,14.09-1.78-5.18-4.47-9.96-7.82-14.09,0,2.79-.14-5.05,0,3.42.24,14.69,1.69,22.14,7.82,30.04,6.13-7.9,7.58-15.35,7.82-30.04.14-8.47,0-.63,0-3.42Z"/>
      </g>
      <path class="cls-2" d="M988.41,459.36c6.1,13.85,6.14,30.65,0,44.49-6.14-13.84-6.1-30.64,0-44.49h0Z"/>
      <g>
        <path class="cls-10" d="M147.14,783.32c-3.28,4.05-5.79,8.72-7.54,13.8-1.75-5.08-4.26-9.75-7.54-13.8,0,14.45-.26,11.44-.12,19.74.24,14.39,1.65,21.69,7.66,29.43,6-7.74,7.42-15.04,7.66-29.43.14-8.3-.12-5.29-.12-19.74Z"/>
        <path class="cls-10" d="M147.26,760.1c-3.28,4.05-5.91,8.72-7.66,13.8-1.75-5.08-4.38-9.75-7.66-13.8,0,2.73-.14-4.95,0,3.35.24,14.39,1.65,21.69,7.66,29.43,6-7.74,7.42-15.04,7.66-29.43.14-8.3,0-.62,0-3.35Z"/>
      </g>
      <g>
        <path class="cls-6" d="M320.14,942.75c-3.28,4.05-5.79,8.72-7.54,13.8-1.75-5.08-4.26-9.75-7.54-13.8,0,14.45-.26,11.44-.12,19.74.24,14.39,1.65,21.69,7.66,29.43,6-7.74,7.42-15.04,7.66-29.43.14-8.3-.12-5.29-.12-19.74Z"/>
        <path class="cls-6" d="M320.26,919.53c-3.28,4.05-5.91,8.72-7.66,13.8-1.75-5.08-4.38-9.75-7.66-13.8,0,2.73-.14-4.95,0,3.35.24,14.39,1.65,21.69,7.66,29.43,6-7.74,7.42-15.04,7.66-29.43.14-8.3,0-.62,0-3.35Z"/>
        <path class="cls-6" d="M320.26,896.31c-3.28,4.05-5.91,8.72-7.66,13.8-1.75-5.08-4.38-9.75-7.66-13.8,0,2.73-.14-4.95,0,3.35.24,14.39,1.65,21.69,7.66,29.43,6-7.74,7.42-15.04,7.66-29.43.14-8.3,0-.62,0-3.35Z"/>
        <path class="cls-6" d="M320.26,873.09c-3.28,4.05-5.91,8.72-7.66,13.8-1.75-5.08-4.38-9.75-7.66-13.8,0,2.73-.14-4.95,0,3.35.24,14.39,1.65,21.69,7.66,29.43,6-7.74,7.42-15.04,7.66-29.43.14-8.3,0-.62,0-3.35Z"/>
        <path class="cls-6" d="M320.26,849.69c-3.28,4.05-5.91,8.72-7.66,13.8-1.75-5.08-4.38-9.75-7.66-13.8,0,2.73-.14-4.95,0,3.35.24,14.39,1.65,21.69,7.66,29.43,6-7.74,7.42-15.04,7.66-29.43.14-8.3,0-.62,0-3.35Z"/>
      </g>
      <path class="cls-5" d="M1093.59,555.36c6.1,13.85,6.14,30.65,0,44.49-6.14-13.84-6.1-30.64,0-44.49h0Z"/>
      <g class="cls-8">
        <path class="cls-12" d="M784.4,347.43c7.92,15.68,10.9,35.54,7.8,52.61-7.96-15.66-10.86-35.53-7.8-52.61h0Z"/>
        <path class="cls-12" d="M797.05,358.44c3.18,13.28,1.22,28.74-5.27,40.94-3.21-13.27-1.19-28.73,5.27-40.94h0Z"/>
      </g>
      <path class="cls-1" d="M697.65,348.36c6.1,13.85,6.14,30.65,0,44.49-6.14-13.84-6.1-30.64,0-44.49h0Z"/>
      <g>
        <path class="cls-11" d="M1906.96,557.15c.17,6.02-1.39,12.59-4.24,18.44-2.18,4.46-8.97,1.53-7.08-3.06,2.53-6.11,6.46-11.67,11.32-15.37h0Z"/>
        <path class="cls-11" d="M1888.97,555.38c-.31,11.28,5.41,24.48,14.42,31.29.35-11.29-5.45-24.46-14.42-31.29h0Z"/>
      </g>
      <path class="cls-2" d="M1670.03,555.36c6.1,13.85,6.14,30.65,0,44.49-6.14-13.84-6.1-30.64,0-44.49h0Z"/>
      <g>
        <path class="cls-14" d="M1020.88,347.08c6.59,15.5,9.07,35.14,6.49,52.02-6.62-15.48-9.04-35.14-6.49-52.02h0Z"/>
        <path class="cls-14" d="M1031.41,357.97c2.64,13.13,1.02,28.42-4.39,40.48-2.67-13.12-.99-28.41,4.39-40.48h0Z"/>
      </g>
      <g>
        <path class="cls-15" d="M547.53,368.1c-3.35,4.13-5.91,8.9-7.69,14.09-1.78-5.18-4.35-9.96-7.69-14.09,0,14.75-.26,11.68-.12,20.15.24,14.69,1.69,22.14,7.82,30.04,6.13-7.9,7.58-15.35,7.82-30.04.14-8.47-.12-5.4-.12-20.15Z"/>
        <path class="cls-15" d="M547.67,345.69c-3.35,4.13-6.03,8.9-7.82,14.09-1.78-5.18-4.47-9.96-7.82-14.09,0,2.79-.14-5.05,0,3.42.24,14.69,1.69,22.14,7.82,30.04,6.13-7.9,7.58-15.35,7.82-30.04.14-8.47,0-.63,0-3.42Z"/>
      </g>
    </g>
  </g>
</svg>