<?xml version="1.0" encoding="UTF-8"?>
<svg id="_图层_1" data-name="图层 1" xmlns="http://www.w3.org/2000/svg" viewBox="0 0 2153.95 1211.6">
  <defs>
    <style>
      .cls-1 {
        stroke: #e1e2b6;
      }

      .cls-1, .cls-2, .cls-3, .cls-4, .cls-5, .cls-6, .cls-7, .cls-8, .cls-9, .cls-10, .cls-11, .cls-12, .cls-13 {
        stroke-miterlimit: 10;
      }

      .cls-1, .cls-4, .cls-14, .cls-6, .cls-7, .cls-8, .cls-13 {
        fill: none;
      }

      .cls-1, .cls-4, .cls-7, .cls-13 {
        stroke-width: 2px;
      }

      .cls-1, .cls-7, .cls-13 {
        stroke-dasharray: 24 .5 1 .5;
      }

      .cls-15 {
        fill: #2f823a;
      }

      .cls-2, .cls-3, .cls-10, .cls-11, .cls-12 {
        stroke-width: .5px;
      }

      .cls-2, .cls-3, .cls-11 {
        stroke: #f4f3f2;
      }

      .cls-2, .cls-5, .cls-9 {
        fill: #cabc83;
      }

      .cls-16 {
        fill: #6bab69;
      }

      .cls-3 {
        fill: #00543f;
      }

      .cls-17 {
        fill: #e6a275;
      }

      .cls-4, .cls-13 {
        stroke: #7b9865;
      }

      .cls-5, .cls-6, .cls-8, .cls-9 {
        stroke-width: .15px;
      }

      .cls-5, .cls-8 {
        stroke: #ccd57b;
      }

      .cls-18 {
        fill: #cd7066;
      }

      .cls-6, .cls-9 {
        stroke: #cabc83;
      }

      .cls-7 {
        stroke: #7faa67;
      }

      .cls-19 {
        fill: #82c47c;
      }

      .cls-20 {
        fill: #e5e6b9;
      }

      .cls-10 {
        fill: #967566;
      }

      .cls-10, .cls-12 {
        stroke: #fff;
      }

      .cls-21 {
        fill: #7e9b67;
      }

      .cls-22 {
        fill: #78504b;
      }

      .cls-11 {
        fill: #d2dd7d;
      }

      .cls-23 {
        fill: #9dce83;
      }

      .cls-12 {
        fill: #b7947a;
      }

      .cls-24 {
        opacity: .7;
      }
    </style>
  </defs>
  <rect class="cls-14" y="-.72" width="2152.84" height="1211.5" transform="translate(2152.84 1210.05) rotate(180)"/>
  <g>
    <path class="cls-17" d="M489.65,559.36c6.1,13.85,6.14,30.65,0,44.49-6.14-13.84-6.1-30.64,0-44.49h0Z"/>
    <path class="cls-19" d="M364.27,858.25c-3.06,4.13-5.51,8.9-7.14,14.09-1.63-5.18-4.08-9.96-7.14-14.09,0,2.79-.13-5.05,0,3.42.22,14.69,1.54,22.14,7.14,30.04,5.6-7.9,6.92-15.35,7.14-30.04.13-8.47,0-.63,0-3.42Z"/>
    <g>
      <path class="cls-3" d="M993.87,634.63c-6.84,10.47-8.96,25.79-5.61,41.15,6.87-10.45,8.93-25.8,5.61-41.15h0Z"/>
      <path class="cls-3" d="M993.87,610.6c-6.84,10.47-8.96,25.79-5.61,41.15,6.87-10.45,8.93-25.8,5.61-41.15h0Z"/>
      <path class="cls-3" d="M981.99,622.12c6.84,10.47,8.96,25.79,5.61,41.15-6.87-10.45-8.93-25.8-5.61-41.15h0Z"/>
      <path class="cls-3" d="M981.99,598.08c6.84,10.47,8.96,25.79,5.61,41.15-6.87-10.45-8.93-25.8-5.61-41.15h0Z"/>
      <path class="cls-3" d="M993.87,586.56c-6.84,10.47-8.96,25.79-5.61,41.15,6.87-10.45,8.93-25.8,5.61-41.15h0Z"/>
      <path class="cls-3" d="M993.87,562.52c-6.84,10.47-8.96,25.79-5.61,41.15,6.87-10.45,8.93-25.8,5.61-41.15h0Z"/>
      <path class="cls-3" d="M981.99,574.04c6.84,10.47,8.96,25.79,5.61,41.15-6.87-10.45-8.93-25.8-5.61-41.15h0Z"/>
      <path class="cls-3" d="M981.99,550c6.84,10.47,8.96,25.79,5.61,41.15-6.87-10.45-8.93-25.8-5.61-41.15h0Z"/>
    </g>
    <path class="cls-18" d="M139.65,559.36c6.1,13.85,6.14,30.65,0,44.49-6.14-13.84-6.1-30.64,0-44.49h0Z"/>
    <path class="cls-16" d="M468.65,559.36c6.1,13.85,6.14,30.65,0,44.49-6.14-13.84-6.1-30.64,0-44.49h0Z"/>
    <path class="cls-22" d="M2099.72,558.36c6.1,13.85,6.14,30.65,0,44.49-6.14-13.84-6.1-30.64,0-44.49h0Z"/>
    <g>
      <line class="cls-7" x1="223.66" y1="281.1" x2="223.66" y2="72.03"/>
      <path class="cls-23" d="M231.11,249.18c-3.35,4.13-6.03,8.9-7.82,14.09-1.78-5.18-4.47-9.96-7.82-14.09,0,2.79-.14-5.05,0,3.42.24,14.69,1.69,22.14,7.82,30.04,6.13-7.9,7.58-15.35,7.82-30.04.14-8.47,0-.63,0-3.42Z"/>
      <g>
        <path class="cls-23" d="M230.96,70.17c-3.35,4.13-5.91,8.9-7.69,14.09-1.78-5.18-4.35-9.96-7.69-14.09,0,14.75-.26,11.68-.12,20.15.24,14.69,1.69,22.14,7.82,30.04,6.13-7.9,7.58-15.35,7.82-30.04.14-8.47-.12-5.4-.12-20.15Z"/>
        <path class="cls-23" d="M231.11,47.76c-3.35,4.13-6.03,8.9-7.82,14.09-1.78-5.18-4.47-9.96-7.82-14.09,0,2.79-.14-5.05,0,3.42.24,14.69,1.69,22.14,7.82,30.04,6.13-7.9,7.58-15.35,7.82-30.04.14-8.47,0-.63,0-3.42Z"/>
      </g>
    </g>
    <g>
      <path class="cls-23" d="M560.53,579.92c-3.35,4.13-5.91,8.9-7.69,14.09-1.78-5.18-4.35-9.96-7.69-14.09,0,14.75-.26,11.68-.12,20.15.24,14.69,1.69,22.14,7.82,30.04,6.13-7.9,7.58-15.35,7.82-30.04.14-8.47-.12-5.4-.12-20.15Z"/>
      <path class="cls-23" d="M560.67,557.51c-3.35,4.13-6.03,8.9-7.82,14.09-1.78-5.18-4.47-9.96-7.82-14.09,0,2.79-.14-5.05,0,3.42.24,14.69,1.69,22.14,7.82,30.04,6.13-7.9,7.58-15.35,7.82-30.04.14-8.47,0-.63,0-3.42Z"/>
    </g>
    <path class="cls-19" d="M364.15,880.74c-3.06,4.13-5.4,8.9-7.03,14.09-1.63-5.18-3.97-9.96-7.03-14.09,0,14.75-.24,11.68-.11,20.15.22,14.69,1.54,22.14,7.14,30.04,5.6-7.9,6.92-15.35,7.14-30.04.13-8.47-.11-5.4-.11-20.15Z"/>
    <g>
      <path class="cls-15" d="M703.04,872.49c-5.08,7.78-6.66,19.15-4.16,30.56,5.11-7.76,6.63-19.16,4.16-30.56h0Z"/>
      <path class="cls-15" d="M692.83,860.4c5.08,7.78,6.66,19.15,4.16,30.56-5.11-7.76-6.63-19.16-4.16-30.56h0Z"/>
      <g>
        <path class="cls-15" d="M691.47,879.99c7,13.75,9.44,31.26,6.37,46.38-7.03-13.73-9.4-31.25-6.37-46.38h0Z"/>
        <path class="cls-15" d="M703.28,895.45c2.9,13.08,1.12,28.33-4.81,40.35-2.94-13.08-1.09-28.31,4.81-40.35h0Z"/>
      </g>
    </g>
    <g>
      <path class="cls-2" d="M1133.59,867.06c6.3,8.39,9.46,21.84,6.91,32.37-6.33-8.38-9.43-21.84-6.91-32.37h0Z"/>
      <line class="cls-9" x1="1137.28" y1="887.09" x2="1131.72" y2="858.41"/>
      <path class="cls-2" d="M1146.63,867.06c-6.3,8.39-9.46,21.84-6.91,32.37,6.33-8.38,9.43-21.84,6.91-32.37h0Z"/>
      <line class="cls-6" x1="1142.94" y1="887.09" x2="1148.5" y2="858.41"/>
      <path class="cls-2" d="M1133.59,884.03c6.3,8.39,9.46,21.84,6.91,32.37-6.33-8.38-9.43-21.84-6.91-32.37h0Z"/>
      <line class="cls-6" x1="1137.28" y1="904.07" x2="1131.72" y2="875.38"/>
      <path class="cls-2" d="M1146.63,884.03c-6.3,8.39-9.46,21.84-6.91,32.37,6.33-8.38,9.43-21.84,6.91-32.37h0Z"/>
      <line class="cls-9" x1="1142.94" y1="904.07" x2="1148.5" y2="875.38"/>
      <path class="cls-2" d="M1133.59,901.01c6.05,8.06,9.21,20.78,7.19,31.11-.1.49-.74.64-1.02.23-5.82-8.42-8.58-21.23-6.17-31.34h0Z"/>
      <line class="cls-6" x1="1137.28" y1="921.04" x2="1131.72" y2="892.36"/>
      <path class="cls-2" d="M1146.63,901.01c-6.3,8.39-9.46,21.84-6.91,32.37,6.33-8.38,9.43-21.84,6.91-32.37h0Z"/>
      <line class="cls-6" x1="1142.94" y1="921.04" x2="1148.5" y2="892.36"/>
    </g>
    <g>
      <path class="cls-2" d="M1284.59,753.84c6.3,8.39,9.46,21.84,6.91,32.37-6.33-8.38-9.43-21.84-6.91-32.37h0Z"/>
      <line class="cls-9" x1="1288.28" y1="773.88" x2="1282.72" y2="745.19"/>
      <path class="cls-2" d="M1297.63,753.84c-6.3,8.39-9.46,21.84-6.91,32.37,6.33-8.38,9.43-21.84,6.91-32.37h0Z"/>
      <line class="cls-6" x1="1293.94" y1="773.88" x2="1299.5" y2="745.19"/>
      <path class="cls-2" d="M1284.59,770.82c6.3,8.39,9.46,21.84,6.91,32.37-6.33-8.38-9.43-21.84-6.91-32.37h0Z"/>
      <line class="cls-6" x1="1288.28" y1="790.86" x2="1282.72" y2="762.17"/>
      <path class="cls-2" d="M1297.63,770.82c-6.3,8.39-9.46,21.84-6.91,32.37,6.33-8.38,9.43-21.84,6.91-32.37h0Z"/>
      <line class="cls-9" x1="1293.94" y1="790.86" x2="1299.5" y2="762.17"/>
      <path class="cls-2" d="M1284.59,787.8c6.05,8.06,9.21,20.78,7.19,31.11-.1.49-.74.64-1.02.23-5.82-8.42-8.58-21.23-6.17-31.34h0Z"/>
      <line class="cls-6" x1="1288.28" y1="807.83" x2="1282.72" y2="779.15"/>
      <path class="cls-2" d="M1297.63,787.8c-6.3,8.39-9.46,21.84-6.91,32.37,6.33-8.38,9.43-21.84,6.91-32.37h0Z"/>
      <line class="cls-6" x1="1293.94" y1="807.83" x2="1299.5" y2="779.15"/>
    </g>
    <g>
      <path class="cls-10" d="M1825.23,869.17c.33,11.92-5.72,25.87-15.24,33.07-.37-11.93,5.76-25.85,15.24-33.07h0Z"/>
      <path class="cls-10" d="M1825.23,882.47c.33,11.92-5.72,25.87-15.24,33.07-.37-11.93,5.76-25.85,15.24-33.07h0Z"/>
      <path class="cls-10" d="M1804.49,885.97c-.33,11.92,5.72,25.87,15.24,33.07.37-11.93-5.76-25.85-15.24-33.07h0Z"/>
      <path class="cls-10" d="M1825.22,896.03c.23,8.33-2.66,17.65-7.67,24.97-2.23,3.26-7.26.96-6.26-2.86,2.26-8.67,7.27-17.04,13.93-22.11h0Z"/>
      <path class="cls-10" d="M1804.49,899.27c-.33,11.92,5.72,25.87,15.24,33.07.37-11.93-5.76-25.85-15.24-33.07h0Z"/>
      <path class="cls-10" d="M1804.49,872.67c-.33,11.92,5.72,25.87,15.24,33.07.37-11.93-5.76-25.85-15.24-33.07h0Z"/>
    </g>
    <g>
      <path class="cls-15" d="M764.45,564.23c-5.06,7.74-6.63,19.06-4.14,30.42,5.08-7.73,6.6-19.07,4.14-30.42h0Z"/>
      <path class="cls-15" d="M754.27,552.08c5.06,7.76,6.64,19.1,4.15,30.47-5.09-7.74-6.61-19.1-4.15-30.47h0Z"/>
      <g>
        <path class="cls-15" d="M752.93,571.69c6.97,13.68,9.4,31.11,6.34,46.16-7-13.67-9.36-31.11-6.34-46.16h0Z"/>
        <path class="cls-15" d="M764.68,587.09c2.89,13.02,1.11,28.19-4.79,40.16-2.92-13.02-1.08-28.18,4.79-40.16h0Z"/>
      </g>
    </g>
    <g>
      <path class="cls-15" d="M668.4,662.49c7.92,15.68,10.9,35.54,7.8,52.61-7.96-15.66-10.86-35.53-7.8-52.61h0Z"/>
      <path class="cls-15" d="M681.05,673.51c3.18,13.28,1.22,28.74-5.27,40.94-3.21-13.27-1.19-28.73,5.27-40.94h0Z"/>
    </g>
    <g>
      <path class="cls-12" d="M1780.38,558.17c.33,11.92-5.72,25.87-15.24,33.07-.37-11.93,5.76-25.85,15.24-33.07h0Z"/>
      <path class="cls-12" d="M1780.38,571.47c.33,11.92-5.72,25.87-15.24,33.07-.37-11.93,5.76-25.85,15.24-33.07h0Z"/>
      <path class="cls-12" d="M1759.63,574.97c-.33,11.92,5.72,25.87,15.24,33.07.37-11.93-5.76-25.85-15.24-33.07h0Z"/>
      <path class="cls-12" d="M1780.36,585.03c.3,10.61-4.47,22.83-12.23,30.46-1.13,1.11-3.03.19-2.9-1.4.91-10.91,6.69-22.64,15.13-29.06h0Z"/>
      <path class="cls-12" d="M1759.63,588.27c-.33,11.92,5.72,25.87,15.24,33.07.37-11.93-5.76-25.85-15.24-33.07h0Z"/>
      <path class="cls-12" d="M1759.63,561.67c-.33,11.92,5.72,25.87,15.24,33.07.37-11.93-5.76-25.85-15.24-33.07h0Z"/>
    </g>
    <g>
      <path class="cls-12" d="M1714.38,668.17c.33,11.92-5.72,25.87-15.24,33.07-.37-11.93,5.76-25.85,15.24-33.07h0Z"/>
      <path class="cls-12" d="M1714.38,681.47c.33,11.92-5.72,25.87-15.24,33.07-.37-11.93,5.76-25.85,15.24-33.07h0Z"/>
      <path class="cls-12" d="M1693.63,684.97c-.33,11.92,5.72,25.87,15.24,33.07.37-11.93-5.76-25.85-15.24-33.07h0Z"/>
      <path class="cls-12" d="M1714.36,695.03c.3,10.61-4.47,22.83-12.23,30.46-1.13,1.11-3.03.19-2.9-1.4.91-10.91,6.69-22.64,15.13-29.06h0Z"/>
      <path class="cls-12" d="M1693.63,698.27c-.33,11.92,5.72,25.87,15.24,33.07.37-11.93-5.76-25.85-15.24-33.07h0Z"/>
      <path class="cls-12" d="M1693.63,671.67c-.33,11.92,5.72,25.87,15.24,33.07.37-11.93-5.76-25.85-15.24-33.07h0Z"/>
    </g>
    <path class="cls-21" d="M966.15,558.36c6.1,13.85,6.14,30.65,0,44.49-6.14-13.84-6.1-30.64,0-44.49h0Z"/>
    <path class="cls-3" d="M1368.59,558.36c6.1,13.85,6.14,30.65,0,44.49-6.14-13.84-6.1-30.64,0-44.49h0Z"/>
    <g>
      <line class="cls-13" x1="988.66" y1="269.6" x2="988.66" y2="89.62"/>
      <g>
        <path class="cls-21" d="M993.06,64.51c-5.08,7.78-6.66,19.15-4.16,30.56,5.11-7.76,6.63-19.16,4.16-30.56h0Z"/>
        <path class="cls-21" d="M982.85,52.42c5.08,7.78,6.66,19.15,4.16,30.56-5.11-7.76-6.63-19.16-4.16-30.56h0Z"/>
        <g>
          <path class="cls-21" d="M981.49,72.01c7,13.75,9.44,31.26,6.37,46.38-7.03-13.73-9.4-31.25-6.37-46.38h0Z"/>
          <path class="cls-21" d="M993.3,87.47c2.9,13.08,1.12,28.33-4.81,40.35-2.94-13.08-1.09-28.31,4.81-40.35h0Z"/>
        </g>
      </g>
      <g>
        <path class="cls-21" d="M982.6,241c6.65,13.16,9.15,29.83,6.55,44.16-6.68-13.15-9.12-29.83-6.55-44.16h0Z"/>
        <path class="cls-21" d="M993.22,250.25c2.67,11.14,1.03,24.13-4.42,34.37-2.7-11.14-1-24.12,4.42-34.37h0Z"/>
      </g>
    </g>
    <g>
      <line class="cls-4" x1="1089.31" y1="612.7" x2="1088.01" y2="477.5"/>
      <g>
        <path class="cls-21" d="M1082.1,460c6.65,13.16,9.15,29.83,6.55,44.16-6.68-13.15-9.12-29.83-6.55-44.16h0Z"/>
        <path class="cls-21" d="M1092.72,469.25c2.67,11.14,1.03,24.13-4.42,34.37-2.7-11.14-1-24.12,4.42-34.37h0Z"/>
      </g>
      <g>
        <path class="cls-21" d="M1093.45,564.23c-5.06,7.74-6.63,19.06-4.14,30.42,5.08-7.73,6.6-19.07,4.14-30.42h0Z"/>
        <path class="cls-21" d="M1083.27,552.08c5.06,7.76,6.64,19.1,4.15,30.47-5.09-7.74-6.61-19.1-4.15-30.47h0Z"/>
        <g>
          <path class="cls-21" d="M1081.93,571.69c6.97,13.68,9.4,31.11,6.34,46.16-7-13.67-9.36-31.11-6.34-46.16h0Z"/>
          <path class="cls-21" d="M1093.68,587.09c2.89,13.02,1.11,28.19-4.79,40.16-2.92-13.02-1.08-28.18,4.79-40.16h0Z"/>
        </g>
      </g>
    </g>
    <path class="cls-18" d="M1380.72,760.36c6.1,13.85,6.14,30.65,0,44.49-6.14-13.84-6.1-30.64,0-44.49h0Z"/>
    <g>
      <path class="cls-11" d="M1383.63,860.38c8.3,9.81,12.47,25.52,9.11,37.83-8.34-9.79-12.43-25.52-9.11-37.83h0Z"/>
      <line class="cls-5" x1="1389.27" y1="886.62" x2="1381.94" y2="853.1"/>
      <path class="cls-11" d="M1398.95,860.38c-8.3,9.81-12.47,25.52-9.11,37.83,8.34-9.79,12.43-25.52,9.11-37.83h0Z"/>
      <line class="cls-8" x1="1393.31" y1="886.62" x2="1400.64" y2="853.1"/>
      <path class="cls-11" d="M1383.63,875.64c8.3,9.81,12.47,25.52,9.11,37.83-8.34-9.79-12.43-25.52-9.11-37.83h0Z"/>
      <line class="cls-8" x1="1389.27" y1="901.89" x2="1381.94" y2="868.36"/>
      <path class="cls-11" d="M1398.95,875.64c-8.3,9.81-12.47,25.52-9.11,37.83,8.34-9.79,12.43-25.52,9.11-37.83h0Z"/>
      <line class="cls-5" x1="1393.31" y1="901.89" x2="1400.64" y2="868.36"/>
      <path class="cls-11" d="M1383.63,891.03c7.97,9.42,12.13,24.29,9.48,36.36-.13.58-.97.74-1.34.26-7.67-9.84-11.31-24.81-8.13-36.62h0Z"/>
      <line class="cls-8" x1="1389.27" y1="917.15" x2="1381.94" y2="883.62"/>
      <path class="cls-11" d="M1398.95,890.9c-8.3,9.81-12.47,25.52-9.11,37.83,8.34-9.79,12.43-25.52,9.11-37.83h0Z"/>
      <line class="cls-8" x1="1393.31" y1="917.15" x2="1400.64" y2="883.62"/>
      <path class="cls-11" d="M1383.63,905.19c8.3,9.81,12.47,25.52,9.11,37.83-8.34-9.79-12.43-25.52-9.11-37.83h0Z"/>
      <line class="cls-5" x1="1389.27" y1="931.44" x2="1381.94" y2="897.91"/>
      <path class="cls-11" d="M1398.95,905.19c-8.3,9.81-12.47,25.52-9.11,37.83,8.34-9.79,12.43-25.52,9.11-37.83h0Z"/>
      <line class="cls-8" x1="1393.31" y1="931.44" x2="1400.64" y2="897.91"/>
      <path class="cls-11" d="M1383.63,920.45c8.3,9.81,12.47,25.52,9.11,37.83-8.34-9.79-12.43-25.52-9.11-37.83h0Z"/>
      <line class="cls-8" x1="1389.27" y1="946.7" x2="1381.94" y2="913.17"/>
      <path class="cls-11" d="M1398.95,920.45c-8.3,9.81-12.47,25.52-9.11,37.83,8.34-9.79,12.43-25.52,9.11-37.83h0Z"/>
      <line class="cls-5" x1="1393.31" y1="946.7" x2="1400.64" y2="913.17"/>
      <path class="cls-11" d="M1383.63,935.85c7.97,9.42,12.13,24.29,9.48,36.36-.13.58-.97.74-1.34.26-7.67-9.84-11.31-24.81-8.13-36.62h0Z"/>
      <line class="cls-8" x1="1389.27" y1="961.96" x2="1381.94" y2="928.43"/>
      <path class="cls-11" d="M1398.95,935.71c-8.3,9.81-12.47,25.52-9.11,37.83,8.34-9.79,12.43-25.52,9.11-37.83h0Z"/>
      <line class="cls-8" x1="1393.31" y1="961.96" x2="1400.64" y2="928.43"/>
      <path class="cls-11" d="M1383.63,950.01c8.3,9.81,12.47,25.52,9.11,37.83-8.34-9.79-12.43-25.52-9.11-37.83h0Z"/>
      <line class="cls-5" x1="1389.27" y1="976.25" x2="1381.94" y2="942.73"/>
      <path class="cls-11" d="M1398.95,950.01c-8.3,9.81-12.47,25.52-9.11,37.83,8.34-9.79,12.43-25.52,9.11-37.83h0Z"/>
      <line class="cls-8" x1="1393.31" y1="976.25" x2="1400.64" y2="942.73"/>
      <path class="cls-11" d="M1383.63,965.27c8.3,9.81,12.47,25.52,9.11,37.83-8.34-9.79-12.43-25.52-9.11-37.83h0Z"/>
      <line class="cls-8" x1="1389.27" y1="991.51" x2="1381.94" y2="957.99"/>
      <path class="cls-11" d="M1398.95,965.27c-8.3,9.81-12.47,25.52-9.11,37.83,8.34-9.79,12.43-25.52,9.11-37.83h0Z"/>
      <line class="cls-5" x1="1393.31" y1="991.51" x2="1400.64" y2="957.99"/>
    </g>
    <g class="cls-24">
      <path class="cls-17" d="M310.65,559.36c6.1,13.85,6.14,30.65,0,44.49-6.14-13.84-6.1-30.64,0-44.49h0Z"/>
    </g>
    <g>
      <line class="cls-1" x1="1396.05" y1="606.81" x2="1396.05" y2="477.46"/>
      <path class="cls-20" d="M1402.71,560.05c-2.9,4.67-5.12,10.07-6.66,15.93-1.55-5.86-3.76-11.26-6.66-15.93,0,16.68-.23,5.33-.11,14.9.21,16.61,1.46,15.58,6.77,24.51,5.31-8.93,6.56-7.9,6.77-24.51.12-9.57-.11,1.78-.11-14.9Z"/>
      <path class="cls-20" d="M1396.05,463.65c6.1,13.85,6.14,30.65,0,44.49-6.14-13.84-6.1-30.64,0-44.49h0Z"/>
    </g>
  </g>
</svg>