<?xml version="1.0" encoding="UTF-8"?>
<svg id="_图层_1" data-name="图层 1" xmlns="http://www.w3.org/2000/svg" viewBox="0 0 2153.95 1211.6">
  <defs>
    <style>
      .cls-1 {
        fill: #d6bd7e;
      }

      .cls-1, .cls-2, .cls-3 {
        stroke: #f4f3f2;
      }

      .cls-1, .cls-2, .cls-3, .cls-4, .cls-5, .cls-6, .cls-7, .cls-8, .cls-9, .cls-10, .cls-11 {
        stroke-miterlimit: 10;
      }

      .cls-1, .cls-2, .cls-3, .cls-4, .cls-9 {
        stroke-width: .5px;
      }

      .cls-2, .cls-5, .cls-8 {
        fill: #cabc83;
      }

      .cls-12 {
        fill: #6bab69;
      }

      .cls-3, .cls-13 {
        fill: #00543f;
      }

      .cls-14 {
        fill: #c56d64;
      }

      .cls-15, .cls-4, .cls-6, .cls-7, .cls-10, .cls-11 {
        fill: none;
      }

      .cls-4 {
        stroke: #529960;
        stroke-dasharray: 12 1 1 1;
      }

      .cls-16 {
        fill: #cd7066;
      }

      .cls-17 {
        fill: #a4d19f;
      }

      .cls-5, .cls-7, .cls-8, .cls-11 {
        stroke-width: .15px;
      }

      .cls-5, .cls-11 {
        stroke: #d6bd7e;
      }

      .cls-6 {
        stroke: #d2dd7d;
      }

      .cls-6, .cls-10 {
        stroke-dasharray: 24 .5 1 .5;
        stroke-width: 2px;
      }

      .cls-18 {
        fill: #579140;
      }

      .cls-7, .cls-8 {
        stroke: #cabc83;
      }

      .cls-19 {
        fill: #82c47c;
      }

      .cls-9 {
        fill: #967566;
        stroke: #fff;
      }

      .cls-10 {
        stroke: #e5ce6e;
      }

      .cls-20 {
        fill: #ecd46e;
      }

      .cls-21 {
        fill: #9dce83;
      }

      .cls-22 {
        fill: #d9e47f;
      }
    </style>
  </defs>
  <rect class="cls-15" y="-.72" width="2152.84" height="1211.5" transform="translate(2152.84 1210.05) rotate(180)"/>
  <g>
    <path class="cls-16" d="M147.65,556.36c6.1,13.85,6.14,30.65,0,44.49-6.14-13.84-6.1-30.64,0-44.49h0Z"/>
    <path class="cls-12" d="M480,348.36c6.1,13.85,6.14,30.65,0,44.49-6.14-13.84-6.1-30.64,0-44.49h0Z"/>
    <path class="cls-1" d="M1422.87,555.36c6.37,13.85,6.42,30.65,0,44.49-6.42-13.84-6.37-30.64,0-44.49h0Z"/>
    <path class="cls-2" d="M1256.65,555.36c6.1,13.85,6.14,30.65,0,44.49-6.14-13.84-6.1-30.64,0-44.49h0Z"/>
    <g>
      <path class="cls-17" d="M469.5,167.92c-3.35,4.13-5.91,8.9-7.69,14.09-1.78-5.18-4.35-9.96-7.69-14.09,0,14.75-.26,11.68-.12,20.15.24,14.69,1.69,22.14,7.82,30.04,6.13-7.9,7.58-15.35,7.82-30.04.14-8.47-.12-5.4-.12-20.15Z"/>
      <path class="cls-17" d="M469.64,145.51c-3.35,4.13-6.03,8.9-7.82,14.09-1.78-5.18-4.47-9.96-7.82-14.09,0,2.79-.14-5.05,0,3.42.24,14.69,1.69,22.14,7.82,30.04,6.13-7.9,7.58-15.35,7.82-30.04.14-8.47,0-.63,0-3.42Z"/>
    </g>
    <g>
      <path class="cls-21" d="M196.07,880.44c-2.88,4.13-5.09,8.9-6.63,14.09-1.54-5.18-3.74-9.96-6.63-14.09,0,14.75-.23,11.68-.11,20.15.21,14.69,1.45,22.14,6.73,30.04,5.28-7.9,6.53-15.35,6.73-30.04.12-8.47-.11-5.4-.11-20.15Z"/>
      <path class="cls-21" d="M196.18,857.69c-2.88,4.13-5.2,8.9-6.73,14.09-1.54-5.18-3.85-9.96-6.73-14.09,0,2.79-.12-5.05,0,3.42.21,14.69,1.45,22.14,6.73,30.04,5.28-7.9,6.53-15.35,6.73-30.04.12-8.47,0-.63,0-3.42Z"/>
    </g>
    <g>
      <path class="cls-2" d="M1217.59,864.06c6.3,8.39,9.46,21.84,6.91,32.37-6.33-8.38-9.43-21.84-6.91-32.37h0Z"/>
      <line class="cls-8" x1="1221.28" y1="884.09" x2="1215.72" y2="855.41"/>
      <path class="cls-2" d="M1230.63,864.06c-6.3,8.39-9.46,21.84-6.91,32.37,6.33-8.38,9.43-21.84,6.91-32.37h0Z"/>
      <line class="cls-7" x1="1226.94" y1="884.09" x2="1232.5" y2="855.41"/>
      <path class="cls-2" d="M1217.59,881.03c6.3,8.39,9.46,21.84,6.91,32.37-6.33-8.38-9.43-21.84-6.91-32.37h0Z"/>
      <line class="cls-7" x1="1221.28" y1="901.07" x2="1215.72" y2="872.38"/>
      <path class="cls-2" d="M1230.63,881.03c-6.3,8.39-9.46,21.84-6.91,32.37,6.33-8.38,9.43-21.84,6.91-32.37h0Z"/>
      <line class="cls-8" x1="1226.94" y1="901.07" x2="1232.5" y2="872.38"/>
      <path class="cls-2" d="M1217.59,898.01c6.05,8.06,9.21,20.78,7.19,31.11-.1.49-.74.64-1.02.23-5.82-8.42-8.58-21.23-6.17-31.34h0Z"/>
      <line class="cls-7" x1="1221.28" y1="918.04" x2="1215.72" y2="889.36"/>
      <path class="cls-2" d="M1230.63,898.01c-6.3,8.39-9.46,21.84-6.91,32.37,6.33-8.38,9.43-21.84,6.91-32.37h0Z"/>
      <line class="cls-7" x1="1226.94" y1="918.04" x2="1232.5" y2="889.36"/>
    </g>
    <g>
      <path class="cls-1" d="M1390.77,864.55c6.3,7.91,9.46,20.59,6.91,30.53-6.33-7.9-9.43-20.6-6.91-30.53h0Z"/>
      <line class="cls-5" x1="1394.46" y1="883.45" x2="1388.9" y2="856.39"/>
      <path class="cls-1" d="M1403.8,864.55c-6.3,7.91-9.46,20.59-6.91,30.53,6.33-7.9,9.43-20.6,6.91-30.53h0Z"/>
      <line class="cls-11" x1="1400.11" y1="883.45" x2="1405.67" y2="856.39"/>
      <path class="cls-1" d="M1390.77,880.56c6.3,7.91,9.46,20.59,6.91,30.53-6.33-7.9-9.43-20.6-6.91-30.53h0Z"/>
      <line class="cls-11" x1="1394.46" y1="899.46" x2="1388.9" y2="872.4"/>
      <path class="cls-1" d="M1403.8,880.56c-6.3,7.91-9.46,20.59-6.91,30.53,6.33-7.9,9.43-20.6,6.91-30.53h0Z"/>
      <line class="cls-5" x1="1400.11" y1="899.46" x2="1405.67" y2="872.4"/>
      <path class="cls-1" d="M1390.77,896.57c6.05,7.6,9.21,19.6,7.19,29.34-.1.47-.74.6-1.02.21-5.82-7.94-8.58-20.02-6.17-29.56h0Z"/>
      <line class="cls-11" x1="1394.46" y1="915.47" x2="1388.9" y2="888.41"/>
      <path class="cls-1" d="M1403.8,896.57c-6.3,7.91-9.46,20.59-6.91,30.53,6.33-7.9,9.43-20.6,6.91-30.53h0Z"/>
      <line class="cls-11" x1="1400.11" y1="915.47" x2="1405.67" y2="888.41"/>
    </g>
    <g>
      <path class="cls-4" d="M1899.66,884.1c2.16-3.49,4.55-9.12,4.55-23.45"/>
      <path class="cls-9" d="M1909.23,866.17c.33,11.92-5.72,25.87-15.24,33.07-.37-11.93,5.76-25.85,15.24-33.07h0Z"/>
      <path class="cls-9" d="M1909.23,879.47c.33,11.92-5.72,25.87-15.24,33.07-.37-11.93,5.76-25.85,15.24-33.07h0Z"/>
      <path class="cls-9" d="M1888.49,882.97c-.33,11.92,5.72,25.87,15.24,33.07.37-11.93-5.76-25.85-15.24-33.07h0Z"/>
      <path class="cls-9" d="M1909.22,893.03c.25,8.89-3.06,18.9-8.7,26.41-2.08,2.76-6.38.78-5.64-2.59,2.02-9.26,7.24-18.41,14.34-23.82h0Z"/>
      <path class="cls-9" d="M1888.49,896.27c-.33,11.92,5.72,25.87,15.24,33.07.37-11.93-5.76-25.85-15.24-33.07h0Z"/>
      <path class="cls-9" d="M1888.49,869.67c-.33,11.92,5.72,25.87,15.24,33.07.37-11.93-5.76-25.85-15.24-33.07h0Z"/>
    </g>
    <path class="cls-19" d="M413.1,670.77c-2.9,4.67-5.12,10.07-6.66,15.93-1.55-5.86-3.76-11.26-6.66-15.93,0,16.68-.23,5.33-.11,14.9.21,16.61,1.46,15.58,6.77,24.51,5.31-8.93,6.56-7.9,6.77-24.51.12-9.57-.11,1.78-.11-14.9Z"/>
    <path class="cls-3" d="M1346.03,459.36c6.1,13.85,6.14,30.65,0,44.49-6.14-13.84-6.1-30.64,0-44.49h0Z"/>
    <g>
      <path class="cls-22" d="M392.14,943.31c-3.28,4.05-5.79,8.72-7.54,13.8-1.75-5.08-4.26-9.75-7.54-13.8,0,14.45-.26,11.44-.12,19.74.24,14.39,1.65,21.69,7.66,29.43,6-7.74,7.42-15.04,7.66-29.43.14-8.3-.12-5.29-.12-19.74Z"/>
      <path class="cls-22" d="M392.26,920.09c-3.28,4.05-5.91,8.72-7.66,13.8-1.75-5.08-4.38-9.75-7.66-13.8,0,2.73-.14-4.95,0,3.35.24,14.39,1.65,21.69,7.66,29.43,6-7.74,7.42-15.04,7.66-29.43.14-8.3,0-.62,0-3.35Z"/>
      <path class="cls-22" d="M392.26,896.87c-3.28,4.05-5.91,8.72-7.66,13.8-1.75-5.08-4.38-9.75-7.66-13.8,0,2.73-.14-4.95,0,3.35.24,14.39,1.65,21.69,7.66,29.43,6-7.74,7.42-15.04,7.66-29.43.14-8.3,0-.62,0-3.35Z"/>
      <path class="cls-22" d="M392.26,873.65c-3.28,4.05-5.91,8.72-7.66,13.8-1.75-5.08-4.38-9.75-7.66-13.8,0,2.73-.14-4.95,0,3.35.24,14.39,1.65,21.69,7.66,29.43,6-7.74,7.42-15.04,7.66-29.43.14-8.3,0-.62,0-3.35Z"/>
      <path class="cls-22" d="M392.26,850.25c-3.28,4.05-5.91,8.72-7.66,13.8-1.75-5.08-4.38-9.75-7.66-13.8,0,2.73-.14-4.95,0,3.35.24,14.39,1.65,21.69,7.66,29.43,6-7.74,7.42-15.04,7.66-29.43.14-8.3,0-.62,0-3.35Z"/>
    </g>
    <path class="cls-13" d="M960.59,555.36c6.1,13.85,6.14,30.65,0,44.49-6.14-13.84-6.1-30.64,0-44.49h0Z"/>
    <path class="cls-16" d="M1548.66,555.36c6.1,13.85,6.14,30.65,0,44.49-6.14-13.84-6.1-30.64,0-44.49h0Z"/>
    <g>
      <path class="cls-18" d="M779.4,347.43c7.92,15.68,10.9,35.54,7.8,52.61-7.96-15.66-10.86-35.53-7.8-52.61h0Z"/>
      <path class="cls-18" d="M792.05,358.44c3.18,13.28,1.22,28.74-5.27,40.94-3.21-13.27-1.19-28.73,5.27-40.94h0Z"/>
    </g>
    <g>
      <path class="cls-14" d="M1684.96,562.48c.17,6.02-1.39,12.59-4.24,18.44-2.18,4.46-8.97,1.53-7.08-3.06,2.53-6.11,6.46-11.67,11.32-15.37h0Z"/>
      <path class="cls-14" d="M1666.97,560.71c-.31,11.28,5.41,24.48,14.42,31.29.35-11.29-5.45-24.46-14.42-31.29h0Z"/>
    </g>
    <g>
      <line class="cls-6" x1="385" y1="600.52" x2="385" y2="471.17"/>
      <path class="cls-22" d="M391.66,565.77c-2.9,4.67-5.12,10.07-6.66,15.93-1.55-5.86-3.76-11.26-6.66-15.93,0,16.68-.23,5.33-.11,14.9.21,16.61,1.46,15.58,6.77,24.51,5.31-8.93,6.56-7.9,6.77-24.51.12-9.57-.11,1.78-.11-14.9Z"/>
      <path class="cls-22" d="M385,457.36c6.1,13.85,6.14,30.65,0,44.49-6.14-13.84-6.1-30.64,0-44.49h0Z"/>
    </g>
    <path class="cls-3" d="M1396.59,670.18c6.1,13.85,6.14,30.65,0,44.49-6.14-13.84-6.1-30.64,0-44.49h0Z"/>
    <path class="cls-20" d="M995.66,555.36c6.1,13.85,6.14,30.65,0,44.49-6.14-13.84-6.1-30.64,0-44.49h0Z"/>
    <g>
      <line class="cls-10" x1="670.02" y1="596.52" x2="670.02" y2="467.17"/>
      <g>
        <path class="cls-20" d="M676.81,650.33c-6.84,10.47-8.96,25.79-5.61,41.15,6.87-10.45,8.93-25.8,5.61-41.15h0Z"/>
        <path class="cls-20" d="M676.81,619.08c-6.84,10.47-8.96,25.79-5.61,41.15,6.87-10.45,8.93-25.8,5.61-41.15h0Z"/>
        <path class="cls-20" d="M663.06,634.05c6.84,10.47,8.96,25.79,5.61,41.15-6.87-10.45-8.93-25.8-5.61-41.15h0Z"/>
        <path class="cls-20" d="M663.06,602.81c6.84,10.47,8.96,25.79,5.61,41.15-6.87-10.45-8.93-25.8-5.61-41.15h0Z"/>
        <path class="cls-20" d="M676.81,587.83c-6.84,10.47-8.96,25.79-5.61,41.15,6.87-10.45,8.93-25.8,5.61-41.15h0Z"/>
        <path class="cls-20" d="M676.81,556.58c-6.84,10.47-8.96,25.79-5.61,41.15,6.87-10.45,8.93-25.8,5.61-41.15h0Z"/>
        <path class="cls-20" d="M663.06,571.56c6.84,10.47,8.96,25.79,5.61,41.15-6.87-10.45-8.93-25.8-5.61-41.15h0Z"/>
        <path class="cls-20" d="M663.06,540.31c6.84,10.47,8.96,25.79,5.61,41.15-6.87-10.45-8.93-25.8-5.61-41.15h0Z"/>
      </g>
      <path class="cls-20" d="M669.66,459.36c6.1,13.85,6.14,30.65,0,44.49-6.14-13.84-6.1-30.64,0-44.49h0Z"/>
    </g>
    <path class="cls-13" d="M1005.41,459.36c6.1,13.85,6.14,30.65,0,44.49-6.14-13.84-6.1-30.64,0-44.49h0Z"/>
    <path class="cls-21" d="M111.65,348.36c6.1,13.85,6.14,30.65,0,44.49-6.14-13.84-6.1-30.64,0-44.49h0Z"/>
  </g>
</svg>