<?xml version="1.0" encoding="UTF-8"?>
<svg id="_图层_1" data-name="图层 1" xmlns="http://www.w3.org/2000/svg" viewBox="0 0 2153.95 1211.6">
  <defs>
    <style>
      .cls-1, .cls-2, .cls-3, .cls-4, .cls-5, .cls-6, .cls-7, .cls-8, .cls-9, .cls-10, .cls-11 {
        stroke-miterlimit: 10;
      }

      .cls-1, .cls-2, .cls-12, .cls-6, .cls-11 {
        fill: none;
      }

      .cls-1, .cls-7, .cls-10, .cls-11 {
        stroke-width: .15px;
      }

      .cls-1, .cls-10 {
        stroke: #c5a673;
      }

      .cls-2 {
        stroke: #e1e2b6;
      }

      .cls-2, .cls-6 {
        stroke-dasharray: 24 .5 1 .5;
        stroke-width: 2px;
      }

      .cls-3 {
        fill: #d6bd7e;
      }

      .cls-3, .cls-4, .cls-5 {
        stroke: #f4f3f2;
      }

      .cls-3, .cls-4, .cls-5, .cls-8, .cls-9 {
        stroke-width: .5px;
      }

      .cls-4 {
        fill: #c5a673;
      }

      .cls-5 {
        fill: #00543f;
      }

      .cls-13 {
        fill: #e6a275;
      }

      .cls-6 {
        stroke: #91ca8c;
      }

      .cls-14 {
        fill: #cd7066;
      }

      .cls-15 {
        fill: #a4d19f;
      }

      .cls-7, .cls-10 {
        fill: #cabc83;
      }

      .cls-7, .cls-11 {
        stroke: #d6bd7e;
      }

      .cls-16 {
        fill: #967566;
      }

      .cls-17 {
        fill: #82c47c;
      }

      .cls-18 {
        fill: #e5e6b9;
      }

      .cls-19, .cls-8 {
        fill: #7e9b67;
      }

      .cls-20 {
        fill: #ecd46e;
      }

      .cls-21 {
        fill: #9dce83;
      }

      .cls-8, .cls-9 {
        stroke: #fff;
      }

      .cls-9 {
        fill: #b7947a;
      }

      .cls-22 {
        opacity: .7;
      }

      .cls-23 {
        fill: #d9e47f;
      }
    </style>
  </defs>
  <rect class="cls-12" y="-.72" width="2152.84" height="1211.5" transform="translate(2152.84 1210.05) rotate(180)"/>
  <g>
    <path class="cls-5" d="M1194.66,555.36c6.1,13.85,6.14,30.65,0,44.49-6.14-13.84-6.1-30.64,0-44.49h0Z"/>
    <path class="cls-3" d="M1432.72,757.36c6.1,13.85,6.14,30.65,0,44.49-6.14-13.84-6.1-30.64,0-44.49h0Z"/>
    <g>
      <path class="cls-21" d="M238.53,576.92c-3.35,4.13-5.91,8.9-7.69,14.09-1.78-5.18-4.35-9.96-7.69-14.09,0,14.75-.26,11.68-.12,20.15.24,14.69,1.69,22.14,7.82,30.04,6.13-7.9,7.58-15.35,7.82-30.04.14-8.47-.12-5.4-.12-20.15Z"/>
      <path class="cls-21" d="M238.67,554.51c-3.35,4.13-6.03,8.9-7.82,14.09-1.78-5.18-4.47-9.96-7.82-14.09,0,2.79-.14-5.05,0,3.42.24,14.69,1.69,22.14,7.82,30.04,6.13-7.9,7.58-15.35,7.82-30.04.14-8.47,0-.63,0-3.42Z"/>
    </g>
    <g>
      <path class="cls-8" d="M1055.25,868.92c-5.08,6.9-6.66,16.98-4.16,27.1,5.11-6.88,6.63-16.99,4.16-27.1h0Z"/>
      <path class="cls-8" d="M1045.04,858.2c5.08,6.9,6.66,16.98,4.16,27.1-5.11-6.88-6.63-16.99-4.16-27.1h0Z"/>
      <g>
        <path class="cls-19" d="M1043.68,875.57c7,12.19,9.44,27.72,6.37,41.12-7.03-12.18-9.4-27.71-6.37-41.12h0Z"/>
        <path class="cls-19" d="M1055.49,889.28c2.9,11.6,1.12,25.12-4.81,35.78-2.94-11.6-1.09-25.1,4.81-35.78h0Z"/>
      </g>
    </g>
    <g>
      <path class="cls-3" d="M1306.95,863.91c6.3,8.25,9.46,21.46,6.91,31.82-6.33-8.23-9.43-21.47-6.91-31.82h0Z"/>
      <line class="cls-7" x1="1310.64" y1="883.6" x2="1305.08" y2="855.41"/>
      <path class="cls-3" d="M1319.99,863.91c-6.3,8.25-9.46,21.46-6.91,31.82,6.33-8.23,9.43-21.47,6.91-31.82h0Z"/>
      <line class="cls-11" x1="1316.3" y1="883.6" x2="1321.86" y2="855.41"/>
      <path class="cls-3" d="M1306.95,880.6c6.3,8.25,9.46,21.46,6.91,31.82-6.33-8.23-9.43-21.47-6.91-31.82h0Z"/>
      <line class="cls-11" x1="1310.64" y1="900.29" x2="1305.08" y2="872.09"/>
      <path class="cls-3" d="M1319.99,880.6c-6.3,8.25-9.46,21.46-6.91,31.82,6.33-8.23,9.43-21.47,6.91-31.82h0Z"/>
      <line class="cls-7" x1="1316.3" y1="900.29" x2="1321.86" y2="872.09"/>
      <path class="cls-3" d="M1306.95,897.28c6.05,7.92,9.21,20.43,7.19,30.58-.1.49-.74.62-1.02.22-5.82-8.28-8.58-20.87-6.17-30.8h0Z"/>
      <line class="cls-11" x1="1310.64" y1="916.98" x2="1305.08" y2="888.78"/>
      <path class="cls-3" d="M1319.99,897.28c-6.3,8.25-9.46,21.46-6.91,31.82,6.33-8.23,9.43-21.47,6.91-31.82h0Z"/>
      <line class="cls-11" x1="1316.3" y1="916.98" x2="1321.86" y2="888.78"/>
    </g>
    <g>
      <path class="cls-4" d="M1480.28,864.66c6.3,8.02,9.46,20.89,6.91,30.96-6.33-8.01-9.43-20.89-6.91-30.96h0Z"/>
      <line class="cls-10" x1="1483.97" y1="883.83" x2="1478.41" y2="856.39"/>
      <path class="cls-4" d="M1493.31,864.66c-6.3,8.02-9.46,20.89-6.91,30.96,6.33-8.01,9.43-20.89,6.91-30.96h0Z"/>
      <line class="cls-1" x1="1489.62" y1="883.83" x2="1495.18" y2="856.39"/>
      <path class="cls-4" d="M1480.28,880.9c6.3,8.02,9.46,20.89,6.91,30.96-6.33-8.01-9.43-20.89-6.91-30.96h0Z"/>
      <line class="cls-1" x1="1483.97" y1="900.07" x2="1478.41" y2="872.63"/>
      <path class="cls-4" d="M1493.31,880.9c-6.3,8.02-9.46,20.89-6.91,30.96,6.33-8.01,9.43-20.89,6.91-30.96h0Z"/>
      <line class="cls-10" x1="1489.62" y1="900.07" x2="1495.18" y2="872.63"/>
      <path class="cls-4" d="M1480.28,897.14c6.05,7.71,9.21,19.88,7.19,29.76-.1.47-.74.61-1.02.22-5.82-8.05-8.58-20.3-6.17-29.97h0Z"/>
      <line class="cls-1" x1="1483.97" y1="916.3" x2="1478.41" y2="888.86"/>
      <path class="cls-4" d="M1493.31,897.14c-6.3,8.02-9.46,20.89-6.91,30.96,6.33-8.01,9.43-20.89,6.91-30.96h0Z"/>
      <line class="cls-1" x1="1489.62" y1="916.3" x2="1495.18" y2="888.86"/>
    </g>
    <g>
      <path class="cls-19" d="M1044.45,561.23c-5.06,7.74-6.63,19.06-4.14,30.42,5.08-7.73,6.6-19.07,4.14-30.42h0Z"/>
      <path class="cls-19" d="M1034.27,549.08c5.06,7.76,6.64,19.1,4.15,30.47-5.09-7.74-6.61-19.1-4.15-30.47h0Z"/>
      <g>
        <path class="cls-19" d="M1032.93,568.69c6.97,13.68,9.4,31.11,6.34,46.16-7-13.67-9.36-31.11-6.34-46.16h0Z"/>
        <path class="cls-19" d="M1044.68,584.09c2.89,13.02,1.11,28.19-4.79,40.16-2.92-13.02-1.08-28.18,4.79-40.16h0Z"/>
      </g>
    </g>
    <path class="cls-17" d="M351.65,556.36c6.1,13.85,6.14,30.65,0,44.49-6.14-13.84-6.1-30.64,0-44.49h0Z"/>
    <path class="cls-18" d="M379.65,556.36c6.1,13.85,6.14,30.65,0,44.49-6.14-13.84-6.1-30.64,0-44.49h0Z"/>
    <path class="cls-23" d="M319.1,670.77c-2.9,4.67-5.12,10.07-6.66,15.93-1.55-5.86-3.76-11.26-6.66-15.93,0,16.68-.23,5.33-.11,14.9.21,16.61,1.46,15.58,6.77,24.51,5.31-8.93,6.56-7.9,6.77-24.51.12-9.57-.11,1.78-.11-14.9Z"/>
    <g>
      <line class="cls-6" x1="483.02" y1="596.52" x2="483.02" y2="467.17"/>
      <path class="cls-15" d="M483,456.36c6.1,13.85,6.14,30.65,0,44.49-6.14-13.84-6.1-30.64,0-44.49h0Z"/>
      <path class="cls-15" d="M490.66,560.77c-2.9,4.67-5.12,10.07-6.66,15.93-1.55-5.86-3.76-11.26-6.66-15.93,0,16.68-.23,5.33-.11,14.9.21,16.61,1.46,15.58,6.77,24.51,5.31-8.93,6.56-7.9,6.77-24.51.12-9.57-.11,1.78-.11-14.9Z"/>
    </g>
    <path class="cls-14" d="M1269.64,670.18c6.1,13.85,6.14,30.65,0,44.49-6.14-13.84-6.1-30.64,0-44.49h0Z"/>
    <path class="cls-13" d="M708.64,670.18c6.1,13.85,6.14,30.65,0,44.49-6.14-13.84-6.1-30.64,0-44.49h0Z"/>
    <g>
      <path class="cls-14" d="M1013.97,460c-6.65,13.16-9.15,29.83-6.55,44.16,6.68-13.15,9.12-29.83,6.55-44.16h0Z"/>
      <path class="cls-14" d="M1003.35,469.25c-2.67,11.14-1.03,24.13,4.42,34.37,2.7-11.14,1-24.12-4.42-34.37h0Z"/>
    </g>
    <g>
      <line class="cls-2" x1="389" y1="595.52" x2="389" y2="466.17"/>
      <path class="cls-18" d="M395.66,560.77c-2.9,4.67-5.12,10.07-6.66,15.93-1.55-5.86-3.76-11.26-6.66-15.93,0,16.68-.23,5.33-.11,14.9.21,16.61,1.46,15.58,6.77,24.51,5.31-8.93,6.56-7.9,6.77-24.51.12-9.57-.11,1.78-.11-14.9Z"/>
      <path class="cls-18" d="M389,453.36c6.1,13.85,6.14,30.65,0,44.49-6.14-13.84-6.1-30.64,0-44.49h0Z"/>
    </g>
    <g>
      <path class="cls-14" d="M147.14,945.59c-3.28,4.05-5.79,8.72-7.54,13.8-1.75-5.08-4.26-9.75-7.54-13.8,0,14.45-.26,11.44-.12,19.74.24,14.39,1.65,21.69,7.66,29.43,6-7.74,7.42-15.04,7.66-29.43.14-8.3-.12-5.29-.12-19.74Z"/>
      <path class="cls-14" d="M147.26,922.37c-3.28,4.05-5.91,8.72-7.66,13.8-1.75-5.08-4.38-9.75-7.66-13.8,0,2.73-.14-4.95,0,3.35.24,14.39,1.65,21.69,7.66,29.43,6-7.74,7.42-15.04,7.66-29.43.14-8.3,0-.62,0-3.35Z"/>
      <path class="cls-14" d="M147.26,899.15c-3.28,4.05-5.91,8.72-7.66,13.8-1.75-5.08-4.38-9.75-7.66-13.8,0,2.73-.14-4.95,0,3.35.24,14.39,1.65,21.69,7.66,29.43,6-7.74,7.42-15.04,7.66-29.43.14-8.3,0-.62,0-3.35Z"/>
      <path class="cls-14" d="M147.26,875.93c-3.28,4.05-5.91,8.72-7.66,13.8-1.75-5.08-4.38-9.75-7.66-13.8,0,2.73-.14-4.95,0,3.35.24,14.39,1.65,21.69,7.66,29.43,6-7.74,7.42-15.04,7.66-29.43.14-8.3,0-.62,0-3.35Z"/>
      <path class="cls-14" d="M147.26,852.53c-3.28,4.05-5.91,8.72-7.66,13.8-1.75-5.08-4.38-9.75-7.66-13.8,0,2.73-.14-4.95,0,3.35.24,14.39,1.65,21.69,7.66,29.43,6-7.74,7.42-15.04,7.66-29.43.14-8.3,0-.62,0-3.35Z"/>
    </g>
    <g>
      <path class="cls-4" d="M1564.51,563.18c6.3,7.44,9.46,19.36,6.91,28.7-6.33-7.43-9.43-19.36-6.91-28.7h0Z"/>
      <line class="cls-10" x1="1568.79" y1="583" x2="1563.23" y2="557.56"/>
      <path class="cls-4" d="M1576.14,563.18c-6.3,7.44-9.46,19.36-6.91,28.7,6.33-7.43,9.43-19.36,6.91-28.7h0Z"/>
      <line class="cls-1" x1="1571.86" y1="583" x2="1577.42" y2="557.56"/>
    </g>
    <g>
      <path class="cls-9" d="M1643.38,555.17c.33,11.92-5.72,25.87-15.24,33.07-.37-11.93,5.76-25.85,15.24-33.07h0Z"/>
      <path class="cls-9" d="M1643.38,568.47c.33,11.92-5.72,25.87-15.24,33.07-.37-11.93,5.76-25.85,15.24-33.07h0Z"/>
      <path class="cls-9" d="M1622.63,571.97c-.33,11.92,5.72,25.87,15.24,33.07.37-11.93-5.76-25.85-15.24-33.07h0Z"/>
      <path class="cls-9" d="M1643.36,582.03c.3,10.61-4.47,22.83-12.23,30.46-1.13,1.11-3.03.19-2.9-1.4.91-10.91,6.69-22.64,15.13-29.06h0Z"/>
      <path class="cls-9" d="M1622.63,585.27c-.33,11.92,5.72,25.87,15.24,33.07.37-11.93-5.76-25.85-15.24-33.07h0Z"/>
      <path class="cls-9" d="M1622.63,558.67c-.33,11.92,5.72,25.87,15.24,33.07.37-11.93-5.76-25.85-15.24-33.07h0Z"/>
    </g>
    <g>
      <path class="cls-16" d="M1906.96,736.26c.17,6.02-1.39,12.59-4.24,18.44-2.18,4.46-8.97,1.53-7.08-3.06,2.53-6.11,6.46-11.67,11.32-15.37h0Z"/>
      <path class="cls-16" d="M1888.97,734.49c-.31,11.28,5.41,24.48,14.42,31.29.35-11.29-5.45-24.46-14.42-31.29h0Z"/>
    </g>
    <path class="cls-13" d="M306.65,556.36c6.1,13.85,6.14,30.65,0,44.49-6.14-13.84-6.1-30.64,0-44.49h0Z"/>
    <path class="cls-13" d="M549.65,556.36c6.1,13.85,6.14,30.65,0,44.49-6.14-13.84-6.1-30.64,0-44.49h0Z"/>
    <path class="cls-18" d="M1386.7,554.65c6.1,13.85,6.14,30.65,0,44.49-6.14-13.84-6.1-30.64,0-44.49h0Z"/>
    <path class="cls-20" d="M1619.66,555.36c6.1,13.85,6.14,30.65,0,44.49-6.14-13.84-6.1-30.64,0-44.49h0Z"/>
    <g class="cls-22">
      <path class="cls-20" d="M672.66,459.36c6.1,13.85,6.14,30.65,0,44.49-6.14-13.84-6.1-30.64,0-44.49h0Z"/>
    </g>
    <path class="cls-20" d="M842.66,555.36c6.1,13.85,6.14,30.65,0,44.49-6.14-13.84-6.1-30.64,0-44.49h0Z"/>
    <path class="cls-14" d="M140.17,475.77c-2.9,4.67-5.12,10.07-6.66,15.93-1.55-5.86-3.76-11.26-6.66-15.93,0,16.68-.23,5.33-.11,14.9.21,16.61,1.46,15.58,6.77,24.51,5.31-8.93,6.56-7.9,6.77-24.51.12-9.57-.11,1.78-.11-14.9Z"/>
    <path class="cls-14" d="M141.24,452.87c-3.28,4.05-5.91,8.72-7.66,13.8-1.75-5.08-4.38-9.75-7.66-13.8,0,2.73-.14-4.95,0,3.35.24,14.39,1.65,21.69,7.66,29.43,6-7.74,7.42-15.04,7.66-29.43.14-8.3,0-.62,0-3.35Z"/>
  </g>
</svg>