<?xml version="1.0" encoding="UTF-8"?>
<svg id="_图层_1" data-name="图层 1" xmlns="http://www.w3.org/2000/svg" viewBox="0 0 2153.95 1211.6">
  <defs>
    <style>
      .cls-1, .cls-2, .cls-3, .cls-4 {
        fill: #231815;
      }

      .cls-1, .cls-2, .cls-4 {
        font-family: MiSans-Normal, 'MiSans Normal';
      }

      .cls-1, .cls-3 {
        font-size: 31.78px;
      }

      .cls-5 {
        stroke: #d6bd7e;
      }

      .cls-5, .cls-6, .cls-7, .cls-8, .cls-9, .cls-10, .cls-11, .cls-12, .cls-13, .cls-14 {
        fill: #c6b881;
      }

      .cls-5, .cls-7, .cls-15, .cls-16, .cls-8, .cls-17, .cls-18, .cls-19, .cls-9, .cls-20, .cls-10, .cls-11, .cls-21, .cls-12, .cls-13, .cls-14 {
        stroke-miterlimit: 10;
      }

      .cls-5, .cls-8, .cls-9, .cls-10, .cls-14 {
        stroke-width: .15px;
      }

      .cls-22, .cls-23 {
        fill: #2f823a;
      }

      .cls-24 {
        fill: #f4f1ef;
      }

      .cls-25 {
        opacity: .51;
      }

      .cls-26, .cls-27 {
        fill: #c5a673;
      }

      .cls-27, .cls-28, .cls-23, .cls-29 {
        font-family: MiSans-Demibold, 'MiSans Demibold-GBpc-EUC-H';
        font-size: 95.49px;
        font-weight: 300;
      }

      .cls-7, .cls-15 {
        stroke: #f4f3f2;
      }

      .cls-7, .cls-15, .cls-16 {
        stroke-width: .5px;
      }

      .cls-2 {
        font-size: 47.66px;
      }

      .cls-15, .cls-16, .cls-17, .cls-30 {
        fill: #947466;
      }

      .cls-31 {
        opacity: .8;
      }

      .cls-16 {
        stroke: #fff;
      }

      .cls-3 {
        font-family: MiSans-Medium, 'MiSans Medium-GBpc-EUC-H';
        font-weight: 500;
      }

      .cls-8, .cls-13 {
        stroke: #cabc83;
      }

      .cls-17 {
        stroke: #947466;
      }

      .cls-17, .cls-18, .cls-19, .cls-12 {
        stroke-dasharray: 24 .5 1 .5;
      }

      .cls-17, .cls-18, .cls-19, .cls-12, .cls-13 {
        stroke-width: 2px;
      }

      .cls-18, .cls-21 {
        stroke: #2e7e39;
      }

      .cls-18, .cls-21, .cls-32 {
        fill: #2e7e39;
      }

      .cls-19, .cls-20 {
        fill: #98c780;
        stroke: #98c780;
      }

      .cls-9 {
        stroke: #ccd57b;
      }

      .cls-33, .cls-28 {
        fill: #967566;
      }

      .cls-10 {
        stroke: #be6a62;
      }

      .cls-11, .cls-12 {
        stroke: #c6b881;
      }

      .cls-34, .cls-29 {
        fill: #82c47c;
      }

      .cls-4 {
        font-size: 24px;
      }

      .cls-35 {
        fill: #9dce83;
      }

      .cls-14 {
        stroke: #c5a673;
      }

      .cls-36 {
        opacity: .5;
      }
    </style>
  </defs>
  <g>
    <g>
      <path class="cls-35" d="M392.14,973.31c-3.28,4.05-5.79,8.72-7.54,13.8-1.75-5.08-4.26-9.75-7.54-13.8,0,14.45-.26,11.44-.12,19.74.24,14.39,1.65,21.69,7.66,29.43,6-7.74,7.42-15.04,7.66-29.43.14-8.3-.12-5.29-.12-19.74Z"/>
      <path class="cls-35" d="M392.26,950.09c-3.28,4.05-5.91,8.72-7.66,13.8-1.75-5.08-4.38-9.75-7.66-13.8,0,2.73-.14-4.95,0,3.35.24,14.39,1.65,21.69,7.66,29.43,6-7.74,7.42-15.04,7.66-29.43.14-8.3,0-.62,0-3.35Z"/>
      <path class="cls-35" d="M392.26,926.87c-3.28,4.05-5.91,8.72-7.66,13.8-1.75-5.08-4.38-9.75-7.66-13.8,0,2.73-.14-4.95,0,3.35.24,14.39,1.65,21.69,7.66,29.43,6-7.74,7.42-15.04,7.66-29.43.14-8.3,0-.62,0-3.35Z"/>
      <path class="cls-35" d="M392.26,903.65c-3.28,4.05-5.91,8.72-7.66,13.8-1.75-5.08-4.38-9.75-7.66-13.8,0,2.73-.14-4.95,0,3.35.24,14.39,1.65,21.69,7.66,29.43,6-7.74,7.42-15.04,7.66-29.43.14-8.3,0-.62,0-3.35Z"/>
      <path class="cls-35" d="M392.26,880.25c-3.28,4.05-5.91,8.72-7.66,13.8-1.75-5.08-4.38-9.75-7.66-13.8,0,2.73-.14-4.95,0,3.35.24,14.39,1.65,21.69,7.66,29.43,6-7.74,7.42-15.04,7.66-29.43.14-8.3,0-.62,0-3.35Z"/>
    </g>
    <g>
      <path class="cls-35" d="M147.14,975.59c-3.28,4.05-5.79,8.72-7.54,13.8-1.75-5.08-4.26-9.75-7.54-13.8,0,14.45-.26,11.44-.12,19.74.24,14.39,1.65,21.69,7.66,29.43,6-7.74,7.42-15.04,7.66-29.43.14-8.3-.12-5.29-.12-19.74Z"/>
      <path class="cls-35" d="M147.26,952.37c-3.28,4.05-5.91,8.72-7.66,13.8-1.75-5.08-4.38-9.75-7.66-13.8,0,2.73-.14-4.95,0,3.35.24,14.39,1.65,21.69,7.66,29.43,6-7.74,7.42-15.04,7.66-29.43.14-8.3,0-.62,0-3.35Z"/>
      <path class="cls-35" d="M147.26,929.15c-3.28,4.05-5.91,8.72-7.66,13.8-1.75-5.08-4.38-9.75-7.66-13.8,0,2.73-.14-4.95,0,3.35.24,14.39,1.65,21.69,7.66,29.43,6-7.74,7.42-15.04,7.66-29.43.14-8.3,0-.62,0-3.35Z"/>
      <path class="cls-35" d="M147.26,905.93c-3.28,4.05-5.91,8.72-7.66,13.8-1.75-5.08-4.38-9.75-7.66-13.8,0,2.73-.14-4.95,0,3.35.24,14.39,1.65,21.69,7.66,29.43,6-7.74,7.42-15.04,7.66-29.43.14-8.3,0-.62,0-3.35Z"/>
      <path class="cls-35" d="M147.26,882.53c-3.28,4.05-5.91,8.72-7.66,13.8-1.75-5.08-4.38-9.75-7.66-13.8,0,2.73-.14-4.95,0,3.35.24,14.39,1.65,21.69,7.66,29.43,6-7.74,7.42-15.04,7.66-29.43.14-8.3,0-.62,0-3.35Z"/>
    </g>
    <g>
      <path class="cls-35" d="M320.14,972.75c-3.28,4.05-5.79,8.72-7.54,13.8-1.75-5.08-4.26-9.75-7.54-13.8,0,14.45-.26,11.44-.12,19.74.24,14.39,1.65,21.69,7.66,29.43,6-7.74,7.42-15.04,7.66-29.43.14-8.3-.12-5.29-.12-19.74Z"/>
      <path class="cls-35" d="M320.26,949.53c-3.28,4.05-5.91,8.72-7.66,13.8-1.75-5.08-4.38-9.75-7.66-13.8,0,2.73-.14-4.95,0,3.35.24,14.39,1.65,21.69,7.66,29.43,6-7.74,7.42-15.04,7.66-29.43.14-8.3,0-.62,0-3.35Z"/>
      <path class="cls-35" d="M320.26,926.31c-3.28,4.05-5.91,8.72-7.66,13.8-1.75-5.08-4.38-9.75-7.66-13.8,0,2.73-.14-4.95,0,3.35.24,14.39,1.65,21.69,7.66,29.43,6-7.74,7.42-15.04,7.66-29.43.14-8.3,0-.62,0-3.35Z"/>
      <path class="cls-35" d="M320.26,903.09c-3.28,4.05-5.91,8.72-7.66,13.8-1.75-5.08-4.38-9.75-7.66-13.8,0,2.73-.14-4.95,0,3.35.24,14.39,1.65,21.69,7.66,29.43,6-7.74,7.42-15.04,7.66-29.43.14-8.3,0-.62,0-3.35Z"/>
      <path class="cls-35" d="M320.26,879.69c-3.28,4.05-5.91,8.72-7.66,13.8-1.75-5.08-4.38-9.75-7.66-13.8,0,2.73-.14-4.95,0,3.35.24,14.39,1.65,21.69,7.66,29.43,6-7.74,7.42-15.04,7.66-29.43.14-8.3,0-.62,0-3.35Z"/>
    </g>
    <g>
      <path class="cls-7" d="M1383.63,887.38c8.3,9.81,12.47,25.52,9.11,37.83-8.34-9.79-12.43-25.52-9.11-37.83h0Z"/>
      <line class="cls-9" x1="1389.27" y1="913.62" x2="1381.94" y2="880.1"/>
      <path class="cls-7" d="M1398.95,887.38c-8.3,9.81-12.47,25.52-9.11,37.83,8.34-9.79,12.43-25.52,9.11-37.83h0Z"/>
      <line class="cls-9" x1="1393.31" y1="913.62" x2="1400.64" y2="880.1"/>
      <path class="cls-7" d="M1383.63,902.64c8.3,9.81,12.47,25.52,9.11,37.83-8.34-9.79-12.43-25.52-9.11-37.83h0Z"/>
      <line class="cls-9" x1="1389.27" y1="928.89" x2="1381.94" y2="895.36"/>
      <path class="cls-7" d="M1398.95,902.64c-8.3,9.81-12.47,25.52-9.11,37.83,8.34-9.79,12.43-25.52,9.11-37.83h0Z"/>
      <line class="cls-9" x1="1393.31" y1="928.89" x2="1400.64" y2="895.36"/>
      <path class="cls-7" d="M1383.63,918.03c7.97,9.42,12.13,24.29,9.48,36.36-.13.58-.97.74-1.34.26-7.67-9.84-11.31-24.81-8.13-36.62h0Z"/>
      <line class="cls-9" x1="1389.27" y1="944.15" x2="1381.94" y2="910.62"/>
      <path class="cls-7" d="M1398.95,917.9c-8.3,9.81-12.47,25.52-9.11,37.83,8.34-9.79,12.43-25.52,9.11-37.83h0Z"/>
      <line class="cls-9" x1="1393.31" y1="944.15" x2="1400.64" y2="910.62"/>
      <path class="cls-7" d="M1383.63,932.19c8.3,9.81,12.47,25.52,9.11,37.83-8.34-9.79-12.43-25.52-9.11-37.83h0Z"/>
      <line class="cls-9" x1="1389.27" y1="958.44" x2="1381.94" y2="924.91"/>
      <path class="cls-7" d="M1398.95,932.19c-8.3,9.81-12.47,25.52-9.11,37.83,8.34-9.79,12.43-25.52,9.11-37.83h0Z"/>
      <line class="cls-9" x1="1393.31" y1="958.44" x2="1400.64" y2="924.91"/>
      <path class="cls-7" d="M1383.63,947.45c8.3,9.81,12.47,25.52,9.11,37.83-8.34-9.79-12.43-25.52-9.11-37.83h0Z"/>
      <line class="cls-9" x1="1389.27" y1="973.7" x2="1381.94" y2="940.17"/>
      <path class="cls-7" d="M1398.95,947.45c-8.3,9.81-12.47,25.52-9.11,37.83,8.34-9.79,12.43-25.52,9.11-37.83h0Z"/>
      <line class="cls-9" x1="1393.31" y1="973.7" x2="1400.64" y2="940.17"/>
      <path class="cls-7" d="M1383.63,962.85c7.97,9.42,12.13,24.29,9.48,36.36-.13.58-.97.74-1.34.26-7.67-9.84-11.31-24.81-8.13-36.62h0Z"/>
      <line class="cls-9" x1="1389.27" y1="988.96" x2="1381.94" y2="955.43"/>
      <path class="cls-7" d="M1398.95,962.71c-8.3,9.81-12.47,25.52-9.11,37.83,8.34-9.79,12.43-25.52,9.11-37.83h0Z"/>
      <line class="cls-9" x1="1393.31" y1="988.96" x2="1400.64" y2="955.43"/>
      <path class="cls-7" d="M1383.63,977.01c8.3,9.81,12.47,25.52,9.11,37.83-8.34-9.79-12.43-25.52-9.11-37.83h0Z"/>
      <line class="cls-9" x1="1389.27" y1="1003.25" x2="1381.94" y2="969.73"/>
      <path class="cls-7" d="M1398.95,977.01c-8.3,9.81-12.47,25.52-9.11,37.83,8.34-9.79,12.43-25.52,9.11-37.83h0Z"/>
      <line class="cls-9" x1="1393.31" y1="1003.25" x2="1400.64" y2="969.73"/>
      <path class="cls-7" d="M1383.63,992.27c8.3,9.81,12.47,25.52,9.11,37.83-8.34-9.79-12.43-25.52-9.11-37.83h0Z"/>
      <line class="cls-9" x1="1389.27" y1="1018.51" x2="1381.94" y2="984.99"/>
      <path class="cls-7" d="M1398.95,992.27c-8.3,9.81-12.47,25.52-9.11,37.83,8.34-9.79,12.43-25.52,9.11-37.83h0Z"/>
      <line class="cls-9" x1="1393.31" y1="1018.51" x2="1400.64" y2="984.99"/>
    </g>
    <path class="cls-30" d="M1670.03,585.36c6.1,13.85,6.14,30.65,0,44.49-6.14-13.84-6.1-30.64,0-44.49h0Z"/>
    <path class="cls-35" d="M489.65,586.36c6.1,13.85,6.14,30.65,0,44.49-6.14-13.84-6.1-30.64,0-44.49h0Z"/>
    <path class="cls-35" d="M468.65,586.36c6.1,13.85,6.14,30.65,0,44.49-6.14-13.84-6.1-30.64,0-44.49h0Z"/>
    <path class="cls-35" d="M206.65,586.36c6.1,13.85,6.14,30.65,0,44.49-6.14-13.84-6.1-30.64,0-44.49h0Z"/>
    <path class="cls-35" d="M147.65,586.36c6.1,13.85,6.14,30.65,0,44.49-6.14-13.84-6.1-30.64,0-44.49h0Z"/>
    <path class="cls-35" d="M139.65,586.36c6.1,13.85,6.14,30.65,0,44.49-6.14-13.84-6.1-30.64,0-44.49h0Z"/>
    <path class="cls-35" d="M217.65,586.36c6.1,13.85,6.14,30.65,0,44.49-6.14-13.84-6.1-30.64,0-44.49h0Z"/>
    <path class="cls-35" d="M334.65,586.36c6.1,13.85,6.14,30.65,0,44.49-6.14-13.84-6.1-30.64,0-44.49h0Z"/>
    <path class="cls-35" d="M480,378.36c6.1,13.85,6.14,30.65,0,44.49-6.14-13.84-6.1-30.64,0-44.49h0Z"/>
    <path class="cls-7" d="M1422.87,585.36c6.37,13.85,6.42,30.65,0,44.49-6.42-13.84-6.37-30.64,0-44.49h0Z"/>
    <path class="cls-6" d="M1441.87,585.36c6.37,13.85,6.42,30.65,0,44.49-6.42-13.84-6.37-30.64,0-44.49h0Z"/>
    <path class="cls-6" d="M1194.66,585.36c6.1,13.85,6.14,30.65,0,44.49-6.14-13.84-6.1-30.64,0-44.49h0Z"/>
    <path class="cls-6" d="M1213.66,585.36c6.1,13.85,6.14,30.65,0,44.49-6.14-13.84-6.1-30.64,0-44.49h0Z"/>
    <path class="cls-6" d="M1473.66,585.36c6.1,13.85,6.14,30.65,0,44.49-6.14-13.84-6.1-30.64,0-44.49h0Z"/>
    <path class="cls-7" d="M1357.72,787.36c6.1,13.85,6.14,30.65,0,44.49-6.14-13.84-6.1-30.64,0-44.49h0Z"/>
    <path class="cls-7" d="M1432.72,787.36c6.1,13.85,6.14,30.65,0,44.49-6.14-13.84-6.1-30.64,0-44.49h0Z"/>
    <path class="cls-7" d="M1256.65,585.36c6.1,13.85,6.14,30.65,0,44.49-6.14-13.84-6.1-30.64,0-44.49h0Z"/>
    <path class="cls-30" d="M2099.72,585.36c6.1,13.85,6.14,30.65,0,44.49-6.14-13.84-6.1-30.64,0-44.49h0Z"/>
    <path class="cls-35" d="M351.65,586.36c6.1,13.85,6.14,30.65,0,44.49-6.14-13.84-6.1-30.64,0-44.49h0Z"/>
    <path class="cls-35" d="M357.65,378.36c6.1,13.85,6.14,30.65,0,44.49-6.14-13.84-6.1-30.64,0-44.49h0Z"/>
    <g class="cls-36">
      <path class="cls-22" d="M966.15,585.36c6.1,13.85,6.14,30.65,0,44.49-6.14-13.84-6.1-30.64,0-44.49h0Z"/>
    </g>
    <path class="cls-22" d="M877.15,585.36c6.1,13.85,6.14,30.65,0,44.49-6.14-13.84-6.1-30.64,0-44.49h0Z"/>
    <path class="cls-6" d="M1368.59,585.36c6.1,13.85,6.14,30.65,0,44.49-6.14-13.84-6.1-30.64,0-44.49h0Z"/>
    <path class="cls-6" d="M1269.64,700.18c6.1,13.85,6.14,30.65,0,44.49-6.14-13.84-6.1-30.64,0-44.49h0Z"/>
    <path class="cls-22" d="M708.64,700.18c6.1,13.85,6.14,30.65,0,44.49-6.14-13.84-6.1-30.64,0-44.49h0Z"/>
    <path class="cls-22" d="M1025.63,787.36c6.1,13.85,6.14,30.65,0,44.49-6.14-13.84-6.1-30.64,0-44.49h0Z"/>
    <path class="cls-6" d="M1346.03,585.36c6.1,13.85,6.14,30.65,0,44.49-6.14-13.84-6.1-30.64,0-44.49h0Z"/>
    <path class="cls-6" d="M1150.11,585.36c6.1,13.85,6.14,30.65,0,44.49-6.14-13.84-6.1-30.64,0-44.49h0Z"/>
    <path class="cls-22" d="M988.41,489.36c6.1,13.85,6.14,30.65,0,44.49-6.14-13.84-6.1-30.64,0-44.49h0Z"/>
    <path class="cls-6" d="M1346.03,489.36c6.1,13.85,6.14,30.65,0,44.49-6.14-13.84-6.1-30.64,0-44.49h0Z"/>
    <g class="cls-36">
      <path class="cls-22" d="M1093.59,585.36c6.1,13.85,6.14,30.65,0,44.49-6.14-13.84-6.1-30.64,0-44.49h0Z"/>
    </g>
    <path class="cls-22" d="M960.59,585.36c6.1,13.85,6.14,30.65,0,44.49-6.14-13.84-6.1-30.64,0-44.49h0Z"/>
    <path class="cls-6" d="M1548.66,585.36c6.1,13.85,6.14,30.65,0,44.49-6.14-13.84-6.1-30.64,0-44.49h0Z"/>
    <path class="cls-6" d="M1380.72,787.36c6.1,13.85,6.14,30.65,0,44.49-6.14-13.84-6.1-30.64,0-44.49h0Z"/>
    <path class="cls-35" d="M440.65,267.36c6.1,13.85,6.14,30.65,0,44.49-6.14-13.84-6.1-30.64,0-44.49h0Z"/>
    <path class="cls-22" d="M697.65,378.36c6.1,13.85,6.14,30.65,0,44.49-6.14-13.84-6.1-30.64,0-44.49h0Z"/>
    <g class="cls-36">
      <path class="cls-35" d="M111.65,378.36c6.1,13.85,6.14,30.65,0,44.49-6.14-13.84-6.1-30.64,0-44.49h0Z"/>
    </g>
    <path class="cls-30" d="M1899.72,184.18c6.1,13.85,6.14,30.65,0,44.49-6.14-13.84-6.1-30.64,0-44.49h0Z"/>
    <path class="cls-30" d="M1899.72,267.36c6.1,13.85,6.14,30.65,0,44.49-6.14-13.84-6.1-30.64,0-44.49h0Z"/>
    <path class="cls-6" d="M1396.59,700.18c6.1,13.85,6.14,30.65,0,44.49-6.14-13.84-6.1-30.64,0-44.49h0Z"/>
    <path class="cls-35" d="M306.65,586.36c6.1,13.85,6.14,30.65,0,44.49-6.14-13.84-6.1-30.64,0-44.49h0Z"/>
    <path class="cls-35" d="M155.65,701.36c6.1,13.85,6.14,30.65,0,44.49-6.14-13.84-6.1-30.64,0-44.49h0Z"/>
    <path class="cls-35" d="M310.65,586.36c6.1,13.85,6.14,30.65,0,44.49-6.14-13.84-6.1-30.64,0-44.49h0Z"/>
    <path class="cls-35" d="M302.65,586.36c6.1,13.85,6.14,30.65,0,44.49-6.14-13.84-6.1-30.64,0-44.49h0Z"/>
    <path class="cls-35" d="M549.65,586.36c6.1,13.85,6.14,30.65,0,44.49-6.14-13.84-6.1-30.64,0-44.49h0Z"/>
    <path class="cls-35" d="M546.83,586.36c6.1,13.85,6.14,30.65,0,44.49-6.14-13.84-6.1-30.64,0-44.49h0Z"/>
    <path class="cls-6" d="M1619.66,585.36c6.1,13.85,6.14,30.65,0,44.49-6.14-13.84-6.1-30.64,0-44.49h0Z"/>
    <path class="cls-22" d="M995.66,585.36c6.1,13.85,6.14,30.65,0,44.49-6.14-13.84-6.1-30.64,0-44.49h0Z"/>
    <path class="cls-22" d="M842.66,585.36c6.1,13.85,6.14,30.65,0,44.49-6.14-13.84-6.1-30.64,0-44.49h0Z"/>
    <path class="cls-22" d="M1005.41,489.36c6.1,13.85,6.14,30.65,0,44.49-6.14-13.84-6.1-30.64,0-44.49h0Z"/>
    <g>
      <line class="cls-19" x1="223.66" y1="308.1" x2="223.66" y2="113.1"/>
      <path class="cls-20" d="M231.11,276.18c-3.35,4.13-6.03,8.9-7.82,14.09-1.78-5.18-4.47-9.96-7.82-14.09,0,2.79-.14-5.05,0,3.42.24,14.69,1.69,22.14,7.82,30.04,6.13-7.9,7.58-15.35,7.82-30.04.14-8.47,0-.63,0-3.42Z"/>
      <g>
        <path class="cls-20" d="M230.96,103.17c-3.35,4.13-5.91,8.9-7.69,14.09-1.78-5.18-4.35-9.96-7.69-14.09,0,14.75-.26,11.68-.12,20.15.24,14.69,1.69,22.14,7.82,30.04,6.13-7.9,7.58-15.35,7.82-30.04.14-8.47-.12-5.4-.12-20.15Z"/>
        <path class="cls-20" d="M231.11,80.76c-3.35,4.13-6.03,8.9-7.82,14.09-1.78-5.18-4.47-9.96-7.82-14.09,0,2.79-.14-5.05,0,3.42.24,14.69,1.69,22.14,7.82,30.04,6.13-7.9,7.58-15.35,7.82-30.04.14-8.47,0-.63,0-3.42Z"/>
      </g>
    </g>
    <g>
      <line class="cls-19" x1="273.66" y1="308.1" x2="273.66" y2="113.1"/>
      <path class="cls-20" d="M281.11,276.18c-3.35,4.13-6.03,8.9-7.82,14.09-1.78-5.18-4.47-9.96-7.82-14.09,0,2.79-.14-5.05,0,3.42.24,14.69,1.69,22.14,7.82,30.04,6.13-7.9,7.58-15.35,7.82-30.04.14-8.47,0-.63,0-3.42Z"/>
      <g>
        <path class="cls-20" d="M280.96,103.17c-3.35,4.13-5.91,8.9-7.69,14.09-1.78-5.18-4.35-9.96-7.69-14.09,0,14.75-.26,11.68-.12,20.15.24,14.69,1.69,22.14,7.82,30.04,6.13-7.9,7.58-15.35,7.82-30.04.14-8.47-.12-5.4-.12-20.15Z"/>
        <path class="cls-20" d="M281.11,80.76c-3.35,4.13-6.03,8.9-7.82,14.09-1.78-5.18-4.47-9.96-7.82-14.09,0,2.79-.14-5.05,0,3.42.24,14.69,1.69,22.14,7.82,30.04,6.13-7.9,7.58-15.35,7.82-30.04.14-8.47,0-.63,0-3.42Z"/>
      </g>
    </g>
    <g class="cls-36">
      <line class="cls-19" x1="483.02" y1="626.52" x2="483.02" y2="497.17"/>
      <path class="cls-20" d="M483,486.36c6.1,13.85,6.14,30.65,0,44.49-6.14-13.84-6.1-30.64,0-44.49h0Z"/>
      <path class="cls-20" d="M490.66,590.77c-2.9,4.67-5.12,10.07-6.66,15.93-1.55-5.86-3.76-11.26-6.66-15.93,0,16.68-.23,5.33-.11,14.9.21,16.61,1.46,15.58,6.77,24.51,5.31-8.93,6.56-7.9,6.77-24.51.12-9.57-.11,1.78-.11-14.9Z"/>
    </g>
    <g>
      <line class="cls-18" x1="988.66" y1="296.6" x2="988.66" y2="146.1"/>
      <g>
        <path class="cls-21" d="M993.06,94.51c-5.08,7.78-6.66,19.15-4.16,30.56,5.11-7.76,6.63-19.16,4.16-30.56h0Z"/>
        <path class="cls-21" d="M982.85,82.42c5.08,7.78,6.66,19.15,4.16,30.56-5.11-7.76-6.63-19.16-4.16-30.56h0Z"/>
        <g>
          <path class="cls-21" d="M981.49,102.01c7,13.75,9.44,31.26,6.37,46.38-7.03-13.73-9.4-31.25-6.37-46.38h0Z"/>
          <path class="cls-21" d="M993.3,117.47c2.9,13.08,1.12,28.33-4.81,40.35-2.94-13.08-1.09-28.31,4.81-40.35h0Z"/>
        </g>
      </g>
      <g>
        <path class="cls-21" d="M982.6,268c6.65,13.16,9.15,29.83,6.55,44.16-6.68-13.15-9.12-29.83-6.55-44.16h0Z"/>
        <path class="cls-21" d="M993.22,277.25c2.67,11.14,1.03,24.13-4.42,34.37-2.7-11.14-1-24.12,4.42-34.37h0Z"/>
      </g>
      <g>
        <path class="cls-21" d="M982.6,170c6.65,13.16,9.15,29.83,6.55,44.16-6.68-13.15-9.12-29.83-6.55-44.16h0Z"/>
        <path class="cls-21" d="M993.22,179.25c2.67,11.14,1.03,24.13-4.42,34.37-2.7-11.14-1-24.12,4.42-34.37h0Z"/>
      </g>
    </g>
    <g>
      <line class="cls-19" x1="480" y1="632.52" x2="480" y2="503.17"/>
      <path class="cls-20" d="M486.66,593.77c-2.9,4.67-5.12,10.07-6.66,15.93-1.55-5.86-3.76-11.26-6.66-15.93,0,16.68-.23,5.33-.11,14.9.21,16.61,1.46,15.58,6.77,24.51,5.31-8.93,6.56-7.9,6.77-24.51.12-9.57-.11,1.78-.11-14.9Z"/>
      <path class="cls-20" d="M480,489.36c6.1,13.85,6.14,30.65,0,44.49-6.14-13.84-6.1-30.64,0-44.49h0Z"/>
    </g>
    <g class="cls-36">
      <line class="cls-19" x1="389" y1="625.52" x2="389" y2="496.17"/>
      <path class="cls-20" d="M395.66,590.77c-2.9,4.67-5.12,10.07-6.66,15.93-1.55-5.86-3.76-11.26-6.66-15.93,0,16.68-.23,5.33-.11,14.9.21,16.61,1.46,15.58,6.77,24.51,5.31-8.93,6.56-7.9,6.77-24.51.12-9.57-.11,1.78-.11-14.9Z"/>
      <path class="cls-20" d="M389,483.36c6.1,13.85,6.14,30.65,0,44.49-6.14-13.84-6.1-30.64,0-44.49h0Z"/>
    </g>
    <g>
      <line class="cls-13" x1="1139.66" y1="521.6" x2="1139.66" y2="407.1"/>
      <g>
        <path class="cls-8" d="M1133.12,493.95c6.3,7.44,9.46,19.36,6.91,28.7-6.33-7.43-9.43-19.36-6.91-28.7h0Z"/>
        <line class="cls-8" x1="1136.81" y1="511.71" x2="1131.25" y2="486.28"/>
        <path class="cls-8" d="M1146.15,493.95c-6.3,7.44-9.46,19.36-6.91,28.7,6.33-7.43,9.43-19.36,6.91-28.7h0Z"/>
        <line class="cls-8" x1="1142.46" y1="511.71" x2="1148.02" y2="486.28"/>
      </g>
      <g>
        <path class="cls-8" d="M1133.12,388.95c6.3,7.44,9.46,19.36,6.91,28.7-6.33-7.43-9.43-19.36-6.91-28.7h0Z"/>
        <line class="cls-8" x1="1136.81" y1="406.71" x2="1131.25" y2="381.28"/>
        <path class="cls-8" d="M1146.15,388.95c-6.3,7.44-9.46,19.36-6.91,28.7,6.33-7.43,9.43-19.36,6.91-28.7h0Z"/>
        <line class="cls-8" x1="1142.46" y1="406.71" x2="1148.02" y2="381.28"/>
      </g>
    </g>
    <g>
      <line class="cls-18" x1="1089.31" y1="639.7" x2="1088.01" y2="504.5"/>
      <g>
        <path class="cls-21" d="M1082.1,487c6.65,13.16,9.15,29.83,6.55,44.16-6.68-13.15-9.12-29.83-6.55-44.16h0Z"/>
        <path class="cls-21" d="M1092.72,496.25c2.67,11.14,1.03,24.13-4.42,34.37-2.7-11.14-1-24.12,4.42-34.37h0Z"/>
      </g>
      <g>
        <path class="cls-21" d="M1093.45,591.23c-5.06,7.74-6.63,19.06-4.14,30.42,5.08-7.73,6.6-19.07,4.14-30.42h0Z"/>
        <path class="cls-21" d="M1083.27,579.08c5.06,7.76,6.64,19.1,4.15,30.47-5.09-7.74-6.61-19.1-4.15-30.47h0Z"/>
        <g>
          <path class="cls-21" d="M1081.93,598.69c6.97,13.68,9.4,31.11,6.34,46.16-7-13.67-9.36-31.11-6.34-46.16h0Z"/>
          <path class="cls-21" d="M1093.68,614.09c2.89,13.02,1.11,28.19-4.79,40.16-2.92-13.02-1.08-28.18,4.79-40.16h0Z"/>
        </g>
      </g>
    </g>
    <g>
      <line class="cls-19" x1="385" y1="630.52" x2="385" y2="501.17"/>
      <path class="cls-20" d="M391.66,595.77c-2.9,4.67-5.12,10.07-6.66,15.93-1.55-5.86-3.76-11.26-6.66-15.93,0,16.68-.23,5.33-.11,14.9.21,16.61,1.46,15.58,6.77,24.51,5.31-8.93,6.56-7.9,6.77-24.51.12-9.57-.11,1.78-.11-14.9Z"/>
      <path class="cls-20" d="M385,487.36c6.1,13.85,6.14,30.65,0,44.49-6.14-13.84-6.1-30.64,0-44.49h0Z"/>
    </g>
    <g>
      <line class="cls-12" x1="1396.05" y1="617.1" x2="1396.05" y2="504.46"/>
      <path class="cls-11" d="M1402.71,587.05c-2.9,4.67-5.12,10.07-6.66,15.93-1.55-5.86-3.76-11.26-6.66-15.93,0,16.68-.23,5.33-.11,14.9.21,16.61,1.46,15.58,6.77,24.51,5.31-8.93,6.56-7.9,6.77-24.51.12-9.57-.11,1.78-.11-14.9Z"/>
      <path class="cls-11" d="M1396.05,490.65c6.1,13.85,6.14,30.65,0,44.49-6.14-13.84-6.1-30.64,0-44.49h0Z"/>
    </g>
    <g>
      <line class="cls-12" x1="1392.05" y1="618.1" x2="1392.05" y2="511.46"/>
      <path class="cls-11" d="M1398.71,594.05c-2.9,4.67-5.12,10.07-6.66,15.93-1.55-5.86-3.76-11.26-6.66-15.93,0,16.68-.23,5.33-.11,14.9.21,16.61,1.46,15.58,6.77,24.51,5.31-8.93,6.56-7.9,6.77-24.51.12-9.57-.11,1.78-.11-14.9Z"/>
      <path class="cls-11" d="M1392.05,497.65c6.1,13.85,6.14,30.65,0,44.49-6.14-13.84-6.1-30.64,0-44.49h0Z"/>
    </g>
    <g>
      <line class="cls-18" x1="670.02" y1="626.52" x2="670.02" y2="497.17"/>
      <g>
        <path class="cls-32" d="M676.81,680.33c-6.84,10.47-8.96,25.79-5.61,41.15,6.87-10.45,8.93-25.8,5.61-41.15h0Z"/>
        <path class="cls-32" d="M676.81,649.08c-6.84,10.47-8.96,25.79-5.61,41.15,6.87-10.45,8.93-25.8,5.61-41.15h0Z"/>
        <path class="cls-32" d="M663.06,664.05c6.84,10.47,8.96,25.79,5.61,41.15-6.87-10.45-8.93-25.8-5.61-41.15h0Z"/>
        <path class="cls-32" d="M663.06,632.81c6.84,10.47,8.96,25.79,5.61,41.15-6.87-10.45-8.93-25.8-5.61-41.15h0Z"/>
        <path class="cls-32" d="M676.81,617.83c-6.84,10.47-8.96,25.79-5.61,41.15,6.87-10.45,8.93-25.8,5.61-41.15h0Z"/>
        <path class="cls-32" d="M676.81,586.58c-6.84,10.47-8.96,25.79-5.61,41.15,6.87-10.45,8.93-25.8,5.61-41.15h0Z"/>
        <path class="cls-32" d="M663.06,601.56c6.84,10.47,8.96,25.79,5.61,41.15-6.87-10.45-8.93-25.8-5.61-41.15h0Z"/>
        <path class="cls-32" d="M663.06,570.31c6.84,10.47,8.96,25.79,5.61,41.15-6.87-10.45-8.93-25.8-5.61-41.15h0Z"/>
      </g>
      <g>
        <path class="cls-32" d="M995.35,680c-7.36,10.46-9.64,25.76-6.03,41.1,7.39-10.44,9.6-25.77,6.03-41.1h0Z"/>
        <path class="cls-32" d="M995.35,648.78c-7.36,10.46-9.64,25.76-6.03,41.1,7.39-10.44,9.6-25.77,6.03-41.1h0Z"/>
        <path class="cls-32" d="M980.55,663.74c7.36,10.46,9.64,25.76,6.03,41.1-7.39-10.44-9.6-25.77-6.03-41.1h0Z"/>
        <path class="cls-32" d="M980.55,632.53c7.36,10.46,9.64,25.76,6.03,41.1-7.39-10.44-9.6-25.77-6.03-41.1h0Z"/>
        <path class="cls-32" d="M995.35,617.57c-7.36,10.46-9.64,25.76-6.03,41.1,7.39-10.44,9.6-25.77,6.03-41.1h0Z"/>
        <path class="cls-32" d="M995.35,586.35c-7.36,10.46-9.64,25.76-6.03,41.1,7.39-10.44,9.6-25.77,6.03-41.1h0Z"/>
        <path class="cls-32" d="M980.55,601.31c7.36,10.46,9.64,25.76,6.03,41.1-7.39-10.44-9.6-25.77-6.03-41.1h0Z"/>
        <path class="cls-32" d="M980.55,570.1c7.36,10.46,9.64,25.76,6.03,41.1-7.39-10.44-9.6-25.77-6.03-41.1h0Z"/>
      </g>
      <path class="cls-21" d="M669.66,489.36c6.1,13.85,6.14,30.65,0,44.49-6.14-13.84-6.1-30.64,0-44.49h0Z"/>
    </g>
    <g>
      <line class="cls-19" x1="105.16" y1="403.1" x2="105.16" y2="298.1"/>
      <g>
        <path class="cls-20" d="M113.11,276.11c-3.35,4.13-6.03,8.9-7.82,14.09-1.78-5.18-4.47-9.96-7.82-14.09v3.42c0,14.69,1.69,22.14,7.82,30.04,6.13-7.9,7.82-15.35,7.82-30.04v-3.42Z"/>
        <path class="cls-20" d="M113.11,380.11c-3.35,4.13-6.03,8.9-7.82,14.09-1.78-5.18-4.47-9.96-7.82-14.09v3.42c0,14.69,1.69,22.14,7.82,30.04,6.13-7.9,7.82-15.35,7.82-30.04v-3.42Z"/>
      </g>
    </g>
    <g>
      <path class="cls-15" d="M1668.38,585.17c.33,11.92-5.72,25.87-15.24,33.07-.37-11.93,5.76-25.85,15.24-33.07h0Z"/>
      <path class="cls-15" d="M1668.38,598.47c.33,11.92-5.72,25.87-15.24,33.07-.37-11.93,5.76-25.85,15.24-33.07h0Z"/>
      <path class="cls-15" d="M1647.63,601.97c-.33,11.92,5.72,25.87,15.24,33.07.37-11.93-5.76-25.85-15.24-33.07h0Z"/>
      <path class="cls-15" d="M1668.36,612.03c.24,8.71-2.92,18.5-8.36,25.95-2.11,2.89-6.66.8-5.85-2.69,2.11-9.07,7.26-17.97,14.21-23.26h0Z"/>
      <path class="cls-15" d="M1647.63,615.27c-.33,11.92,5.72,25.87,15.24,33.07.37-11.93-5.76-25.85-15.24-33.07h0Z"/>
      <path class="cls-15" d="M1647.63,588.67c-.33,11.92,5.72,25.87,15.24,33.07.37-11.93-5.76-25.85-15.24-33.07h0Z"/>
      <g>
        <path class="cls-30" d="M1667.96,703.48c.17,6.02-1.39,12.59-4.24,18.44-2.18,4.46-8.97,1.53-7.08-3.06,2.53-6.11,6.46-11.67,11.32-15.37h0Z"/>
        <path class="cls-30" d="M1649.97,701.71c-.31,11.28,5.41,24.48,14.42,31.29.35-11.29-5.45-24.46-14.42-31.29h0Z"/>
      </g>
      <g>
        <path class="cls-30" d="M1667.96,499.48c.17,6.02-1.39,12.59-4.24,18.44-2.18,4.46-8.97,1.53-7.08-3.06,2.53-6.11,6.46-11.67,11.32-15.37h0Z"/>
        <path class="cls-30" d="M1649.97,497.71c-.31,11.28,5.41,24.48,14.42,31.29.35-11.29-5.45-24.46-14.42-31.29h0Z"/>
      </g>
      <line class="cls-17" x1="1658.66" y1="718.1" x2="1658.66" y2="512.1"/>
    </g>
    <g>
      <path class="cls-35" d="M376.16,203.92c-3.35,4.13-5.91,8.9-7.69,14.09-1.78-5.18-4.35-9.96-7.69-14.09,0,14.75-.26,11.68-.12,20.15.24,14.69,1.69,22.14,7.82,30.04,6.13-7.9,7.58-15.35,7.82-30.04.14-8.47-.12-5.4-.12-20.15Z"/>
      <path class="cls-35" d="M376.31,181.51c-3.35,4.13-6.03,8.9-7.82,14.09-1.78-5.18-4.47-9.96-7.82-14.09,0,2.79-.14-5.05,0,3.42.24,14.69,1.69,22.14,7.82,30.04,6.13-7.9,7.58-15.35,7.82-30.04.14-8.47,0-.63,0-3.42Z"/>
    </g>
    <g class="cls-25">
      <path class="cls-35" d="M469.5,197.92c-3.35,4.13-5.91,8.9-7.69,14.09-1.78-5.18-4.35-9.96-7.69-14.09,0,14.75-.26,11.68-.12,20.15.24,14.69,1.69,22.14,7.82,30.04,6.13-7.9,7.58-15.35,7.82-30.04.14-8.47-.12-5.4-.12-20.15Z"/>
      <path class="cls-35" d="M469.64,175.51c-3.35,4.13-6.03,8.9-7.82,14.09-1.78-5.18-4.47-9.96-7.82-14.09,0,2.79-.14-5.05,0,3.42.24,14.69,1.69,22.14,7.82,30.04,6.13-7.9,7.58-15.35,7.82-30.04.14-8.47,0-.63,0-3.42Z"/>
    </g>
    <g>
      <path class="cls-35" d="M238.53,606.92c-3.35,4.13-5.91,8.9-7.69,14.09-1.78-5.18-4.35-9.96-7.69-14.09,0,14.75-.26,11.68-.12,20.15.24,14.69,1.69,22.14,7.82,30.04,6.13-7.9,7.58-15.35,7.82-30.04.14-8.47-.12-5.4-.12-20.15Z"/>
      <path class="cls-35" d="M238.67,584.51c-3.35,4.13-6.03,8.9-7.82,14.09-1.78-5.18-4.47-9.96-7.82-14.09,0,2.79-.14-5.05,0,3.42.24,14.69,1.69,22.14,7.82,30.04,6.13-7.9,7.58-15.35,7.82-30.04.14-8.47,0-.63,0-3.42Z"/>
    </g>
    <g class="cls-36">
      <path class="cls-35" d="M560.53,606.92c-3.35,4.13-5.91,8.9-7.69,14.09-1.78-5.18-4.35-9.96-7.69-14.09,0,14.75-.26,11.68-.12,20.15.24,14.69,1.69,22.14,7.82,30.04,6.13-7.9,7.58-15.35,7.82-30.04.14-8.47-.12-5.4-.12-20.15Z"/>
      <path class="cls-35" d="M560.67,584.51c-3.35,4.13-6.03,8.9-7.82,14.09-1.78-5.18-4.47-9.96-7.82-14.09,0,2.79-.14-5.05,0,3.42.24,14.69,1.69,22.14,7.82,30.04,6.13-7.9,7.58-15.35,7.82-30.04.14-8.47,0-.63,0-3.42Z"/>
    </g>
    <path class="cls-35" d="M280.12,910.44c-3,4.13-5.29,8.9-6.89,14.09-1.6-5.18-3.89-9.96-6.89-14.09,0,14.75-.24,11.68-.11,20.15.22,14.69,1.51,22.14,7,30.04,5.49-7.9,6.79-15.35,7-30.04.12-8.47-.11-5.4-.11-20.15Z"/>
    <path class="cls-35" d="M280.24,887.69c-3,4.13-5.41,8.9-7,14.09-1.6-5.18-4.01-9.96-7-14.09,0,2.79-.12-5.05,0,3.42.22,14.69,1.51,22.14,7,30.04,5.49-7.9,6.79-15.35,7-30.04.12-8.47,0-.63,0-3.42Z"/>
    <path class="cls-35" d="M364.15,910.44c-3.06,4.13-5.4,8.9-7.03,14.09-1.63-5.18-3.97-9.96-7.03-14.09,0,14.75-.24,11.68-.11,20.15.22,14.69,1.54,22.14,7.14,30.04,5.6-7.9,6.92-15.35,7.14-30.04.13-8.47-.11-5.4-.11-20.15Z"/>
    <path class="cls-35" d="M364.27,887.69c-3.06,4.13-5.51,8.9-7.14,14.09-1.63-5.18-4.08-9.96-7.14-14.09,0,2.79-.13-5.05,0,3.42.22,14.69,1.54,22.14,7.14,30.04,5.6-7.9,6.92-15.35,7.14-30.04.13-8.47,0-.63,0-3.42Z"/>
    <g>
      <path class="cls-35" d="M448.23,910.44c-3.21,4.13-5.67,8.9-7.38,14.09-1.71-5.18-4.17-9.96-7.38-14.09,0,14.75-.25,11.68-.12,20.15.23,14.69,1.62,22.14,7.5,30.04,5.88-7.9,7.27-15.35,7.5-30.04.13-8.47-.12-5.4-.12-20.15Z"/>
      <path class="cls-35" d="M448.35,887.69c-3.21,4.13-5.79,8.9-7.5,14.09-1.71-5.18-4.29-9.96-7.5-14.09,0,2.79-.13-5.05,0,3.42.23,14.69,1.62,22.14,7.5,30.04,5.88-7.9,7.27-15.35,7.5-30.04.13-8.47,0-.63,0-3.42Z"/>
    </g>
    <g>
      <path class="cls-22" d="M703.04,899.49c-5.08,7.78-6.66,19.15-4.16,30.56,5.11-7.76,6.63-19.16,4.16-30.56h0Z"/>
      <path class="cls-22" d="M692.83,887.4c5.08,7.78,6.66,19.15,4.16,30.56-5.11-7.76-6.63-19.16-4.16-30.56h0Z"/>
      <g>
        <path class="cls-22" d="M691.47,906.99c7,13.75,9.44,31.26,6.37,46.38-7.03-13.73-9.4-31.25-6.37-46.38h0Z"/>
        <path class="cls-22" d="M703.28,922.45c2.9,13.08,1.12,28.33-4.81,40.35-2.94-13.08-1.09-28.31,4.81-40.35h0Z"/>
      </g>
    </g>
    <g>
      <path class="cls-22" d="M619.04,899.49c-5.08,7.78-6.66,19.15-4.16,30.56,5.11-7.76,6.63-19.16,4.16-30.56h0Z"/>
      <path class="cls-22" d="M608.83,887.4c5.08,7.78,6.66,19.15,4.16,30.56-5.11-7.76-6.63-19.16-4.16-30.56h0Z"/>
      <g>
        <path class="cls-22" d="M607.47,906.99c7,13.75,9.44,31.26,6.37,46.38-7.03-13.73-9.4-31.25-6.37-46.38h0Z"/>
        <path class="cls-22" d="M619.28,922.45c2.9,13.08,1.12,28.33-4.81,40.35-2.94-13.08-1.09-28.31,4.81-40.35h0Z"/>
      </g>
    </g>
    <g>
      <path class="cls-22" d="M792.47,899.49c-5.08,7.78-6.66,19.15-4.16,30.56,5.11-7.76,6.63-19.16,4.16-30.56h0Z"/>
      <path class="cls-22" d="M782.26,887.4c5.08,7.78,6.66,19.15,4.16,30.56-5.11-7.76-6.63-19.16-4.16-30.56h0Z"/>
      <g>
        <path class="cls-22" d="M780.9,906.99c7,13.75,9.44,31.26,6.37,46.38-7.03-13.73-9.4-31.25-6.37-46.38h0Z"/>
        <path class="cls-22" d="M792.71,922.45c2.9,13.08,1.12,28.33-4.81,40.35-2.94-13.08-1.09-28.31,4.81-40.35h0Z"/>
      </g>
    </g>
    <g>
      <path class="cls-22" d="M882.02,898.87c-5.08,6.9-6.66,16.98-4.16,27.1,5.11-6.88,6.63-16.99,4.16-27.1h0Z"/>
      <path class="cls-22" d="M871.8,888.16c5.08,6.9,6.66,16.98,4.16,27.1-5.11-6.88-6.63-16.99-4.16-27.1h0Z"/>
      <g>
        <path class="cls-22" d="M870.45,905.53c7,12.19,9.44,27.72,6.37,41.12-7.03-12.18-9.4-27.71-6.37-41.12h0Z"/>
        <path class="cls-22" d="M882.26,919.24c2.9,11.6,1.12,25.12-4.81,35.78-2.94-11.6-1.09-25.1,4.81-35.78h0Z"/>
      </g>
    </g>
    <g>
      <path class="cls-22" d="M965.79,898.87c-5.08,6.9-6.66,16.98-4.16,27.1,5.11-6.88,6.63-16.99,4.16-27.1h0Z"/>
      <path class="cls-22" d="M955.57,888.16c5.08,6.9,6.66,16.98,4.16,27.1-5.11-6.88-6.63-16.99-4.16-27.1h0Z"/>
      <g>
        <path class="cls-22" d="M954.21,905.53c7,12.19,9.44,27.72,6.37,41.12-7.03-12.18-9.4-27.71-6.37-41.12h0Z"/>
        <path class="cls-22" d="M966.02,919.24c2.9,11.6,1.12,25.12-4.81,35.78-2.94-11.6-1.09-25.1,4.81-35.78h0Z"/>
      </g>
    </g>
    <g>
      <path class="cls-22" d="M1055.25,898.92c-5.08,6.9-6.66,16.98-4.16,27.1,5.11-6.88,6.63-16.99,4.16-27.1h0Z"/>
      <path class="cls-22" d="M1045.04,888.2c5.08,6.9,6.66,16.98,4.16,27.1-5.11-6.88-6.63-16.99-4.16-27.1h0Z"/>
      <g>
        <path class="cls-22" d="M1043.68,905.57c7,12.19,9.44,27.72,6.37,41.12-7.03-12.18-9.4-27.71-6.37-41.12h0Z"/>
        <path class="cls-22" d="M1055.49,919.28c2.9,11.6,1.12,25.12-4.81,35.78-2.94-11.6-1.09-25.1,4.81-35.78h0Z"/>
      </g>
    </g>
    <g>
      <path class="cls-35" d="M196.07,910.44c-2.88,4.13-5.09,8.9-6.63,14.09-1.54-5.18-3.74-9.96-6.63-14.09,0,14.75-.23,11.68-.11,20.15.21,14.69,1.45,22.14,6.73,30.04,5.28-7.9,6.53-15.35,6.73-30.04.12-8.47-.11-5.4-.11-20.15Z"/>
      <path class="cls-35" d="M196.18,887.69c-2.88,4.13-5.2,8.9-6.73,14.09-1.54-5.18-3.85-9.96-6.73-14.09,0,2.79-.12-5.05,0,3.42.21,14.69,1.45,22.14,6.73,30.04,5.28-7.9,6.53-15.35,6.73-30.04.12-8.47,0-.63,0-3.42Z"/>
    </g>
    <g>
      <path class="cls-35" d="M112.07,910.44c-2.88,4.13-5.09,8.9-6.63,14.09-1.54-5.18-3.74-9.96-6.63-14.09,0,14.75-.23,11.68-.11,20.15.21,14.69,1.45,22.14,6.73,30.04,5.28-7.9,6.53-15.35,6.73-30.04.12-8.47-.11-5.4-.11-20.15Z"/>
      <path class="cls-35" d="M112.18,887.69c-2.88,4.13-5.2,8.9-6.73,14.09-1.54-5.18-3.85-9.96-6.73-14.09,0,2.79-.12-5.05,0,3.42.21,14.69,1.45,22.14,6.73,30.04,5.28-7.9,6.53-15.35,6.73-30.04.12-8.47,0-.63,0-3.42Z"/>
    </g>
    <g>
      <path class="cls-7" d="M1133.59,894.06c6.3,8.39,9.46,21.84,6.91,32.37-6.33-8.38-9.43-21.84-6.91-32.37h0Z"/>
      <line class="cls-8" x1="1137.28" y1="914.09" x2="1131.72" y2="885.41"/>
      <path class="cls-7" d="M1146.63,894.06c-6.3,8.39-9.46,21.84-6.91,32.37,6.33-8.38,9.43-21.84,6.91-32.37h0Z"/>
      <line class="cls-8" x1="1142.94" y1="914.09" x2="1148.5" y2="885.41"/>
      <path class="cls-7" d="M1133.59,911.03c6.3,8.39,9.46,21.84,6.91,32.37-6.33-8.38-9.43-21.84-6.91-32.37h0Z"/>
      <line class="cls-8" x1="1137.28" y1="931.07" x2="1131.72" y2="902.38"/>
      <path class="cls-7" d="M1146.63,911.03c-6.3,8.39-9.46,21.84-6.91,32.37,6.33-8.38,9.43-21.84,6.91-32.37h0Z"/>
      <line class="cls-8" x1="1142.94" y1="931.07" x2="1148.5" y2="902.38"/>
      <path class="cls-7" d="M1133.59,928.01c6.05,8.06,9.21,20.78,7.19,31.11-.1.49-.74.64-1.02.23-5.82-8.42-8.58-21.23-6.17-31.34h0Z"/>
      <line class="cls-8" x1="1137.28" y1="948.04" x2="1131.72" y2="919.36"/>
      <path class="cls-7" d="M1146.63,928.01c-6.3,8.39-9.46,21.84-6.91,32.37,6.33-8.38,9.43-21.84,6.91-32.37h0Z"/>
      <line class="cls-8" x1="1142.94" y1="948.04" x2="1148.5" y2="919.36"/>
    </g>
    <g>
      <path class="cls-7" d="M1217.59,894.06c6.3,8.39,9.46,21.84,6.91,32.37-6.33-8.38-9.43-21.84-6.91-32.37h0Z"/>
      <line class="cls-8" x1="1221.28" y1="914.09" x2="1215.72" y2="885.41"/>
      <path class="cls-7" d="M1230.63,894.06c-6.3,8.39-9.46,21.84-6.91,32.37,6.33-8.38,9.43-21.84,6.91-32.37h0Z"/>
      <line class="cls-8" x1="1226.94" y1="914.09" x2="1232.5" y2="885.41"/>
      <path class="cls-7" d="M1217.59,911.03c6.3,8.39,9.46,21.84,6.91,32.37-6.33-8.38-9.43-21.84-6.91-32.37h0Z"/>
      <line class="cls-8" x1="1221.28" y1="931.07" x2="1215.72" y2="902.38"/>
      <path class="cls-7" d="M1230.63,911.03c-6.3,8.39-9.46,21.84-6.91,32.37,6.33-8.38,9.43-21.84,6.91-32.37h0Z"/>
      <line class="cls-8" x1="1226.94" y1="931.07" x2="1232.5" y2="902.38"/>
      <path class="cls-7" d="M1217.59,928.01c6.05,8.06,9.21,20.78,7.19,31.11-.1.49-.74.64-1.02.23-5.82-8.42-8.58-21.23-6.17-31.34h0Z"/>
      <line class="cls-8" x1="1221.28" y1="948.04" x2="1215.72" y2="919.36"/>
      <path class="cls-7" d="M1230.63,928.01c-6.3,8.39-9.46,21.84-6.91,32.37,6.33-8.38,9.43-21.84,6.91-32.37h0Z"/>
      <line class="cls-8" x1="1226.94" y1="948.04" x2="1232.5" y2="919.36"/>
    </g>
    <g>
      <path class="cls-7" d="M1284.59,780.84c6.3,8.39,9.46,21.84,6.91,32.37-6.33-8.38-9.43-21.84-6.91-32.37h0Z"/>
      <line class="cls-8" x1="1288.28" y1="800.88" x2="1282.72" y2="772.19"/>
      <path class="cls-7" d="M1297.63,780.84c-6.3,8.39-9.46,21.84-6.91,32.37,6.33-8.38,9.43-21.84,6.91-32.37h0Z"/>
      <line class="cls-8" x1="1293.94" y1="800.88" x2="1299.5" y2="772.19"/>
      <path class="cls-7" d="M1284.59,797.82c6.3,8.39,9.46,21.84,6.91,32.37-6.33-8.38-9.43-21.84-6.91-32.37h0Z"/>
      <line class="cls-8" x1="1288.28" y1="817.86" x2="1282.72" y2="789.17"/>
      <path class="cls-7" d="M1297.63,797.82c-6.3,8.39-9.46,21.84-6.91,32.37,6.33-8.38,9.43-21.84,6.91-32.37h0Z"/>
      <line class="cls-8" x1="1293.94" y1="817.86" x2="1299.5" y2="789.17"/>
      <path class="cls-7" d="M1284.59,814.8c6.05,8.06,9.21,20.78,7.19,31.11-.1.49-.74.64-1.02.23-5.82-8.42-8.58-21.23-6.17-31.34h0Z"/>
      <line class="cls-8" x1="1288.28" y1="834.83" x2="1282.72" y2="806.15"/>
      <path class="cls-7" d="M1297.63,814.8c-6.3,8.39-9.46,21.84-6.91,32.37,6.33-8.38,9.43-21.84,6.91-32.37h0Z"/>
      <line class="cls-8" x1="1293.94" y1="834.83" x2="1299.5" y2="806.15"/>
    </g>
    <g>
      <path class="cls-7" d="M1390.77,894.55c6.3,7.91,9.46,20.59,6.91,30.53-6.33-7.9-9.43-20.6-6.91-30.53h0Z"/>
      <line class="cls-5" x1="1394.46" y1="913.45" x2="1388.9" y2="886.39"/>
      <path class="cls-7" d="M1403.8,894.55c-6.3,7.91-9.46,20.59-6.91,30.53,6.33-7.9,9.43-20.6,6.91-30.53h0Z"/>
      <line class="cls-5" x1="1400.11" y1="913.45" x2="1405.67" y2="886.39"/>
      <path class="cls-7" d="M1390.77,910.56c6.3,7.91,9.46,20.59,6.91,30.53-6.33-7.9-9.43-20.6-6.91-30.53h0Z"/>
      <line class="cls-5" x1="1394.46" y1="929.46" x2="1388.9" y2="902.4"/>
      <path class="cls-7" d="M1403.8,910.56c-6.3,7.91-9.46,20.59-6.91,30.53,6.33-7.9,9.43-20.6,6.91-30.53h0Z"/>
      <line class="cls-5" x1="1400.11" y1="929.46" x2="1405.67" y2="902.4"/>
      <path class="cls-7" d="M1390.77,926.57c6.05,7.6,9.21,19.6,7.19,29.34-.1.47-.74.6-1.02.21-5.82-7.94-8.58-20.02-6.17-29.56h0Z"/>
      <line class="cls-5" x1="1394.46" y1="945.47" x2="1388.9" y2="918.41"/>
      <path class="cls-7" d="M1403.8,926.57c-6.3,7.91-9.46,20.59-6.91,30.53,6.33-7.9,9.43-20.6,6.91-30.53h0Z"/>
      <line class="cls-5" x1="1400.11" y1="945.47" x2="1405.67" y2="918.41"/>
    </g>
    <g>
      <path class="cls-16" d="M1663.38,896.17c.33,11.92-5.72,25.87-15.24,33.07-.37-11.93,5.76-25.85,15.24-33.07h0Z"/>
      <path class="cls-16" d="M1663.38,909.47c.33,11.92-5.72,25.87-15.24,33.07-.37-11.93,5.76-25.85,15.24-33.07h0Z"/>
      <path class="cls-16" d="M1642.63,912.97c-.33,11.92,5.72,25.87,15.24,33.07.37-11.93-5.76-25.85-15.24-33.07h0Z"/>
      <path class="cls-16" d="M1663.36,923.03c.24,8.56-2.82,18.17-8.09,25.57-2.13,3-6.89.81-6.02-2.76,2.17-8.91,7.26-17.6,14.11-22.81h0Z"/>
      <path class="cls-16" d="M1642.63,926.27c-.33,11.92,5.72,25.87,15.24,33.07.37-11.93-5.76-25.85-15.24-33.07h0Z"/>
      <path class="cls-16" d="M1642.63,899.67c-.33,11.92,5.72,25.87,15.24,33.07.37-11.93-5.76-25.85-15.24-33.07h0Z"/>
    </g>
    <g>
      <path class="cls-16" d="M1747.23,896.17c.33,11.92-5.72,25.87-15.24,33.07-.37-11.93,5.76-25.85,15.24-33.07h0Z"/>
      <path class="cls-16" d="M1747.23,909.47c.33,11.92-5.72,25.87-15.24,33.07-.37-11.93,5.76-25.85,15.24-33.07h0Z"/>
      <path class="cls-16" d="M1726.49,912.97c-.33,11.92,5.72,25.87,15.24,33.07.37-11.93-5.76-25.85-15.24-33.07h0Z"/>
      <path class="cls-16" d="M1747.22,923.03c.24,8.54-2.81,18.13-8.06,25.53-2.14,3.01-6.91.82-6.04-2.77,2.18-8.9,7.26-17.56,14.09-22.76h0Z"/>
      <path class="cls-16" d="M1726.49,926.27c-.33,11.92,5.72,25.87,15.24,33.07.37-11.93-5.76-25.85-15.24-33.07h0Z"/>
      <path class="cls-16" d="M1726.49,899.67c-.33,11.92,5.72,25.87,15.24,33.07.37-11.93-5.76-25.85-15.24-33.07h0Z"/>
    </g>
    <g>
      <path class="cls-16" d="M1825.23,896.17c.33,11.92-5.72,25.87-15.24,33.07-.37-11.93,5.76-25.85,15.24-33.07h0Z"/>
      <path class="cls-16" d="M1825.23,909.47c.33,11.92-5.72,25.87-15.24,33.07-.37-11.93,5.76-25.85,15.24-33.07h0Z"/>
      <path class="cls-16" d="M1804.49,912.97c-.33,11.92,5.72,25.87,15.24,33.07.37-11.93-5.76-25.85-15.24-33.07h0Z"/>
      <path class="cls-16" d="M1825.22,923.03c.23,8.33-2.66,17.65-7.67,24.97-2.23,3.26-7.26.96-6.26-2.86,2.26-8.67,7.27-17.04,13.93-22.11h0Z"/>
      <path class="cls-16" d="M1804.49,926.27c-.33,11.92,5.72,25.87,15.24,33.07.37-11.93-5.76-25.85-15.24-33.07h0Z"/>
      <path class="cls-16" d="M1804.49,899.67c-.33,11.92,5.72,25.87,15.24,33.07.37-11.93-5.76-25.85-15.24-33.07h0Z"/>
    </g>
    <g>
      <path class="cls-16" d="M1909.23,896.17c.33,11.92-5.72,25.87-15.24,33.07-.37-11.93,5.76-25.85,15.24-33.07h0Z"/>
      <path class="cls-16" d="M1909.23,909.47c.33,11.92-5.72,25.87-15.24,33.07-.37-11.93,5.76-25.85,15.24-33.07h0Z"/>
      <path class="cls-16" d="M1888.49,912.97c-.33,11.92,5.72,25.87,15.24,33.07.37-11.93-5.76-25.85-15.24-33.07h0Z"/>
      <path class="cls-16" d="M1909.22,923.03c.25,8.89-3.06,18.9-8.7,26.41-2.08,2.76-6.38.78-5.64-2.59,2.02-9.26,7.24-18.41,14.34-23.82h0Z"/>
      <path class="cls-16" d="M1888.49,926.27c-.33,11.92,5.72,25.87,15.24,33.07.37-11.93-5.76-25.85-15.24-33.07h0Z"/>
      <path class="cls-16" d="M1888.49,899.67c-.33,11.92,5.72,25.87,15.24,33.07.37-11.93-5.76-25.85-15.24-33.07h0Z"/>
    </g>
    <g>
      <path class="cls-16" d="M1993.23,896.17c.33,11.92-5.72,25.87-15.24,33.07-.37-11.93,5.76-25.85,15.24-33.07h0Z"/>
      <path class="cls-16" d="M1993.23,909.47c.33,11.92-5.72,25.87-15.24,33.07-.37-11.93,5.76-25.85,15.24-33.07h0Z"/>
      <path class="cls-16" d="M1972.49,912.97c-.33,11.92,5.72,25.87,15.24,33.07.37-11.93-5.76-25.85-15.24-33.07h0Z"/>
      <path class="cls-16" d="M1993.22,923.03c.25,8.95-3.1,19.04-8.82,26.56-2,2.63-6.25.68-5.56-2.55,1.99-9.33,7.23-18.57,14.38-24.01h0Z"/>
      <path class="cls-16" d="M1972.49,926.27c-.33,11.92,5.72,25.87,15.24,33.07.37-11.93-5.76-25.85-15.24-33.07h0Z"/>
      <path class="cls-16" d="M1972.49,899.67c-.33,11.92,5.72,25.87,15.24,33.07.37-11.93-5.76-25.85-15.24-33.07h0Z"/>
    </g>
    <g>
      <path class="cls-16" d="M2077.23,896.17c.33,11.92-5.72,25.87-15.24,33.07-.37-11.93,5.76-25.85,15.24-33.07h0Z"/>
      <path class="cls-16" d="M2077.23,909.47c.33,11.92-5.72,25.87-15.24,33.07-.37-11.93,5.76-25.85,15.24-33.07h0Z"/>
      <path class="cls-16" d="M2056.49,912.97c-.33,11.92,5.72,25.87,15.24,33.07.37-11.93-5.76-25.85-15.24-33.07h0Z"/>
      <path class="cls-16" d="M2077.22,923.03c.25,8.97-3.12,19.09-8.86,26.62-1.99,2.62-6.22.68-5.54-2.54,1.98-9.35,7.23-18.62,14.39-24.07h0Z"/>
      <path class="cls-16" d="M2056.49,926.27c-.33,11.92,5.72,25.87,15.24,33.07.37-11.93-5.76-25.85-15.24-33.07h0Z"/>
      <path class="cls-16" d="M2056.49,899.67c-.33,11.92,5.72,25.87,15.24,33.07.37-11.93-5.76-25.85-15.24-33.07h0Z"/>
    </g>
    <g>
      <path class="cls-22" d="M1044.45,591.23c-5.06,7.74-6.63,19.06-4.14,30.42,5.08-7.73,6.6-19.07,4.14-30.42h0Z"/>
      <path class="cls-22" d="M1034.27,579.08c5.06,7.76,6.64,19.1,4.15,30.47-5.09-7.74-6.61-19.1-4.15-30.47h0Z"/>
      <g>
        <path class="cls-22" d="M1032.93,598.69c6.97,13.68,9.4,31.11,6.34,46.16-7-13.67-9.36-31.11-6.34-46.16h0Z"/>
        <path class="cls-22" d="M1044.68,614.09c2.89,13.02,1.11,28.19-4.79,40.16-2.92-13.02-1.08-28.18,4.79-40.16h0Z"/>
      </g>
    </g>
    <g>
      <path class="cls-22" d="M764.45,591.23c-5.06,7.74-6.63,19.06-4.14,30.42,5.08-7.73,6.6-19.07,4.14-30.42h0Z"/>
      <path class="cls-22" d="M754.27,579.08c5.06,7.76,6.64,19.1,4.15,30.47-5.09-7.74-6.61-19.1-4.15-30.47h0Z"/>
      <g>
        <path class="cls-22" d="M752.93,598.69c6.97,13.68,9.4,31.11,6.34,46.16-7-13.67-9.36-31.11-6.34-46.16h0Z"/>
        <path class="cls-22" d="M764.68,614.09c2.89,13.02,1.11,28.19-4.79,40.16-2.92-13.02-1.08-28.18,4.79-40.16h0Z"/>
      </g>
    </g>
    <g>
      <path class="cls-7" d="M1564.11,894.55c6.3,7.91,9.46,20.59,6.91,30.53-6.33-7.9-9.43-20.6-6.91-30.53h0Z"/>
      <line class="cls-14" x1="1567.8" y1="913.45" x2="1562.24" y2="886.39"/>
      <path class="cls-7" d="M1577.15,894.55c-6.3,7.91-9.46,20.59-6.91,30.53,6.33-7.9,9.43-20.6,6.91-30.53h0Z"/>
      <line class="cls-14" x1="1573.46" y1="913.45" x2="1579.02" y2="886.39"/>
      <path class="cls-7" d="M1564.11,910.56c6.3,7.91,9.46,20.59,6.91,30.53-6.33-7.9-9.43-20.6-6.91-30.53h0Z"/>
      <line class="cls-14" x1="1567.8" y1="929.46" x2="1562.24" y2="902.4"/>
      <path class="cls-7" d="M1577.15,910.56c-6.3,7.91-9.46,20.59-6.91,30.53,6.33-7.9,9.43-20.6,6.91-30.53h0Z"/>
      <line class="cls-14" x1="1573.46" y1="929.46" x2="1579.02" y2="902.4"/>
      <path class="cls-7" d="M1564.11,926.57c6.05,7.6,9.21,19.6,7.19,29.34-.1.47-.74.6-1.02.21-5.82-7.94-8.58-20.02-6.17-29.56h0Z"/>
      <line class="cls-14" x1="1567.8" y1="945.47" x2="1562.24" y2="918.41"/>
      <path class="cls-7" d="M1577.15,926.57c-6.3,7.91-9.46,20.59-6.91,30.53,6.33-7.9,9.43-20.6,6.91-30.53h0Z"/>
      <line class="cls-14" x1="1573.46" y1="945.47" x2="1579.02" y2="918.41"/>
    </g>
    <g>
      <path class="cls-22" d="M668.4,689.49c7.92,15.68,10.9,35.54,7.8,52.61-7.96-15.66-10.86-35.53-7.8-52.61h0Z"/>
      <path class="cls-22" d="M681.05,700.51c3.18,13.28,1.22,28.74-5.27,40.94-3.21-13.27-1.19-28.73,5.27-40.94h0Z"/>
    </g>
    <g>
      <path class="cls-22" d="M779.4,581.49c7.92,15.68,10.9,35.54,7.8,52.61-7.96-15.66-10.86-35.53-7.8-52.61h0Z"/>
      <path class="cls-22" d="M792.05,592.51c3.18,13.28,1.22,28.74-5.27,40.94-3.21-13.27-1.19-28.73,5.27-40.94h0Z"/>
    </g>
    <path class="cls-35" d="M379.65,586.36c6.1,13.85,6.14,30.65,0,44.49-6.14-13.84-6.1-30.64,0-44.49h0Z"/>
    <g>
      <path class="cls-16" d="M1780.38,585.17c.33,11.92-5.72,25.87-15.24,33.07-.37-11.93,5.76-25.85,15.24-33.07h0Z"/>
      <path class="cls-16" d="M1780.38,598.47c.33,11.92-5.72,25.87-15.24,33.07-.37-11.93,5.76-25.85,15.24-33.07h0Z"/>
      <path class="cls-16" d="M1759.63,601.97c-.33,11.92,5.72,25.87,15.24,33.07.37-11.93-5.76-25.85-15.24-33.07h0Z"/>
      <path class="cls-16" d="M1780.36,612.03c.24,8.65-2.88,18.38-8.26,25.81-2.12,2.93-6.75.8-5.91-2.72,2.13-9.02,7.26-17.84,14.17-23.1h0Z"/>
      <path class="cls-16" d="M1759.63,615.27c-.33,11.92,5.72,25.87,15.24,33.07.37-11.93-5.76-25.85-15.24-33.07h0Z"/>
      <path class="cls-16" d="M1759.63,588.67c-.33,11.92,5.72,25.87,15.24,33.07.37-11.93-5.76-25.85-15.24-33.07h0Z"/>
    </g>
    <g>
      <path class="cls-16" d="M1792.38,585.17c.33,11.92-5.72,25.87-15.24,33.07-.37-11.93,5.76-25.85,15.24-33.07h0Z"/>
      <path class="cls-16" d="M1792.38,598.47c.33,11.92-5.72,25.87-15.24,33.07-.37-11.93,5.76-25.85,15.24-33.07h0Z"/>
      <path class="cls-16" d="M1772.63,602.97c-.33,11.92,5.72,25.87,15.24,33.07.37-11.93-5.76-25.85-15.24-33.07h0Z"/>
      <path class="cls-16" d="M1792.36,612.03c.23,8.32-2.65,17.62-7.64,24.94-2.23,3.27-7.28.96-6.27-2.87,2.27-8.65,7.27-17,13.92-22.07h0Z"/>
      <path class="cls-16" d="M1771.63,615.27c-.33,11.92,5.72,25.87,15.24,33.07.37-11.93-5.76-25.85-15.24-33.07h0Z"/>
      <path class="cls-16" d="M1771.63,588.67c-.33,11.92,5.72,25.87,15.24,33.07.37-11.93-5.76-25.85-15.24-33.07h0Z"/>
    </g>
    <g>
      <path class="cls-16" d="M1713.38,701.5c.33,11.92-5.72,25.87-15.24,33.07-.37-11.93,5.76-25.85,15.24-33.07h0Z"/>
      <path class="cls-16" d="M1713.38,714.8c.33,11.92-5.72,25.87-15.24,33.07-.37-11.93,5.76-25.85,15.24-33.07h0Z"/>
      <path class="cls-16" d="M1692.63,718.3c-.33,11.92,5.72,25.87,15.24,33.07.37-11.93-5.76-25.85-15.24-33.07h0Z"/>
      <path class="cls-16" d="M1713.36,728.36c.25,8.81-3,18.74-8.56,26.22-2.09,2.81-6.49.79-5.73-2.63,2.06-9.19,7.25-18.24,14.29-23.59h0Z"/>
      <path class="cls-16" d="M1692.63,731.59c-.33,11.92,5.72,25.87,15.24,33.07.37-11.93-5.76-25.85-15.24-33.07h0Z"/>
      <path class="cls-16" d="M1692.63,705c-.33,11.92,5.72,25.87,15.24,33.07.37-11.93-5.76-25.85-15.24-33.07h0Z"/>
    </g>
    <g>
      <path class="cls-30" d="M1705.96,756.59c.17,6.02-1.39,12.59-4.24,18.44-2.18,4.46-8.97,1.53-7.08-3.06,2.53-6.11,6.46-11.67,11.32-15.37h0Z"/>
      <path class="cls-30" d="M1687.97,754.81c-.31,11.28,5.41,24.48,14.42,31.29.35-11.29-5.45-24.46-14.42-31.29h0Z"/>
    </g>
    <path class="cls-35" d="M398.17,793.34c-2.9,4.67-5.12,10.07-6.66,15.93-1.55-5.86-3.76-11.26-6.66-15.93,0,16.68-.23,5.33-.11,14.9.21,16.61,1.46,15.58,6.77,24.51,5.31-8.93,6.56-7.9,6.77-24.51.12-9.57-.11,1.78-.11-14.9Z"/>
    <path class="cls-35" d="M168.17,587.77c-2.9,4.67-5.12,10.07-6.66,15.93-1.55-5.86-3.76-11.26-6.66-15.93,0,16.68-.23,5.33-.11,14.9.21,16.61,1.46,15.58,6.77,24.51,5.31-8.93,6.56-7.9,6.77-24.51.12-9.57-.11,1.78-.11-14.9Z"/>
    <path class="cls-35" d="M140.17,505.77c-2.9,4.67-5.12,10.07-6.66,15.93-1.55-5.86-3.76-11.26-6.66-15.93,0,16.68-.23,5.33-.11,14.9.21,16.61,1.46,15.58,6.77,24.51,5.31-8.93,6.56-7.9,6.77-24.51.12-9.57-.11,1.78-.11-14.9Z"/>
    <path class="cls-35" d="M309.17,793.34c-2.9,4.67-5.12,10.07-6.66,15.93-1.55-5.86-3.76-11.26-6.66-15.93,0,16.68-.23,5.33-.11,14.9.21,16.61,1.46,15.58,6.77,24.51,5.31-8.93,6.56-7.9,6.77-24.51.12-9.57-.11,1.78-.11-14.9Z"/>
    <path class="cls-35" d="M413.1,700.77c-2.9,4.67-5.12,10.07-6.66,15.93-1.55-5.86-3.76-11.26-6.66-15.93,0,16.68-.23,5.33-.11,14.9.21,16.61,1.46,15.58,6.77,24.51,5.31-8.93,6.56-7.9,6.77-24.51.12-9.57-.11,1.78-.11-14.9Z"/>
    <path class="cls-35" d="M319.1,700.77c-2.9,4.67-5.12,10.07-6.66,15.93-1.55-5.86-3.76-11.26-6.66-15.93,0,16.68-.23,5.33-.11,14.9.21,16.61,1.46,15.58,6.77,24.51,5.31-8.93,6.56-7.9,6.77-24.51.12-9.57-.11,1.78-.11-14.9Z"/>
    <path class="cls-35" d="M447.66,378.95c-2.9,4.67-5.12,10.07-6.66,15.93-1.55-5.86-3.76-11.26-6.66-15.93,0,16.68-.23,5.33-.11,14.9.21,16.61,1.46,15.58,6.77,24.51,5.31-8.93,6.56-7.9,6.77-24.51.12-9.57-.11,1.78-.11-14.9Z"/>
    <path class="cls-35" d="M560.33,700.77c-2.9,4.67-5.12,10.07-6.66,15.93-1.55-5.86-3.76-11.26-6.66-15.93,0,16.68-.23,5.33-.11,14.9.21,16.61,1.46,15.58,6.77,24.51,5.31-8.93,6.56-7.9,6.77-24.51.12-9.57-.11,1.78-.11-14.9Z"/>
    <g>
      <path class="cls-22" d="M888.06,189.51c-5.08,7.78-6.66,19.15-4.16,30.56,5.11-7.76,6.63-19.16,4.16-30.56h0Z"/>
      <path class="cls-22" d="M877.85,177.42c5.08,7.78,6.66,19.15,4.16,30.56-5.11-7.76-6.63-19.16-4.16-30.56h0Z"/>
      <g>
        <path class="cls-22" d="M876.49,197.01c7,13.75,9.44,31.26,6.37,46.38-7.03-13.73-9.4-31.25-6.37-46.38h0Z"/>
        <path class="cls-22" d="M888.3,212.47c2.9,13.08,1.12,28.33-4.81,40.35-2.94-13.08-1.09-28.31,4.81-40.35h0Z"/>
      </g>
    </g>
    <g class="cls-36">
      <path class="cls-22" d="M1013.97,490c-6.65,13.16-9.15,29.83-6.55,44.16,6.68-13.15,9.12-29.83,6.55-44.16h0Z"/>
      <path class="cls-22" d="M1003.35,499.25c-2.67,11.14-1.03,24.13,4.42,34.37,2.7-11.14,1-24.12-4.42-34.37h0Z"/>
    </g>
    <g>
      <path class="cls-22" d="M993.6,88c6.65,13.16,9.15,29.83,6.55,44.16-6.68-13.15-9.12-29.83-6.55-44.16h0Z"/>
      <path class="cls-22" d="M1004.22,97.25c2.67,11.14,1.03,24.13-4.42,34.37-2.7-11.14-1-24.12,4.42-34.37h0Z"/>
    </g>
    <g>
      <path class="cls-35" d="M463.16,203.92c-3.35,4.13-5.91,8.9-7.69,14.09-1.78-5.18-4.35-9.96-7.69-14.09,0,14.75-.26,11.68-.12,20.15.24,14.69,1.69,22.14,7.82,30.04,6.13-7.9,7.58-15.35,7.82-30.04.14-8.47-.12-5.4-.12-20.15Z"/>
      <path class="cls-35" d="M463.31,181.51c-3.35,4.13-6.03,8.9-7.82,14.09-1.78-5.18-4.47-9.96-7.82-14.09,0,2.79-.14-5.05,0,3.42.24,14.69,1.69,22.14,7.82,30.04,6.13-7.9,7.58-15.35,7.82-30.04.14-8.47,0-.63,0-3.42Z"/>
    </g>
    <g class="cls-36">
      <path class="cls-22" d="M991.9,580.49c7.92,15.68,10.9,35.54,7.8,52.61-7.96-15.66-10.86-35.53-7.8-52.61h0Z"/>
      <path class="cls-22" d="M1004.55,591.51c3.18,13.28,1.22,28.74-5.27,40.94-3.21-13.27-1.19-28.73,5.27-40.94h0Z"/>
    </g>
    <g>
      <path class="cls-35" d="M147.14,813.32c-3.28,4.05-5.79,8.72-7.54,13.8-1.75-5.08-4.26-9.75-7.54-13.8,0,14.45-.26,11.44-.12,19.74.24,14.39,1.65,21.69,7.66,29.43,6-7.74,7.42-15.04,7.66-29.43.14-8.3-.12-5.29-.12-19.74Z"/>
      <path class="cls-35" d="M147.26,790.1c-3.28,4.05-5.91,8.72-7.66,13.8-1.75-5.08-4.38-9.75-7.66-13.8,0,2.73-.14-4.95,0,3.35.24,14.39,1.65,21.69,7.66,29.43,6-7.74,7.42-15.04,7.66-29.43.14-8.3,0-.62,0-3.35Z"/>
    </g>
    <g>
      <path class="cls-7" d="M1512.11,590.46c6.3,7.44,9.46,19.36,6.91,28.7-6.33-7.43-9.43-19.36-6.91-28.7h0Z"/>
      <line class="cls-10" x1="1515.8" y1="608.22" x2="1510.24" y2="582.79"/>
      <path class="cls-7" d="M1525.15,590.46c-6.3,7.44-9.46,19.36-6.91,28.7,6.33-7.43,9.43-19.36,6.91-28.7h0Z"/>
      <line class="cls-10" x1="1521.46" y1="608.22" x2="1527.02" y2="582.79"/>
      <path class="cls-7" d="M1512.11,605.51c6.3,7.44,9.46,19.36,6.91,28.7-6.33-7.43-9.43-19.36-6.91-28.7h0Z"/>
      <line class="cls-10" x1="1515.8" y1="623.28" x2="1510.24" y2="597.84"/>
      <path class="cls-7" d="M1525.15,605.51c-6.3,7.44-9.46,19.36-6.91,28.7,6.33-7.43,9.43-19.36,6.91-28.7h0Z"/>
      <line class="cls-10" x1="1521.46" y1="623.28" x2="1527.02" y2="597.84"/>
      <path class="cls-7" d="M1512.11,620.56c6.05,7.15,9.21,18.43,7.19,27.59-.1.44-.74.56-1.02.2-5.82-7.47-8.58-18.82-6.17-27.79h0Z"/>
      <line class="cls-10" x1="1515.8" y1="638.33" x2="1510.24" y2="612.89"/>
      <path class="cls-7" d="M1525.15,620.56c-6.3,7.44-9.46,19.36-6.91,28.7,6.33-7.43,9.43-19.36,6.91-28.7h0Z"/>
      <line class="cls-10" x1="1521.46" y1="638.33" x2="1527.02" y2="612.89"/>
    </g>
    <g>
      <path class="cls-7" d="M1612.82,494.46c6.3,7.44,9.46,19.36,6.91,28.7-6.33-7.43-9.43-19.36-6.91-28.7h0Z"/>
      <line class="cls-10" x1="1616.51" y1="512.22" x2="1610.95" y2="486.79"/>
      <path class="cls-7" d="M1625.86,494.46c-6.3,7.44-9.46,19.36-6.91,28.7,6.33-7.43,9.43-19.36,6.91-28.7h0Z"/>
      <line class="cls-10" x1="1622.17" y1="512.22" x2="1627.73" y2="486.79"/>
      <path class="cls-7" d="M1612.82,509.51c6.3,7.44,9.46,19.36,6.91,28.7-6.33-7.43-9.43-19.36-6.91-28.7h0Z"/>
      <line class="cls-10" x1="1616.51" y1="527.28" x2="1610.95" y2="501.84"/>
      <path class="cls-7" d="M1625.86,509.51c-6.3,7.44-9.46,19.36-6.91,28.7,6.33-7.43,9.43-19.36,6.91-28.7h0Z"/>
      <line class="cls-10" x1="1622.17" y1="527.28" x2="1627.73" y2="501.84"/>
      <path class="cls-7" d="M1612.82,524.56c6.05,7.15,9.21,18.43,7.19,27.59-.1.44-.74.56-1.02.2-5.82-7.47-8.58-18.82-6.17-27.79h0Z"/>
      <line class="cls-10" x1="1616.51" y1="542.33" x2="1610.95" y2="516.89"/>
      <path class="cls-7" d="M1625.86,524.56c-6.3,7.44-9.46,19.36-6.91,28.7,6.33-7.43,9.43-19.36,6.91-28.7h0Z"/>
      <line class="cls-10" x1="1622.17" y1="542.33" x2="1627.73" y2="516.89"/>
    </g>
    <g>
      <path class="cls-22" d="M1043.4,378.49c7.92,15.68,10.9,35.54,7.8,52.61-7.96-15.66-10.86-35.53-7.8-52.61h0Z"/>
      <path class="cls-22" d="M1056.05,389.51c3.18,13.28,1.22,28.74-5.27,40.94-3.21-13.27-1.19-28.73,5.27-40.94h0Z"/>
    </g>
    <g class="cls-36">
      <path class="cls-22" d="M695.4,377.43c7.92,15.68,10.9,35.54,7.8,52.61-7.96-15.66-10.86-35.53-7.8-52.61h0Z"/>
      <path class="cls-22" d="M708.05,388.44c3.18,13.28,1.22,28.74-5.27,40.94-3.21-13.27-1.19-28.73,5.27-40.94h0Z"/>
    </g>
    <g>
      <path class="cls-22" d="M779.4,377.43c7.92,15.68,10.9,35.54,7.8,52.61-7.96-15.66-10.86-35.53-7.8-52.61h0Z"/>
      <path class="cls-22" d="M792.05,388.44c3.18,13.28,1.22,28.74-5.27,40.94-3.21-13.27-1.19-28.73,5.27-40.94h0Z"/>
    </g>
    <g class="cls-36">
      <path class="cls-22" d="M784.4,377.43c7.92,15.68,10.9,35.54,7.8,52.61-7.96-15.66-10.86-35.53-7.8-52.61h0Z"/>
      <path class="cls-22" d="M797.05,388.44c3.18,13.28,1.22,28.74-5.27,40.94-3.21-13.27-1.19-28.73,5.27-40.94h0Z"/>
    </g>
    <path class="cls-7" d="M1564.51,593.18c6.3,7.44,9.46,19.36,6.91,28.7-6.33-7.43-9.43-19.36-6.91-28.7h0Z"/>
    <line class="cls-14" x1="1568.79" y1="613" x2="1563.23" y2="587.56"/>
    <path class="cls-7" d="M1576.14,593.18c-6.3,7.44-9.46,19.36-6.91,28.7,6.33-7.43,9.43-19.36,6.91-28.7h0Z"/>
    <line class="cls-14" x1="1571.86" y1="613" x2="1577.42" y2="587.56"/>
    <g>
      <path class="cls-30" d="M2047.96,703.48c.17,6.02-1.39,12.59-4.24,18.44-2.18,4.46-8.97,1.53-7.08-3.06,2.53-6.11,6.46-11.67,11.32-15.37h0Z"/>
      <path class="cls-30" d="M2029.97,701.71c-.31,11.28,5.41,24.48,14.42,31.29.35-11.29-5.45-24.46-14.42-31.29h0Z"/>
    </g>
    <g>
      <path class="cls-30" d="M1906.96,587.15c.17,6.02-1.39,12.59-4.24,18.44-2.18,4.46-8.97,1.53-7.08-3.06,2.53-6.11,6.46-11.67,11.32-15.37h0Z"/>
      <path class="cls-30" d="M1888.97,585.38c-.31,11.28,5.41,24.48,14.42,31.29.35-11.29-5.45-24.46-14.42-31.29h0Z"/>
    </g>
    <g>
      <path class="cls-30" d="M1906.96,766.26c.17,6.02-1.39,12.59-4.24,18.44-2.18,4.46-8.97,1.53-7.08-3.06,2.53-6.11,6.46-11.67,11.32-15.37h0Z"/>
      <path class="cls-30" d="M1888.97,764.49c-.31,11.28,5.41,24.48,14.42,31.29.35-11.29-5.45-24.46-14.42-31.29h0Z"/>
    </g>
    <g class="cls-31">
      <path class="cls-30" d="M1912.96,766.26c.17,6.02-1.39,12.59-4.24,18.44-2.18,4.46-8.97,1.53-7.08-3.06,2.53-6.11,6.46-11.67,11.32-15.37h0Z"/>
      <path class="cls-30" d="M1894.97,764.49c-.31,11.28,5.41,24.48,14.42,31.29.35-11.29-5.45-24.46-14.42-31.29h0Z"/>
    </g>
    <g>
      <path class="cls-30" d="M1684.96,592.48c.17,6.02-1.39,12.59-4.24,18.44-2.18,4.46-8.97,1.53-7.08-3.06,2.53-6.11,6.46-11.67,11.32-15.37h0Z"/>
      <path class="cls-30" d="M1666.97,590.71c-.31,11.28,5.41,24.48,14.42,31.29.35-11.29-5.45-24.46-14.42-31.29h0Z"/>
    </g>
    <path class="cls-6" d="M1386.7,584.65c6.1,13.85,6.14,30.65,0,44.49-6.14-13.84-6.1-30.64,0-44.49h0Z"/>
    <g class="cls-36">
      <path class="cls-22" d="M672.66,489.36c6.1,13.85,6.14,30.65,0,44.49-6.14-13.84-6.1-30.64,0-44.49h0Z"/>
    </g>
    <g>
      <path class="cls-35" d="M532.23,910.27c-3.22,4.1-5.69,8.84-7.4,13.98-1.72-5.15-4.18-9.88-7.4-13.98,0,14.64-.25,11.6-.12,20,.23,14.58,1.62,21.98,7.52,29.82,5.9-7.84,7.29-15.24,7.52-29.82.13-8.41-.12-5.36-.12-20Z"/>
      <path class="cls-35" d="M532.35,887.69c-3.22,4.1-5.81,8.84-7.52,13.98-1.72-5.15-4.3-9.88-7.52-13.98,0,2.77-.13-5.01,0,3.4.23,14.58,1.62,21.98,7.52,29.82,5.9-7.84,7.29-15.24,7.52-29.82.13-8.41,0-.63,0-3.39Z"/>
    </g>
    <g>
      <path class="cls-7" d="M1306.95,895.55c6.3,8.25,9.46,21.46,6.91,31.82-6.33-8.23-9.43-21.47-6.91-31.82h0Z"/>
      <line class="cls-5" x1="1310.64" y1="915.24" x2="1305.08" y2="887.04"/>
      <path class="cls-7" d="M1319.99,895.55c-6.3,8.25-9.46,21.46-6.91,31.82,6.33-8.23,9.43-21.47,6.91-31.82h0Z"/>
      <line class="cls-5" x1="1316.3" y1="915.24" x2="1321.86" y2="887.04"/>
      <path class="cls-7" d="M1306.95,912.23c6.3,8.25,9.46,21.46,6.91,31.82-6.33-8.23-9.43-21.47-6.91-31.82h0Z"/>
      <line class="cls-5" x1="1310.64" y1="931.93" x2="1305.08" y2="903.73"/>
      <path class="cls-7" d="M1319.99,912.23c-6.3,8.25-9.46,21.46-6.91,31.82,6.33-8.23,9.43-21.47,6.91-31.82h0Z"/>
      <line class="cls-5" x1="1316.3" y1="931.93" x2="1321.86" y2="903.73"/>
      <path class="cls-7" d="M1306.95,928.92c6.05,7.92,9.21,20.43,7.19,30.58-.1.49-.74.62-1.02.22-5.82-8.28-8.58-20.87-6.17-30.8h0Z"/>
      <line class="cls-5" x1="1310.64" y1="948.61" x2="1305.08" y2="920.42"/>
      <path class="cls-7" d="M1319.99,928.92c-6.3,8.25-9.46,21.46-6.91,31.82,6.33-8.23,9.43-21.47,6.91-31.82h0Z"/>
      <line class="cls-5" x1="1316.3" y1="948.61" x2="1321.86" y2="920.42"/>
    </g>
    <g>
      <path class="cls-7" d="M1480.28,895.32c6.3,8.02,9.46,20.89,6.91,30.96-6.33-8.01-9.43-20.89-6.91-30.96h0Z"/>
      <line class="cls-14" x1="1483.97" y1="914.48" x2="1478.41" y2="887.04"/>
      <path class="cls-7" d="M1493.31,895.32c-6.3,8.02-9.46,20.89-6.91,30.96,6.33-8.01,9.43-20.89,6.91-30.96h0Z"/>
      <line class="cls-14" x1="1489.62" y1="914.48" x2="1495.18" y2="887.04"/>
      <path class="cls-7" d="M1480.28,911.55c6.3,8.02,9.46,20.89,6.91,30.96-6.33-8.01-9.43-20.89-6.91-30.96h0Z"/>
      <line class="cls-14" x1="1483.97" y1="930.72" x2="1478.41" y2="903.28"/>
      <path class="cls-7" d="M1493.31,911.55c-6.3,8.02-9.46,20.89-6.91,30.96,6.33-8.01,9.43-20.89,6.91-30.96h0Z"/>
      <line class="cls-14" x1="1489.62" y1="930.72" x2="1495.18" y2="903.28"/>
      <path class="cls-7" d="M1480.28,927.79c6.05,7.71,9.21,19.88,7.19,29.76-.1.47-.74.61-1.02.22-5.82-8.05-8.58-20.3-6.17-29.97h0Z"/>
      <line class="cls-14" x1="1483.97" y1="946.96" x2="1478.41" y2="919.52"/>
      <path class="cls-7" d="M1493.31,927.79c-6.3,8.02-9.46,20.89-6.91,30.96,6.33-8.01,9.43-20.89,6.91-30.96h0Z"/>
      <line class="cls-14" x1="1489.62" y1="946.96" x2="1495.18" y2="919.52"/>
    </g>
    <g>
      <path class="cls-22" d="M1020.88,377.08c6.59,15.5,9.07,35.14,6.49,52.02-6.62-15.48-9.04-35.14-6.49-52.02h0Z"/>
      <path class="cls-22" d="M1031.41,387.97c2.64,13.13,1.02,28.42-4.39,40.48-2.67-13.12-.99-28.41,4.39-40.48h0Z"/>
    </g>
    <g>
      <path class="cls-35" d="M547.53,398.1c-3.35,4.13-5.91,8.9-7.69,14.09-1.78-5.18-4.35-9.96-7.69-14.09,0,14.75-.26,11.68-.12,20.15.24,14.69,1.69,22.14,7.82,30.04,6.13-7.9,7.58-15.35,7.82-30.04.14-8.47-.12-5.4-.12-20.15Z"/>
      <path class="cls-35" d="M547.67,375.69c-3.35,4.13-6.03,8.9-7.82,14.09-1.78-5.18-4.47-9.96-7.82-14.09,0,2.79-.14-5.05,0,3.42.24,14.69,1.69,22.14,7.82,30.04,6.13-7.9,7.58-15.35,7.82-30.04.14-8.47,0-.63,0-3.42Z"/>
    </g>
    <path class="cls-35" d="M141.24,482.87c-3.28,4.05-5.91,8.72-7.66,13.8-1.75-5.08-4.38-9.75-7.66-13.8,0,2.73-.14-4.95,0,3.35.24,14.39,1.65,21.69,7.66,29.43,6-7.74,7.42-15.04,7.66-29.43.14-8.3,0-.62,0-3.35Z"/>
    <g>
      <path class="cls-16" d="M1660.38,585.17c.33,11.92-5.72,25.87-15.24,33.07-.37-11.93,5.76-25.85,15.24-33.07h0Z"/>
      <path class="cls-16" d="M1660.38,598.47c.33,11.92-5.72,25.87-15.24,33.07-.37-11.93,5.76-25.85,15.24-33.07h0Z"/>
      <path class="cls-16" d="M1639.63,601.97c-.33,11.92,5.72,25.87,15.24,33.07.37-11.93-5.76-25.85-15.24-33.07h0Z"/>
      <path class="cls-16" d="M1660.36,612.03c.23,8.35-2.67,17.71-7.71,25.03-2.23,3.24-7.22.96-6.24-2.85,2.25-8.69,7.27-17.1,13.95-22.18h0Z"/>
      <path class="cls-16" d="M1639.63,615.27c-.33,11.92,5.72,25.87,15.24,33.07.37-11.93-5.76-25.85-15.24-33.07h0Z"/>
      <path class="cls-16" d="M1639.63,588.67c-.33,11.92,5.72,25.87,15.24,33.07.37-11.93-5.76-25.85-15.24-33.07h0Z"/>
    </g>
  </g>
  <g id="duiyin">
    <g>
      <rect class="cls-24" x="452.15" y="818.6" width="1249.66" height="393"/>
      <text class="cls-2" transform="translate(584.48 1075.17)"><tspan x="0" y="0">春</tspan></text>
      <text class="cls-1" transform="translate(544.58 876.56)"><tspan x="0" y="0">节日数量</tspan></text>
      <text class="cls-29" transform="translate(547.42 970.15)"><tspan x="0" y="0">50</tspan></text>
      <text class="cls-3" transform="translate(574.58 1022.55)"><tspan x="0" y="0">36%</tspan></text>
      <text class="cls-2" transform="translate(845.19 1075.17)"><tspan x="0" y="0">夏</tspan></text>
      <text class="cls-1" transform="translate(805.34 876.56)"><tspan x="0" y="0">节日数量</tspan></text>
      <text class="cls-23" transform="translate(810.23 970.15)"><tspan x="0" y="0">35</tspan></text>
      <text class="cls-3" transform="translate(835.91 1022.55)"><tspan x="0" y="0">25%</tspan></text>
      <text class="cls-2" transform="translate(1269.61 1075.17)"><tspan x="0" y="0">秋</tspan></text>
      <text class="cls-1" transform="translate(1229.64 876.56)"><tspan x="0" y="0">节日数量</tspan></text>
      <text class="cls-27" transform="translate(1236.35 970.15)"><tspan x="0" y="0">32</tspan></text>
      <text class="cls-3" transform="translate(1260.75 1022.55)"><tspan x="0" y="0">23%</tspan></text>
      <text class="cls-2" transform="translate(1531.43 1075.17)"><tspan x="0" y="0">冬</tspan></text>
      <text class="cls-1" transform="translate(1491.79 876.56)"><tspan x="0" y="0">节日数量</tspan></text>
      <text class="cls-28" transform="translate(1508.71 970.15)"><tspan x="0" y="0">21</tspan></text>
      <text class="cls-3" transform="translate(1524.6 1022.55)"><tspan x="0" y="0">15%</tspan></text>
      <g>
        <g id="viz">
          <path class="cls-34" d="M1003.62,935.51c.14-41.31,33.75-74.69,75.07-74.55,17.6.06,34.62,6.33,48.06,17.7l-24.09,28.27c-15.92-13.38-39.68-11.32-53.06,4.61-5.64,6.72-8.77,15.2-8.83,23.97h-37.14Z"/>
          <path class="cls-22" d="M1127.14,879c31.35,26.9,34.96,74.13,8.05,105.48-.26.3-.52.6-.78.89l-27.72-24.73c13.74-15.62,12.22-39.41-3.4-53.15-.08-.07-.17-.15-.25-.22l24.09-28.27Z"/>
          <path class="cls-26" d="M1134.07,985.77c-25.28,28.14-67.59,32.98-98.57,11.27l21.42-30.35c15.55,10.82,36.73,8.4,49.44-5.65l27.72,24.73Z"/>
          <path class="cls-33" d="M1035.07,996.74c-19.66-13.98-31.37-36.58-31.45-60.7h37.14c.08,12.05,5.93,23.34,15.73,30.36l-21.42,30.35Z"/>
        </g>
        <g id="viz-2" data-name="viz">
          <path class="cls-34" d="M1055.26,935.69c.04-12.8,10.45-23.13,23.25-23.09,5.45.02,10.72,1.96,14.89,5.48l-7.46,8.76c-4.93-4.14-12.29-3.51-16.44,1.43-1.75,2.08-2.72,4.71-2.73,7.42h-11.5Z"/>
          <path class="cls-22" d="M1093.51,918.19c9.71,8.33,10.83,22.96,2.49,32.67-.08.09-.16.18-.24.28l-8.58-7.66c4.26-4.84,3.78-12.21-1.05-16.46-.03-.02-.05-.05-.08-.07l7.46-8.76Z"/>
          <path class="cls-26" d="M1095.66,951.26c-7.83,8.72-20.94,10.21-30.53,3.49l6.63-9.4c4.82,3.35,11.38,2.6,15.31-1.75l8.58,7.66Z"/>
          <path class="cls-33" d="M1065,954.66c-6.09-4.33-9.72-11.33-9.74-18.8h11.5c.03,3.73,1.84,7.23,4.87,9.4l-6.63,9.4Z"/>
        </g>
        <g>
          <path class="cls-34" d="M1063.88,923.55c6.75-8.03,18.73-9.07,26.77-2.32l12.15-14.26c-6.78-5.74-15.36-8.9-24.24-8.93-20.84-.07-37.79,16.76-37.86,37.6h18.74c.03-4.43,1.61-8.7,4.45-12.09Z"/>
          <path class="cls-22" d="M1103,907.14l-12.15,14.26s.09.07.13.11c7.88,6.93,8.64,18.94,1.71,26.81l13.98,12.47c.13-.15.26-.3.39-.45,13.57-15.82,11.75-39.64-4.06-53.21Z"/>
          <path class="cls-26" d="M1067.58,951.37l-10.8,15.31c15.63,10.95,36.97,8.51,49.72-5.68l-13.98-12.47c-6.41,7.09-17.09,8.31-24.94,2.85Z"/>
          <path class="cls-33" d="M1059.43,935.9h-18.74c.04,12.17,5.95,23.57,15.87,30.62l10.8-15.31c-4.94-3.54-7.89-9.23-7.93-15.31Z"/>
          <path class="cls-34" d="M1071.28,929.77c3.32-3.95,9.21-4.46,13.16-1.14l5.97-7.01c-3.33-2.82-7.55-4.37-11.92-4.39-10.24-.04-18.58,8.24-18.61,18.48h9.21c.02-2.18.79-4.28,2.19-5.94Z"/>
          <path class="cls-22" d="M1092.5,947.85c6.67-7.77,5.78-19.48-2-26.15l-5.97,7.01s.04.04.06.06c3.87,3.41,4.25,9.31.84,13.18l6.87,6.13c.06-.07.13-.15.19-.22Z"/>
          <path class="cls-26" d="M1092.22,948.17l-6.87-6.13c-3.15,3.48-8.4,4.08-12.26,1.4l-5.31,7.52c7.68,5.38,18.17,4.18,24.44-2.79Z"/>
          <path class="cls-33" d="M1067.68,950.89l5.31-7.52c-2.43-1.74-3.88-4.54-3.9-7.53h-9.21c.02,5.98,2.92,11.58,7.8,15.05Z"/>
        </g>
        <g>
          <path class="cls-34" d="M1074.6,932.56c1.78-2.11,4.93-2.39,7.04-.61l3.2-3.75c-1.78-1.51-4.04-2.34-6.38-2.35-5.48-.02-9.95,4.41-9.96,9.9h4.93c0-1.16.42-2.29,1.17-3.18Z"/>
          <path class="cls-22" d="M1084.89,928.24l-3.2,3.75s.02.02.03.03c2.07,1.82,2.27,4.98.45,7.06l3.68,3.28s.07-.08.1-.12c3.57-4.16,3.09-10.43-1.07-14Z"/>
          <path class="cls-26" d="M1075.57,939.88l-2.84,4.03c4.11,2.88,9.73,2.24,13.08-1.5l-3.68-3.28c-1.69,1.87-4.5,2.19-6.56.75Z"/>
          <path class="cls-33" d="M1073.43,935.81h-4.93c.01,3.2,1.57,6.2,4.18,8.06l2.84-4.03c-1.3-.93-2.08-2.43-2.09-4.03Z"/>
          <path class="cls-34" d="M1076.54,934.19c.87-1.04,2.42-1.17,3.46-.3l1.57-1.84c-.88-.74-1.99-1.15-3.14-1.15-2.7,0-4.89,2.17-4.9,4.86h2.42c0-.57.21-1.13.58-1.56Z"/>
          <path class="cls-22" d="M1082.13,938.95c1.76-2.05,1.52-5.13-.53-6.88l-1.57,1.84s.01,0,.02.01c1.02.9,1.12,2.45.22,3.47l1.81,1.61s.03-.04.05-.06Z"/>
          <path class="cls-26" d="M1082.06,939.04l-1.81-1.61c-.83.92-2.21,1.07-3.23.37l-1.4,1.98c2.02,1.42,4.78,1.1,6.43-.74Z"/>
          <path class="cls-33" d="M1075.6,939.75l1.4-1.98c-.64-.46-1.02-1.19-1.03-1.98h-2.42c0,1.57.77,3.05,2.05,3.96Z"/>
        </g>
        <g>
          <path class="cls-34" d="M1077.15,934.7c.59-.7,1.64-.8,2.35-.2l1.07-1.25c-.59-.5-1.35-.78-2.13-.78-1.83,0-3.32,1.47-3.32,3.3h1.64c0-.39.14-.76.39-1.06Z"/>
          <path class="cls-22" d="M1080.58,933.26l-1.07,1.25s0,0,.01,0c.69.61.76,1.66.15,2.35l1.23,1.09s.02-.03.03-.04c1.19-1.39,1.03-3.48-.36-4.67Z"/>
          <path class="cls-26" d="M1077.47,937.14l-.95,1.34c1.37.96,3.24.75,4.36-.5l-1.23-1.09c-.56.62-1.5.73-2.19.25Z"/>
          <path class="cls-33" d="M1076.76,935.78h-1.64c0,1.07.52,2.07,1.39,2.69l.95-1.34c-.43-.31-.69-.81-.7-1.34Z"/>
          <path class="cls-34" d="M1077.8,935.25c.29-.35.81-.39,1.15-.1l.52-.61c-.29-.25-.66-.38-1.05-.38-.9,0-1.63.72-1.63,1.62h.81c0-.19.07-.38.19-.52Z"/>
          <path class="cls-22" d="M1079.66,936.83c.59-.68.51-1.71-.18-2.29l-.52.61s0,0,0,0c.34.3.37.82.07,1.16l.6.54s.01-.01.02-.02Z"/>
          <path class="cls-26" d="M1079.64,936.86l-.6-.54c-.28.31-.74.36-1.08.12l-.47.66c.67.47,1.59.37,2.14-.25Z"/>
          <path class="cls-33" d="M1077.48,937.1l.47-.66c-.21-.15-.34-.4-.34-.66h-.81c0,.52.26,1.02.68,1.32Z"/>
        </g>
      </g>
    </g>
    <text class="cls-4" transform="translate(693.57 1165.22)"><tspan x="0" y="0">从季节上看，春季的农耕节日最多，夏、秋节日数量接近，冬季节日较少</tspan></text>
  </g>
</svg>