<?xml version="1.0" encoding="UTF-8"?>
<svg id="_图层_1" data-name="图层 1" xmlns="http://www.w3.org/2000/svg" viewBox="0 0 2153.95 1211.6">
  <defs>
    <style>
      .cls-1 {
        fill: none;
        stroke: #0b6535;
        stroke-width: 3px;
      }

      .cls-1, .cls-2, .cls-3 {
        stroke-miterlimit: 10;
      }

      .cls-2 {
        fill: #d6bd7e;
      }

      .cls-2, .cls-3 {
        stroke: #f4f3f2;
        stroke-width: .5px;
      }

      .cls-4 {
        fill: #2f823a;
      }

      .cls-3 {
        fill: #cabc83;
      }

      .cls-5 {
        fill: #6bab69;
      }

      .cls-6 {
        fill: #f4f1ef;
      }

      .cls-7 {
        fill: #e6a275;
      }

      .cls-8 {
        fill: #cd7066;
      }

      .cls-9 {
        fill: #00523d;
      }

      .cls-10 {
        fill: #378d39;
      }

      .cls-11 {
        opacity: .56;
      }

      .cls-12 {
        fill: #967566;
      }

      .cls-13 {
        fill: #579140;
      }

      .cls-14 {
        fill: #82c47c;
      }

      .cls-15 {
        fill: #231815;
        font-family: MiSans-Normal, 'MiSans Normal';
        font-size: 24px;
      }

      .cls-16 {
        fill: #7e9b67;
      }

      .cls-17 {
        fill: #78504b;
      }

      .cls-18 {
        fill: #ecd46e;
      }

      .cls-19 {
        fill: #9dce83;
      }

      .cls-20 {
        opacity: .7;
      }

      .cls-21 {
        fill: #d9e47f;
      }
    </style>
  </defs>
  <g>
    <path class="cls-18" d="M1670.03,585.36c6.1,13.85,6.14,30.65,0,44.49-6.14-13.84-6.1-30.64,0-44.49h0Z"/>
    <path class="cls-7" d="M489.65,586.36c6.1,13.85,6.14,30.65,0,44.49-6.14-13.84-6.1-30.64,0-44.49h0Z"/>
    <path class="cls-5" d="M468.65,586.36c6.1,13.85,6.14,30.65,0,44.49-6.14-13.84-6.1-30.64,0-44.49h0Z"/>
    <path class="cls-19" d="M206.65,586.36c6.1,13.85,6.14,30.65,0,44.49-6.14-13.84-6.1-30.64,0-44.49h0Z"/>
    <path class="cls-8" d="M147.65,586.36c6.1,13.85,6.14,30.65,0,44.49-6.14-13.84-6.1-30.64,0-44.49h0Z"/>
    <path class="cls-8" d="M139.65,586.36c6.1,13.85,6.14,30.65,0,44.49-6.14-13.84-6.1-30.64,0-44.49h0Z"/>
    <path class="cls-19" d="M217.65,586.36c6.1,13.85,6.14,30.65,0,44.49-6.14-13.84-6.1-30.64,0-44.49h0Z"/>
    <path class="cls-14" d="M334.65,586.36c6.1,13.85,6.14,30.65,0,44.49-6.14-13.84-6.1-30.64,0-44.49h0Z"/>
    <path class="cls-5" d="M480,378.36c6.1,13.85,6.14,30.65,0,44.49-6.14-13.84-6.1-30.64,0-44.49h0Z"/>
    <path class="cls-2" d="M1422.87,585.36c6.37,13.85,6.42,30.65,0,44.49-6.42-13.84-6.37-30.64,0-44.49h0Z"/>
    <path class="cls-7" d="M1441.87,585.36c6.37,13.85,6.42,30.65,0,44.49-6.42-13.84-6.37-30.64,0-44.49h0Z"/>
    <path class="cls-18" d="M1194.66,585.36c6.1,13.85,6.14,30.65,0,44.49-6.14-13.84-6.1-30.64,0-44.49h0Z"/>
    <path class="cls-18" d="M1213.66,585.36c6.1,13.85,6.14,30.65,0,44.49-6.14-13.84-6.1-30.64,0-44.49h0Z"/>
    <path class="cls-18" d="M1473.66,585.36c6.1,13.85,6.14,30.65,0,44.49-6.14-13.84-6.1-30.64,0-44.49h0Z"/>
    <path class="cls-2" d="M1357.72,787.36c6.1,13.85,6.14,30.65,0,44.49-6.14-13.84-6.1-30.64,0-44.49h0Z"/>
    <path class="cls-2" d="M1432.72,787.36c6.1,13.85,6.14,30.65,0,44.49-6.14-13.84-6.1-30.64,0-44.49h0Z"/>
    <path class="cls-3" d="M1256.65,585.36c6.1,13.85,6.14,30.65,0,44.49-6.14-13.84-6.1-30.64,0-44.49h0Z"/>
    <path class="cls-17" d="M2099.72,585.36c6.1,13.85,6.14,30.65,0,44.49-6.14-13.84-6.1-30.64,0-44.49h0Z"/>
    <path class="cls-14" d="M351.65,586.36c6.1,13.85,6.14,30.65,0,44.49-6.14-13.84-6.1-30.64,0-44.49h0Z"/>
    <path class="cls-21" d="M357.65,378.36c6.1,13.85,6.14,30.65,0,44.49-6.14-13.84-6.1-30.64,0-44.49h0Z"/>
    <path class="cls-16" d="M966.15,585.36c6.1,13.85,6.14,30.65,0,44.49-6.14-13.84-6.1-30.64,0-44.49h0Z"/>
    <path class="cls-13" d="M877.15,585.36c6.1,13.85,6.14,30.65,0,44.49-6.14-13.84-6.1-30.64,0-44.49h0Z"/>
    <path class="cls-18" d="M1368.59,585.36c6.1,13.85,6.14,30.65,0,44.49-6.14-13.84-6.1-30.64,0-44.49h0Z"/>
    <path class="cls-8" d="M1269.64,700.18c6.1,13.85,6.14,30.65,0,44.49-6.14-13.84-6.1-30.64,0-44.49h0Z"/>
    <path class="cls-7" d="M708.64,700.18c6.1,13.85,6.14,30.65,0,44.49-6.14-13.84-6.1-30.64,0-44.49h0Z"/>
    <path class="cls-18" d="M1025.63,787.36c6.1,13.85,6.14,30.65,0,44.49-6.14-13.84-6.1-30.64,0-44.49h0Z"/>
    <path class="cls-18" d="M1346.03,585.36c6.1,13.85,6.14,30.65,0,44.49-6.14-13.84-6.1-30.64,0-44.49h0Z"/>
    <path class="cls-18" d="M1150.11,585.36c6.1,13.85,6.14,30.65,0,44.49-6.14-13.84-6.1-30.64,0-44.49h0Z"/>
    <path class="cls-18" d="M988.41,489.36c6.1,13.85,6.14,30.65,0,44.49-6.14-13.84-6.1-30.64,0-44.49h0Z"/>
    <path class="cls-18" d="M1346.03,489.36c6.1,13.85,6.14,30.65,0,44.49-6.14-13.84-6.1-30.64,0-44.49h0Z"/>
    <path class="cls-18" d="M1093.59,585.36c6.1,13.85,6.14,30.65,0,44.49-6.14-13.84-6.1-30.64,0-44.49h0Z"/>
    <path class="cls-18" d="M960.59,585.36c6.1,13.85,6.14,30.65,0,44.49-6.14-13.84-6.1-30.64,0-44.49h0Z"/>
    <path class="cls-8" d="M1548.66,585.36c6.1,13.85,6.14,30.65,0,44.49-6.14-13.84-6.1-30.64,0-44.49h0Z"/>
    <path class="cls-8" d="M1380.72,787.36c6.1,13.85,6.14,30.65,0,44.49-6.14-13.84-6.1-30.64,0-44.49h0Z"/>
    <path class="cls-14" d="M440.65,267.36c6.1,13.85,6.14,30.65,0,44.49-6.14-13.84-6.1-30.64,0-44.49h0Z"/>
    <path class="cls-4" d="M697.65,378.36c6.1,13.85,6.14,30.65,0,44.49-6.14-13.84-6.1-30.64,0-44.49h0Z"/>
    <g class="cls-11">
      <path class="cls-19" d="M111.65,378.36c6.1,13.85,6.14,30.65,0,44.49-6.14-13.84-6.1-30.64,0-44.49h0Z"/>
    </g>
    <path class="cls-12" d="M1899.72,184.18c6.1,13.85,6.14,30.65,0,44.49-6.14-13.84-6.1-30.64,0-44.49h0Z"/>
    <path class="cls-12" d="M1899.72,267.36c6.1,13.85,6.14,30.65,0,44.49-6.14-13.84-6.1-30.64,0-44.49h0Z"/>
    <path class="cls-18" d="M1396.59,700.18c6.1,13.85,6.14,30.65,0,44.49-6.14-13.84-6.1-30.64,0-44.49h0Z"/>
    <path class="cls-7" d="M306.65,586.36c6.1,13.85,6.14,30.65,0,44.49-6.14-13.84-6.1-30.64,0-44.49h0Z"/>
    <path class="cls-7" d="M155.65,701.36c6.1,13.85,6.14,30.65,0,44.49-6.14-13.84-6.1-30.64,0-44.49h0Z"/>
    <g class="cls-20">
      <path class="cls-7" d="M310.65,586.36c6.1,13.85,6.14,30.65,0,44.49-6.14-13.84-6.1-30.64,0-44.49h0Z"/>
    </g>
    <g class="cls-20">
      <path class="cls-7" d="M302.65,586.36c6.1,13.85,6.14,30.65,0,44.49-6.14-13.84-6.1-30.64,0-44.49h0Z"/>
    </g>
    <path class="cls-7" d="M549.65,586.36c6.1,13.85,6.14,30.65,0,44.49-6.14-13.84-6.1-30.64,0-44.49h0Z"/>
    <path class="cls-5" d="M546.83,586.36c6.1,13.85,6.14,30.65,0,44.49-6.14-13.84-6.1-30.64,0-44.49h0Z"/>
    <path class="cls-9" d="M1619.66,585.36c6.1,13.85,6.14,30.65,0,44.49-6.14-13.84-6.1-30.64,0-44.49h0Z"/>
    <path class="cls-9" d="M995.66,585.36c6.1,13.85,6.14,30.65,0,44.49-6.14-13.84-6.1-30.64,0-44.49h0Z"/>
    <path class="cls-9" d="M842.66,585.36c6.1,13.85,6.14,30.65,0,44.49-6.14-13.84-6.1-30.64,0-44.49h0Z"/>
    <path class="cls-18" d="M1005.41,489.36c6.1,13.85,6.14,30.65,0,44.49-6.14-13.84-6.1-30.64,0-44.49h0Z"/>
  </g>
  <g id="duiyin">
    <rect class="cls-6" x="605.06" width="943.84" height="350.03"/>
    <path class="cls-10" d="M824,55.22c19.11,43.43,19.26,96.12,0,139.52-19.26-43.4-19.12-96.09,0-139.52h0Z"/>
    <path class="cls-10" d="M1219.45,129.72c9.32,16.4,9.39,36.3,0,52.69-9.39-16.39-9.32-36.29,0-52.69h0Z"/>
    <path class="cls-10" d="M1373.45,129.72c9.32,16.4,9.39,36.3,0,52.69-9.39-16.39-9.32-36.29,0-52.69h0Z"/>
    <path class="cls-10" d="M1278.45,76.68c9.32,16.4,9.39,36.3,0,52.69-9.39-16.39-9.32-36.29,0-52.69h0Z"/>
    <text class="cls-15" transform="translate(755.91 268.98)"><tspan x="0" y="0">每一粒稻谷</tspan><tspan x="-36" y="28.8">代表一个农耕节日</tspan></text>
    <text class="cls-15" transform="translate(1184.36 269.16)"><tspan x="0" y="0">稻谷的位置取决于</tspan><tspan x="0" y="28.8">节日的日期与地点</tspan></text>
    <text class="cls-15" transform="translate(1144.79 63.32)"><tspan x="0" y="0">地区</tspan></text>
    <text class="cls-15" transform="translate(1385.18 213.76)"><tspan x="0" y="0">时间</tspan></text>
    <polyline class="cls-1" points="1130.01 64.13 1141.13 43.41 1141.13 219.72 1429.07 219.72 1408.05 234.55"/>
  </g>
</svg>