<?xml version="1.0" encoding="UTF-8"?>
<svg id="_图层_2" data-name="图层 2" xmlns="http://www.w3.org/2000/svg" xmlns:xlink="http://www.w3.org/1999/xlink" viewBox="0 0 308.25 1003.17">
  <defs>
    <style>
      .cls-1 {
        fill: url(#_未命名的渐变_5);
        opacity: .2;
      }

      .cls-2, .cls-3, .cls-4, .cls-5, .cls-6, .cls-7, .cls-8, .cls-9 {
        isolation: isolate;
      }

      .cls-2, .cls-3, .cls-4, .cls-5, .cls-6, .cls-7, .cls-9 {
        fill: #040000;
      }

      .cls-2, .cls-3, .cls-7 {
        font-family: FZVariableLanTHK-Normal, 'FZVariableLanTHK Normal';
        font-variation-settings: ';
      }

      .cls-2, .cls-4, .cls-7 {
        font-size: 11.43px;
      }

      .cls-3 {
        font-size: 9.74px;
        letter-spacing: 0em;
      }

      .cls-10 {
        stroke: #e0b153;
      }

      .cls-10, .cls-11, .cls-12, .cls-13, .cls-14, .cls-15, .cls-16, .cls-17 {
        fill: none;
        stroke-miterlimit: 10;
      }

      .cls-10, .cls-11, .cls-14, .cls-16 {
        stroke-width: 2px;
      }

      .cls-11 {
        stroke: #06653e;
      }

      .cls-4 {
        font-family: FZVariableLanTHK-Regular, 'FZVariableLanTHK Regular';
        font-variation-settings: ';
      }

      .cls-5 {
        letter-spacing: -.1em;
      }

      .cls-5, .cls-6, .cls-9 {
        font-family: HanyiSentySuciTablet, HanyiSentySuciTablet;
      }

      .cls-5, .cls-9 {
        font-size: 15.89px;
      }

      .cls-18 {
        fill: #231815;
        font-family: FZVariableLanTHK-Light, 'FZVariableLanTHK Light';
        font-size: 18px;
        font-variation-settings: ';
        font-weight: 300;
      }

      .cls-6 {
        font-size: 16.63px;
        letter-spacing: -.1em;
      }

      .cls-19 {
        fill: #e0b153;
      }

      .cls-7 {
        letter-spacing: -.1em;
      }

      .cls-20 {
        opacity: .25;
      }

      .cls-21 {
        fill: #c56d64;
      }

      .cls-22 {
        opacity: .8;
      }

      .cls-12 {
        stroke-dasharray: 2.05 1.03;
      }

      .cls-12, .cls-15, .cls-17 {
        stroke: #c56d64;
        stroke-width: .75px;
      }

      .cls-13 {
        stroke: #0d2712;
        stroke-width: 1.5px;
      }

      .cls-23 {
        opacity: .15;
      }

      .cls-24 {
        fill: #c84c45;
      }

      .cls-25 {
        opacity: .65;
      }

      .cls-14 {
        stroke: #378d39;
      }

      .cls-26 {
        fill: #be6a62;
      }

      .cls-27 {
        fill: #5f8443;
      }

      .cls-28 {
        opacity: .45;
      }

      .cls-9 {
        letter-spacing: -.3em;
      }

      .cls-29 {
        opacity: .5;
      }

      .cls-16 {
        stroke: #b7947a;
      }

      .cls-30 {
        fill: #9eb88c;
      }

      .cls-17 {
        stroke-dasharray: 12.3 1.03 2.05 1.03;
      }
    </style>
    <linearGradient id="_未命名的渐变_5" data-name="未命名的渐变 5" x1="4906.56" y1="2402.94" x2="4906.56" y2="2094.82" gradientTransform="translate(-4751.97 -1951.25)" gradientUnits="userSpaceOnUse">
      <stop offset="0" stop-color="#fff" stop-opacity="0"/>
      <stop offset=".51" stop-color="#f4f1ef"/>
      <stop offset="1" stop-color="#fff" stop-opacity="0"/>
    </linearGradient>
  </defs>
  <g id="_图层_1-2" data-name="图层 1">
    <g>
      <g class="cls-25">
        <path class="cls-24" d="M224.16,738.64c-18.79-10.81-40.16-16.54-61.84-16.57v123.68s61.84-107.11,61.84-107.11Z"/>
      </g>
      <g class="cls-23">
        <path class="cls-24" d="M96.06,738.64c18.79-10.81,40.16-16.54,61.84-16.57v123.68s-61.84-107.11-61.84-107.11Z"/>
      </g>
      <g class="cls-23">
        <path class="cls-24" d="M224.16,967.52c-18.79,10.81-40.16,16.54-61.84,16.57v-123.68s61.84,107.11,61.84,107.11Z"/>
      </g>
      <g class="cls-23">
        <path class="cls-24" d="M47.23,920.61c10.87,18.75,26.51,34.4,45.27,45.27l61.84-107.11-107.11,61.84Z"/>
      </g>
      <g class="cls-28">
        <path class="cls-24" d="M29.35,851.45c.04-21.68,5.76-43.05,16.57-61.84l107.11,61.84H29.35Z"/>
      </g>
      <g>
        <g>
          <line class="cls-15" x1="94.49" y1="739.8" x2="97.49" y2="744.99"/>
          <line class="cls-12" x1="98.01" y1="745.88" x2="99.29" y2="748.1"/>
          <line class="cls-17" x1="99.54" y1="748.55" x2="222.3" y2="961.17"/>
          <line class="cls-15" x1="222.56" y1="961.62" x2="225.56" y2="966.81"/>
        </g>
        <g>
          <line class="cls-15" x1="273.53" y1="787.77" x2="268.34" y2="790.77"/>
          <line class="cls-12" x1="267.45" y1="791.28" x2="265.23" y2="792.57"/>
          <line class="cls-17" x1="264.79" y1="792.82" x2="52.16" y2="915.58"/>
          <line class="cls-15" x1="51.72" y1="915.84" x2="46.52" y2="918.84"/>
        </g>
        <g>
          <line class="cls-15" x1="46.52" y1="787.77" x2="51.72" y2="790.77"/>
          <line class="cls-12" x1="52.6" y1="791.28" x2="54.82" y2="792.57"/>
          <line class="cls-17" x1="55.27" y1="792.82" x2="267.89" y2="915.58"/>
          <line class="cls-15" x1="268.34" y1="915.84" x2="273.53" y2="918.84"/>
        </g>
        <g>
          <line class="cls-15" x1="225.56" y1="739.8" x2="222.56" y2="744.99"/>
          <line class="cls-12" x1="222.05" y1="745.88" x2="220.77" y2="748.1"/>
          <line class="cls-17" x1="220.51" y1="748.55" x2="97.75" y2="961.17"/>
          <line class="cls-15" x1="97.49" y1="961.62" x2="94.49" y2="966.81"/>
        </g>
        <line class="cls-13" x1="160.03" y1="722.24" x2="160.03" y2="984.37"/>
        <line class="cls-13" x1="291.09" y1="853.31" x2="28.96" y2="853.31"/>
        <path class="cls-14" d="M164.02,717.81c71.18,2.89,128.33,60.21,130.96,131.45"/>
        <path class="cls-11" d="M164.02,989.1c71.18-2.89,128.33-60.21,130.96-131.45"/>
        <path class="cls-16" d="M156.03,717.81c-71.18,2.89-128.33,60.21-130.96,131.45"/>
        <path class="cls-10" d="M156.03,989.1c-71.18-2.89-128.33-60.21-130.96-131.45"/>
        <g class="cls-8">
          <text class="cls-4" transform="translate(163.18 713.93)"><tspan x="0" y="0">春</tspan></text>
        </g>
        <g class="cls-8">
          <text class="cls-4" transform="translate(163.18 1001.56)"><tspan x="0" y="0">夏</tspan></text>
        </g>
        <g class="cls-8">
          <text class="cls-4" transform="translate(143.71 713.93)"><tspan x="0" y="0">冬</tspan></text>
        </g>
        <g class="cls-8">
          <text class="cls-4" transform="translate(143.71 1001.56)"><tspan x="0" y="0">秋</tspan></text>
        </g>
        <g class="cls-8">
          <text class="cls-3" transform="translate(218.29 717.78)"><tspan x="0" y="0">一</tspan><tspan x="0" y="9.73">月</tspan></text>
        </g>
        <g class="cls-8">
          <text class="cls-3" transform="translate(272.27 763.8)"><tspan x="0" y="0">二</tspan><tspan x="0" y="9.73">月</tspan></text>
        </g>
        <g class="cls-8">
          <text class="cls-2" transform="translate(296.81 839.6)"><tspan x="0" y="0">三</tspan><tspan x="0" y="11.43">月</tspan></text>
        </g>
        <g class="cls-8">
          <text class="cls-2" transform="translate(218.05 988.28)"><tspan x="0" y="0">六</tspan><tspan x="0" y="11.43">月</tspan></text>
        </g>
        <g class="cls-8">
          <text class="cls-2" transform="translate(272.03 942.26)"><tspan x="0" y="0">五</tspan><tspan x="0" y="11.43">月</tspan></text>
        </g>
        <g class="cls-8">
          <text class="cls-2" transform="translate(296.81 867.92)"><tspan x="0" y="0">四</tspan><tspan x="0" y="11.43">月</tspan></text>
        </g>
        <g class="cls-8">
          <text class="cls-7" transform="translate(88.56 707.24)"><tspan x="0" y="0">十</tspan><tspan x="0" y="10.29">二</tspan><tspan x="0" y="20.58">月</tspan></text>
        </g>
        <g class="cls-8">
          <text class="cls-7" transform="translate(36.81 754.53)"><tspan x="0" y="0">十</tspan><tspan x="0" y="10.29">一</tspan><tspan x="0" y="20.58">月</tspan></text>
        </g>
        <g class="cls-8">
          <text class="cls-2" transform="translate(12.72 839.6)"><tspan x="0" y="0">十</tspan><tspan x="0" y="11.43">月</tspan></text>
        </g>
        <g class="cls-8">
          <text class="cls-2" transform="translate(91.52 988.28)"><tspan x="0" y="0">七</tspan><tspan x="0" y="11.43">月</tspan></text>
        </g>
        <g class="cls-8">
          <text class="cls-2" transform="translate(37.38 942.26)"><tspan x="0" y="0">八</tspan><tspan x="0" y="11.43">月</tspan></text>
        </g>
        <g class="cls-8">
          <text class="cls-2" transform="translate(12.87 867.92)"><tspan x="0" y="0">九</tspan><tspan x="0" y="11.43">月</tspan></text>
        </g>
      </g>
      <g class="cls-20">
        <path class="cls-24" d="M29.35,854.99c.04,21.68,5.76,43.05,16.57,61.84l107.11-61.84H29.35Z"/>
      </g>
      <path class="cls-21" d="M166.02,724.41c.75,1.38,1.3,2.96,1.65,4.66.54-1.65,1.26-3.15,2.16-4.44-.27,4.76-.02,1.52-.21,4.26-.33,4.74-.67,4.43-2.33,6.89-1.37-2.63-1.75-2.36-1.54-7.11.12-2.74,0,.51.27-4.25Z"/>
      <path class="cls-21" d="M174.1,725.28c.55,1.47.88,3.11.98,4.84.76-1.56,1.68-2.95,2.76-4.1-.93,4.68-.23,1.51-.8,4.19-.98,4.65-1.28,4.29-3.26,6.5-.99-2.8-1.4-2.58-.54-7.25.5-2.69-.07.5.86-4.17Z"/>
      <path class="cls-21" d="M181.55,726.93c.5,1.49.77,3.14.81,4.87.81-1.53,1.78-2.89,2.9-4-1.09,4.64-.28,1.5-.94,4.16-1.14,4.61-1.43,4.24-3.49,6.38-.89-2.83-1.31-2.63-.28-7.27.59-2.67-.09.5,1-4.14Z"/>
      <path class="cls-21" d="M187.97,728.18c.48,1.5.73,3.15.75,4.88.83-1.52,1.82-2.87,2.95-3.96-1.15,4.63-.3,1.49-1,4.14-1.2,4.6-1.48,4.22-3.57,6.34-.86-2.84-1.28-2.64-.19-7.27.63-2.67-.09.5,1.06-4.13Z"/>
      <path class="cls-21" d="M31.91,847.94c1.34-.83,2.88-1.46,4.56-1.91-1.68-.44-3.22-1.08-4.56-1.91,4.77,0,1.52-.07,4.26-.03,4.75.06,4.46.42,7.01,1.94-2.55,1.52-2.26,1.88-7.01,1.94-2.74.03.51-.03-4.26-.03Z"/>
      <path class="cls-21" d="M32.32,840.86c1.44-.64,3.05-1.05,4.78-1.25-1.6-.67-3.04-1.51-4.25-2.52,4.72.66,1.52.15,4.22.56,4.7.72,4.35,1.03,6.67,2.89-2.74,1.15-2.5,1.54-7.21.94-2.72-.35.51.04-4.22-.62Z"/>
      <path class="cls-21" d="M33.55,834.37c1.46-.58,3.09-.94,4.82-1.09-1.57-.73-2.98-1.62-4.16-2.67,4.7.83,1.51.2,4.2.71,4.67.88,4.32,1.19,6.57,3.12-2.78,1.05-2.55,1.46-7.24.69-2.7-.44.51.06-4.19-.77Z"/>
      <path class="cls-21" d="M35.43,827.44c1.5-.46,3.16-.67,4.89-.66-1.5-.86-2.83-1.87-3.91-3.02,4.61,1.23,1.49.33,4.12,1.07,4.57,1.29,4.2,1.56,6.27,3.69-2.86.81-2.67,1.23-7.27.06-2.65-.68.5.1-4.11-1.13Z"/>
      <path class="cls-21" d="M195.04,729.86c.41,1.52.58,3.18.52,4.91.9-1.48,1.95-2.78,3.13-3.82-1.36,4.57-.37,1.48-1.19,4.09-1.42,4.54-1.68,4.15-3.86,6.16-.72-2.88-1.15-2.7.15-7.27.75-2.63-.12.5,1.25-4.07Z"/>
      <path class="cls-21" d="M202.42,731.99c.29,1.55.33,3.21.13,4.94,1.02-1.4,2.17-2.61,3.42-3.56-1.72,4.45-.49,1.44-1.51,3.99-1.77,4.41-2,4-4.34,5.84-.49-2.93-.93-2.78.73-7.24.96-2.57-.15.48,1.57-3.96Z"/>
      <path class="cls-21" d="M103.39,737.32c-.19,1.56-.11,3.23.2,4.93-1.11-1.33-2.34-2.46-3.65-3.32,2.02,4.32.58,1.41,1.77,3.88,2.06,4.28,2.26,3.86,4.72,5.53.3-2.96.75-2.84-1.21-7.17-1.13-2.5.19.47-1.83-3.85Z"/>
      <path class="cls-21" d="M45.18,909.48c1.57.09,3.23-.08,4.91-.49-1.26,1.19-2.32,2.48-3.1,3.84,4.2-2.27,1.37-.67,3.76-2,4.15-2.31,3.72-2.49,5.25-5.04-2.97-.12-2.88-.58-7.09,1.63-2.43,1.27.46-.21-3.73,2.05Z"/>
      <path class="cls-21" d="M43.09,904.2c1.57.12,3.23-.04,4.92-.42-1.28,1.17-2.35,2.45-3.15,3.8,4.23-2.21,1.38-.65,3.79-1.95,4.18-2.25,3.76-2.43,5.32-4.96-2.97-.16-2.87-.62-7.11,1.53-2.44,1.24.46-.21-3.76,2Z"/>
      <path class="cls-21" d="M87.86,958.81c1.44-.63,2.84-1.55,4.15-2.68-.58,1.63-.93,3.26-1.01,4.83,2.7-3.93.92-1.22,2.44-3.5,2.64-3.95,2.18-3.91,2.37-6.88-2.7,1.25-2.83.8-5.56,4.68-1.58,2.24.31-.4-2.39,3.53Z"/>
      <path class="cls-21" d="M217.61,968.32c0-1.57-.26-3.22-.75-4.88,1.25,1.2,2.6,2.18,4,2.89-2.49-4.07-.74-1.33-2.2-3.65-2.53-4.02-2.68-3.58-5.31-4.97.04,2.97-.42,2.91,2.01,6.99,1.4,2.35-.24-.45,2.25,3.62Z"/>
    </g>
    <text class="cls-18" transform="translate(.56 666.21)"><tspan x="0" y="0">节日日期分布</tspan></text>
    <g>
      <rect class="cls-27" x="18.12" y="74.86" width="12.85" height="4.26"/>
      <rect class="cls-21" x="4.57" y="515.95" width="12.14" height="4.26"/>
      <rect class="cls-21" x="19.58" y="515.95" width="16.18" height="4.26"/>
      <rect class="cls-21" x="38.63" y="515.95" width="16.18" height="4.26"/>
      <rect class="cls-21" x="57.69" y="515.95" width="16.18" height="4.26"/>
      <rect class="cls-21" x="76.74" y="515.95" width="16.18" height="4.26"/>
      <rect class="cls-21" x="95.79" y="515.95" width="16.18" height="4.26"/>
      <rect class="cls-21" x="114.85" y="515.95" width="16.18" height="4.26"/>
      <rect class="cls-21" x="133.9" y="515.95" width="16.18" height="4.26"/>
      <rect class="cls-21" x="152.95" y="515.95" width="16.18" height="4.26"/>
      <rect class="cls-21" x="172.01" y="515.95" width="16.18" height="4.26"/>
      <rect class="cls-21" x="191.06" y="515.95" width="16.18" height="4.26"/>
      <rect class="cls-21" x="210.11" y="515.95" width="16.18" height="4.26"/>
      <rect class="cls-21" x="229.17" y="515.95" width="16.18" height="4.26"/>
      <rect class="cls-21" x="248.22" y="515.95" width="16.18" height="4.26"/>
      <rect class="cls-21" x="267.27" y="515.95" width="16.18" height="4.26"/>
      <rect class="cls-26" x="54.78" y="74.86" width="12.68" height="4.26"/>
      <rect class="cls-27" x="33.84" y="74.86" width="18.07" height="4.26"/>
      <rect class="cls-21" x="286.33" y="515.95" width="20.23" height="4.26"/>
      <rect class="cls-26" x="70.33" y="74.86" width="29.67" height="4.26"/>
      <rect class="cls-26" x="102.87" y="74.86" width="35.07" height="4.26"/>
      <rect class="cls-19" x="140.8" y="74.86" width="36.95" height="4.26"/>
      <rect class="cls-19" x="180.63" y="74.86" width="54.49" height="4.26"/>
      <rect class="cls-19" x="237.98" y="74.86" width="58.53" height="4.26"/>
      <rect class="cls-27" x="212.03" y="593.79" width="5.77" height="41.88"/>
      <rect class="cls-19" x="246.33" y="593.79" width="5.77" height="41.88"/>
      <rect class="cls-21" x="280.62" y="593.79" width="5.77" height="41.88"/>
      <g class="cls-22">
        <g class="cls-29">
          <path class="cls-26" d="M110.96,80.27c0,110.57-21.47,166.64-42.23,220.87-21.12,55.15-41.06,107.25-41.06,214.24h-8.09c0-110.57,21.47-166.64,42.23-220.87,21.12-55.15,41.06-107.25,41.06-214.24h8.09Z"/>
        </g>
      </g>
      <g class="cls-29">
        <path class="cls-19" d="M192.76,80.27c0,111.68-40.61,167.95-79.88,222.37-39.66,54.96-77.12,106.87-77.12,212.74h-8.09c0-111.68,40.61-167.95,79.88-222.37,39.66-54.96,77.12-106.87,77.12-212.74h8.09Z"/>
      </g>
      <g class="cls-22">
        <g class="cls-29">
          <path class="cls-26" d="M116.35,80.27c0,109.83-18.54,165.61-36.47,219.54-17.63,53.02-35.85,107.85-35.85,215.57h-5.39c0-109.83,18.54-165.61,36.47-219.54,17.63-53.02,35.85-107.85,35.85-215.57h5.39Z"/>
        </g>
      </g>
      <g class="cls-29">
        <path class="cls-19" d="M243.38,80.27c0,110.95-48.49,166.9-95.39,221.01-47.91,55.28-93.17,107.5-93.17,214.11h-5.39c0-110.95,48.49-166.9,95.39-221.01,47.91-55.28,93.17-107.5,93.17-214.11h5.39Z"/>
      </g>
      <g class="cls-29">
        <path class="cls-19" d="M150.24,80.27c0,110.18-25.89,166.05-50.93,220.08-25.66,55.36-49.89,107.65-49.89,215.04h-5.39c0-110.18,25.89-166.05,50.93-220.08,25.66-55.36,49.89-107.65,49.89-215.04h5.39Z"/>
      </g>
      <g class="cls-29">
        <path class="cls-30" d="M60.92,515.39h-3.24c0-108.56-6.05-163.75-11.9-217.12-5.87-53.59-11.95-109-11.95-218h3.24c0,108.56,6.05,163.75,11.9,217.12,5.87,53.59,11.95,109,11.95,218Z"/>
      </g>
      <g class="cls-22">
        <g class="cls-29">
          <path class="cls-26" d="M64.16,515.39h-3.24c0-108.72-1.57-163.99-3.09-217.44-1.52-53.51-3.09-108.84-3.09-217.67h3.24c0,108.72,1.57,163.99,3.09,217.44,1.52,53.51,3.09,108.84,3.09,217.67Z"/>
        </g>
      </g>
      <g class="cls-29">
        <path class="cls-19" d="M246.61,80.27c0,110.01-44.22,165.7-86.98,219.56-42.16,53.1-85.76,108.01-85.76,215.56h-3.24c0-110.01,44.22-165.7,86.98-219.56,42.16-53.1,85.76-108.01,85.76-215.56h3.24Z"/>
      </g>
      <g class="cls-29">
        <path class="cls-19" d="M196,80.27c0,109.77-32.08,165.44-63.11,219.28-30.61,53.12-62.26,108.05-62.26,215.83h-3.24c0-109.77,32.08-165.44,63.11-219.28,30.61-53.12,62.26-108.05,62.26-215.83h3.24Z"/>
      </g>
      <g class="cls-29">
        <path class="cls-19" d="M153.48,80.27c0,109.51-22.01,165.13-43.29,218.92-21.04,53.17-42.8,108.16-42.8,216.2h-3.24c0-109.51,22.01-165.13,43.29-218.92,21.04-53.17,42.8-108.16,42.8-216.2h3.24Z"/>
      </g>
      <g class="cls-22">
        <g class="cls-29">
          <path class="cls-26" d="M121.75,80.27c0,109.3-8.74,164.86-17.19,218.59-8.37,53.23-17.03,108.27-17.03,216.53h-5.39c0-109.3,8.74-164.86,17.19-218.59,8.37-53.23,17.03-108.27,17.03-216.53h5.39Z"/>
        </g>
      </g>
      <g class="cls-22">
        <g class="cls-29">
          <path class="cls-26" d="M82.13,515.39h-5.39c0-108.74-.6-164.02-1.18-217.49-.58-53.5-1.18-108.82-1.18-217.63h5.39c0,108.74.6,164.02,1.18,217.49.58,53.5,1.18,108.82,1.18,217.63Z"/>
        </g>
      </g>
      <g class="cls-29">
        <path class="cls-19" d="M252.01,80.27c0,110.73-40.91,166.68-80.47,220.79-40.43,55.28-78.61,107.5-78.61,214.33h-5.39c0-110.73,40.91-166.68,80.47-220.79,40.43-55.28,78.61-107.5,78.61-214.33h5.39Z"/>
      </g>
      <g class="cls-22">
        <g class="cls-29">
          <path class="cls-26" d="M127.14,80.27c0,109.1-5.24,164.56-10.31,218.19-5.04,53.33-10.25,108.47-10.25,216.93h-5.39c0-109.1,5.24-164.56,10.31-218.19,5.04-53.33,10.25-108.47,10.25-216.93h5.39Z"/>
        </g>
      </g>
      <g class="cls-29">
        <path class="cls-30" d="M101.19,515.39h-5.39c0-107.9-14.84-162.8-29.2-215.88-14.57-53.87-29.64-109.58-29.64-219.24h5.39c0,107.9,14.84,162.8,29.2,215.88,14.57,53.87,29.64,109.58,29.64,219.24Z"/>
      </g>
      <g class="cls-29">
        <path class="cls-19" d="M158.88,80.27c0,109.49-11.99,165.13-23.59,218.94-11.46,53.15-23.3,108.11-23.3,216.18h-5.39c0-109.49,11.99-165.13,23.59-218.94,11.46-53.15,23.3-108.11,23.3-216.18h5.39Z"/>
      </g>
      <g class="cls-29">
        <path class="cls-30" d="M122.94,515.39h-7.81c0-106.84-21.23-158.89-43.7-214-22.13-54.27-53.32-110.3-53.32-221.02h5.73c0,106.84,31.6,158.8,54.08,213.91,22.13,54.27,45.01,110.39,45.01,221.12Z"/>
      </g>
      <g class="cls-29">
        <path class="cls-19" d="M204.09,80.27c0,110.37-18.81,166.39-37,220.56-18.54,55.22-36.06,107.37-36.06,214.56h-8.09c0-110.37,18.81-166.39,37-220.56,18.54-55.22,36.06-107.37,36.06-214.56h8.09Z"/>
      </g>
      <g class="cls-29">
        <path class="cls-30" d="M137.95,515.39h-4.05c0-107.81-23.13-162.7-45.5-215.78-22.7-53.88-46.18-109.59-46.18-219.33h4.05c0,107.81,23.13,162.7,45.5,215.78,22.7,53.88,46.18,109.59,46.18,219.33Z"/>
      </g>
      <g class="cls-22">
        <g class="cls-29">
          <path class="cls-26" d="M141.99,515.39h-4.05c0-107.92-20.18-162.84-39.69-215.95-19.78-53.85-40.24-109.52-40.24-219.17h4.05c0,107.92,20.18,162.84,39.69,215.95,19.78,53.85,40.24,109.52,40.24,219.17Z"/>
        </g>
      </g>
      <g class="cls-29">
        <path class="cls-19" d="M256.05,80.27c0,109.87-27.15,165.61-53.41,219.51-25.84,53.05-52.56,107.92-52.56,215.6h-4.05c0-109.87,27.15-165.61,53.41-219.51,25.84-53.05,52.56-107.92,52.56-215.6h4.05Z"/>
      </g>
      <g class="cls-29">
        <path class="cls-19" d="M208.14,80.27c0,109.47-15.88,165.09-31.23,218.87-15.18,53.17-30.87,108.15-30.87,216.24h-4.05c0-109.47,15.88-165.09,31.23-218.87,15.18-53.17,30.87-108.15,30.87-216.24h4.05Z"/>
      </g>
      <g class="cls-29">
        <path class="cls-19" d="M264.15,80.27c0,110.77-24.51,166.91-48.22,221.2-24.06,55.1-46.79,107.14-46.79,213.92h-8.09c0-110.77,24.51-166.91,48.22-221.2,24.06-55.1,46.79-107.14,46.79-213.92h8.09Z"/>
      </g>
      <g class="cls-29">
        <path class="cls-19" d="M216.23,80.27c0,110.02-14.18,165.9-27.88,219.94-13.42,52.91-27.3,107.63-27.3,215.18h-8.09c0-110.02,14.18-165.9,27.88-219.94,13.42-52.91,27.3-107.63,27.3-215.18h8.09Z"/>
      </g>
      <g class="cls-22">
        <g class="cls-29">
          <path class="cls-26" d="M182.8,515.39h-5.39c0-108.02-12.69-162.96-24.96-216.09-12.43-53.83-25.29-109.49-25.29-219.02h5.39c0,108.02,12.69,162.96,24.96,216.09,12.43,53.83,25.29,109.49,25.29,219.02Z"/>
        </g>
      </g>
      <g class="cls-22">
        <g class="cls-29">
          <path class="cls-26" d="M177.4,515.39h-5.39c0-107.48-22.18-159.8-45.66-215.18-22.9-54.01-46.58-109.86-46.58-219.94h5.39c0,107.48,22.18,159.8,45.66,215.18,22.9,54.01,46.58,109.86,46.58,219.94Z"/>
        </g>
      </g>
      <g class="cls-29">
        <path class="cls-19" d="M269.54,80.27c0,109.95-20.87,165.76-41.05,219.73-19.81,52.99-40.3,107.77-40.3,215.39h-5.39c0-109.95,20.87-165.76,41.05-219.73,19.81-52.99,40.3-107.77,40.3-215.39h5.39Z"/>
      </g>
      <g class="cls-22">
        <g class="cls-29">
          <path class="cls-26" d="M196.45,515.39h-5.39c0-107.91-14.77-162.8-29.05-215.89-14.49-53.87-29.48-109.58-29.48-219.23h5.39c0,107.91,14.77,162.8,29.05,215.89,14.49,53.87,29.48,109.58,29.48,219.23Z"/>
        </g>
      </g>
      <g class="cls-29">
        <path class="cls-19" d="M201.85,515.39h-5.39c0-108.21-9.5-163.23-18.69-216.43-9.28-53.75-18.88-109.33-18.88-218.68h5.39c0,108.21,9.5,163.23,18.69,216.43,9.28,53.75,18.88,109.33,18.88,218.68Z"/>
      </g>
      <g class="cls-29">
        <path class="cls-19" d="M274.93,80.27c0,109.77-17.35,165.53-34.12,219.44-16.5,53.04-33.57,107.89-33.57,215.67h-5.39c0-109.77,17.35-165.52,34.12-219.44,16.5-53.04,33.57-107.89,33.57-215.67h5.39Z"/>
      </g>
      <g class="cls-22">
        <g class="cls-29">
          <path class="cls-26" d="M220.9,515.39h-5.39c0-107.08-31.3-159.32-64.43-214.62-32.4-54.09-65.91-110.01-65.91-220.49h5.39c0,107.08,31.3,159.32,64.43,214.62,32.4,54.09,65.91,110.01,65.91,220.49Z"/>
        </g>
      </g>
      <g class="cls-29">
        <path class="cls-30" d="M215.51,515.39h-5.39c0-106.79-39.32-159.01-80.94-214.29-40.74-54.11-82.87-110.06-82.87-220.83h5.39c0,106.79,39.32,159.01,80.94,214.29,40.74,54.11,82.87,110.06,82.87,220.83Z"/>
      </g>
      <g class="cls-29">
        <path class="cls-19" d="M226.3,515.39h-5.39c0-108.71-1.19-163.97-2.33-217.41-1.15-53.52-2.34-108.85-2.34-217.7h5.39c0,108.71,1.19,163.97,2.33,217.41,1.15,53.52,2.34,108.85,2.34,217.7Z"/>
      </g>
      <g class="cls-22">
        <g class="cls-29">
          <path class="cls-26" d="M234.56,515.39h-5.39c0-106.77-40.09-158.98-82.53-214.27-41.54-54.11-84.49-110.06-84.49-220.85h5.39c0,106.77,40.09,158.98,82.53,214.27,41.54,54.11,84.49,110.06,84.49,220.85Z"/>
        </g>
      </g>
      <g class="cls-22">
        <g class="cls-29">
          <path class="cls-26" d="M239.96,515.39h-5.39c0-106.95-34.57-159.18-71.17-214.47-35.81-54.1-72.84-110.04-72.84-220.64h5.39c0,106.95,34.57,159.18,71.17,214.47,35.81,54.1,72.84,110.04,72.84,220.64Z"/>
        </g>
      </g>
      <g class="cls-29">
        <path class="cls-19" d="M280.33,80.27c0,109.31-8.93,164.88-17.57,218.61-8.56,53.23-17.41,108.26-17.41,216.51h-5.39c0-109.31,8.93-164.88,17.57-218.61,8.56-53.23,17.41-108.26,17.41-216.51h5.39Z"/>
      </g>
      <g class="cls-29">
        <path class="cls-19" d="M288.42,80.27c0,109.33-6.14,164.91-12.07,218.66-5.87,53.21-11.95,108.23-11.95,216.46h-8.09c0-109.33,6.14-164.91,12.07-218.66,5.87-53.21,11.95-108.23,11.95-216.46h8.09Z"/>
      </g>
      <g class="cls-29">
        <path class="cls-19" d="M256.31,515.39h-8.09c0-106.98-20.1-159.07-41.38-214.22-20.93-54.23-42.57-110.31-42.57-220.89h8.09c0,106.98,20.1,159.07,41.38,214.22,20.93,54.23,42.57,110.31,42.57,220.89Z"/>
      </g>
      <g class="cls-22">
        <g class="cls-29">
          <path class="cls-26" d="M74.37,80.27c0,109.5-16.81,165.14-33.08,218.94-16.07,53.16-32.68,108.12-32.68,216.18h-4.05c0-109.5,16.81-165.14,33.08-218.94,16.07-53.16,32.68-108.12,32.68-216.18h4.05Z"/>
        </g>
      </g>
      <g class="cls-29">
        <path class="cls-19" d="M184.67,80.27c0,110.29-43.07,166.08-84.72,220.03-42.81,55.45-83.24,107.82-83.24,215.08h-4.05c0-110.29,43.07-166.08,84.72-220.03,42.81-55.45,83.24-107.82,83.24-215.08h4.05Z"/>
      </g>
      <g class="cls-29">
        <path class="cls-19" d="M144.85,80.27c0,110.07-33.89,165.84-66.66,219.78-32.22,53.02-65.53,107.85-65.53,215.34h-4.05c0-110.07,33.89-165.84,66.66-219.78,32.22-53.02,65.53-107.85,65.53-215.34h4.05Z"/>
      </g>
      <g class="cls-22">
        <g class="cls-29">
          <path class="cls-26" d="M295.77,515.39h-4.05c0-107.12-47.13-159.49-97.02-214.94-48.55-53.95-98.74-109.74-98.74-220.18h4.05c0,107.12,47.13,159.49,97.02,214.94,48.55,53.95,98.74,109.73,98.74,220.18Z"/>
        </g>
      </g>
      <g class="cls-29">
        <path class="cls-30" d="M291.72,515.39h-5.39c0-48.12-13.19-88.13-41.5-125.91-25.23-33.67-59.62-61.21-92.88-87.84-33.53-26.85-68.21-54.61-93.92-88.93-29.21-38.98-34.09-82.21-34.09-132.34h6.83c0,48.12,2.43,88.04,30.74,125.82,25.23,33.67,59.62,61.21,92.88,87.84,33.53,26.85,68.21,54.62,93.92,88.93,29.21,38.98,43.41,82.3,43.41,132.44Z"/>
      </g>
      <g class="cls-29">
        <path class="cls-19" d="M306.56,515.39h-5.39c0-107.74-18.01-162.57-35.42-215.59-17.71-53.93-36.03-109.7-36.03-219.53h5.39c0,107.74,18.01,162.57,35.42,215.59,17.71,53.93,36.03,109.7,36.03,219.53Z"/>
      </g>
      <g class="cls-29">
        <path class="cls-19" d="M301.16,515.39h-5.39c0-107.15-29.64-159.39-61.01-214.71-30.67-54.08-62.39-110-62.39-220.41h5.39c0,107.15,29.64,159.39,61.01,214.71,30.67,54.08,62.39,110,62.39,220.41Z"/>
      </g>
      <g class="cls-29">
        <path class="cls-19" d="M296.51,80.27c0,109.08-3.33,164.54-6.55,218.16-3.2,53.33-6.51,108.48-6.51,216.95h-8.09c0-109.08,3.33-164.54,6.55-218.16,3.2-53.33,6.51-108.48,6.51-216.95h8.09Z"/>
      </g>
      <g class="cls-29">
        <path class="cls-19" d="M275.36,515.39h-8.09c0-107.74-11.5-162.55-22.62-215.54-11.32-53.96-23.03-109.76-23.03-219.57h8.09c0,107.75,11.5,162.55,22.62,215.54,11.32,53.96,23.03,109.76,23.03,219.57Z"/>
      </g>
      <g class="cls-8">
        <text class="cls-6" transform="translate(16.63 69.19)"><tspan x="0" y="0">开</tspan><tspan x="0" y="-14.97">耕</tspan></text>
      </g>
      <g class="cls-8">
        <text class="cls-5" transform="translate(4.06 539.7)"><tspan x="0" y="0">旭</tspan><tspan x="0" y="14.3">独</tspan><tspan x="0" y="28.6">龙</tspan><tspan x="0" y="42.9">节</tspan></text>
      </g>
      <g class="cls-8">
        <text class="cls-6" transform="translate(53 69.06)"><tspan x="0" y="0">祭</tspan><tspan x="0" y="-14.97">神</tspan></text>
      </g>
      <g class="cls-8">
        <text class="cls-5" transform="translate(23.14 539.7)"><tspan x="0" y="0">卯</tspan><tspan x="0" y="14.3">坡</tspan><tspan x="0" y="28.6">节</tspan></text>
      </g>
      <g class="cls-8">
        <text class="cls-5" transform="translate(42.21 539.7)"><tspan x="0" y="0">库</tspan><tspan x="0" y="14.3">史</tspan></text>
      </g>
      <g class="cls-8">
        <text class="cls-5" transform="translate(61.29 539.7)"><tspan x="0" y="0">苗</tspan><tspan x="0" y="14.3">年</tspan></text>
      </g>
      <g class="cls-8">
        <text class="cls-5" transform="translate(80.36 539.7)"><tspan x="0" y="0">藏</tspan><tspan x="0" y="14.3">历</tspan><tspan x="0" y="28.6">新</tspan><tspan x="0" y="42.9">年</tspan></text>
      </g>
      <g class="cls-8">
        <text class="cls-5" transform="translate(99.44 539.7)"><tspan x="0" y="0">端</tspan><tspan x="0" y="14.3">节</tspan></text>
      </g>
      <g class="cls-8">
        <text class="cls-5" transform="translate(118.51 539.7)"><tspan x="0" y="0">活</tspan><tspan x="0" y="14.3">路</tspan><tspan x="0" y="28.6">节</tspan></text>
      </g>
      <g class="cls-8">
        <text class="cls-5" transform="translate(137.59 539.7)"><tspan x="0" y="0">丰</tspan><tspan x="0" y="14.3">年</tspan><tspan x="0" y="28.6">祭</tspan></text>
      </g>
      <g class="cls-8">
        <text class="cls-5" transform="translate(156.66 539.7)"><tspan x="0" y="0">扩</tspan><tspan x="0" y="14.3">尼</tspan><tspan x="0" y="28.6">哈</tspan><tspan x="0" y="42.9">尼</tspan></text>
      </g>
      <g class="cls-8">
        <text class="cls-5" transform="translate(175.74 539.7)"><tspan x="0" y="0">库</tspan><tspan x="0" y="14.3">市</tspan></text>
      </g>
      <g class="cls-8">
        <text class="cls-5" transform="translate(194.81 539.7)"><tspan x="0" y="0">仫</tspan><tspan x="0" y="14.3">佬</tspan><tspan x="0" y="28.6">年</tspan></text>
      </g>
      <g class="cls-8">
        <text class="cls-5" transform="translate(213.89 539.7)"><tspan x="0" y="0">羌</tspan><tspan x="0" y="14.3">历</tspan><tspan x="0" y="28.6">年</tspan></text>
      </g>
      <g class="cls-8">
        <text class="cls-5" transform="translate(232.96 539.7)"><tspan x="0" y="0">卡</tspan><tspan x="0" y="14.3">尔</tspan><tspan x="0" y="28.6">江</tspan><tspan x="0" y="42.9">哇</tspan></text>
      </g>
      <g class="cls-8">
        <text class="cls-5" transform="translate(252.04 539.7)"><tspan x="0" y="0">过</tspan><tspan x="0" y="14.3">赶</tspan><tspan x="0" y="28.6">年</tspan></text>
      </g>
      <g class="cls-8">
        <text class="cls-9" transform="translate(290.19 539.7)"><tspan x="0" y="0">门</tspan><tspan x="0" y="11.12">巴</tspan><tspan x="0" y="22.25">族</tspan><tspan x="0" y="33.37">年</tspan><tspan x="0" y="44.49">节</tspan></text>
      </g>
      <g class="cls-8">
        <text class="cls-6" transform="translate(34.3 69.13)"><tspan x="0" y="0">丰</tspan><tspan x="0" y="-14.97">收</tspan></text>
      </g>
      <g class="cls-8">
        <text class="cls-5" transform="translate(271.11 539.7)"><tspan x="0" y="0">纳</tspan><tspan x="0" y="14.3">顿</tspan></text>
      </g>
      <g class="cls-8">
        <text class="cls-6" transform="translate(76.91 67.99)"><tspan x="0" y="0">祈</tspan><tspan x="0" y="-14.97">福</tspan></text>
      </g>
      <g class="cls-8">
        <text class="cls-6" transform="translate(111.2 69.26)"><tspan x="0" y="0">祭</tspan><tspan x="0" y="-14.97">祖</tspan></text>
      </g>
      <g class="cls-8">
        <text class="cls-6" transform="translate(149.66 68.77)"><tspan x="0" y="0">竞</tspan><tspan x="0" y="-14.97">赛</tspan></text>
      </g>
      <g class="cls-8">
        <text class="cls-6" transform="translate(199.51 68.78)"><tspan x="0" y="0">歌</tspan><tspan x="0" y="-14.97">舞</tspan></text>
      </g>
      <g class="cls-8">
        <text class="cls-6" transform="translate(260.79 69.15)"><tspan x="0" y="0">宴</tspan><tspan x="0" y="-14.97">请</tspan></text>
      </g>
      <g class="cls-8">
        <text class="cls-2" transform="translate(290 602.66)"><tspan x="0" y="0">农</tspan><tspan x="0" y="11.43">事</tspan><tspan x="0" y="22.86">娱</tspan><tspan x="0" y="34.3">乐</tspan><tspan x="0" y="45.73">习</tspan><tspan x="0" y="57.16">俗</tspan></text>
      </g>
      <g class="cls-8">
        <text class="cls-2" transform="translate(252.6 602.66)"><tspan x="0" y="0">祈</tspan><tspan x="0" y="11.43">福</tspan><tspan x="0" y="22.86">祭</tspan><tspan x="0" y="34.3">祀</tspan><tspan x="0" y="45.73">习</tspan><tspan x="0" y="57.16">俗</tspan></text>
      </g>
      <g class="cls-8">
        <text class="cls-2" transform="translate(219.35 602.66)"><tspan x="0" y="0">生</tspan><tspan x="0" y="11.43">产</tspan><tspan x="0" y="22.86">过</tspan><tspan x="0" y="34.3">程</tspan><tspan x="0" y="45.73">习</tspan><tspan x="0" y="57.16">俗</tspan></text>
      </g>
      <rect class="cls-1" x="1.26" y="143.57" width="306.65" height="308.12"/>
    </g>
    <text class="cls-18" transform="translate(0 15.47)"><tspan x="0" y="0">具体节日习俗</tspan></text>
  </g>
</svg>