<?xml version="1.0" encoding="UTF-8"?>
<svg id="_图层_2" data-name="图层 2" xmlns="http://www.w3.org/2000/svg" xmlns:xlink="http://www.w3.org/1999/xlink" viewBox="0 0 308.93 1003.17">
  <defs>
    <style>
      .cls-1, .cls-2, .cls-3, .cls-4, .cls-5, .cls-6, .cls-7, .cls-8 {
        fill: #040000;
      }

      .cls-1, .cls-2, .cls-3, .cls-4, .cls-5, .cls-7, .cls-9 {
        isolation: isolate;
      }

      .cls-1, .cls-2, .cls-7 {
        font-family: FZVariableLanTHK-Normal, 'FZVariableLanTHK Normal';
        font-variation-settings: ';
      }

      .cls-1, .cls-3, .cls-7 {
        font-size: 11.43px;
      }

      .cls-2 {
        font-size: 9.74px;
        letter-spacing: 0em;
      }

      .cls-10 {
        stroke: #e0b153;
      }

      .cls-10, .cls-11, .cls-12, .cls-13, .cls-14, .cls-15, .cls-16, .cls-17 {
        fill: none;
        stroke-miterlimit: 10;
      }

      .cls-10, .cls-11, .cls-14, .cls-16 {
        stroke-width: 2px;
      }

      .cls-11 {
        stroke: #06653e;
      }

      .cls-3 {
        font-family: FZVariableLanTHK-Regular, 'FZVariableLanTHK Regular';
        font-variation-settings: ';
      }

      .cls-18 {
        fill: url(#_未命名的渐变_2);
      }

      .cls-18, .cls-19 {
        opacity: .15;
      }

      .cls-20 {
        opacity: .3;
      }

      .cls-4 {
        font-size: 15.89px;
        letter-spacing: -.1em;
      }

      .cls-4, .cls-5, .cls-6, .cls-8 {
        font-family: HanyiSentySuciTablet, HanyiSentySuciTablet;
      }

      .cls-21 {
        fill: #231815;
        font-family: FZVariableLanTHK-Light, 'FZVariableLanTHK Light';
        font-size: 18px;
        font-variation-settings: ';
        font-weight: 300;
      }

      .cls-5 {
        font-size: 16.63px;
        letter-spacing: -.1em;
      }

      .cls-6 {
        letter-spacing: -.3em;
      }

      .cls-6, .cls-8 {
        font-size: 15.14px;
      }

      .cls-7 {
        letter-spacing: -.1em;
      }

      .cls-22 {
        fill: #e6a275;
      }

      .cls-23 {
        fill: #c56d64;
      }

      .cls-12 {
        stroke-dasharray: 2.05 1.03;
      }

      .cls-12, .cls-15, .cls-17 {
        stroke: #c56d64;
        stroke-width: .75px;
      }

      .cls-24 {
        letter-spacing: -1.17em;
      }

      .cls-13 {
        stroke: #0d2712;
        stroke-width: 1.5px;
      }

      .cls-25 {
        opacity: .65;
      }

      .cls-26, .cls-27 {
        opacity: .5;
      }

      .cls-26, .cls-28 {
        fill: #9eb88c;
      }

      .cls-14 {
        stroke: #378d39;
      }

      .cls-29 {
        fill: #be6a62;
      }

      .cls-30 {
        fill: #5f8443;
      }

      .cls-31 {
        letter-spacing: -.35em;
      }

      .cls-16 {
        stroke: #b7947a;
      }

      .cls-17 {
        stroke-dasharray: 12.3 1.03 2.05 1.03;
      }
    </style>
    <linearGradient id="_未命名的渐变_2" data-name="未命名的渐变 2" x1="4901.73" y1="2382.94" x2="4901.73" y2="2074.82" gradientTransform="translate(-4751.97 -1951.25)" gradientUnits="userSpaceOnUse">
      <stop offset="0" stop-color="#fff" stop-opacity="0"/>
      <stop offset=".51" stop-color="#f4f1ef"/>
      <stop offset="1" stop-color="#fff" stop-opacity="0"/>
    </linearGradient>
  </defs>
  <g id="_图层_1-2" data-name="图层 1">
    <g>
      <text class="cls-21" transform="translate(1.24 666.21)"><tspan x="0" y="0">节日日期分布</tspan></text>
      <g>
        <g class="cls-19">
          <path class="cls-22" d="M47.91,920.61c10.87,18.75,26.51,34.4,45.27,45.27l61.84-107.11-107.11,61.84Z"/>
        </g>
        <g>
          <g>
            <line class="cls-15" x1="95.17" y1="739.8" x2="98.17" y2="744.99"/>
            <line class="cls-12" x1="98.69" y1="745.88" x2="99.97" y2="748.1"/>
            <line class="cls-17" x1="100.22" y1="748.54" x2="222.98" y2="961.17"/>
            <line class="cls-15" x1="223.24" y1="961.62" x2="226.24" y2="966.81"/>
          </g>
          <g>
            <line class="cls-15" x1="274.21" y1="787.77" x2="269.02" y2="790.77"/>
            <line class="cls-12" x1="268.13" y1="791.28" x2="265.91" y2="792.57"/>
            <line class="cls-17" x1="265.47" y1="792.82" x2="52.84" y2="915.58"/>
            <line class="cls-15" x1="52.4" y1="915.84" x2="47.2" y2="918.84"/>
          </g>
          <g>
            <line class="cls-15" x1="47.2" y1="787.77" x2="52.4" y2="790.77"/>
            <line class="cls-12" x1="53.28" y1="791.28" x2="55.5" y2="792.57"/>
            <line class="cls-17" x1="55.95" y1="792.82" x2="268.57" y2="915.58"/>
            <line class="cls-15" x1="269.02" y1="915.84" x2="274.21" y2="918.84"/>
          </g>
          <g>
            <line class="cls-15" x1="226.24" y1="739.8" x2="223.24" y2="744.99"/>
            <line class="cls-12" x1="222.73" y1="745.88" x2="221.44" y2="748.1"/>
            <line class="cls-17" x1="221.19" y1="748.54" x2="98.43" y2="961.17"/>
            <line class="cls-15" x1="98.17" y1="961.62" x2="95.17" y2="966.81"/>
          </g>
          <line class="cls-13" x1="160.71" y1="722.24" x2="160.71" y2="984.37"/>
          <line class="cls-13" x1="291.77" y1="853.3" x2="29.64" y2="853.3"/>
          <path class="cls-14" d="M164.7,717.81c71.18,2.89,128.33,60.21,130.96,131.45"/>
          <path class="cls-11" d="M164.7,989.1c71.18-2.89,128.33-60.21,130.96-131.45"/>
          <path class="cls-16" d="M156.71,717.81c-71.18,2.89-128.33,60.21-130.96,131.45"/>
          <path class="cls-10" d="M156.71,989.1c-71.18-2.89-128.33-60.21-130.96-131.45"/>
          <g class="cls-9">
            <text class="cls-3" transform="translate(163.86 713.93)"><tspan x="0" y="0">春</tspan></text>
          </g>
          <g class="cls-9">
            <text class="cls-3" transform="translate(163.86 1001.56)"><tspan x="0" y="0">夏</tspan></text>
          </g>
          <g class="cls-9">
            <text class="cls-3" transform="translate(144.38 713.93)"><tspan x="0" y="0">冬</tspan></text>
          </g>
          <g class="cls-9">
            <text class="cls-3" transform="translate(144.38 1001.56)"><tspan x="0" y="0">秋</tspan></text>
          </g>
          <g class="cls-9">
            <text class="cls-2" transform="translate(218.97 717.78)"><tspan x="0" y="0">一</tspan><tspan x="0" y="9.73">月</tspan></text>
          </g>
          <g class="cls-9">
            <text class="cls-2" transform="translate(272.95 763.8)"><tspan x="0" y="0">二</tspan><tspan x="0" y="9.73">月</tspan></text>
          </g>
          <g class="cls-9">
            <text class="cls-1" transform="translate(297.49 839.6)"><tspan x="0" y="0">三</tspan><tspan x="0" y="11.43">月</tspan></text>
          </g>
          <g class="cls-9">
            <text class="cls-1" transform="translate(218.73 988.28)"><tspan x="0" y="0">六</tspan><tspan x="0" y="11.43">月</tspan></text>
          </g>
          <g class="cls-9">
            <text class="cls-1" transform="translate(272.71 942.26)"><tspan x="0" y="0">五</tspan><tspan x="0" y="11.43">月</tspan></text>
          </g>
          <g class="cls-9">
            <text class="cls-1" transform="translate(297.49 867.92)"><tspan x="0" y="0">四</tspan><tspan x="0" y="11.43">月</tspan></text>
          </g>
          <g class="cls-9">
            <text class="cls-7" transform="translate(89.24 707.24)"><tspan x="0" y="0">十</tspan><tspan x="0" y="10.29">二</tspan><tspan x="0" y="20.58">月</tspan></text>
          </g>
          <g class="cls-9">
            <text class="cls-7" transform="translate(37.49 754.53)"><tspan x="0" y="0">十</tspan><tspan x="0" y="10.29">一</tspan><tspan x="0" y="20.58">月</tspan></text>
          </g>
          <g class="cls-9">
            <text class="cls-1" transform="translate(13.4 839.6)"><tspan x="0" y="0">十</tspan><tspan x="0" y="11.43">月</tspan></text>
          </g>
          <g class="cls-9">
            <text class="cls-1" transform="translate(92.2 988.28)"><tspan x="0" y="0">七</tspan><tspan x="0" y="11.43">月</tspan></text>
          </g>
          <g class="cls-9">
            <text class="cls-1" transform="translate(38.06 942.26)"><tspan x="0" y="0">八</tspan><tspan x="0" y="11.43">月</tspan></text>
          </g>
          <g class="cls-9">
            <text class="cls-1" transform="translate(13.55 867.92)"><tspan x="0" y="0">九</tspan><tspan x="0" y="11.43">月</tspan></text>
          </g>
        </g>
        <g class="cls-20">
          <path class="cls-22" d="M290.71,851.06c-.04-21.68-5.76-43.05-16.57-61.84l-107.11,61.84h123.68Z"/>
        </g>
        <g class="cls-19">
          <path class="cls-22" d="M273.96,916.89c10.81-18.79,16.54-40.16,16.57-61.84h-123.68s107.11,61.84,107.11,61.84Z"/>
        </g>
        <g>
          <g class="cls-25">
            <path class="cls-22" d="M272.77,786.51c-10.87-18.75-26.51-34.4-45.27-45.27l-61.84,107.11,107.11-61.84Z"/>
          </g>
          <path class="cls-22" d="M229.53,745.12c-.04,1.57-.35,3.21-.9,4.86,1.29-1.16,2.66-2.1,4.09-2.77-2.61,3.99-.78,1.31-2.31,3.58-2.65,3.94-2.79,3.5-5.46,4.8.13-2.97-.33-2.92,2.22-6.93,1.47-2.31-.25.44,2.36-3.55Z"/>
          <path class="cls-22" d="M236.09,749.91c-.26,1.55-.8,3.13-1.57,4.68,1.44-.97,2.93-1.71,4.44-2.17-3.14,3.59-.95,1.19-2.79,3.23-3.18,3.53-3.25,3.08-6.08,4,.54-2.92.08-2.94,3.16-6.55,1.78-2.08-.31.4,2.83-3.19Z"/>
          <path class="cls-22" d="M241.72,755.06c-.31,1.54-.9,3.1-1.73,4.62,1.47-.92,2.99-1.61,4.51-2.01-3.27,3.48-1,1.15-2.9,3.13-3.3,3.42-3.36,2.96-6.21,3.78.64-2.9.18-2.93,3.39-6.43,1.85-2.02-.33.39,2.94-3.08Z"/>
          <path class="cls-22" d="M246.66,759.36c-.33,1.54-.94,3.09-1.79,4.6,1.48-.9,3.01-1.57,4.53-1.96-3.31,3.44-1.01,1.14-2.93,3.09-3.34,3.38-3.39,2.92-6.26,3.7.68-2.89.21-2.93,3.47-6.39,1.88-2-.33.39,2.98-3.05Z"/>
          <path class="cls-22" d="M251.95,764.35c-.4,1.52-1.09,3.04-2,4.51,1.52-.83,3.08-1.43,4.62-1.74-3.47,3.28-1.06,1.09-3.08,2.95-3.49,3.22-3.53,2.76-6.43,3.41.81-2.86.35-2.92,3.76-6.22,1.97-1.91-.35.37,3.12-2.9Z"/>
        </g>
        <path class="cls-22" d="M274.88,796.57c-1.57-.09-3.23.08-4.91.49,1.26-1.19,2.32-2.48,3.1-3.84-4.2,2.27-1.37.67-3.76,2-4.15,2.31-3.72,2.49-5.25,5.04,2.97.12,2.88.58,7.09-1.63,2.43-1.27-.46.21,3.73-2.05Z"/>
        <path class="cls-22" d="M285.65,860.48c-1.34-.83-2.88-1.46-4.56-1.91,1.68-.44,3.22-1.08,4.56-1.91-4.77,0-1.52-.07-4.26-.03-4.75.06-4.46.42-7.01,1.94,2.55,1.52,2.26,1.88,7.01,1.94,2.74.03-.51-.03,4.26-.03Z"/>
        <path class="cls-22" d="M276.97,801.84c-1.57-.12-3.23.04-4.92.42,1.28-1.17,2.35-2.45,3.15-3.8-4.23,2.21-1.38.65-3.79,1.95-4.18,2.25-3.76,2.43-5.32,4.96,2.97.16,2.87.62,7.11-1.53,2.44-1.24-.46.21,3.76-2Z"/>
        <path class="cls-22" d="M88.53,958.81c1.44-.63,2.84-1.55,4.15-2.68-.58,1.63-.93,3.26-1.01,4.83,2.7-3.93.92-1.22,2.44-3.5,2.64-3.95,2.18-3.91,2.37-6.88-2.7,1.25-2.83.8-5.56,4.68-1.58,2.24.31-.4-2.39,3.53Z"/>
        <g class="cls-19">
          <path class="cls-22" d="M225.28,738.71c-18.79-10.81-40.16-16.54-61.84-16.57v123.68s61.84-107.11,61.84-107.11Z"/>
        </g>
        <path class="cls-22" d="M168.86,727.02c-.83,1.34-1.46,2.88-1.91,4.56-.44-1.68-1.08-3.22-1.91-4.56,0,4.77-.07,1.52-.03,4.26.06,4.75.42,4.46,1.94,7.01,1.52-2.55,1.88-2.26,1.94-7.01.03-2.74-.03.51-.03-4.26Z"/>
      </g>
    </g>
    <text class="cls-21" transform="translate(0 15.47)"><tspan x="0" y="0">具体节日习俗</tspan></text>
    <g>
      <rect class="cls-30" x="199.69" y="602.8" width="5.77" height="41.88"/>
      <rect class="cls-23" x="233.99" y="602.8" width="5.77" height="41.88"/>
      <rect class="cls-22" x="268.28" y="602.8" width="5.77" height="41.88"/>
      <g class="cls-9">
        <text class="cls-1" transform="translate(277.65 611.66)"><tspan x="0" y="0">农</tspan><tspan x="0" y="11.43">事</tspan><tspan x="0" y="22.86">娱</tspan><tspan x="0" y="34.3">乐</tspan><tspan x="0" y="45.73">习</tspan><tspan x="0" y="57.16">俗</tspan></text>
      </g>
      <g class="cls-9">
        <text class="cls-1" transform="translate(240.26 611.66)"><tspan x="0" y="0">祈</tspan><tspan x="0" y="11.43">福</tspan><tspan x="0" y="22.86">祭</tspan><tspan x="0" y="34.3">祀</tspan><tspan x="0" y="45.73">习</tspan><tspan x="0" y="57.16">俗</tspan></text>
      </g>
      <g class="cls-9">
        <text class="cls-1" transform="translate(207.01 611.66)"><tspan x="0" y="0">生</tspan><tspan x="0" y="11.43">产</tspan><tspan x="0" y="22.86">过</tspan><tspan x="0" y="34.3">程</tspan><tspan x="0" y="45.73">习</tspan><tspan x="0" y="57.16">俗</tspan></text>
      </g>
      <g>
        <rect class="cls-22" x="6.12" y="59.67" width="13.13" height="4.96"/>
        <rect class="cls-30" x="54.6" y="59.67" width="13.13" height="4.96"/>
        <rect class="cls-30" x="120.31" y="59.67" width="13.21" height="4.96"/>
        <rect class="cls-29" x="136.01" y="59.67" width="13.21" height="4.96"/>
        <rect class="cls-22" x="3.67" y="504.56" width="26.26" height="4.11"/>
        <rect class="cls-22" x="32.38" y="504.56" width="26.26" height="4.11"/>
        <rect class="cls-22" x="61.1" y="504.56" width="26.26" height="4.11"/>
        <rect class="cls-22" x="89.82" y="504.56" width="26.26" height="4.11"/>
        <rect class="cls-22" x="118.54" y="504.56" width="26.26" height="4.11"/>
        <rect class="cls-22" x="147.25" y="504.56" width="26.26" height="4.11"/>
        <rect class="cls-22" x="175.97" y="504.56" width="26.26" height="4.11"/>
        <rect class="cls-22" x="204.69" y="504.56" width="26.26" height="4.11"/>
        <rect class="cls-22" x="233.4" y="504.56" width="26.26" height="4.11"/>
        <rect class="cls-22" x="262.12" y="504.56" width="26.26" height="4.11"/>
        <rect class="cls-22" x="22.4" y="59.68" width="29.42" height="4.96"/>
        <rect class="cls-29" x="153.2" y="59.67" width="53.41" height="4.96"/>
        <rect class="cls-30" x="71.47" y="59.68" width="46.3" height="4.96"/>
        <rect class="cls-29" x="211.52" y="59.67" width="74.41" height="4.96"/>
        <g class="cls-27">
          <path class="cls-28" d="M45.52,504.56h-13.13c0-110.42,5.66-166.56,11.14-220.85,5.43-53.86,11.06-109.54,11.06-219.09h13.13c0,110.42-5.66,166.56-11.14,220.85-5.43,53.86-11.06,109.54-11.06,219.09Z"/>
        </g>
        <path class="cls-26" d="M84.9,64.63h0s-13.13,0-13.13,0c0,108.66-16.35,161.49-33.66,217.41C21.17,336.72,3.67,393.26,3.67,504.56h13.13c0-108.66,16.35-161.49,33.66-217.41,12.59-40.67,25.5-82.37,31.29-146.86-3.21,62.51-10.24,103.17-17.09,142.82-9.41,54.43-19.14,110.72-19.14,221.45h13.13c0-109.23,9.6-164.77,18.89-218.48,9.41-54.43,19.14-110.72,19.14-221.45h-11.78Z"/>
        <g class="cls-27">
          <path class="cls-29" d="M87.36,504.56h-13.13c0-112.44,35.53-169.36,69.88-224.41,34.66-55.54,67.4-107.99,67.4-215.52h13.13c0,112.44-35.53,169.36-69.88,224.41-34.66,55.54-67.4,107.99-67.4,215.52Z"/>
        </g>
        <g class="cls-27">
          <path class="cls-22" d="M74.23,504.56h-13.13c0-108.91-13.88-164.29-27.3-217.85C20.13,232.13,5.99,175.69,5.99,64.63h13.13c0,108.91,13.88,164.29,27.3,217.85,13.68,54.58,27.82,111.02,27.82,222.08Z"/>
        </g>
        <g class="cls-27">
          <path class="cls-29" d="M116.08,504.56h-8.75c0-111.42,30.15-167.95,59.31-222.62,29.83-55.93,58.01-108.76,58.01-217.31h8.75c0,111.42-30.15,167.95-59.31,222.62-29.83,55.93-58.01,108.76-58.01,217.31Z"/>
        </g>
        <g class="cls-27">
          <path class="cls-22" d="M98.57,504.56h-8.75c0-109.11-17.01-164.61-33.45-218.27-16.69-54.47-33.96-110.8-33.96-221.66l8.63.04c0,109.11,17.13,164.56,33.58,218.23,16.69,54.47,33.96,110.8,33.96,221.66Z"/>
        </g>
        <g class="cls-27">
          <path class="cls-22" d="M131.67,504.56h-13.13c0-108.32-20.96-161.01-43.16-216.79-21.81-54.81-44.36-111.49-44.36-223.14l12.41.04c0,108.32,21.69,160.97,43.88,216.75,21.81,54.81,44.36,111.49,44.36,223.14Z"/>
        </g>
        <g class="cls-27">
          <path class="cls-28" d="M164.76,504.56h-8.75c0-109.21-15.02-164.75-29.54-218.46-14.72-54.43-29.94-110.72-29.94-221.48h8.75c0,109.21,15.02,164.75,29.54,218.46,14.72,54.43,29.94,110.72,29.94,221.48Z"/>
        </g>
        <g class="cls-27">
          <path class="cls-22" d="M156.01,504.56h-8.75c0-108.69-25.05-161.56-51.57-217.53-25.88-54.63-52.25-111.12-52.25-222.4h8.35c0,108.69,25.05,161.56,51.57,217.53,25.88,54.63,52.65,111.12,52.65,222.4Z"/>
        </g>
        <g class="cls-27">
          <path class="cls-28" d="M189.1,504.57h-13.13c0-108.62-17-161.42-35-217.32-17.61-54.7-35.82-111.26-35.82-222.61h13.13c0,108.62,17,161.42,35,217.32,17.61,54.7,35.82,111.26,35.82,222.61Z"/>
        </g>
        <g class="cls-27">
          <path class="cls-29" d="M202.23,504.56h-13.13c0-109.22-9.79-164.75-19.26-218.45-9.6-54.44-33.83-110.69-33.83-221.44h13.13c0,109.22,24.09,164.7,33.56,218.41,9.6,54.44,19.53,110.73,19.53,221.48Z"/>
        </g>
        <g class="cls-27">
          <path class="cls-29" d="M171.89,64.67c3.62,108.78-3.42,164.07-16.68,217.58-13.54,54.63-23.84,111.42-23.84,222.31h13.13c0-108.89,10.09-164.11,23.35-217.62.5-2.02.99-4.05,1.47-6.07-.07,1.07-.14,2.13-.2,3.2-3.16,54.2-4.66,114.72-4.66,220.61h8.75c0-104.89,1.5-165.6,4.65-219.54,3.16-54.2,13.31-99.42,13.31-220.46h-19.28Z"/>
          <path class="cls-29" d="M139.15,286.55c17.88-54.53,36.37-110.92,32.68-221.92l-6.4.04s0,.09,0,.14c0-.06,0-.12,0-.18h-12.39c0,104.04-31.26,159.78-67.06,215.28-35.53,55.09-69.24,110.76-69.24,224.65h13.34c0-106.89,30.74-159.78,66.54-215.28,34.88-54.08,67.58-108.58,68.77-218.44-.77,85.4-17.28,159.45-34.45,211.8-17.88,54.53-32.68,111.03-32.68,221.92h8.75c0-108.89,14.55-164.4,32.13-218.01Z"/>
          <path class="cls-29" d="M213.82,284.57c-12.17-58.89-7.41-111.49-7.41-219.89h-15.25c0,111.56-1.91,168,10.62,225.95,12.65,58.52,16.04,105.53,16.04,213.94h13.13c0-111.56-5.23-162.44-17.13-219.99Z"/>
        </g>
        <g class="cls-27">
          <path class="cls-28" d="M217.82,504.56h-13.13c0-108.34-20.67-161.04-42.56-216.83-21.5-54.81-41.82-111.44-41.82-223.06h13.13c0,108.34,18.77,161,40.65,216.79,21.5,54.81,43.73,111.48,43.73,223.1Z"/>
        </g>
        <g class="cls-27">
          <rect class="cls-29" x="233.4" y="64.63" width="26.26" height="439.93"/>
        </g>
        <g class="cls-27">
          <path class="cls-29" d="M288.38,504.56h-26.26c0-109.88-.62-165.75-1.23-219.77-.6-54.12-1.23-110.08-1.23-220.16h26.26c0,109.88.62,165.75,1.23,219.77.6,54.12,1.23,110.08,1.23,220.16Z"/>
        </g>
        <text class="cls-5" transform="translate(53.82 42.06)"><tspan x="0" y="0">驱</tspan><tspan x="0" y="14.97">虫</tspan></text>
        <text class="cls-5" transform="translate(5.95 41.98)"><tspan x="0" y="0">宴</tspan><tspan x="0" y="14.97">请</tspan></text>
        <text class="cls-5" transform="translate(136.56 42.06)"><tspan x="0" y="0">祭</tspan><tspan x="0" y="14.97">祖</tspan></text>
        <text class="cls-5" transform="translate(117.77 42.01)"><tspan x="0" y="0">丰</tspan><tspan x="0" y="14.97">收</tspan></text>
        <text class="cls-4" transform="translate(1.69 525.25)"><tspan x="0" y="0">龙</tspan><tspan x="0" y="14.3">抬</tspan><tspan x="0" y="28.6">头</tspan></text>
        <text class="cls-4" transform="translate(32.9 525.25)"><tspan x="0" y="0">龙</tspan><tspan x="0" y="14.3">抬</tspan><tspan x="0" y="28.6">头</tspan></text>
        <text class="cls-4" transform="translate(65.09 525.25)"><tspan x="0" y="0">壮</tspan><tspan x="0" y="14.3">族</tspan><tspan x="0" y="28.6">祭</tspan><tspan x="0" y="42.9">龙</tspan><tspan x="0" y="57.2">节</tspan></text>
        <text class="cls-4" transform="translate(94.37 525.25)"><tspan x="0" y="0">纳</tspan><tspan x="0" y="14.3">西</tspan><tspan x="0" y="28.6">祭</tspan><tspan x="0" y="42.9">龙</tspan><tspan x="0" y="57.2">节</tspan></text>
        <text class="cls-4" transform="translate(124.56 525.25)"><tspan x="0" y="0">龙</tspan><tspan x="0" y="14.3">王</tspan><tspan x="0" y="28.6">潭</tspan><tspan x="0" y="42.9">祭</tspan><tspan x="0" y="57.2">龙</tspan><tspan x="0" y="71.5">节</tspan></text>
        <text class="cls-4" transform="translate(153.71 525.25)"><tspan x="0" y="0">哈</tspan><tspan x="0" y="14.3">尼</tspan><tspan x="0" y="28.6">族</tspan><tspan x="0" y="42.9">祭</tspan><tspan x="0" y="57.2">龙</tspan><tspan x="0" y="71.5">节</tspan></text>
        <text class="cls-4" transform="translate(181.96 525.25)"><tspan x="0" y="0">花</tspan><tspan x="0" y="14.3">腰</tspan><tspan x="0" y="28.6">彝</tspan><tspan x="0" y="42.9">祭</tspan><tspan x="0" y="57.2">龙</tspan><tspan x="0" y="71.5">节</tspan></text>
        <text class="cls-4" transform="translate(210.13 525.25)"><tspan x="0" y="0">彝</tspan><tspan x="0" y="14.3">族</tspan><tspan x="0" y="28.6">赔</tspan><tspan x="0" y="42.9">龙</tspan><tspan x="0" y="57.2">节</tspan></text>
        <text class="cls-4" transform="translate(242.33 525.25)"><tspan x="0" y="0">水</tspan><tspan x="0" y="14.3">族</tspan><tspan x="0" y="28.6">祭</tspan><tspan x="0" y="42.9">白</tspan><tspan x="0" y="57.2">龙</tspan></text>
        <text class="cls-4" transform="translate(269.54 525.25)"><tspan x="0" y="0">水</tspan><tspan x="0" y="14.3">族</tspan><tspan x="0" y="28.6">祭</tspan><tspan x="0" y="42.9">龙</tspan><tspan x="0" y="57.2">节</tspan></text>
        <text class="cls-5" transform="translate(29.11 41.96)"><tspan x="0" y="0">歌</tspan><tspan x="0" y="14.97">舞</tspan></text>
        <text class="cls-5" transform="translate(88.35 41.99)"><tspan x="0" y="0">开</tspan><tspan x="0" y="14.97">耕</tspan></text>
        <text class="cls-5" transform="translate(171.92 42.05)"><tspan x="0" y="0">祈</tspan><tspan x="0" y="14.97">福</tspan></text>
        <text class="cls-5" transform="translate(252.81 42.01)"><tspan x="0" y="0">祭</tspan><tspan x="0" y="14.97">神</tspan></text>
        <g>
          <text class="cls-6" transform="translate(15.64 508.08) rotate(90) scale(1.05 1)"><tspan x="0" y="0">（</tspan></text>
          <text class="cls-8" transform="translate(13.14 532.21) scale(1.05 1)"><tspan class="cls-31" x="0" y="0">南</tspan><tspan class="cls-31" x="0" y="10.38">方</tspan><tspan class="cls-31" x="0" y="20.76">各</tspan><tspan class="cls-24" x="0" y="31.13">地</tspan></text>
          <text class="cls-6" transform="translate(15.64 560.71) rotate(90) scale(1.05 1)"><tspan x="0" y="0">）</tspan></text>
        </g>
        <g>
          <text class="cls-6" transform="translate(46.14 508.08) rotate(90) scale(1.05 1)"><tspan x="0" y="0">（</tspan></text>
          <text class="cls-8" transform="translate(43.64 532.21) scale(1.05 1)"><tspan class="cls-31" x="0" y="0">北</tspan><tspan class="cls-31" x="0" y="10.38">方</tspan><tspan class="cls-31" x="0" y="20.76">各</tspan><tspan class="cls-24" x="0" y="31.13">地</tspan></text>
          <text class="cls-6" transform="translate(46.14 560.71) rotate(90) scale(1.05 1)"><tspan x="0" y="0">）</tspan></text>
        </g>
      </g>
      <rect class="cls-18" x="3.96" y="123.57" width="291.61" height="308.12"/>
    </g>
  </g>
</svg>