<?xml version="1.0" encoding="UTF-8"?>
<svg id="_图层_2" data-name="图层 2" xmlns="http://www.w3.org/2000/svg" viewBox="0 0 324.54 1003.17">
  <defs>
    <style>
      .cls-1 {
        opacity: .75;
      }

      .cls-2, .cls-3, .cls-4, .cls-5 {
        fill: #040000;
      }

      .cls-2, .cls-3, .cls-4, .cls-5, .cls-6 {
        isolation: isolate;
      }

      .cls-2, .cls-3, .cls-5, .cls-7 {
        font-family: FZVariableLanTHK-Normal, 'FZVariableLanTHK Normal';
        font-variation-settings: ';
      }

      .cls-2, .cls-4, .cls-5 {
        font-size: 11.43px;
      }

      .cls-3 {
        font-size: 9.74px;
        letter-spacing: 0em;
      }

      .cls-8, .cls-9, .cls-10, .cls-11, .cls-12, .cls-13, .cls-14, .cls-15, .cls-16, .cls-17, .cls-18, .cls-19, .cls-20, .cls-21, .cls-22, .cls-23, .cls-24, .cls-25, .cls-26, .cls-27, .cls-28, .cls-29, .cls-30, .cls-31, .cls-32, .cls-33, .cls-34, .cls-35, .cls-36, .cls-37, .cls-38, .cls-39, .cls-40, .cls-41, .cls-42, .cls-43, .cls-44 {
        stroke-miterlimit: 10;
      }

      .cls-8, .cls-9, .cls-11, .cls-12, .cls-13, .cls-14, .cls-15, .cls-16, .cls-18, .cls-19, .cls-21, .cls-23, .cls-24, .cls-25, .cls-26, .cls-28, .cls-29, .cls-30, .cls-32, .cls-33, .cls-35, .cls-36, .cls-37, .cls-39, .cls-40, .cls-41, .cls-42, .cls-43, .cls-44 {
        fill: none;
      }

      .cls-8, .cls-9, .cls-28, .cls-43 {
        stroke-width: 2px;
      }

      .cls-8, .cls-11, .cls-18, .cls-24, .cls-35, .cls-36 {
        stroke: #e0b153;
      }

      .cls-9, .cls-13, .cls-16, .cls-19, .cls-29, .cls-44 {
        stroke: #06653e;
      }

      .cls-10, .cls-17, .cls-20, .cls-22, .cls-27, .cls-31, .cls-34, .cls-38 {
        stroke: #f4f1ef;
      }

      .cls-10, .cls-20, .cls-31, .cls-34 {
        opacity: .68;
      }

      .cls-10, .cls-22 {
        fill: #b7947a;
      }

      .cls-45 {
        fill: #06653e;
      }

      .cls-11, .cls-12 {
        stroke-dasharray: 2.05 1.03;
      }

      .cls-11, .cls-12, .cls-13, .cls-14, .cls-16, .cls-18, .cls-19, .cls-24, .cls-25, .cls-26, .cls-29, .cls-30, .cls-32, .cls-33, .cls-35, .cls-36, .cls-37, .cls-39, .cls-42, .cls-44 {
        stroke-width: .75px;
      }

      .cls-46 {
        fill: #5e9d5d;
      }

      .cls-4 {
        font-family: FZVariableLanTHK-Regular, 'FZVariableLanTHK Regular';
        font-variation-settings: ';
      }

      .cls-12, .cls-14, .cls-25, .cls-28, .cls-39, .cls-42 {
        stroke: #378d39;
      }

      .cls-47 {
        opacity: .3;
      }

      .cls-48 {
        font-family: FZVariableLanTHK-Light, 'FZVariableLanTHK Light';
        font-size: 18px;
        font-variation-settings: ';
        font-weight: 300;
      }

      .cls-48, .cls-7, .cls-49 {
        fill: #231815;
      }

      .cls-13 {
        stroke-dasharray: 2.1 1.05;
      }

      .cls-50 {
        fill: #e0b153;
      }

      .cls-5 {
        letter-spacing: -.1em;
      }

      .cls-7 {
        font-size: 15.62px;
      }

      .cls-15 {
        stroke: #92c481;
      }

      .cls-15, .cls-21, .cls-40, .cls-41 {
        stroke-width: 6px;
      }

      .cls-15, .cls-21, .cls-40, .cls-41, .cls-51 {
        opacity: .5;
      }

      .cls-52 {
        opacity: .4;
      }

      .cls-17, .cls-34 {
        fill: #e3c873;
      }

      .cls-18, .cls-39 {
        stroke-dasharray: 12.31 1.03 2.05 1.03;
      }

      .cls-49 {
        font-family: HanyiSentySuciTablet, HanyiSentySuciTablet;
        font-size: 16.25px;
      }

      .cls-19 {
        stroke-dasharray: 12.58 1.05 2.1 1.05;
      }

      .cls-20, .cls-38 {
        fill: #35843f;
      }

      .cls-53 {
        fill: #957f76;
      }

      .cls-21 {
        stroke: #eace75;
      }

      .cls-23 {
        stroke: #0d2712;
        stroke-width: 1.5px;
      }

      .cls-25, .cls-36 {
        stroke-dasharray: 12.33 1.03 2.05 1.03;
      }

      .cls-26, .cls-30, .cls-32, .cls-33, .cls-37, .cls-40, .cls-43 {
        stroke: #b7947a;
      }

      .cls-27, .cls-31 {
        fill: #92c481;
      }

      .cls-29, .cls-32 {
        stroke-dasharray: 12.35 1.03 2.06 1.03;
      }

      .cls-30, .cls-44 {
        stroke-dasharray: 2.06 1.03;
      }

      .cls-54 {
        fill: #72a376;
      }

      .cls-55 {
        fill: #a0ce80;
      }

      .cls-33 {
        stroke-dasharray: 12.35 1.03 2.06 1.03;
      }

      .cls-35, .cls-42 {
        stroke-dasharray: 2.05 1.03;
      }

      .cls-37 {
        stroke-dasharray: 2.06 1.03;
      }

      .cls-41 {
        stroke: #358941;
      }
    </style>
  </defs>
  <g id="_图层_1-2" data-name="图层 1">
    <text class="cls-48" transform="translate(11.93 666.88)"><tspan x="0" y="0">节日日期分布</tspan></text>
    <g>
      <g class="cls-1">
        <path class="cls-46" d="M234.85,967.52c-18.79,10.81-40.16,16.54-61.84,16.57v-123.68s61.84,107.11,61.84,107.11Z"/>
      </g>
      <g class="cls-52">
        <path class="cls-46" d="M283.03,920.61c-10.87,18.75-26.51,34.4-45.27,45.27l-61.84-107.11,107.11,61.84Z"/>
      </g>
      <g class="cls-51">
        <path class="cls-46" d="M300.72,855.54c-.04,21.68-5.76,43.05-16.57,61.84l-107.11-61.84h123.68Z"/>
      </g>
      <g>
        <g>
          <line class="cls-26" x1="105.18" y1="739.8" x2="108.19" y2="744.99"/>
          <line class="cls-37" x1="108.7" y1="745.88" x2="109.99" y2="748.11"/>
          <line class="cls-33" x1="110.25" y1="748.56" x2="167.69" y2="847.92"/>
          <line class="cls-26" x1="167.95" y1="848.36" x2="170.95" y2="853.56"/>
        </g>
        <g>
          <line class="cls-16" x1="169.18" y1="850.8" x2="172.18" y2="855.99"/>
          <line class="cls-13" x1="172.71" y1="856.9" x2="174.01" y2="859.17"/>
          <line class="cls-19" x1="174.28" y1="859.63" x2="232.69" y2="960.9"/>
          <line class="cls-16" x1="232.95" y1="961.36" x2="235.95" y2="966.56"/>
        </g>
        <g>
          <line class="cls-24" x1="57.21" y1="918.84" x2="62.41" y2="915.85"/>
          <line class="cls-11" x1="63.3" y1="915.34" x2="65.53" y2="914.06"/>
          <line class="cls-36" x1="65.98" y1="913.81" x2="165.3" y2="856.8"/>
          <line class="cls-24" x1="165.75" y1="856.54" x2="170.95" y2="853.56"/>
        </g>
        <g>
          <line class="cls-14" x1="171.21" y1="852.84" x2="176.41" y2="849.85"/>
          <line class="cls-12" x1="177.3" y1="849.34" x2="179.53" y2="848.06"/>
          <line class="cls-25" x1="179.98" y1="847.81" x2="279.3" y2="790.8"/>
          <line class="cls-14" x1="279.75" y1="790.54" x2="284.95" y2="787.56"/>
        </g>
        <g>
          <line class="cls-26" x1="57.21" y1="787.77" x2="62.4" y2="790.77"/>
          <line class="cls-30" x1="63.29" y1="791.29" x2="65.52" y2="792.58"/>
          <line class="cls-32" x1="65.97" y1="792.84" x2="165.31" y2="850.29"/>
          <line class="cls-26" x1="165.76" y1="850.55" x2="170.95" y2="853.56"/>
        </g>
        <g>
          <line class="cls-16" x1="169.71" y1="853.27" x2="174.9" y2="856.27"/>
          <line class="cls-44" x1="175.79" y1="856.79" x2="178.02" y2="858.08"/>
          <line class="cls-29" x1="178.47" y1="858.34" x2="277.81" y2="915.79"/>
          <line class="cls-16" x1="278.26" y1="916.05" x2="283.45" y2="919.06"/>
        </g>
        <g>
          <line class="cls-24" x1="170.95" y1="853.56" x2="167.94" y2="858.74"/>
          <line class="cls-35" x1="167.42" y1="859.63" x2="166.13" y2="861.85"/>
          <line class="cls-18" x1="165.88" y1="862.29" x2="108.45" y2="961.18"/>
          <line class="cls-24" x1="108.2" y1="961.62" x2="105.18" y2="966.81"/>
        </g>
        <g>
          <line class="cls-14" x1="236.95" y1="739.56" x2="233.94" y2="744.74"/>
          <line class="cls-42" x1="233.42" y1="745.63" x2="232.13" y2="747.85"/>
          <line class="cls-39" x1="231.88" y1="748.29" x2="174.45" y2="847.18"/>
          <line class="cls-14" x1="174.2" y1="847.62" x2="171.18" y2="852.81"/>
        </g>
        <line class="cls-23" x1="170.72" y1="722.24" x2="170.72" y2="984.37"/>
        <line class="cls-23" x1="301.78" y1="853.3" x2="39.65" y2="853.3"/>
        <path class="cls-28" d="M174.71,717.81c71.18,2.89,128.33,60.21,130.96,131.45"/>
        <path class="cls-9" d="M174.71,989.1c71.18-2.89,128.33-60.21,130.96-131.45"/>
        <path class="cls-43" d="M166.72,717.81c-71.18,2.89-128.33,60.21-130.96,131.45"/>
        <path class="cls-8" d="M166.72,989.1c-71.18-2.89-128.33-60.21-130.96-131.45"/>
        <g class="cls-6">
          <text class="cls-4" transform="translate(173.87 713.93)"><tspan x="0" y="0">春</tspan></text>
        </g>
        <g class="cls-6">
          <text class="cls-4" transform="translate(173.87 1001.56)"><tspan x="0" y="0">夏</tspan></text>
        </g>
        <g class="cls-6">
          <text class="cls-4" transform="translate(154.4 713.93)"><tspan x="0" y="0">冬</tspan></text>
        </g>
        <g class="cls-6">
          <text class="cls-4" transform="translate(154.4 1001.56)"><tspan x="0" y="0">秋</tspan></text>
        </g>
        <g class="cls-6">
          <text class="cls-3" transform="translate(228.98 717.78)"><tspan x="0" y="0">一</tspan><tspan x="0" y="9.73">月</tspan></text>
        </g>
        <g class="cls-6">
          <text class="cls-3" transform="translate(282.96 763.8)"><tspan x="0" y="0">二</tspan><tspan x="0" y="9.73">月</tspan></text>
        </g>
        <g class="cls-6">
          <text class="cls-2" transform="translate(307.51 839.6)"><tspan x="0" y="0">三</tspan><tspan x="0" y="11.43">月</tspan></text>
        </g>
        <g class="cls-6">
          <text class="cls-2" transform="translate(228.74 988.28)"><tspan x="0" y="0">六</tspan><tspan x="0" y="11.43">月</tspan></text>
        </g>
        <g class="cls-6">
          <text class="cls-2" transform="translate(282.72 942.26)"><tspan x="0" y="0">五</tspan><tspan x="0" y="11.43">月</tspan></text>
        </g>
        <g class="cls-6">
          <text class="cls-2" transform="translate(307.51 867.92)"><tspan x="0" y="0">四</tspan><tspan x="0" y="11.43">月</tspan></text>
        </g>
        <g class="cls-6">
          <text class="cls-5" transform="translate(99.25 707.24)"><tspan x="0" y="0">十</tspan><tspan x="0" y="10.29">二</tspan><tspan x="0" y="20.58">月</tspan></text>
        </g>
        <g class="cls-6">
          <text class="cls-5" transform="translate(47.5 754.53)"><tspan x="0" y="0">十</tspan><tspan x="0" y="10.29">一</tspan><tspan x="0" y="20.58">月</tspan></text>
        </g>
        <g class="cls-6">
          <text class="cls-2" transform="translate(23.41 839.6)"><tspan x="0" y="0">十</tspan><tspan x="0" y="11.43">月</tspan></text>
        </g>
        <g class="cls-6">
          <text class="cls-2" transform="translate(102.21 988.28)"><tspan x="0" y="0">七</tspan><tspan x="0" y="11.43">月</tspan></text>
        </g>
        <g class="cls-6">
          <text class="cls-2" transform="translate(48.07 942.26)"><tspan x="0" y="0">八</tspan><tspan x="0" y="11.43">月</tspan></text>
        </g>
        <g class="cls-6">
          <text class="cls-2" transform="translate(23.56 867.92)"><tspan x="0" y="0">九</tspan><tspan x="0" y="11.43">月</tspan></text>
        </g>
      </g>
      <path class="cls-45" d="M298.17,859.06c-1.34.83-2.88,1.46-4.56,1.91,1.68.44,3.22,1.08,4.56,1.91-4.77,0-1.52.07-4.26.03-4.75-.06-4.46-.42-7.01-1.94,2.55-1.52,2.26-1.88,7.01-1.94,2.74-.03-.51.03,4.26.03Z"/>
      <path class="cls-45" d="M297.75,866.13c-1.44.64-3.05,1.05-4.78,1.25,1.6.67,3.04,1.51,4.25,2.52-4.72-.66-1.52-.15-4.22-.56-4.7-.72-4.35-1.03-6.67-2.89,2.74-1.15,2.5-1.54,7.21-.94,2.72.35-.51-.04,4.22.62Z"/>
      <g class="cls-52">
        <path class="cls-50" d="M102.74,965.99c-18.75-10.87-34.4-26.51-45.27-45.27l107.11-61.84-61.84,107.11Z"/>
      </g>
      <path class="cls-50" d="M100.97,962.02c-.05-1.57.17-3.23.63-4.9-1.22,1.23-2.54,2.25-3.93,2.99,2.38-4.13.71-1.35,2.1-3.71,2.43-4.08,2.59-3.65,5.18-5.1.04,2.97.5,2.89-1.83,7.04-1.34,2.39.23-.46-2.16,3.68Z"/>
      <path class="cls-50" d="M95.05,958.12c.17-1.56.62-3.17,1.3-4.76-1.38,1.05-2.83,1.87-4.31,2.42,2.94-3.76.89-1.24,2.6-3.38,2.97-3.71,3.07-3.25,5.84-4.33-.38,2.95.09,2.94-2.79,6.72-1.66,2.18.29-.42-2.65,3.34Z"/>
      <path class="cls-50" d="M89.64,953.96c.28-1.55.85-3.12,1.65-4.65-1.45.94-2.96,1.66-4.47,2.09,3.21-3.53.98-1.17,2.84-3.18,3.24-3.48,3.31-3.02,6.15-3.89-.59,2.91-.13,2.93-3.28,6.49-1.82,2.05.32-.4-2.89,3.13Z"/>
      <g class="cls-52">
        <path class="cls-50" d="M168.45,984.96c-21.68-.04-43.05-5.76-61.84-16.57l61.84-107.11v123.68Z"/>
      </g>
      <path class="cls-50" d="M164.94,982.4c-.83-1.34-1.46-2.88-1.91-4.56-.44,1.68-1.08,3.22-1.91,4.56,0-4.77-.07-1.52-.03-4.26.06-4.75.42-4.46,1.94-7.01,1.52,2.55,1.88,2.26,1.94,7.01.03,2.74-.03-.51-.03,4.26Z"/>
      <path class="cls-50" d="M157.86,981.98c-.64-1.44-1.05-3.05-1.25-4.78-.67,1.6-1.51,3.04-2.52,4.25.66-4.72.15-1.52.56-4.22.72-4.7,1.03-4.35,2.89-6.67,1.15,2.74,1.54,2.5.94,7.21-.35,2.72.04-.51-.62,4.22Z"/>
      <path class="cls-50" d="M149.98,980.72c-.41-1.52-.56-3.18-.5-4.91-.91,1.48-1.97,2.77-3.15,3.81,1.39-4.56.38-1.48,1.21-4.09,1.44-4.53,1.7-4.14,3.89-6.14.71,2.88,1.14,2.71-.18,7.27-.76,2.63.12-.5-1.27,4.07Z"/>
      <path class="cls-50" d="M143.33,978.26c-.19-1.56-.12-3.23.19-4.93-1.11,1.33-2.33,2.47-3.65,3.33,2.01-4.33.58-1.41,1.77-3.88,2.05-4.28,2.25-3.87,4.71-5.54.3,2.96.75,2.84-1.19,7.17-1.12,2.5.19-.47-1.82,3.85Z"/>
      <g class="cls-47">
        <path class="cls-50" d="M56.44,916.89c-10.81-18.79-16.54-40.16-16.57-61.84h123.68s-107.11,61.84-107.11,61.84Z"/>
      </g>
      <path class="cls-50" d="M56.89,912.57c.74-1.39,1.76-2.71,2.99-3.93-1.67.46-3.33.68-4.9.63,4.13-2.38,1.29-.82,3.68-2.16,4.14-2.32,4.07-1.87,7.04-1.83-1.45,2.59-1.02,2.76-5.1,5.18-2.35,1.4.42-.28-3.71,2.1Z"/>
      <path class="cls-50" d="M53.72,906.24c.93-1.27,2.12-2.44,3.51-3.47-1.72.22-3.39.21-4.94-.06,4.42-1.79,1.39-.63,3.94-1.63,4.43-1.72,4.29-1.28,7.22-.83-1.8,2.36-1.39,2.59-5.77,4.42-2.53,1.06.46-.22-3.96,1.57Z"/>
      <g class="cls-52">
        <path class="cls-53" d="M40.04,851.06c.04-21.68,5.76-43.05,16.57-61.84l107.11,61.84H40.04Z"/>
      </g>
      <path class="cls-53" d="M42.6,847.54c1.34-.83,2.88-1.46,4.56-1.91-1.68-.44-3.22-1.08-4.56-1.91,4.77,0,1.52-.07,4.26-.03,4.75.06,4.46.42,7.01,1.94-2.55,1.52-2.26,1.88-7.01,1.94-2.74.03.51-.03-4.26-.03Z"/>
      <path class="cls-53" d="M43.01,840.47c1.44-.64,3.05-1.05,4.78-1.25-1.6-.67-3.04-1.51-4.25-2.52,4.72.66,1.52.15,4.22.56,4.7.72,4.35,1.03,6.67,2.89-2.74,1.15-2.5,1.54-7.21.94-2.72-.35.51.04-4.22-.62Z"/>
      <path class="cls-53" d="M43.98,834.28c1.46-.59,3.09-.95,4.81-1.1-1.58-.72-2.99-1.61-4.16-2.65,4.7.81,1.51.2,4.2.7,4.67.87,4.32,1.17,6.58,3.1-2.77,1.06-2.55,1.47-7.24.71-2.7-.43.51.06-4.19-.76Z"/>
      <g class="cls-52">
        <path class="cls-53" d="M57.87,785.99c10.87-18.75,26.51-34.4,45.27-45.27l61.84,107.11-107.11-61.84Z"/>
      </g>
      <path class="cls-53" d="M61.84,784.23c1.57-.05,3.23.17,4.9.63-1.23-1.22-2.25-2.54-2.99-3.93,4.13,2.38,1.35.71,3.71,2.1,4.08,2.43,3.65,2.59,5.1,5.18-2.97.04-2.89.5-7.04-1.83-2.39-1.34.46.23-3.68-2.16Z"/>
      <path class="cls-53" d="M65.74,778.31c1.56.17,3.17.62,4.76,1.3-1.05-1.38-1.87-2.83-2.42-4.31,3.76,2.94,1.24.89,3.38,2.6,3.71,2.97,3.25,3.07,4.33,5.84-2.95-.38-2.94.09-6.72-2.79-2.18-1.66.42.29-3.34-2.65Z"/>
      <path class="cls-53" d="M69.97,772.74c1.54.33,3.09.94,4.6,1.79-.9-1.48-1.57-3.01-1.96-4.53,3.44,3.31,1.14,1.01,3.09,2.93,3.38,3.34,2.92,3.39,3.71,6.26-2.89-.68-2.93-.21-6.39-3.47-2-1.87.39.33-3.05-2.98Z"/>
      <g class="cls-1">
        <path class="cls-53" d="M106.61,739.33c18.79-10.81,40.16-16.54,61.84-16.57v123.68s-61.84-107.11-61.84-107.11Z"/>
      </g>
      <path class="cls-53" d="M110.93,739.78c1.39.74,2.71,1.76,3.93,2.99-.46-1.67-.68-3.33-.63-4.9,2.38,4.13.82,1.29,2.16,3.68,2.32,4.14,1.87,4.07,1.83,7.04-2.59-1.45-2.76-1.02-5.18-5.1-1.4-2.35.28.42-2.1-3.71Z"/>
      <path class="cls-53" d="M117.27,736.61c1.27.93,2.44,2.12,3.47,3.51-.22-1.72-.21-3.39.06-4.94,1.79,4.42.63,1.39,1.63,3.94,1.72,4.43,1.28,4.29.83,7.22-2.36-1.8-2.59-1.39-4.42-5.77-1.06-2.53.22.46-1.57-3.96Z"/>
      <path class="cls-53" d="M122.45,734.46c1.23.98,2.35,2.21,3.33,3.64-.15-1.73-.08-3.39.25-4.93,1.61,4.49.58,1.41,1.47,4,1.55,4.49,1.11,4.33.55,7.25-2.29-1.89-2.53-1.49-4.19-5.94-.96-2.57.2.47-1.41-4.02Z"/>
      <path class="cls-53" d="M127.48,732.43c1.23.99,2.34,2.23,3.31,3.67-.14-1.73-.05-3.39.29-4.93,1.58,4.5.57,1.42,1.44,4.01,1.52,4.5,1.08,4.34.5,7.26-2.28-1.91-2.52-1.51-4.15-5.97-.94-2.57.2.47-1.38-4.03Z"/>
      <path class="cls-53" d="M132.5,730.42c1.22.99,2.33,2.24,3.29,3.68-.13-1.73-.04-3.39.31-4.93,1.56,4.51.56,1.42,1.43,4.02,1.5,4.51,1.06,4.35.47,7.26-2.27-1.92-2.51-1.52-4.13-5.99-.93-2.58.2.47-1.37-4.04Z"/>
      <path class="cls-53" d="M137.9,727.82c1.1,1.12,2.07,2.48,2.87,4.02.06-1.73.34-3.38.85-4.86,1.06,4.65.4,1.47.97,4.15.99,4.65.58,4.44-.34,7.26-2.05-2.15-2.33-1.79-3.44-6.41-.64-2.66.14.49-.91-4.16Z"/>
      <path class="cls-53" d="M143.12,726.39c1.1,1.12,2.06,2.49,2.85,4.03.07-1.73.35-3.38.87-4.86,1.04,4.66.4,1.47.96,4.15.98,4.65.56,4.44-.37,7.26-2.04-2.16-2.32-1.8-3.42-6.42-.63-2.67.14.49-.9-4.17Z"/>
      <g class="cls-47">
        <path class="cls-55" d="M172.45,722.93c21.68.04,43.05,5.76,61.84,16.57l-61.84,107.11v-123.68Z"/>
      </g>
      <path class="cls-54" d="M175.96,725.49c.83,1.34,1.46,2.88,1.91,4.56.44-1.68,1.08-3.22,1.91-4.56,0,4.77.07,1.52.03,4.26-.06,4.75-.42,4.46-1.94,7.01-1.52-2.55-1.88-2.26-1.94-7.01-.03-2.74.03.51.03-4.26Z"/>
      <path class="cls-54" d="M183.04,725.9c.64,1.44,1.05,3.05,1.25,4.78.67-1.6,1.51-3.04,2.52-4.25-.66,4.72-.15,1.52-.56,4.22-.72,4.7-1.03,4.35-2.89,6.67-1.15-2.74-1.54-2.5-.94-7.21.35-2.72-.04.51.62-4.22Z"/>
      <g class="cls-51">
        <path class="cls-55" d="M237.51,740.76c18.75,10.87,34.4,26.51,45.27,45.27l-107.11,61.84,61.84-107.11Z"/>
      </g>
      <path class="cls-54" d="M239.28,744.73c.05,1.57-.17,3.23-.63,4.9,1.22-1.23,2.54-2.25,3.93-2.99-2.38,4.13-.71,1.35-2.1,3.71-2.43,4.08-2.59,3.65-5.18,5.1-.04-2.97-.5-2.89,1.83-7.04,1.34-2.39-.23.46,2.16-3.68Z"/>
      <path class="cls-54" d="M245.2,748.63c-.17,1.56-.62,3.17-1.3,4.76,1.38-1.05,2.83-1.87,4.31-2.42-2.94,3.76-.89,1.24-2.6,3.38-2.97,3.71-3.07,3.25-5.84,4.33.38-2.95-.09-2.94,2.79-6.72,1.66-2.18-.29.42,2.65-3.34Z"/>
      <path class="cls-54" d="M250.44,752.42c-.2,1.56-.69,3.16-1.41,4.73,1.4-1.02,2.87-1.81,4.36-2.32-3.02,3.69-.91,1.22-2.67,3.32-3.05,3.64-3.15,3.18-5.94,4.2.44-2.94-.02-2.94,2.94-6.65,1.71-2.14-.3.41,2.72-3.28Z"/>
      <path class="cls-54" d="M255.65,757.23c-.42,1.52-1.12,3.03-2.05,4.49,1.53-.81,3.1-1.39,4.64-1.69-3.5,3.24-1.08,1.08-3.11,2.91-3.53,3.18-3.56,2.72-6.46,3.33.85-2.85.39-2.91,3.84-6.18,1.99-1.88-.35.37,3.15-2.87Z"/>
      <g class="cls-47">
        <path class="cls-55" d="M285.18,789.22c10.81,18.79,16.54,40.16,16.57,61.84h-123.68s107.11-61.84,107.11-61.84Z"/>
      </g>
      <path class="cls-54" d="M284.72,793.54c-.74,1.39-1.76,2.71-2.99,3.93,1.67-.46,3.33-.68,4.9-.63-4.13,2.38-1.29.82-3.68,2.16-4.14,2.32-4.07,1.87-7.04,1.83,1.45-2.59,1.02-2.76,5.1-5.18,2.35-1.4-.42.28,3.71-2.1Z"/>
      <path class="cls-54" d="M287.9,799.88c-.93,1.27-2.12,2.44-3.51,3.47,1.72-.22,3.39-.21,4.94.06-4.42,1.79-1.39.63-3.94,1.63-4.43,1.72-4.29,1.28-7.22.83,1.8-2.36,1.39-2.59,5.77-4.42,2.53-1.06-.46.22,3.96-1.57Z"/>
      <path class="cls-45" d="M296.52,872.62c-1.46.58-3.09.94-4.82,1.09,1.57.73,2.98,1.62,4.16,2.67-4.7-.83-1.51-.2-4.2-.71-4.67-.88-4.32-1.19-6.57-3.12,2.78-1.05,2.55-1.46,7.24-.69,2.7.44-.51-.06,4.19.77Z"/>
      <path class="cls-45" d="M294.64,879.55c-1.5.46-3.16.67-4.89.66,1.5.86,2.83,1.87,3.91,3.02-4.61-1.23-1.49-.33-4.12-1.07-4.57-1.29-4.2-1.56-6.27-3.69,2.86-.81,2.67-1.23,7.27-.06,2.65.68-.5-.1,4.11,1.13Z"/>
      <path class="cls-45" d="M279.33,922c-1.57-.11-3.19-.5-4.81-1.13,1.1,1.34,1.98,2.76,2.57,4.21-3.87-2.8-1.27-.84-3.47-2.47-3.81-2.83-3.37-2.95-4.54-5.68,2.96.27,2.93-.2,6.81,2.54,2.24,1.58-.43-.27,3.44,2.52Z"/>
      <path class="cls-45" d="M275.1,926.62c-1.55-.28-3.12-.85-4.65-1.65.94,1.45,1.66,2.96,2.09,4.47-3.53-3.21-1.17-.98-3.18-2.84-3.48-3.24-3.02-3.3-3.89-6.15,2.91.59,2.93.13,6.49,3.28,2.05,1.82-.4-.32,3.13,2.89Z"/>
      <path class="cls-45" d="M270.71,932.36c-1.49-.5-2.97-1.28-4.38-2.29.73,1.57,1.23,3.17,1.44,4.72-3.05-3.67-1.02-1.13-2.75-3.26-2.99-3.69-2.52-3.7-2.99-6.63,2.8,1,2.89.54,5.97,4.16,1.78,2.09-.35-.37,2.7,3.3Z"/>
      <path class="cls-45" d="M228.3,968.32c0-1.57-.26-3.22-.75-4.88,1.25,1.2,2.6,2.18,4,2.89-2.49-4.07-.74-1.33-2.2-3.65-2.53-4.02-2.68-3.58-5.31-4.97.04,2.97-.42,2.91,2.01,6.99,1.4,2.35-.24-.45,2.25,3.62Z"/>
      <path class="cls-45" d="M222.65,971.43c.18-1.56.1-3.23-.21-4.93,1.11,1.33,2.34,2.46,3.66,3.31-2.03-4.32-.59-1.41-1.78-3.87-2.07-4.28-2.27-3.86-4.73-5.52-.29,2.96-.74,2.84,1.22,7.17,1.13,2.49-.19-.47,1.84,3.85Z"/>
      <path class="cls-45" d="M216.64,973.74c.27-1.55.28-3.22.06-4.94,1.04,1.39,2.21,2.58,3.48,3.51-1.79-4.42-.51-1.44-1.57-3.96-1.84-4.38-2.06-3.97-4.42-5.77-.45,2.94-.89,2.8.83,7.22,1,2.55-.16-.48,1.63,3.94Z"/>
      <path class="cls-45" d="M210.56,975.88c.44-1.51.63-3.17.6-4.9.88,1.49,1.91,2.81,3.07,3.87-1.29-4.59-.35-1.48-1.12-4.11-1.34-4.56-1.61-4.18-3.76-6.22-.77,2.87-1.2,2.68.03,7.27.71,2.65-.11-.5,1.18,4.09Z"/>
      <path class="cls-45" d="M203.81,978.07c.54-1.48.84-3.12.93-4.85.78,1.55,1.71,2.93,2.8,4.07-.98-4.67-.25-1.5-.84-4.18-1.03-4.64-1.32-4.28-3.33-6.46-.96,2.81-1.37,2.6-.46,7.26.53,2.69-.07-.5.9,4.17Z"/>
      <path class="cls-45" d="M197.78,979.16c.62-1.45,1.01-3.07,1.19-4.79.69,1.59,1.56,3.02,2.58,4.21-.73-4.71-.17-1.52-.62-4.22-.78-4.69-1.09-4.34-2.98-6.63-1.11,2.76-1.51,2.52-.84,7.22.38,2.71-.05-.51.68,4.21Z"/>
      <path class="cls-45" d="M191.58,980.13c.66-1.43,1.11-3.03,1.35-4.75.64,1.61,1.45,3.07,2.44,4.29-.57-4.74-.12-1.52-.48-4.23-.63-4.71-.95-4.37-2.76-6.73-1.2,2.72-1.59,2.47-1.08,7.19.29,2.72-.03-.51.54,4.23Z"/>
    </g>
    <text class="cls-48" transform="translate(10.69 15.47)"><tspan x="0" y="0">节气从属节日分布</tspan></text>
    <g>
      <rect class="cls-31" x="1.86" y="63.74" width="59.5" height="35"/>
      <rect class="cls-20" x="61.86" y="63.74" width="135.5" height="35"/>
      <rect class="cls-34" x="197.86" y="63.74" width="30.5" height="35"/>
      <rect class="cls-10" x="228.86" y="63.74" width="89.5" height="35"/>
      <rect class="cls-31" x=".86" y="364.74" width="60.53" height="7"/>
      <rect class="cls-20" x="61.91" y="364.74" width="137.85" height="7"/>
      <rect class="cls-34" x="200.27" y="364.74" width="31.03" height="7"/>
      <rect class="cls-10" x="231.81" y="364.74" width="91.06" height="7"/>
      <text class="cls-49" transform="translate(15.47 382.89)"><tspan x="0" y="0">立</tspan><tspan x="0" y="16.25">春</tspan><tspan x="0" y="32.51">祭</tspan></text>
      <text class="cls-49" transform="translate(0 383.29)"><tspan x="0" y="0">打</tspan><tspan x="0" y="16.25">春</tspan><tspan x="0" y="32.51">牛</tspan></text>
      <text class="cls-49" transform="translate(169.78 382.55)"><tspan x="0" y="0">小</tspan><tspan x="0" y="16.25">暑</tspan><tspan x="0" y="32.51">尝</tspan><tspan x="0" y="48.76">新</tspan><tspan x="0" y="65.01">米</tspan></text>
      <text class="cls-49" transform="translate(292.92 383.31)"><tspan x="0" y="0">杨</tspan><tspan x="0" y="16.25">节</tspan></text>
      <text class="cls-49" transform="translate(277.52 383.04)"><tspan x="0" y="0">拜</tspan><tspan x="0" y="16.25">小</tspan><tspan x="0" y="32.51">岁</tspan></text>
      <text class="cls-49" transform="translate(154.42 382.99)"><tspan x="0" y="0">分</tspan><tspan x="0" y="16.25">龙</tspan><tspan x="0" y="32.51">节</tspan></text>
      <text class="cls-49" transform="translate(231.35 383.05)"><tspan x="0" y="0">依</tspan><tspan x="0" y="16.25">饭</tspan><tspan x="0" y="32.51">节</tspan></text>
      <text class="cls-49" transform="translate(215.96 383.09)"><tspan x="0" y="0">壮</tspan><tspan x="0" y="16.25">族</tspan><tspan x="0" y="32.51">霜</tspan><tspan x="0" y="48.76">降</tspan><tspan x="0" y="65.01">节</tspan></text>
      <text class="cls-49" transform="translate(262.13 383)"><tspan x="0" y="0">做</tspan><tspan x="0" y="16.25">冬</tspan></text>
      <text class="cls-49" transform="translate(308.29 383.19)"><tspan x="0" y="0">潮</tspan><tspan x="0" y="16.25">汕</tspan><tspan x="0" y="32.51">冬</tspan><tspan x="0" y="48.76">节</tspan></text>
      <text class="cls-49" transform="translate(31.3 383.37)"><tspan x="0" y="0">寒</tspan><tspan x="0" y="16.25">食</tspan><tspan x="0" y="32.51">节</tspan></text>
      <text class="cls-49" transform="translate(46.68 383.22)"><tspan x="0" y="0">蚕</tspan><tspan x="0" y="16.25">花</tspan><tspan x="0" y="32.51">节</tspan></text>
      <text class="cls-49" transform="translate(185.19 383.25)"><tspan x="0" y="0">送</tspan><tspan x="0" y="16.25">大</tspan><tspan x="0" y="32.51">暑</tspan><tspan x="0" y="48.76">船</tspan></text>
      <text class="cls-49" transform="translate(200.55 383.35)"><tspan x="0" y="0">赶</tspan><tspan x="0" y="16.25">秋</tspan><tspan x="0" y="32.51">节</tspan></text>
      <text class="cls-49" transform="translate(123.63 383.36)"><tspan x="0" y="0">打</tspan><tspan x="0" y="16.25">泥</tspan><tspan x="0" y="32.51">巴</tspan><tspan x="0" y="48.76">仗</tspan><tspan x="0" y="65.01">节</tspan></text>
      <text class="cls-49" transform="translate(62.06 383.24)"><tspan x="0" y="0">祈</tspan><tspan x="0" y="16.25">蚕</tspan><tspan x="0" y="32.51">节</tspan></text>
      <text class="cls-49" transform="translate(77.46 383.12)"><tspan x="0" y="0">祭</tspan><tspan x="0" y="16.25">车</tspan><tspan x="0" y="32.51">神</tspan></text>
      <text class="cls-49" transform="translate(92.85 383.12)"><tspan x="0" y="0">祭</tspan><tspan x="0" y="16.25">车</tspan><tspan x="0" y="32.51">神</tspan></text>
      <text class="cls-49" transform="translate(139.02 382.94)"><tspan x="0" y="0">安</tspan><tspan x="0" y="16.25">苗</tspan><tspan x="0" y="32.51">节</tspan></text>
      <text class="cls-49" transform="translate(108.28 383.1)"><tspan x="0" y="0">开</tspan><tspan x="0" y="16.25">犁</tspan><tspan x="0" y="32.51">节</tspan></text>
      <text class="cls-49" transform="translate(246.72 383.12)"><tspan x="0" y="0">敖</tspan><tspan x="0" y="16.25">冬</tspan></text>
      <text class="cls-49" transform="translate(7.58 80.27)"><tspan x="0" y="0">立</tspan><tspan x="0" y="16.25">春</tspan></text>
      <text class="cls-7" transform="translate(3.64 58.31)"><tspan x="0" y="0">春</tspan></text>
      <text class="cls-7" transform="translate(63.64 58.31)"><tspan x="0" y="0">夏</tspan></text>
      <text class="cls-7" transform="translate(199.64 58.31)"><tspan x="0" y="0">秋</tspan></text>
      <text class="cls-7" transform="translate(228.64 58.31)"><tspan x="0" y="0">冬</tspan></text>
      <text class="cls-49" transform="translate(37.67 80.27)"><tspan x="0" y="0">清</tspan><tspan x="0" y="16.25">明</tspan></text>
      <text class="cls-49" transform="translate(69.22 80.27)"><tspan x="0" y="0">小</tspan><tspan x="0" y="16.25">满</tspan></text>
      <text class="cls-49" transform="translate(113.79 80.27)"><tspan x="0" y="0">芒</tspan><tspan x="0" y="16.25">种</tspan></text>
      <text class="cls-49" transform="translate(152.33 80.27)"><tspan x="0" y="0">夏</tspan><tspan x="0" y="16.25">至</tspan></text>
      <text class="cls-49" transform="translate(166.9 80.27)"><tspan x="0" y="0">小</tspan><tspan x="0" y="16.25">暑</tspan></text>
      <text class="cls-49" transform="translate(182.46 80.27)"><tspan x="0" y="0">大</tspan><tspan x="0" y="16.25">暑</tspan></text>
      <text class="cls-49" transform="translate(198 80.27)"><tspan x="0" y="0">立</tspan><tspan x="0" y="16.25">秋</tspan></text>
      <text class="cls-49" transform="translate(213.58 80.27)"><tspan x="0" y="0">霜</tspan><tspan x="0" y="16.25">降</tspan></text>
      <text class="cls-49" transform="translate(229.14 80.27)"><tspan x="0" y="0">立</tspan><tspan x="0" y="16.25">冬</tspan></text>
      <text class="cls-49" transform="translate(266.7 80.27)"><tspan x="0" y="0">冬</tspan><tspan x="0" y="16.25">至</tspan></text>
      <path class="cls-15" d="M22.86,363.74c0-108.83-3-151.04-3-265"/>
      <path class="cls-15" d="M7.86,363.74c0-108.83,3-151.04,3-265"/>
      <path class="cls-41" d="M126.86,363.74c0-108.83-1.92-151.04-1.92-265"/>
      <path class="cls-41" d="M111.86,363.74c0-108.83,4-151.04,4-265"/>
      <path class="cls-41" d="M83.86,363.74c0-108.83-3-151.04-3-265"/>
      <path class="cls-41" d="M68.86,363.74c0-108.83,3-151.04,3-265"/>
      <path class="cls-15" d="M52.86,363.74c0-108.83-3-151.04-3-265"/>
      <path class="cls-15" d="M37.86,363.74c0-108.83,3-151.04,3-265"/>
      <path class="cls-41" d="M142.86,363.74c0-108.83-8-151.04-8-265"/>
      <path class="cls-41" d="M95.86,363.74c0-108.83,10-151.04,10-265"/>
      <path class="cls-40" d="M280.86,363.74c0-108.83-5.62-151.04-5.62-265"/>
      <path class="cls-40" d="M265.86,363.74c0-108.83,3-151.04,3-265"/>
      <path class="cls-40" d="M296.86,363.74c0-108.83-16-151.04-16-265"/>
      <path class="cls-40" d="M313.86,363.74c0-108.83-26-151.04-26-265"/>
      <path class="cls-40" d="M249.86,363.74c0-108.83,12-151.04,12-265"/>
      <line class="cls-41" x1="160.86" y1="363.71" x2="160.86" y2="98.74"/>
      <line class="cls-21" x1="206.86" y1="363.71" x2="206.86" y2="98.74"/>
      <line class="cls-21" x1="221.86" y1="363.71" x2="221.86" y2="98.74"/>
      <line class="cls-40" x1="236.86" y1="363.71" x2="236.86" y2="98.74"/>
      <line class="cls-41" x1="190.86" y1="363.71" x2="190.86" y2="98.74"/>
      <line class="cls-41" x1="175.86" y1="363.71" x2="175.86" y2="98.74"/>
      <rect class="cls-27" x="1.86" y="98.8" width="29" height="7.94"/>
      <rect class="cls-27" x="32.18" y="98.8" width="29.68" height="7.94"/>
      <rect class="cls-38" x="62.5" y="98.8" width="29.36" height="7.94"/>
      <rect class="cls-38" x="92.86" y="98.8" width="58" height="7.94"/>
      <rect class="cls-22" x="244.86" y="98.8" width="74" height="7.94"/>
      <rect class="cls-38" x="151.86" y="98.8" width="14.57" height="7.94"/>
      <rect class="cls-38" x="167.35" y="98.8" width="14.57" height="7.94"/>
      <rect class="cls-38" x="182.83" y="98.8" width="14.57" height="7.94"/>
      <rect class="cls-17" x="198.32" y="98.8" width="14.57" height="7.94"/>
      <rect class="cls-17" x="213.8" y="98.8" width="14.57" height="7.94"/>
      <rect class="cls-22" x="229.29" y="98.8" width="14.57" height="7.94"/>
    </g>
  </g>
</svg>