<?xml version="1.0" encoding="UTF-8"?>
<svg id="_图层_2" data-name="图层 2" xmlns="http://www.w3.org/2000/svg" viewBox="0 0 508.03 1086.73">
  <defs>
    <style>
      .cls-1, .cls-2, .cls-3 {
        opacity: .4;
      }

      .cls-1, .cls-4 {
        fill: #579140;
      }

      .cls-5, .cls-6, .cls-7, .cls-8, .cls-9, .cls-10, .cls-11, .cls-12, .cls-13, .cls-14, .cls-15, .cls-16, .cls-17, .cls-18, .cls-19, .cls-20, .cls-21, .cls-22, .cls-23, .cls-24 {
        stroke-miterlimit: 10;
      }

      .cls-5, .cls-7, .cls-9, .cls-11, .cls-15, .cls-16, .cls-20, .cls-21, .cls-22, .cls-23, .cls-24 {
        fill: none;
      }

      .cls-5, .cls-7, .cls-9, .cls-22 {
        stroke-width: .25px;
      }

      .cls-5, .cls-16 {
        stroke: #529960;
      }

      .cls-5, .cls-16, .cls-21, .cls-23 {
        stroke-dasharray: 12 1 1 1;
      }

      .cls-25, .cls-3 {
        fill: #2f823a;
      }

      .cls-26 {
        fill: #4e663a;
      }

      .cls-6 {
        fill: #c5a673;
      }

      .cls-6, .cls-8, .cls-10, .cls-11, .cls-12, .cls-13, .cls-14, .cls-15, .cls-17, .cls-18, .cls-19, .cls-20 {
        stroke-width: .1px;
      }

      .cls-6, .cls-8, .cls-12 {
        stroke: #f4f3f2;
      }

      .cls-27 {
        fill: #6bab69;
      }

      .cls-7 {
        stroke: #82c47c;
      }

      .cls-8 {
        fill: #d6bd7e;
      }

      .cls-9, .cls-18, .cls-20 {
        stroke: #c5a673;
      }

      .cls-10 {
        fill: #b7947a;
      }

      .cls-10, .cls-14, .cls-19 {
        stroke: #fff;
      }

      .cls-28 {
        fill: #557c35;
      }

      .cls-29 {
        font-size: 11.56px;
      }

      .cls-29, .cls-30, .cls-31, .cls-32, .cls-33, .cls-34, .cls-35, .cls-36 {
        fill: #231815;
      }

      .cls-29, .cls-30, .cls-33, .cls-35, .cls-36 {
        font-family: FZVariableLanTHK-Light, 'FZVariableLanTHK Light';
        font-variation-settings: ';
        font-weight: 300;
      }

      .cls-30 {
        font-size: 9.41px;
      }

      .cls-11, .cls-13, .cls-22 {
        stroke: #cabc83;
      }

      .cls-12, .cls-13, .cls-17, .cls-18 {
        fill: #cabc83;
      }

      .cls-14 {
        fill: #78504b;
      }

      .cls-31 {
        font-family: FZVariableLanTHK-Normal, 'FZVariableLanTHK Normal';
        font-size: 11.93px;
        font-variation-settings: ';
      }

      .cls-15, .cls-17 {
        stroke: #d6bd7e;
      }

      .cls-16, .cls-21, .cls-23 {
        stroke-width: .75px;
      }

      .cls-33 {
        font-size: 13.85px;
      }

      .cls-37 {
        fill: #378d39;
      }

      .cls-38, .cls-19, .cls-39 {
        fill: #967566;
      }

      .cls-2, .cls-40 {
        fill: #9dce83;
      }

      .cls-34 {
        font-family: HanyiSentySuciTablet, HanyiSentySuciTablet;
        font-size: 21.53px;
        letter-spacing: -.05em;
      }

      .cls-35 {
        font-size: 14.06px;
      }

      .cls-36 {
        font-size: 11.61px;
      }

      .cls-41 {
        fill: #82c47c;
      }

      .cls-21 {
        stroke: #b89d60;
      }

      .cls-39 {
        opacity: .46;
      }

      .cls-23 {
        stroke: #947466;
      }

      .cls-24 {
        stroke: #378d39;
        stroke-width: 1.5px;
      }
    </style>
  </defs>
  <g id="_图层_1-2" data-name="图层 1">
    <circle class="cls-37" cx="7.34" cy="814.49" r="6.72"/>
    <g>
      <circle class="cls-37" cx="7.34" cy="3.12" r="3.12"/>
      <text class="cls-35" transform="translate(0 22.93)"><tspan x="0" y="0">东</tspan><tspan x="0" y="16.87">北</tspan></text>
    </g>
    <g>
      <circle class="cls-37" cx="7.34" cy="104.47" r="3.12"/>
      <text class="cls-35" transform="translate(0 124.29)"><tspan x="0" y="0">西</tspan><tspan x="0" y="16.87">北</tspan></text>
    </g>
    <g>
      <circle class="cls-37" cx="7.34" cy="193.38" r="3.12"/>
      <text class="cls-35" transform="translate(0 214.2)"><tspan x="0" y="0">黄</tspan><tspan x="0" y="16.87">淮</tspan></text>
    </g>
    <g>
      <circle class="cls-37" cx="7.34" cy="293.79" r="3.12"/>
      <text class="cls-35" transform="translate(0 313.6)"><tspan x="0" y="0">长</tspan><tspan x="0" y="16.87">中</tspan><tspan x="0" y="33.75">下</tspan></text>
    </g>
    <g>
      <circle class="cls-37" cx="7.34" cy="708.03" r="3.12"/>
      <text class="cls-35" transform="translate(0 728.85)"><tspan x="0" y="0">青</tspan><tspan x="0" y="16.87">藏</tspan></text>
    </g>
    <text class="cls-35" transform="translate(0 837.32)"><tspan x="0" y="0">全</tspan><tspan x="0" y="16.87">国</tspan></text>
    <g>
      <circle class="cls-37" cx="7.34" cy="405.64" r="3.12"/>
      <text class="cls-35" transform="translate(0 427.46)"><tspan x="0" y="0">四</tspan><tspan x="0" y="16.87">川</tspan></text>
    </g>
    <g>
      <circle class="cls-37" cx="7.34" cy="500.73" r="3.12"/>
      <text class="cls-35" transform="translate(0 522.55)"><tspan x="0" y="0">云</tspan><tspan x="0" y="16.87">贵</tspan></text>
    </g>
    <g>
      <circle class="cls-37" cx="7.34" cy="605.72" r="3.12"/>
      <text class="cls-35" transform="translate(0 627.55)"><tspan x="0" y="0">华</tspan><tspan x="0" y="16.87">南</tspan></text>
    </g>
    <g>
      <line class="cls-16" x1="35.5" y1="951.23" x2="35.5" y2="11.06"/>
      <line class="cls-16" x1="150.83" y1="951.23" x2="150.83" y2="11.06"/>
      <line class="cls-21" x1="266.16" y1="951.23" x2="266.16" y2="11.06"/>
      <line class="cls-23" x1="381.49" y1="951.23" x2="381.49" y2="11.06"/>
      <line class="cls-16" x1="496.83" y1="951.23" x2="496.83" y2="11.06"/>
    </g>
    <g>
      <text class="cls-31" transform="translate(37.39 968.04)"><tspan x="0" y="0">春</tspan></text>
      <text class="cls-31" transform="translate(152.07 968.04)"><tspan x="0" y="0">夏</tspan></text>
      <text class="cls-31" transform="translate(266.5 968.04)"><tspan x="0" y="0">秋</tspan></text>
      <text class="cls-31" transform="translate(382.19 968.04)"><tspan x="0" y="0">冬</tspan></text>
      <g>
        <g>
          <path class="cls-32" d="M384.15,985.36v-7.15c-.52.65-1.42,1.27-2.7,1.87l-.02-.93c1.45-.67,2.43-1.53,2.95-2.58h.81v8.8h-1.04Z"/>
          <path class="cls-32" d="M390.56,976.49c.99,0,1.76.39,2.28,1.16s.79,1.89.79,3.34-.26,2.61-.79,3.37c-.51.75-1.27,1.13-2.26,1.13-.9,0-1.61-.33-2.13-.98-.62-.77-.93-1.94-.93-3.52,0-1.43.27-2.53.82-3.32.54-.78,1.28-1.17,2.22-1.17ZM390.59,984.66c.62,0,1.09-.27,1.42-.82.34-.61.52-1.55.52-2.83s-.17-2.21-.5-2.82c-.33-.57-.81-.86-1.45-.86-.6,0-1.07.29-1.4.88-.36.63-.54,1.56-.54,2.8s.18,2.19.55,2.81c.33.56.8.84,1.42.84Z"/>
        </g>
        <g>
          <path class="cls-32" d="M461.63,985.42v-7.15c-.52.65-1.42,1.27-2.7,1.87l-.02-.93c1.45-.67,2.43-1.53,2.95-2.58h.81v8.8h-1.04Z"/>
          <path class="cls-32" d="M466.13,984.52h4.7v.89h-5.95v-.69c.31-.58.7-1.13,1.18-1.67.46-.51,1-1,1.62-1.47.78-.59,1.32-1.07,1.62-1.45.27-.34.41-.7.41-1.1,0-.49-.15-.88-.44-1.16-.31-.3-.76-.45-1.35-.45-.49,0-.9.15-1.24.44s-.57.73-.71,1.31l-.97-.29c.2-.75.56-1.33,1.09-1.72s1.2-.59,2.01-.59c.86,0,1.54.23,2.03.7.45.43.67.98.67,1.66,0,.59-.15,1.09-.45,1.5-.29.4-.84.9-1.68,1.5-1.16.84-2.01,1.7-2.55,2.59Z"/>
        </g>
        <path class="cls-32" d="M40.36,985.02v-6.55c-.52.6-1.42,1.16-2.7,1.71l-.02-.85c1.45-.62,2.43-1.4,2.95-2.36h.81v8.05h-1.04Z"/>
        <path class="cls-32" d="M76.46,984.53h4.7v.89h-5.95v-.69c.31-.58.7-1.13,1.18-1.67.46-.51,1-1,1.62-1.47.78-.59,1.32-1.07,1.62-1.45.27-.34.41-.7.41-1.1,0-.49-.15-.88-.44-1.16-.31-.3-.76-.45-1.35-.45-.49,0-.9.15-1.24.44s-.57.73-.71,1.31l-.97-.29c.2-.75.56-1.33,1.09-1.72s1.2-.59,2.01-.59c.86,0,1.54.23,2.03.7.45.43.67.98.67,1.66,0,.59-.15,1.09-.45,1.5-.29.4-.84.9-1.68,1.5-1.16.84-2.01,1.7-2.55,2.59Z"/>
        <path class="cls-32" d="M113.8,983.14l1.08-.23c.1.59.33,1.04.69,1.33.34.29.77.43,1.31.43.62,0,1.1-.16,1.45-.49.34-.31.5-.74.5-1.28,0-.48-.16-.86-.49-1.14-.37-.32-.95-.49-1.74-.49h-.78v-.83h.64c.59,0,1.05-.1,1.4-.31.46-.27.69-.7.69-1.27,0-.46-.14-.83-.43-1.1-.29-.29-.71-.43-1.24-.43-.51,0-.92.15-1.23.43-.31.28-.51.68-.61,1.22l-1.03-.23c.16-.7.49-1.25.98-1.63.51-.4,1.17-.6,1.96-.6.84,0,1.51.23,2.01.68.45.41.67.93.68,1.57.01.52-.14.96-.47,1.33-.31.35-.73.59-1.24.72.01,0,.03,0,.05.01.62.12,1.11.38,1.46.8.31.39.47.84.47,1.35,0,.75-.26,1.36-.79,1.82-.55.48-1.3.71-2.25.71-.84,0-1.51-.19-2.01-.57-.5-.38-.86-.97-1.05-1.78Z"/>
        <path class="cls-32" d="M157.59,982.53h1.16v.8h-1.16v2.06h-.95v-2.06h-4.33v-.68l4.32-6.06h.97v5.94ZM153.34,982.53h3.29v-3.63c0-.43.01-.8.02-1.12-.21.33-.41.64-.6.93l-2.71,3.82Z"/>
        <path class="cls-32" d="M191.15,983.04l1.04-.23c.1.6.33,1.05.68,1.34.34.29.77.43,1.31.43.61,0,1.09-.2,1.45-.59.37-.39.55-.9.55-1.54s-.18-1.13-.53-1.5c-.37-.39-.85-.58-1.46-.58-.83,0-1.46.34-1.87.99l-.83-.05.43-4.71h4.87v.88s-3.99,0-3.99,0l-.3,2.9c.49-.53,1.14-.79,1.95-.79s1.52.26,2.03.79c.5.51.75,1.19.75,2.02,0,.92-.27,1.65-.8,2.19-.53.55-1.27.82-2.22.82-.83,0-1.5-.2-2.02-.61-.51-.39-.86-.98-1.04-1.74Z"/>
        <path class="cls-32" d="M308.93,980.81h0c-.46-.15-.83-.39-1.11-.75-.28-.37-.42-.79-.42-1.27,0-.64.25-1.17.76-1.61.53-.46,1.21-.69,2.04-.69s1.5.24,2.03.71c.5.44.76.97.76,1.59,0,.49-.13.91-.39,1.25-.28.36-.67.61-1.17.75h0c.55.14.99.4,1.34.79.36.42.54.9.54,1.45,0,.76-.28,1.36-.81,1.79-.56.45-1.34.67-2.36.68-.92,0-1.66-.23-2.22-.68-.55-.45-.82-1.04-.82-1.79,0-.51.15-.97.48-1.38.34-.42.8-.7,1.36-.83ZM310.2,984.71c.61,0,1.1-.16,1.47-.47.37-.3.55-.7.55-1.2,0-.58-.22-1.03-.65-1.35-.35-.27-.82-.43-1.42-.47-.59.04-1.05.21-1.38.48-.4.32-.59.76-.59,1.31,0,.51.19.92.56,1.23.37.31.86.47,1.46.47ZM310.21,977.28c-.51,0-.93.15-1.24.44-.31.29-.47.65-.47,1.1s.14.83.42,1.1c.29.29.72.45,1.29.49.53-.04.94-.18,1.23-.44.31-.29.47-.67.47-1.14s-.16-.83-.47-1.12c-.31-.29-.72-.43-1.23-.43Z"/>
        <path class="cls-32" d="M345.98,983.43l.98-.21c.12.48.34.83.64,1.08.29.25.66.37,1.1.36.67,0,1.18-.26,1.54-.78.39-.55.6-1.37.65-2.46.01-.2.02-.38.01-.54-.23.46-.54.81-.94,1.05-.4.24-.88.36-1.43.36-.77,0-1.4-.24-1.9-.74-.53-.51-.8-1.2-.8-2.06s.26-1.59.79-2.14c.54-.58,1.27-.87,2.17-.87s1.57.24,2.09.73c.5.48.82,1.17.95,2.1.07.48.1.96.1,1.46,0,1.62-.3,2.83-.9,3.61-.54.72-1.33,1.09-2.36,1.09-.72,0-1.31-.18-1.77-.55-.45-.36-.76-.86-.91-1.5ZM350.83,979.55c-.03-.7-.22-1.24-.57-1.62-.35-.4-.83-.59-1.45-.59s-1.09.2-1.44.59c-.34.38-.52.89-.52,1.51,0,.63.17,1.13.53,1.5.34.37.8.55,1.36.55.64,0,1.15-.18,1.53-.55.37-.36.55-.82.56-1.39Z"/>
        <g>
          <path class="cls-32" d="M424.13,985.39v-7.15c-.52.65-1.42,1.27-2.7,1.87l-.02-.93c1.45-.67,2.43-1.53,2.95-2.58h.81v8.8h-1.04Z"/>
          <path class="cls-32" d="M429.95,985.39v-7.15c-.52.65-1.42,1.27-2.7,1.87l-.02-.93c1.45-.67,2.43-1.53,2.95-2.58h.81v8.8h-1.04Z"/>
        </g>
        <path class="cls-32" d="M235.71,978.55l-.98.21c-.13-.48-.34-.83-.64-1.08-.29-.25-.65-.37-1.09-.36-.65,0-1.16.27-1.53.8-.39.55-.6,1.35-.65,2.41,0,.2,0,.38-.01.56.23-.45.54-.8.93-1.04.4-.24.88-.36,1.44-.36.8,0,1.46.27,1.98.82.5.52.75,1.17.75,1.96,0,.88-.26,1.59-.78,2.14-.53.58-1.25.87-2.16.87-.86.01-1.55-.22-2.07-.7-.52-.48-.85-1.19-1-2.13-.07-.44-.11-.94-.11-1.51,0-1.48.28-2.63.84-3.43.56-.8,1.35-1.21,2.38-1.21.73,0,1.33.2,1.81.59.43.36.72.84.88,1.46ZM232.95,984.66c.59,0,1.06-.2,1.42-.6.34-.39.52-.89.52-1.51s-.17-1.09-.5-1.47c-.34-.38-.81-.57-1.39-.57-.69,0-1.23.23-1.61.66-.3.34-.45.77-.46,1.27.04.7.24,1.24.6,1.63.36.4.84.59,1.44.59Z"/>
        <path class="cls-32" d="M271.15,985.34h-1.11c.18-1.28.56-2.6,1.14-3.96.56-1.32,1.27-2.6,2.14-3.86h-4.78v-.88h5.97v.76c-.94,1.29-1.7,2.6-2.26,3.91-.56,1.32-.93,2.67-1.1,4.04Z"/>
      </g>
      <line class="cls-24" x1="38.44" y1="989.11" x2="501.83" y2="989.11"/>
    </g>
    <path class="cls-41" d="M196.62,1046.83c-1.43,1.77-2.53,3.81-3.29,6.03-.76-2.22-1.86-4.26-3.29-6.03,0,6.31-.11,5-.05,8.63.1,6.29.72,9.48,3.35,12.86,2.62-3.38,3.24-6.57,3.35-12.86.06-3.63-.05-2.31-.05-8.63Z"/>
    <path class="cls-41" d="M196.67,1036.99c-1.43,1.77-2.58,3.81-3.35,6.03-.76-2.22-1.91-4.26-3.35-6.03,0,1.19-.06-2.16,0,1.46.1,6.29.72,9.48,3.35,12.86,2.62-3.38,3.24-6.57,3.35-12.86.06-3.63,0-.27,0-1.46Z"/>
    <path class="cls-41" d="M196.67,1027.17c-1.43,1.77-2.58,3.81-3.35,6.03-.76-2.22-1.91-4.26-3.35-6.03,0,1.19-.06-2.16,0,1.46.1,6.29.72,9.48,3.35,12.86,2.62-3.38,3.24-6.57,3.35-12.86.06-3.63,0-.27,0-1.46Z"/>
    <path class="cls-41" d="M118.39,1035.02c-3.08,3.8-5.55,8.2-7.2,12.97-1.64-4.77-4.12-9.17-7.2-12.97,0,2.57-.13-4.65,0,3.15.22,13.52,1.55,20.38,7.2,27.65,5.64-7.27,6.98-14.13,7.2-27.65.13-7.8,0-.58,0-3.15Z"/>
    <g>
      <path class="cls-41" d="M155.76,1040.06c-1.88,2.32-3.33,5.01-4.33,7.93-1-2.92-2.45-5.6-4.33-7.93,0,8.3-.15,6.57-.07,11.34.14,8.27.95,12.46,4.4,16.91,3.45-4.44,4.27-8.64,4.4-16.91.08-4.77-.07-3.04-.07-11.34Z"/>
      <path class="cls-41" d="M155.84,1027.26c-1.88,2.32-3.4,5.01-4.4,7.93-1-2.92-2.52-5.6-4.4-7.93,0,1.57-.08-2.84,0,1.92.14,8.27.95,12.46,4.4,16.91,3.45-4.44,4.27-8.64,4.4-16.91.08-4.77,0-.36,0-1.92Z"/>
    </g>
    <path class="cls-41" d="M75,1033.98c4.41,10.03,4.45,22.19,0,32.22-4.45-10.02-4.41-22.19,0-32.22h0Z"/>
    <text class="cls-30" transform="translate(210.06 1033.85)"><tspan x="0" y="0">非</tspan><tspan x="0" y="9.41">遗</tspan><tspan x="0" y="18.83">级</tspan><tspan x="0" y="28.24">别</tspan><tspan x="0" y="37.65">高</tspan></text>
    <text class="cls-29" transform="translate(221.71 1035.3)"><tspan x="0" y="0">影</tspan><tspan x="0" y="11.56">响</tspan><tspan x="0" y="23.12">力</tspan><tspan x="0" y="34.68">大</tspan></text>
    <text class="cls-30" transform="translate(35.47 1033.85)"><tspan x="0" y="0">非</tspan><tspan x="0" y="9.41">遗</tspan><tspan x="0" y="18.83">级</tspan><tspan x="0" y="28.24">别</tspan><tspan x="0" y="37.65">低</tspan></text>
    <text class="cls-29" transform="translate(48.46 1035.3)"><tspan x="0" y="0">影</tspan><tspan x="0" y="11.56">响</tspan><tspan x="0" y="23.12">力</tspan><tspan x="0" y="34.68">小</tspan></text>
    <path class="cls-41" d="M404.94,1025.9c6.41,7.57,9.63,19.71,7.04,29.22-6.44-7.56-9.6-19.71-7.04-29.22h0Z"/>
    <line class="cls-7" x1="409.04" y1="1045.22" x2="403.38" y2="1019.33"/>
    <path class="cls-41" d="M419.4,1025.9c-6.41,7.57-9.63,19.71-7.04,29.22,6.44-7.56,9.6-19.71,7.04-29.22h0Z"/>
    <line class="cls-7" x1="415.31" y1="1045.22" x2="420.97" y2="1019.33"/>
    <path class="cls-41" d="M460.81,1026.55c.17,6.13-1.41,12.81-4.32,18.77-2.22,4.55-9.14,1.55-7.21-3.12,2.57-6.22,6.57-11.88,11.52-15.65h0Z"/>
    <path class="cls-41" d="M443.15,1024.27c-.32,11.48,5.51,24.92,14.69,31.86.36-11.49-5.54-24.9-14.69-31.86h0Z"/>
    <path class="cls-41" d="M346.9,1024.57c-2.36,3.8-4.25,8.2-5.51,12.97-1.26-4.77-3.15-9.17-5.51-12.97,0,2.57-.1-4.65,0,3.15.17,13.52,1.19,20.38,5.51,27.65,4.32-7.27,5.34-14.13,5.51-27.65.1-7.8,0-.58,0-3.15Z"/>
    <text class="cls-36" transform="translate(334.86 1071.33)"><tspan x="0" y="0">春</tspan></text>
    <text class="cls-36" transform="translate(372.29 1070.99)"><tspan x="0" y="0">夏</tspan></text>
    <text class="cls-36" transform="translate(407.61 1071.29)"><tspan x="0" y="0">秋</tspan></text>
    <text class="cls-36" transform="translate(445.57 1071.37)"><tspan x="0" y="0">冬</tspan></text>
    <text class="cls-36" transform="translate(284.86 1071.33)"><tspan x="0" y="0">未标注</tspan></text>
    <path class="cls-41" d="M302.49,1025.54c4.2,9.55,4.24,21.14,0,30.69-4.24-9.55-4.21-21.14,0-30.69h0Z"/>
    <text class="cls-30" transform="translate(249.81 1058.32)"><tspan x="0" y="0">纵</tspan><tspan x="0" y="9.41">坐</tspan><tspan x="0" y="18.83">标</tspan></text>
    <text class="cls-33" transform="translate(259.88 1062.14)"><tspan x="0" y="0">地</tspan><tspan x="0" y="13.85">域</tspan></text>
    <text class="cls-30" transform="translate(468.81 1058.32)"><tspan x="0" y="0">横</tspan><tspan x="0" y="9.41">坐</tspan><tspan x="0" y="18.83">标</tspan></text>
    <text class="cls-33" transform="translate(478.88 1062.14)"><tspan x="0" y="0">日</tspan><tspan x="0" y="13.85">期</tspan></text>
    <polyline class="cls-24" points="285.83 1077.23 462.83 1077.23 454.83 1086.23"/>
    <polyline class="cls-24" points="276.83 1078.23 276.83 1028.23 267.83 1036.23"/>
    <path class="cls-41" d="M383.12,1021.72c-5.47,10.82-7.53,24.54-5.39,36.33,5.49-10.81,7.5-24.54,5.39-36.33h0Z"/>
    <path class="cls-41" d="M371.8,1026.23c4.34,8.59,5.97,19.47,4.27,28.82-4.36-8.58-5.95-19.47-4.27-28.82h0Z"/>
    <line class="cls-5" x1="43.14" y1="951.23" x2="43.14" y2="258.54"/>
    <line class="cls-5" x1="62.3" y1="951.23" x2="62.3" y2="843.23"/>
    <line class="cls-5" x1="81.67" y1="951.23" x2="81.67" y2="843.23"/>
    <line class="cls-5" x1="100.32" y1="951.23" x2="100.32" y2="843.23"/>
    <line class="cls-5" x1="119.51" y1="951.23" x2="119.51" y2="230.6"/>
    <line class="cls-5" x1="138.62" y1="951.23" x2="138.62" y2="841.77"/>
    <line class="cls-5" x1="158.96" y1="951.23" x2="158.96" y2="841.23"/>
    <line class="cls-5" x1="278.52" y1="951.23" x2="278.52" y2="352.23"/>
    <line class="cls-5" x1="178.03" y1="951.23" x2="178.03" y2="331.61"/>
    <line class="cls-5" x1="198.38" y1="951.23" x2="198.38" y2="352.23"/>
    <line class="cls-5" x1="218.75" y1="951.23" x2="218.75" y2="526.23"/>
    <line class="cls-5" x1="237.82" y1="951.23" x2="237.82" y2="526.23"/>
    <line class="cls-5" x1="258.17" y1="951.23" x2="258.17" y2="331.41"/>
    <line class="cls-5" x1="43.19" y1="951.23" x2="43.19" y2="758.91"/>
    <line class="cls-5" x1="297.6" y1="951.23" x2="297.6" y2="843.44"/>
    <line class="cls-5" x1="317.93" y1="951.23" x2="317.93" y2="843.44"/>
    <line class="cls-5" x1="337.01" y1="951.23" x2="337.01" y2="838.23"/>
    <line class="cls-5" x1="357.37" y1="951.23" x2="357.37" y2="843.44"/>
    <line class="cls-5" x1="395.52" y1="951.23" x2="395.52" y2="842.53"/>
    <line class="cls-5" x1="414.6" y1="951.23" x2="414.6" y2="842.23"/>
    <line class="cls-5" x1="432.35" y1="951.23" x2="432.35" y2="842.23"/>
    <line class="cls-5" x1="451.46" y1="951.23" x2="451.46" y2="164.23"/>
    <line class="cls-5" x1="470.58" y1="951.23" x2="470.58" y2="824.23"/>
    <line class="cls-5" x1="489.69" y1="951.23" x2="489.69" y2="824.23"/>
    <line class="cls-5" x1="376.45" y1="951.23" x2="376.45" y2="540.23"/>
    <line class="cls-5" x1="179.08" y1="714.02" x2="179.08" y2="338.99"/>
    <path class="cls-5" d="M177.97,779.93c.63-12.81,1.32-33.42,1.32-85.99"/>
    <line class="cls-5" x1="199.34" y1="714.02" x2="199.34" y2="338.99"/>
    <path class="cls-5" d="M198.22,779.93c.63-12.81,1.32-33.42,1.32-85.99"/>
    <line class="cls-5" x1="452.5" y1="816.18" x2="452.5" y2="709.11"/>
    <path class="cls-5" d="M451.23,835c.71-3.66,1.5-9.54,1.5-24.55"/>
    <g>
      <path class="cls-8" d="M312.09,806.44c5.64,9.57,8.47,24.9,6.19,36.91-5.67-9.55-8.44-24.9-6.19-36.91h0Z"/>
      <line class="cls-17" x1="315.33" y1="831.36" x2="310.34" y2="798.65"/>
      <path class="cls-8" d="M323.92,806.44c-5.64,9.57-8.47,24.9-6.19,36.91,5.67-9.55,8.44-24.9,6.19-36.91h0Z"/>
      <line class="cls-15" x1="320.68" y1="831.36" x2="325.66" y2="798.65"/>
      <path class="cls-8" d="M312.09,822.43c5.64,9.57,8.47,24.9,6.19,36.91-5.67-9.55-8.44-24.9-6.19-36.91h0Z"/>
      <line class="cls-15" x1="315.33" y1="847.36" x2="310.34" y2="814.65"/>
      <path class="cls-8" d="M323.92,822.43c-5.64,9.57-8.47,24.9-6.19,36.91,5.67-9.55,8.44-24.9,6.19-36.91h0Z"/>
      <line class="cls-17" x1="320.68" y1="847.36" x2="325.66" y2="814.65"/>
      <path class="cls-8" d="M312.09,838.52c5.42,9.19,8.25,23.7,6.44,35.48-.09.56-.66.72-.91.26-5.21-9.6-7.68-24.21-5.53-35.74h0Z"/>
      <line class="cls-15" x1="315.33" y1="863.36" x2="310.34" y2="830.64"/>
      <path class="cls-8" d="M323.92,838.43c-5.64,9.57-8.47,24.9-6.19,36.91,5.67-9.55,8.44-24.9,6.19-36.91h0Z"/>
      <line class="cls-15" x1="320.68" y1="863.36" x2="325.66" y2="830.64"/>
    </g>
    <g>
      <path class="cls-6" d="M351.53,806.44c5.64,9.57,8.47,24.9,6.19,36.91-5.67-9.55-8.44-24.9-6.19-36.91h0Z"/>
      <line class="cls-18" x1="354.77" y1="831.36" x2="349.79" y2="798.65"/>
      <path class="cls-6" d="M363.36,806.44c-5.64,9.57-8.47,24.9-6.19,36.91,5.67-9.55,8.44-24.9,6.19-36.91h0Z"/>
      <line class="cls-20" x1="360.12" y1="831.36" x2="365.1" y2="798.65"/>
      <path class="cls-6" d="M351.53,822.43c5.64,9.57,8.47,24.9,6.19,36.91-5.67-9.55-8.44-24.9-6.19-36.91h0Z"/>
      <line class="cls-20" x1="354.77" y1="847.36" x2="349.79" y2="814.65"/>
      <path class="cls-6" d="M363.36,822.43c-5.64,9.57-8.47,24.9-6.19,36.91,5.67-9.55,8.44-24.9,6.19-36.91h0Z"/>
      <line class="cls-18" x1="360.12" y1="847.36" x2="365.1" y2="814.65"/>
      <path class="cls-6" d="M351.53,838.52c5.42,9.19,8.25,23.7,6.44,35.48-.09.56-.66.72-.91.26-5.21-9.6-7.68-24.21-5.53-35.74h0Z"/>
      <line class="cls-20" x1="354.77" y1="863.36" x2="349.79" y2="830.64"/>
      <path class="cls-6" d="M363.36,838.43c-5.64,9.57-8.47,24.9-6.19,36.91,5.67-9.55,8.44-24.9,6.19-36.91h0Z"/>
      <line class="cls-20" x1="360.12" y1="863.36" x2="365.1" y2="830.64"/>
    </g>
    <path class="cls-27" d="M146.01,823.99c-3.24,4.46-5.71,9.62-7.44,15.22-1.73-5.6-4.2-10.76-7.44-15.22,0,15.94-.25,12.62-.12,21.78.23,15.88,1.63,23.93,7.56,32.47,5.93-8.53,7.33-16.59,7.56-32.47.13-9.15-.12-5.84-.12-21.78Z"/>
    <path class="cls-27" d="M146.13,799.24c-3.24,3.89-5.84,8.39-7.56,13.28-1.73-4.89-4.32-9.38-7.56-13.28,0,2.63-.13-4.76,0,3.22.23,13.85,1.63,20.87,7.56,28.31,5.93-7.44,7.33-14.47,7.56-28.31.13-7.98,0-.59,0-3.22Z"/>
    <path class="cls-41" d="M88.24,825.23c-3.01,4.18-5.32,9.02-6.93,14.27-1.61-5.25-3.91-10.08-6.93-14.27,0,14.94-.24,11.83-.11,20.41.22,14.88,1.52,22.43,7.04,30.42,5.52-8,6.82-15.55,7.04-30.43.12-8.58-.11-5.47-.11-20.41Z"/>
    <path class="cls-41" d="M88.36,798.31c-3.01,4.39-5.43,9.46-7.04,14.97-1.61-5.51-4.03-10.58-7.04-14.97,0,2.96-.12-5.37,0,3.64.22,15.62,1.52,23.54,7.04,31.93,5.52-8.39,6.82-16.32,7.04-31.93.12-9,0-.67,0-3.63Z"/>
    <path class="cls-41" d="M107.47,825.23c-3.07,4.18-5.43,9.02-7.07,14.27-1.64-5.25-3.99-10.08-7.07-14.27,0,14.94-.24,11.83-.11,20.41.22,14.88,1.55,22.43,7.18,30.42,5.63-8,6.96-15.55,7.18-30.43.13-8.58-.11-5.47-.11-20.41Z"/>
    <path class="cls-41" d="M107.59,798.31c-3.07,4.39-5.54,9.46-7.18,14.97-1.64-5.51-4.11-10.58-7.18-14.97,0,2.96-.13-5.37,0,3.64.22,15.62,1.55,23.54,7.18,31.93,5.63-8.39,6.96-16.32,7.18-31.93.13-9,0-.67,0-3.63Z"/>
    <path class="cls-27" d="M126.87,825.45c-3.23,4.39-5.7,9.46-7.42,14.97-1.72-5.51-4.19-10.58-7.42-14.97,0,15.68-.25,12.42-.12,21.42.23,15.62,1.63,23.54,7.54,31.93,5.91-8.39,7.31-16.32,7.54-31.93.13-9-.12-5.74-.12-21.42Z"/>
    <path class="cls-27" d="M127,798.31c-3.23,4.39-5.82,9.46-7.54,14.97-1.72-5.51-4.31-10.58-7.54-14.97,0,2.96-.13-5.37,0,3.64.23,15.62,1.63,23.54,7.54,31.93,5.91-8.39,7.31-16.32,7.54-31.93.13-9,0-.67,0-3.63Z"/>
    <path class="cls-25" d="M182.39,810.8c-5.1,8.27-6.69,20.36-4.19,32.48,5.13-8.25,6.66-20.37,4.19-32.48h0Z"/>
    <path class="cls-25" d="M172.51,795.62c5.1,8.27,6.69,20.36,4.19,32.48-5.13-8.25-6.66-20.37-4.19-32.48h0Z"/>
    <path class="cls-25" d="M172.73,822.28c7.03,14.61,9.49,33.23,6.4,49.3-7.07-14.6-9.45-33.22-6.4-49.3h0Z"/>
    <path class="cls-25" d="M182.66,837.51c2.92,13.91,1.12,30.11-4.84,42.89-2.95-13.9-1.09-30.09,4.84-42.89h0Z"/>
    <path class="cls-25" d="M163.28,810.8c-5.1,8.27-6.69,20.36-4.19,32.48,5.13-8.25,6.66-20.37,4.19-32.48h0Z"/>
    <path class="cls-25" d="M153.4,795.62c5.1,8.27,6.69,20.36,4.19,32.48-5.13-8.25-6.66-20.37-4.19-32.48h0Z"/>
    <path class="cls-25" d="M153.61,822.28c7.03,14.61,9.49,33.23,6.4,49.3-7.07-14.6-9.45-33.22-6.4-49.3h0Z"/>
    <path class="cls-25" d="M163.54,837.51c2.92,13.91,1.12,30.11-4.84,42.89-2.95-13.9-1.09-30.09,4.84-42.89h0Z"/>
    <path class="cls-4" d="M202.74,810.8c-5.1,8.27-6.69,20.36-4.19,32.48,5.13-8.25,6.66-20.37,4.19-32.48h0Z"/>
    <path class="cls-4" d="M192.86,795.62c5.1,8.27,6.69,20.36,4.19,32.48-5.13-8.25-6.66-20.37-4.19-32.48h0Z"/>
    <path class="cls-4" d="M193.08,822.28c7.03,14.61,9.49,33.23,6.4,49.3-7.07-14.6-9.45-33.22-6.4-49.3h0Z"/>
    <path class="cls-4" d="M203.01,837.51c2.92,13.91,1.12,30.11-4.84,42.89-2.95-13.9-1.09-30.09,4.84-42.89h0Z"/>
    <path class="cls-4" d="M223.12,810.43c-5.1,7.33-6.69,18.05-4.19,28.8,5.13-7.31,6.66-18.06,4.19-28.8h0Z"/>
    <path class="cls-4" d="M213.24,796.57c5.1,7.33,6.69,18.05,4.19,28.8-5.13-7.31-6.66-18.06-4.19-28.8h0Z"/>
    <path class="cls-4" d="M213.45,821.17c7.03,12.96,9.49,29.46,6.4,43.71-7.07-12.94-9.45-29.45-6.4-43.71h0Z"/>
    <path class="cls-4" d="M223.38,834.68c2.92,12.33,1.12,26.7-4.84,38.03-2.95-12.33-1.09-26.68,4.84-38.03h0Z"/>
    <path class="cls-28" d="M242.18,810.43c-5.1,7.33-6.69,18.05-4.19,28.8,5.13-7.31,6.66-18.06,4.19-28.8h0Z"/>
    <path class="cls-28" d="M232.3,796.57c5.1,7.33,6.69,18.05,4.19,28.8-5.13-7.31-6.66-18.06-4.19-28.8h0Z"/>
    <path class="cls-28" d="M232.51,821.17c7.03,12.96,9.49,29.46,6.4,43.71-7.07-12.94-9.45-29.45-6.4-43.71h0Z"/>
    <path class="cls-28" d="M242.45,834.68c2.92,12.33,1.12,26.7-4.84,38.03-2.95-12.33-1.09-26.68,4.84-38.03h0Z"/>
    <path class="cls-28" d="M262.53,810.44c-5.1,7.33-6.69,18.05-4.19,28.8,5.13-7.31,6.66-18.06,4.19-28.8h0Z"/>
    <path class="cls-28" d="M252.65,796.58c5.1,7.33,6.69,18.05,4.19,28.8-5.13-7.31-6.66-18.06-4.19-28.8h0Z"/>
    <path class="cls-28" d="M252.86,821.19c7.03,12.96,9.49,29.46,6.4,43.71-7.07-12.94-9.45-29.45-6.4-43.71h0Z"/>
    <path class="cls-28" d="M262.8,834.69c2.92,12.33,1.12,26.7-4.84,38.03-2.95-12.33-1.09-26.68,4.84-38.03h0Z"/>
    <path class="cls-40" d="M68.91,825.45c-2.9,4.39-5.12,9.46-6.66,14.97-1.54-5.51-3.76-10.58-6.66-14.97,0,15.68-.23,12.42-.11,21.42.21,15.62,1.46,23.54,6.77,31.93,5.31-8.39,6.56-16.32,6.77-31.93.12-9-.11-5.74-.11-21.42Z"/>
    <path class="cls-40" d="M69.02,798.31c-2.9,4.39-5.22,9.46-6.77,14.97-1.54-5.51-3.87-10.58-6.77-14.97,0,2.96-.12-5.37,0,3.64.21,15.62,1.46,23.54,6.77,31.93,5.31-8.39,6.56-16.32,6.77-31.93.12-9,0-.67,0-3.63Z"/>
    <path class="cls-40" d="M49.8,825.45c-2.9,4.39-5.12,9.46-6.66,14.97-1.54-5.51-3.76-10.58-6.66-14.97,0,15.68-.23,12.42-.11,21.42.21,15.62,1.46,23.54,6.77,31.93,5.31-8.39,6.56-16.32,6.77-31.93.12-9-.11-5.74-.11-21.42Z"/>
    <path class="cls-40" d="M49.9,798.31c-2.9,4.39-5.22,9.46-6.77,14.97-1.54-5.51-3.87-10.58-6.77-14.97,0,2.96-.12-5.37,0,3.64.21,15.62,1.46,23.54,6.77,31.93,5.31-8.39,6.56-16.32,6.77-31.93.12-9,0-.67,0-3.63Z"/>
    <g>
      <path class="cls-12" d="M272.64,805.21c5.64,9.8,8.47,25.5,6.19,37.81-5.67-9.78-8.44-25.51-6.19-37.81h0Z"/>
      <line class="cls-13" x1="275.88" y1="830.74" x2="270.9" y2="797.24"/>
      <path class="cls-12" d="M284.47,805.21c-5.64,9.8-8.47,25.5-6.19,37.81,5.67-9.78,8.44-25.51,6.19-37.81h0Z"/>
      <line class="cls-11" x1="281.23" y1="830.74" x2="286.21" y2="797.24"/>
      <path class="cls-12" d="M272.64,821.6c5.64,9.8,8.47,25.5,6.19,37.81-5.67-9.78-8.44-25.51-6.19-37.81h0Z"/>
      <line class="cls-11" x1="275.88" y1="847.13" x2="270.9" y2="813.62"/>
      <path class="cls-12" d="M284.47,821.6c-5.64,9.8-8.47,25.5-6.19,37.81,5.67-9.78,8.44-25.51,6.19-37.81h0Z"/>
      <line class="cls-13" x1="281.23" y1="847.13" x2="286.21" y2="813.62"/>
      <path class="cls-12" d="M272.64,838.07c5.42,9.41,8.25,24.28,6.44,36.34-.09.58-.66.74-.91.26-5.21-9.83-7.68-24.8-5.53-36.6h0Z"/>
      <line class="cls-11" x1="275.88" y1="863.52" x2="270.9" y2="830.01"/>
      <path class="cls-12" d="M284.47,837.99c-5.64,9.8-8.47,25.5-6.19,37.81,5.67-9.78,8.44-25.51,6.19-37.81h0Z"/>
      <line class="cls-11" x1="281.23" y1="863.52" x2="286.21" y2="830.01"/>
    </g>
    <g>
      <path class="cls-12" d="M291.75,805.21c5.64,9.8,8.47,25.5,6.19,37.81-5.67-9.78-8.44-25.51-6.19-37.81h0Z"/>
      <line class="cls-13" x1="294.99" y1="830.74" x2="290.01" y2="797.24"/>
      <path class="cls-12" d="M303.59,805.21c-5.64,9.8-8.47,25.5-6.19,37.81,5.67-9.78,8.44-25.51,6.19-37.81h0Z"/>
      <line class="cls-11" x1="300.35" y1="830.74" x2="305.33" y2="797.24"/>
      <path class="cls-12" d="M291.75,821.6c5.64,9.8,8.47,25.5,6.19,37.81-5.67-9.78-8.44-25.51-6.19-37.81h0Z"/>
      <line class="cls-11" x1="294.99" y1="847.13" x2="290.01" y2="813.62"/>
      <path class="cls-12" d="M303.59,821.6c-5.64,9.8-8.47,25.5-6.19,37.81,5.67-9.78,8.44-25.51,6.19-37.81h0Z"/>
      <line class="cls-13" x1="300.35" y1="847.13" x2="305.33" y2="813.62"/>
      <path class="cls-12" d="M291.75,838.07c5.42,9.41,8.25,24.28,6.44,36.34-.09.58-.66.74-.91.26-5.21-9.83-7.68-24.8-5.53-36.6h0Z"/>
      <line class="cls-11" x1="294.99" y1="863.52" x2="290.01" y2="830.01"/>
      <path class="cls-12" d="M303.59,837.99c-5.64,9.8-8.47,25.5-6.19,37.81,5.67-9.78,8.44-25.51,6.19-37.81h0Z"/>
      <line class="cls-11" x1="300.35" y1="863.52" x2="305.33" y2="830.01"/>
    </g>
    <g>
      <path class="cls-8" d="M331.16,806.44c5.64,9.57,8.47,24.9,6.19,36.91-5.67-9.55-8.44-24.9-6.19-36.91h0Z"/>
      <line class="cls-17" x1="334.4" y1="831.36" x2="329.42" y2="798.65"/>
      <path class="cls-8" d="M342.99,806.44c-5.64,9.57-8.47,24.9-6.19,36.91,5.67-9.55,8.44-24.9,6.19-36.91h0Z"/>
      <line class="cls-15" x1="339.75" y1="831.36" x2="344.73" y2="798.65"/>
      <path class="cls-8" d="M331.16,822.43c5.64,9.57,8.47,24.9,6.19,36.91-5.67-9.55-8.44-24.9-6.19-36.91h0Z"/>
      <line class="cls-15" x1="334.4" y1="847.36" x2="329.42" y2="814.65"/>
      <path class="cls-8" d="M342.99,822.43c-5.64,9.57-8.47,24.9-6.19,36.91,5.67-9.55,8.44-24.9,6.19-36.91h0Z"/>
      <line class="cls-17" x1="339.75" y1="847.36" x2="344.73" y2="814.65"/>
      <path class="cls-8" d="M331.16,838.52c5.42,9.19,8.25,23.7,6.44,35.48-.09.56-.66.72-.91.26-5.21-9.6-7.68-24.21-5.53-35.74h0Z"/>
      <line class="cls-15" x1="334.4" y1="863.36" x2="329.42" y2="830.64"/>
      <path class="cls-8" d="M342.99,838.43c-5.64,9.57-8.47,24.9-6.19,36.91,5.67-9.55,8.44-24.9,6.19-36.91h0Z"/>
      <line class="cls-15" x1="339.75" y1="863.36" x2="344.73" y2="830.64"/>
    </g>
    <path class="cls-10" d="M404.41,800.72c.3,11.4-5.18,24.75-13.79,31.63-.34-11.41,5.21-24.72,13.79-31.63h0Z"/>
    <path class="cls-10" d="M404.41,817.76c.3,11.4-5.18,24.75-13.79,31.63-.34-11.41,5.21-24.72,13.79-31.63h0Z"/>
    <path class="cls-10" d="M386.16,822.71c-.3,11.4,5.18,24.75,13.79,31.63.34-11.41-5.21-24.72-13.79-31.63h0Z"/>
    <path class="cls-10" d="M386.16,805.68c-.3,11.4,5.18,24.75,13.79,31.63.34-11.41-5.21-24.72-13.79-31.63h0Z"/>
    <path class="cls-10" d="M423.49,800.72c.3,11.4-5.18,24.75-13.79,31.63-.34-11.41,5.21-24.72,13.79-31.63h0Z"/>
    <path class="cls-10" d="M423.49,817.76c.3,11.4-5.18,24.75-13.79,31.63-.34-11.41,5.21-24.72,13.79-31.63h0Z"/>
    <path class="cls-10" d="M405.24,822.71c-.3,11.4,5.18,24.75,13.79,31.63.34-11.41-5.21-24.72-13.79-31.63h0Z"/>
    <path class="cls-10" d="M405.24,805.68c-.3,11.4,5.18,24.75,13.79,31.63.34-11.41-5.21-24.72-13.79-31.63h0Z"/>
    <path class="cls-19" d="M441.24,800.72c.3,11.4-5.18,24.75-13.79,31.63-.34-11.41,5.21-24.72,13.79-31.63h0Z"/>
    <path class="cls-19" d="M441.24,817.76c.3,11.4-5.18,24.75-13.79,31.63-.34-11.41,5.21-24.72,13.79-31.63h0Z"/>
    <path class="cls-19" d="M422.99,822.71c-.3,11.4,5.18,24.75,13.79,31.63.34-11.41-5.21-24.72-13.79-31.63h0Z"/>
    <path class="cls-19" d="M422.99,805.68c-.3,11.4,5.18,24.75,13.79,31.63.34-11.41-5.21-24.72-13.79-31.63h0Z"/>
    <path class="cls-19" d="M460.36,800.72c.3,11.4-5.18,24.75-13.79,31.63-.34-11.41,5.21-24.72,13.79-31.63h0Z"/>
    <path class="cls-19" d="M460.36,817.76c.3,11.4-5.18,24.75-13.79,31.63-.34-11.41,5.21-24.72,13.79-31.63h0Z"/>
    <path class="cls-19" d="M442.1,822.71c-.3,11.4,5.18,24.75,13.79,31.63.34-11.41-5.21-24.72-13.79-31.63h0Z"/>
    <path class="cls-19" d="M442.1,805.68c-.3,11.4,5.18,24.75,13.79,31.63.34-11.41-5.21-24.72-13.79-31.63h0Z"/>
    <path class="cls-14" d="M479.47,800.72c.3,11.4-5.18,24.75-13.79,31.63-.34-11.41,5.21-24.72,13.79-31.63h0Z"/>
    <path class="cls-14" d="M479.47,817.76c.3,11.4-5.18,24.75-13.79,31.63-.34-11.41,5.21-24.72,13.79-31.63h0Z"/>
    <path class="cls-14" d="M461.22,822.71c-.3,11.4,5.18,24.75,13.79,31.63.34-11.41-5.21-24.72-13.79-31.63h0Z"/>
    <path class="cls-14" d="M461.22,805.68c-.3,11.4,5.18,24.75,13.79,31.63.34-11.41-5.21-24.72-13.79-31.63h0Z"/>
    <path class="cls-14" d="M498.58,800.72c.3,11.4-5.18,24.75-13.79,31.63-.34-11.41,5.21-24.72,13.79-31.63h0Z"/>
    <path class="cls-14" d="M498.58,817.76c.3,11.4-5.18,24.75-13.79,31.63-.34-11.41,5.21-24.72,13.79-31.63h0Z"/>
    <path class="cls-14" d="M480.33,822.71c-.3,11.4,5.18,24.75,13.79,31.63.34-11.41-5.21-24.72-13.79-31.63h0Z"/>
    <path class="cls-14" d="M480.33,805.68c-.3,11.4,5.18,24.75,13.79,31.63.34-11.41-5.21-24.72-13.79-31.63h0Z"/>
    <g>
      <path class="cls-6" d="M370.62,806.44c5.64,9.57,8.47,24.9,6.19,36.91-5.67-9.55-8.44-24.9-6.19-36.91h0Z"/>
      <line class="cls-18" x1="373.86" y1="831.36" x2="368.88" y2="798.65"/>
      <path class="cls-6" d="M382.45,806.44c-5.64,9.57-8.47,24.9-6.19,36.91,5.67-9.55,8.44-24.9,6.19-36.91h0Z"/>
      <line class="cls-20" x1="379.21" y1="831.36" x2="384.19" y2="798.65"/>
      <path class="cls-6" d="M370.62,822.43c5.64,9.57,8.47,24.9,6.19,36.91-5.67-9.55-8.44-24.9-6.19-36.91h0Z"/>
      <line class="cls-20" x1="373.86" y1="847.36" x2="368.88" y2="814.65"/>
      <path class="cls-6" d="M382.45,822.43c-5.64,9.57-8.47,24.9-6.19,36.91,5.67-9.55,8.44-24.9,6.19-36.91h0Z"/>
      <line class="cls-18" x1="379.21" y1="847.36" x2="384.19" y2="814.65"/>
      <path class="cls-6" d="M370.62,838.52c5.42,9.19,8.25,23.7,6.44,35.48-.09.56-.66.72-.91.26-5.21-9.6-7.68-24.21-5.53-35.74h0Z"/>
      <line class="cls-20" x1="373.86" y1="863.36" x2="368.88" y2="830.64"/>
      <path class="cls-6" d="M382.45,838.43c-5.64,9.57-8.47,24.9-6.19,36.91,5.67-9.55,8.44-24.9,6.19-36.91h0Z"/>
      <line class="cls-20" x1="379.21" y1="863.36" x2="384.19" y2="830.64"/>
    </g>
    <path class="cls-4" d="M192.26,512.11c7.96,16.66,10.96,37.78,7.84,55.92-8-16.64-10.92-37.77-7.84-55.92h0Z"/>
    <path class="cls-4" d="M203.07,523.32c3.19,14.11,1.23,30.55-5.3,43.52-3.23-14.11-1.19-30.54,5.3-43.52h0Z"/>
    <path class="cls-27" d="M126.19,319.16c-2.91,6.24-5.14,13.45-6.7,21.28-1.55-7.83-3.78-15.04-6.7-21.28,0,22.28-.23,7.11-.11,19.9.21,22.19,1.47,20.81,6.81,32.74,5.34-11.93,6.6-10.55,6.81-32.74.12-12.79-.11,2.37-.11-19.9Z"/>
    <path class="cls-12" d="M272.87,331.3c6.33,9.75,9.51,25.37,6.95,37.61-6.36-9.73-9.47-25.37-6.95-37.61h0Z"/>
    <line class="cls-22" x1="277.37" y1="355.68" x2="271.79" y2="322.35"/>
    <path class="cls-12" d="M284.06,331.3c-6.33,9.75-9.51,25.37-6.95,37.61,6.36-9.73,9.47-25.37,6.95-37.61h0Z"/>
    <line class="cls-22" x1="279.56" y1="355.68" x2="285.15" y2="322.35"/>
    <path class="cls-26" d="M252.34,318.92c7.96,16.66,10.96,37.78,7.84,55.92-8-16.64-10.92-37.77-7.84-55.92h0Z"/>
    <path class="cls-26" d="M263.14,330.13c3.19,14.11,1.23,30.55-5.3,43.52-3.23-14.11-1.19-30.54,5.3-43.52h0Z"/>
    <path class="cls-27" d="M119.41,213.62c6.13,14.72,6.17,32.58,0,47.29-6.17-14.71-6.13-32.57,0-47.29h0Z"/>
    <path class="cls-3" d="M184.96,326.12c-2.21,4.43-3.9,9.26-5.04,14.26-1.44-8.95-4.05-17.7-7.77-25.47-3.08,18.15-.16,39.27,7.84,55.92.16-.91.29-1.83.41-2.76,5.92-12.71,7.62-28.4,4.56-41.95Z"/>
    <path class="cls-4" d="M192.26,317.91c7.96,16.66,10.96,37.78,7.84,55.92-8-16.64-10.92-37.77-7.84-55.92h0Z"/>
    <path class="cls-4" d="M203.07,329.12c3.19,14.11,1.23,30.55-5.3,43.52-3.23-14.11-1.19-30.54,5.3-43.52h0Z"/>
    <path class="cls-1" d="M205.29,364.41c3.72-11.28,4.47-24.03,1.92-35.29-1.55,3.09-2.83,6.38-3.86,9.78-1.53-7.38-3.86-14.52-6.95-20.99-2.57,15.17-.94,32.41,4.33,47.39.25,2.49.63,4.95,1.18,7.34.32-.63.62-1.28.91-1.93.45,1.06.92,2.1,1.42,3.12.53-3.06.86-6.22,1.05-9.42Z"/>
    <path class="cls-25" d="M177.89,322.23c6.13,15.85,6.17,35.07,0,50.91-6.17-15.83-6.13-35.06,0-50.91h0Z"/>
    <path class="cls-2" d="M41.96,319.25c6.13,14.72,6.17,32.58,0,47.29-6.17-14.71-6.13-32.57,0-47.29h0Z"/>
    <path class="cls-6" d="M371.05,525.12c6.33,9.11,9.51,23.72,6.95,35.16-6.36-9.1-9.47-23.72-6.95-35.16h0Z"/>
    <path class="cls-6" d="M382.58,525.12c-6.33,9.11-9.51,23.72-6.95,35.16,6.36-9.1,9.47-23.72,6.95-35.16h0Z"/>
    <path class="cls-38" d="M451.42,134.46c6.13,14.72,6.17,32.58,0,47.29-6.17-14.71-6.13-32.57,0-47.29h0Z"/>
    <path class="cls-38" d="M451.42,213.62c6.13,14.72,6.17,32.58,0,47.29-6.17-14.71-6.13-32.57,0-47.29h0Z"/>
    <path class="cls-38" d="M459.08,519.22c.17,6.4-1.39,13.38-4.26,19.6-2.19,4.75-9.02,1.62-7.11-3.26,2.54-6.5,6.49-12.41,11.38-16.34h0Z"/>
    <path class="cls-38" d="M442.54,516.99c-.32,11.99,5.44,26.02,14.5,33.26.35-12-5.47-26-14.5-33.26h0Z"/>
    <path class="cls-38" d="M459.08,689.67c-2.91,2.34-5.47,5.39-7.62,8.84-2.37-4.37-5.4-8.23-8.92-11.07-.18,6.85,1.63,14.37,4.9,20.9.15.85.56,1.57,1.14,2.12,2.29,4.03,5.16,7.59,8.46,10.23.12-4.1-.5-8.44-1.7-12.66,2.52-5.9,3.9-12.39,3.74-18.37Z"/>
    <path class="cls-39" d="M462.44,689.67c-2.91,2.34-5.47,5.39-7.62,8.84-2.37-4.37-5.4-8.23-8.92-11.07-.18,6.85,1.63,14.37,4.9,20.9.15.85.56,1.57,1.14,2.12,2.29,4.03,5.16,7.59,8.46,10.23.12-4.1-.5-8.44-1.7-12.66,2.52-5.9,3.9-12.39,3.74-18.37Z"/>
    <path class="cls-40" d="M50.96,222.55c-3.36,4.39-6.06,9.46-7.86,14.97-1.79-5.51-4.49-10.58-7.86-14.97v3.64c0,15.62,1.7,23.54,7.86,31.93,6.16-8.39,7.86-16.31,7.86-31.93v-3.63Z"/>
    <path class="cls-40" d="M50.96,320.4c-3.36,6.31-6.06,13.6-7.86,21.52-1.79-7.92-4.49-15.21-7.86-21.52v5.23c0,22.45,1.7,33.83,7.86,45.9,6.16-12.07,7.86-23.45,7.86-45.9v-5.22Z"/>
    <line class="cls-9" x1="376.67" y1="547.75" x2="369.8" y2="518.71"/>
    <line class="cls-9" x1="376.98" y1="547.75" x2="383.84" y2="518.71"/>
    <path class="cls-26" d="M251.24,327.5c5.06,10.6,6.97,24.02,4.99,35.56-5.09-10.59-6.94-24.02-4.99-35.56h0Z"/>
    <path class="cls-26" d="M258.12,334.63c2.03,8.97.78,19.43-3.37,27.67-2.05-8.97-.76-19.42,3.37-27.67h0Z"/>
    <text class="cls-34" transform="translate(27.05 377.31) scale(1.06 1)"><tspan x="0" y="0">立</tspan><tspan x="0" y="21.53">春</tspan><tspan x="0" y="43.06">祭</tspan></text>
    <text class="cls-34" transform="translate(38.44 894.76) scale(1.06 1)"><tspan x="0" y="0">立</tspan><tspan x="0" y="21.53">春</tspan></text>
    <text class="cls-34" transform="translate(25.58 261.33) scale(1.06 1)"><tspan x="0" y="0">打</tspan><tspan x="0" y="21.53">春</tspan><tspan x="0" y="43.06">牛</tspan></text>
    <text class="cls-34" transform="translate(57.69 894.76) scale(1.06 1)"><tspan x="0" y="0">雨</tspan><tspan x="0" y="21.53">水</tspan></text>
    <text class="cls-34" transform="translate(76.83 894.76) scale(1.06 1)"><tspan x="0" y="0">惊</tspan><tspan x="0" y="21.53">蛰</tspan></text>
    <text class="cls-34" transform="translate(95.79 894.76) scale(1.06 1)"><tspan x="0" y="0">春</tspan><tspan x="0" y="21.53">分</tspan></text>
    <text class="cls-34" transform="translate(115 894.76) scale(1.06 1)"><tspan x="0" y="0">清</tspan><tspan x="0" y="21.53">明</tspan></text>
    <text class="cls-34" transform="translate(134.12 894.76) scale(1.06 1)"><tspan x="0" y="0">谷</tspan><tspan x="0" y="21.53">雨</tspan></text>
    <text class="cls-34" transform="translate(154.43 894.76) scale(1.06 1)"><tspan x="0" y="0">立</tspan><tspan x="0" y="21.53">夏</tspan></text>
    <text class="cls-34" transform="translate(173.56 894.76) scale(1.06 1)"><tspan x="0" y="0">小</tspan><tspan x="0" y="21.53">满</tspan></text>
    <text class="cls-34" transform="translate(194.12 894.76) scale(1.06 1)"><tspan x="0" y="0">芒</tspan><tspan x="0" y="21.53">种</tspan></text>
    <text class="cls-34" transform="translate(214.61 894.76) scale(1.06 1)"><tspan x="0" y="0">夏</tspan><tspan x="0" y="21.53">至</tspan></text>
    <text class="cls-34" transform="translate(234.1 569.36) scale(1.06 1)"><tspan x="0" y="0">小</tspan><tspan x="0" y="21.53">暑</tspan><tspan x="0" y="43.06">尝</tspan><tspan x="0" y="64.59">新</tspan><tspan x="0" y="86.12">米</tspan></text>
    <text class="cls-34" transform="translate(233.54 894.76) scale(1.06 1)"><tspan x="0" y="0">小</tspan><tspan x="0" y="21.53">暑</tspan></text>
    <text class="cls-34" transform="translate(253.76 894.76) scale(1.06 1)"><tspan x="0" y="0">大</tspan><tspan x="0" y="21.53">暑</tspan></text>
    <text class="cls-34" transform="translate(274.27 894.76) scale(1.06 1)"><tspan x="0" y="0">立</tspan><tspan x="0" y="21.53">秋</tspan></text>
    <text class="cls-34" transform="translate(293.38 894.76) scale(1.06 1)"><tspan x="0" y="0">处</tspan><tspan x="0" y="21.53">暑</tspan></text>
    <text class="cls-34" transform="translate(313.8 894.76) scale(1.06 1)"><tspan x="0" y="0">白</tspan><tspan x="0" y="21.53">露</tspan></text>
    <text class="cls-34" transform="translate(332.79 894.76) scale(1.06 1)"><tspan x="0" y="0">秋</tspan><tspan x="0" y="21.53">分</tspan></text>
    <text class="cls-34" transform="translate(353.33 894.76) scale(1.06 1)"><tspan x="0" y="0">寒</tspan><tspan x="0" y="21.53">露</tspan></text>
    <text class="cls-34" transform="translate(372.57 894.76) scale(1.06 1)"><tspan x="0" y="0">霜</tspan><tspan x="0" y="21.53">降</tspan></text>
    <text class="cls-34" transform="translate(391.55 894.76) scale(1.06 1)"><tspan x="0" y="0">立</tspan><tspan x="0" y="21.53">冬</tspan></text>
    <text class="cls-34" transform="translate(410.43 894.76) scale(1.06 1)"><tspan x="0" y="0">小</tspan><tspan x="0" y="21.53">雪</tspan></text>
    <text class="cls-34" transform="translate(428.2 894.76) scale(1.06 1)"><tspan x="0" y="0">大</tspan><tspan x="0" y="21.53">雪</tspan></text>
    <text class="cls-34" transform="translate(447.4 894.76) scale(1.06 1)"><tspan x="0" y="0">冬</tspan><tspan x="0" y="21.53">至</tspan></text>
    <text class="cls-34" transform="translate(466.86 894.76) scale(1.06 1)"><tspan x="0" y="0">小</tspan><tspan x="0" y="21.53">寒</tspan></text>
    <text class="cls-34" transform="translate(485.88 894.76) scale(1.06 1)"><tspan x="0" y="0">大</tspan><tspan x="0" y="21.53">寒</tspan></text>
    <text class="cls-34" transform="translate(448.86 569.21) scale(1.06 1)"><tspan x="0" y="0">杨</tspan><tspan x="0" y="21.53">节</tspan></text>
    <text class="cls-34" transform="translate(448.67 177.07) scale(1.06 1)"><tspan x="0" y="0">拜</tspan><tspan x="0" y="21.53">小</tspan><tspan x="0" y="43.06">岁</tspan></text>
    <text class="cls-34" transform="translate(214.2 572.58) scale(1.06 1)"><tspan x="0" y="0">分</tspan><tspan x="0" y="21.53">龙</tspan><tspan x="0" y="43.06">节</tspan></text>
    <text class="cls-34" transform="translate(373.17 569.14) scale(1.06 1)"><tspan x="0" y="0">壮</tspan><tspan x="0" y="21.53">族</tspan><tspan x="0" y="43.06">霜</tspan><tspan x="0" y="64.59">降</tspan><tspan x="0" y="86.12">节</tspan></text>
    <text class="cls-34" transform="translate(448.93 739.52) scale(1.06 1)"><tspan x="0" y="0">做</tspan><tspan x="0" y="21.53">冬</tspan></text>
    <text class="cls-34" transform="translate(460.34 736.38) scale(1.06 1)"><tspan x="0" y="0">潮</tspan><tspan x="0" y="21.53">汕</tspan><tspan x="0" y="43.06">冬</tspan><tspan x="0" y="64.59">节</tspan></text>
    <text class="cls-34" transform="translate(103.12 261.33) scale(1.06 1)"><tspan x="0" y="0">寒</tspan><tspan x="0" y="21.53">食</tspan><tspan x="0" y="43.06">节</tspan></text>
    <text class="cls-34" transform="translate(103.12 378.64) scale(1.06 1)"><tspan x="0" y="0">蚕</tspan><tspan x="0" y="21.53">花</tspan><tspan x="0" y="43.06">节</tspan></text>
    <text class="cls-34" transform="translate(240.87 377.72) scale(1.06 1)"><tspan x="0" y="0">送</tspan><tspan x="0" y="21.53">大</tspan><tspan x="0" y="43.06">暑</tspan><tspan x="0" y="64.59">船</tspan></text>
    <text class="cls-34" transform="translate(228.67 379.29) scale(1.06 1)"><tspan x="0" y="0">保</tspan><tspan x="0" y="21.53">苗</tspan><tspan x="0" y="43.06">节</tspan></text>
    <text class="cls-34" transform="translate(276.28 380.6) scale(1.06 1)"><tspan x="0" y="0">赶</tspan><tspan x="0" y="21.53">秋</tspan><tspan x="0" y="43.06">节</tspan></text>
    <text class="cls-34" transform="translate(194.79 572.57) scale(1.06 1)"><tspan x="0" y="0">打</tspan><tspan x="0" y="21.53">泥</tspan><tspan x="0" y="43.06">巴</tspan><tspan x="0" y="64.59">仗</tspan><tspan x="0" y="86.12">节</tspan></text>
    <text class="cls-34" transform="translate(160.24 378.23) scale(1.06 1)"><tspan x="0" y="0">祈</tspan><tspan x="0" y="21.53">蚕</tspan><tspan x="0" y="43.06">节</tspan></text>
    <text class="cls-34" transform="translate(148.71 378.23) scale(1.06 1)"><tspan x="0" y="0">祭</tspan><tspan x="0" y="21.53">车</tspan><tspan x="0" y="43.06">神</tspan></text>
    <text class="cls-34" transform="translate(194.9 378.23) scale(1.06 1)"><tspan x="0" y="0">安</tspan><tspan x="0" y="21.53">苗</tspan><tspan x="0" y="43.06">节</tspan></text>
    <text class="cls-34" transform="translate(206.14 378.23) scale(1.06 1)"><tspan x="0" y="0">开</tspan><tspan x="0" y="21.53">犁</tspan><tspan x="0" y="43.06">节</tspan></text>
    <text class="cls-34" transform="translate(448.8 260.59) scale(1.06 1)"><tspan x="0" y="0">敖</tspan><tspan x="0" y="21.53">冬</tspan></text>
    <path class="cls-4" d="M218.35,520.42c5.57,13.38,5.61,29.62,0,42.99-5.61-13.37-5.57-29.61,0-42.99h0Z"/>
    <path class="cls-28" d="M237.71,520.42c5.57,13.38,5.61,29.62,0,42.99-5.61-13.37-5.57-29.61,0-42.99h0Z"/>
    <path class="cls-14" d="M488.83,862.23v.32c6.24-7.34,9.99-18.18,9.74-27.67-6.57,5.29-11.36,14.34-13.09,23.41,1.89.32,3.34,1.96,3.34,3.93Z"/>
    <path class="cls-14" d="M480.33,839.74c-.3,11.4,5.18,24.75,13.79,31.63.34-11.41-5.21-24.72-13.79-31.63h0Z"/>
    <path class="cls-14" d="M466.83,859.23c1.62,0,3.02.98,3.65,2.38,5.77-7.3,9.22-17.63,8.98-26.73-6.81,5.48-11.7,15.01-13.26,24.41.21-.03.42-.06.64-.06Z"/>
    <path class="cls-14" d="M461.22,839.74c-.3,11.4,5.18,24.75,13.79,31.63.34-11.41-5.21-24.72-13.79-31.63h0Z"/>
    <path class="cls-19" d="M448.33,858.23c1.71,0,3.14,1.25,3.44,2.88,5.54-7.27,8.81-17.34,8.58-26.22-6.6,5.31-11.4,14.42-13.11,23.54.35-.12.71-.2,1.1-.2Z"/>
    <path class="cls-19" d="M442.1,839.74c-.3,11.4,5.18,24.75,13.79,31.63.34-11.41-5.21-24.72-13.79-31.63h0Z"/>
    <path class="cls-19" d="M428.83,858.23c1.1,0,2,.9,2,2v3.05c6.62-7.33,10.66-18.58,10.4-28.4-6.59,5.3-11.38,14.38-13.1,23.48.22-.08.45-.13.7-.13Z"/>
    <path class="cls-19" d="M422.99,839.74c-.3,11.4,5.18,24.75,13.79,31.63.34-11.41-5.21-24.72-13.79-31.63h0Z"/>
    <path class="cls-10" d="M414.83,854.23v6.97c5.58-7.28,8.89-17.39,8.65-26.31-5.59,4.5-9.88,11.71-12.1,19.35h3.45Z"/>
    <path class="cls-10" d="M405.24,839.74c-.3,11.4,5.18,24.75,13.79,31.63.34-11.41-5.21-24.72-13.79-31.63h0Z"/>
    <path class="cls-10" d="M394.88,862.27c6.09-7.33,9.76-18.01,9.51-27.38-6.31,5.08-10.96,13.61-12.86,22.31l3.35,5.07Z"/>
    <path class="cls-10" d="M386.16,839.74c-.3,11.4,5.18,24.75,13.79,31.63.34-11.41-5.21-24.72-13.79-31.63h0Z"/>
  </g>
</svg>