<?xml version="1.0" encoding="UTF-8"?>
<svg id="_图层_2" data-name="图层 2" xmlns="http://www.w3.org/2000/svg" xmlns:xlink="http://www.w3.org/1999/xlink" viewBox="0 0 336.2 1003.17">
  <defs>
    <style>
      .cls-1, .cls-2, .cls-3, .cls-4 {
        fill: #00543f;
      }

      .cls-1, .cls-5 {
        opacity: .4;
      }

      .cls-6, .cls-7, .cls-8, .cls-9, .cls-10, .cls-11 {
        fill: #040000;
      }

      .cls-6, .cls-7, .cls-8, .cls-9, .cls-10, .cls-12 {
        isolation: isolate;
      }

      .cls-6, .cls-7, .cls-9 {
        font-family: FZVariableLanTHK-Normal, 'FZVariableLanTHK Normal';
        font-variation-settings: ';
      }

      .cls-6, .cls-8, .cls-9 {
        font-size: 11.43px;
      }

      .cls-7 {
        font-size: 9.74px;
        letter-spacing: 0em;
      }

      .cls-13 {
        stroke: #e0b153;
      }

      .cls-13, .cls-14, .cls-15, .cls-16, .cls-17, .cls-18, .cls-4, .cls-19, .cls-20 {
        stroke-miterlimit: 10;
      }

      .cls-13, .cls-14, .cls-15, .cls-16, .cls-17, .cls-18, .cls-19, .cls-20 {
        fill: none;
      }

      .cls-13, .cls-14, .cls-17, .cls-20 {
        stroke-width: 2px;
      }

      .cls-14 {
        stroke: #06653e;
      }

      .cls-2, .cls-21 {
        opacity: .15;
      }

      .cls-8 {
        font-family: FZVariableLanTHK-Regular, 'FZVariableLanTHK Regular';
        font-variation-settings: ';
      }

      .cls-21 {
        fill: url(#_未命名的渐变_2);
      }

      .cls-22 {
        font-family: FZVariableLanTHK-Light, 'FZVariableLanTHK Light';
        font-size: 18px;
        font-variation-settings: ';
        font-weight: 300;
      }

      .cls-22, .cls-23 {
        fill: #231815;
      }

      .cls-24 {
        fill: #e0b153;
      }

      .cls-9 {
        letter-spacing: -.1em;
      }

      .cls-10, .cls-11 {
        font-size: 14px;
      }

      .cls-10, .cls-11, .cls-23 {
        font-family: HanyiSentySuciTablet, HanyiSentySuciTablet;
      }

      .cls-25 {
        letter-spacing: -.86em;
      }

      .cls-15 {
        stroke: #0d2712;
        stroke-width: 1.5px;
      }

      .cls-26 {
        opacity: .65;
      }

      .cls-16, .cls-18, .cls-19 {
        stroke: #00543f;
      }

      .cls-17 {
        stroke: #378d39;
      }

      .cls-23 {
        font-size: 15.62px;
        letter-spacing: -.1em;
      }

      .cls-27 {
        fill: #5f8443;
      }

      .cls-18 {
        stroke-dasharray: 12.3 1.03 2.05 1.03;
      }

      .cls-4 {
        stroke: #f4f3f2;
        stroke-width: .1px;
      }

      .cls-19 {
        stroke-dasharray: 2.05 1.03;
      }

      .cls-28 {
        opacity: .5;
      }

      .cls-20 {
        stroke: #b7947a;
      }

      .cls-29 {
        fill: #9eb88c;
      }
    </style>
    <linearGradient id="_未命名的渐变_2" data-name="未命名的渐变 2" x1="4918.83" y1="2368.94" x2="4918.83" y2="2060.82" gradientTransform="translate(-4751.97 -1951.25)" gradientUnits="userSpaceOnUse">
      <stop offset="0" stop-color="#fff" stop-opacity="0"/>
      <stop offset=".51" stop-color="#f4f1ef"/>
      <stop offset="1" stop-color="#fff" stop-opacity="0"/>
    </linearGradient>
  </defs>
  <g id="_图层_1-2" data-name="图层 1">
    <g>
      <g>
        <g>
          <g>
            <line class="cls-16" x1="97.78" y1="739.8" x2="100.78" y2="744.99"/>
            <line class="cls-19" x1="101.3" y1="745.88" x2="102.58" y2="748.1"/>
            <line class="cls-18" x1="102.83" y1="748.54" x2="225.59" y2="961.17"/>
            <line class="cls-16" x1="225.85" y1="961.61" x2="228.85" y2="966.81"/>
          </g>
          <g>
            <line class="cls-16" x1="276.82" y1="787.77" x2="271.63" y2="790.77"/>
            <line class="cls-19" x1="270.74" y1="791.28" x2="268.52" y2="792.56"/>
            <line class="cls-18" x1="268.08" y1="792.82" x2="55.45" y2="915.58"/>
            <line class="cls-16" x1="55.01" y1="915.84" x2="49.81" y2="918.84"/>
          </g>
          <g>
            <line class="cls-16" x1="49.81" y1="787.77" x2="55.01" y2="790.77"/>
            <line class="cls-19" x1="55.89" y1="791.28" x2="58.11" y2="792.56"/>
            <line class="cls-18" x1="58.56" y1="792.82" x2="271.18" y2="915.58"/>
            <line class="cls-16" x1="271.63" y1="915.84" x2="276.82" y2="918.84"/>
          </g>
          <g>
            <line class="cls-16" x1="228.85" y1="739.8" x2="225.85" y2="744.99"/>
            <line class="cls-19" x1="225.34" y1="745.88" x2="224.06" y2="748.1"/>
            <line class="cls-18" x1="223.8" y1="748.54" x2="101.04" y2="961.17"/>
            <line class="cls-16" x1="100.78" y1="961.61" x2="97.78" y2="966.81"/>
          </g>
          <line class="cls-15" x1="163.32" y1="722.24" x2="163.32" y2="984.37"/>
          <line class="cls-15" x1="294.38" y1="853.3" x2="32.25" y2="853.3"/>
          <path class="cls-17" d="M167.31,717.81c71.18,2.89,128.33,60.21,130.96,131.45"/>
          <path class="cls-14" d="M167.31,989.1c71.18-2.89,128.33-60.21,130.96-131.45"/>
          <path class="cls-20" d="M159.32,717.81c-71.18,2.89-128.33,60.21-130.96,131.45"/>
          <path class="cls-13" d="M159.32,989.1c-71.18-2.89-128.33-60.21-130.96-131.45"/>
          <g class="cls-12">
            <text class="cls-8" transform="translate(166.47 713.93)"><tspan x="0" y="0">春</tspan></text>
          </g>
          <g class="cls-12">
            <text class="cls-8" transform="translate(166.47 1001.56)"><tspan x="0" y="0">夏</tspan></text>
          </g>
          <g class="cls-12">
            <text class="cls-8" transform="translate(147 713.93)"><tspan x="0" y="0">冬</tspan></text>
          </g>
          <g class="cls-12">
            <text class="cls-8" transform="translate(147 1001.56)"><tspan x="0" y="0">秋</tspan></text>
          </g>
          <g class="cls-12">
            <text class="cls-7" transform="translate(221.58 717.78)"><tspan x="0" y="0">一</tspan><tspan x="0" y="9.73">月</tspan></text>
          </g>
          <g class="cls-12">
            <text class="cls-7" transform="translate(275.56 763.8)"><tspan x="0" y="0">二</tspan><tspan x="0" y="9.73">月</tspan></text>
          </g>
          <g class="cls-12">
            <text class="cls-6" transform="translate(300.1 839.6)"><tspan x="0" y="0">三</tspan><tspan x="0" y="11.43">月</tspan></text>
          </g>
          <g class="cls-12">
            <text class="cls-6" transform="translate(221.34 988.28)"><tspan x="0" y="0">六</tspan><tspan x="0" y="11.43">月</tspan></text>
          </g>
          <g class="cls-12">
            <text class="cls-6" transform="translate(275.32 942.26)"><tspan x="0" y="0">五</tspan><tspan x="0" y="11.43">月</tspan></text>
          </g>
          <g class="cls-12">
            <text class="cls-6" transform="translate(300.1 867.92)"><tspan x="0" y="0">四</tspan><tspan x="0" y="11.43">月</tspan></text>
          </g>
          <g class="cls-12">
            <text class="cls-9" transform="translate(91.85 707.24)"><tspan x="0" y="0">十</tspan><tspan x="0" y="10.29">二</tspan><tspan x="0" y="20.58">月</tspan></text>
          </g>
          <g class="cls-12">
            <text class="cls-9" transform="translate(40.1 754.53)"><tspan x="0" y="0">十</tspan><tspan x="0" y="10.29">一</tspan><tspan x="0" y="20.58">月</tspan></text>
          </g>
          <g class="cls-12">
            <text class="cls-6" transform="translate(16.01 839.6)"><tspan x="0" y="0">十</tspan><tspan x="0" y="11.43">月</tspan></text>
          </g>
          <g class="cls-12">
            <text class="cls-6" transform="translate(94.81 988.28)"><tspan x="0" y="0">七</tspan><tspan x="0" y="11.43">月</tspan></text>
          </g>
          <g class="cls-12">
            <text class="cls-6" transform="translate(40.67 942.26)"><tspan x="0" y="0">八</tspan><tspan x="0" y="11.43">月</tspan></text>
          </g>
          <g class="cls-12">
            <text class="cls-6" transform="translate(16.16 867.92)"><tspan x="0" y="0">九</tspan><tspan x="0" y="11.43">月</tspan></text>
          </g>
        </g>
        <g>
          <g class="cls-26">
            <path class="cls-4" d="M165.05,983.32c21.68-.04,43.05-5.76,61.84-16.57l-61.84-107.11v123.68Z"/>
          </g>
          <path class="cls-3" d="M222.52,966.57c-1.34-.82-2.6-1.91-3.75-3.21.36,1.7.49,3.36.35,4.93-2.15-4.26-.74-1.33-1.95-3.79-2.09-4.27-1.63-4.17-1.43-7.13,2.51,1.6,2.69,1.17,4.89,5.39,1.26,2.43-.26-.44,1.89,3.82Z"/>
          <path class="cls-3" d="M215.08,969.85c-1.22-1-2.31-2.25-3.27-3.7.12,1.73.02,3.39-.34,4.93-1.54-4.52-.55-1.42-1.4-4.03-1.47-4.52-1.04-4.35-.42-7.26,2.26,1.93,2.5,1.53,4.09,6.01.91,2.58-.19-.47,1.34,4.04Z"/>
          <path class="cls-3" d="M207.81,972.15c-1.18-1.04-2.23-2.33-3.14-3.81.06,1.73-.1,3.39-.51,4.91-1.38-4.57-.5-1.44-1.26-4.07-1.31-4.57-.89-4.39-.17-7.27,2.19,2.01,2.45,1.62,3.88,6.15.82,2.61-.18-.48,1.2,4.09Z"/>
          <path class="cls-3" d="M201.62,974.28c-1.17-1.05-2.2-2.36-3.09-3.85.04,1.73-.14,3.39-.57,4.91-1.32-4.58-.48-1.45-1.21-4.09-1.26-4.58-.83-4.4-.08-7.27,2.17,2.03,2.43,1.65,3.8,6.2.79,2.62-.17-.48,1.15,4.1Z"/>
          <path class="cls-3" d="M194.66,976.37c-1.12-1.11-2.09-2.46-2.91-3.99-.04,1.73-.3,3.38-.8,4.87-1.1-4.64-.42-1.47-1.02-4.14-1.04-4.64-.62-4.43.26-7.27,2.07,2.13,2.35,1.76,3.51,6.37.67,2.66-.15-.49.96,4.15Z"/>
          <path class="cls-3" d="M188.6,977.4c-1.1-1.12-2.06-2.49-2.86-4.03-.06,1.73-.34,3.38-.86,4.86-1.05-4.65-.4-1.47-.97-4.15-.99-4.65-.57-4.44.35-7.26,2.04,2.16,2.33,1.79,3.43,6.41.64,2.66-.14-.49.91,4.16Z"/>
        </g>
        <g>
          <g class="cls-26">
            <path class="cls-2" d="M34.13,855.06c.04,21.68,5.76,43.05,16.57,61.84l107.11-61.84H34.13Z"/>
          </g>
          <path class="cls-3" d="M50.88,912.52c.82-1.34,1.91-2.6,3.21-3.75-1.7.36-3.36.49-4.93.35,4.26-2.15,1.33-.74,3.79-1.95,4.27-2.09,4.17-1.63,7.13-1.43-1.6,2.51-1.17,2.69-5.39,4.89-2.43,1.26.44-.26-3.82,1.89Z"/>
        </g>
        <g>
          <g class="cls-5">
            <path class="cls-3" d="M161.65,983.32c-21.68-.04-43.05-5.76-61.84-16.57l61.84-107.11v123.68Z"/>
          </g>
          <path class="cls-3" d="M134.17,977.41c1.07-1.16,1.98-2.55,2.73-4.12.12,1.73.45,3.36,1.02,4.83.9-4.69.35-1.48.83-4.18.83-4.68.43-4.46-.59-7.25-1.97,2.22-2.27,1.87-3.22,6.52-.55,2.68.13-.49-.77,4.19Z"/>
          <path class="cls-3" d="M140.55,978.88c1.05-1.17,1.95-2.58,2.68-4.15.14,1.73.49,3.36,1.08,4.82.84-4.7.33-1.49.78-4.19.78-4.69.37-4.46-.67-7.24-1.94,2.25-2.25,1.89-3.14,6.56-.52,2.69.12-.49-.72,4.2Z"/>
          <path class="cls-3" d="M147.69,980.24c.99-1.22,1.82-2.67,2.48-4.27.22,1.72.65,3.33,1.3,4.76.62-4.73.26-1.5.58-4.22.55-4.72.16-4.47-1.02-7.2-1.84,2.34-2.15,2-2.83,6.7-.39,2.71.1-.5-.52,4.23Z"/>
          <path class="cls-3" d="M153.83,980.64c.98-1.23,1.79-2.69,2.43-4.3.24,1.72.69,3.32,1.36,4.75.56-4.74.24-1.51.53-4.23.5-4.72.11-4.47-1.1-7.19-1.81,2.36-2.13,2.02-2.75,6.73-.36,2.72.09-.5-.47,4.24Z"/>
        </g>
        <g>
          <path class="cls-1" d="M96.99,964.49c-18.75-10.87-34.4-26.51-45.27-45.27l107.11-61.84-61.84,107.11Z"/>
          <path class="cls-3" d="M76.14,945.64c1.5-.47,2.99-1.22,4.42-2.2-.76,1.56-1.29,3.14-1.54,4.69,3.12-3.61,1.05-1.11,2.81-3.2,3.06-3.63,2.6-3.65,3.12-6.57-2.82.94-2.9.48-6.05,4.04-1.82,2.05.36-.36-2.76,3.25Z"/>
          <path class="cls-3" d="M80.93,950.1c1.49-.49,2.97-1.26,4.39-2.26-.74,1.57-1.25,3.16-1.48,4.71,3.07-3.65,1.03-1.12,2.77-3.24,3.02-3.67,2.55-3.68,3.04-6.61-2.81.97-2.89.52-6,4.11-1.79,2.07.35-.37-2.72,3.28Z"/>
          <path class="cls-3" d="M86.44,954.84c1.47-.56,2.91-1.4,4.28-2.46-.67,1.6-1.1,3.21-1.25,4.78,2.9-3.79.98-1.17,2.61-3.37,2.84-3.81,2.38-3.79,2.72-6.74-2.76,1.11-2.86.65-5.8,4.39-1.69,2.15.33-.38-2.57,3.4Z"/>
          <path class="cls-3" d="M91.55,958.26c1.46-.57,2.9-1.43,4.25-2.51-.65,1.61-1.06,3.22-1.2,4.79,2.85-3.82.96-1.18,2.57-3.4,2.79-3.84,2.33-3.82,2.64-6.78-2.74,1.14-2.86.69-5.75,4.46-1.67,2.17.33-.39-2.52,3.43Z"/>
        </g>
      </g>
      <g>
        <rect class="cls-4" x=".05" y="504.98" width="19.7" height="5.73"/>
        <rect class="cls-27" x="11.64" y="58.06" width="105.07" height="5.73"/>
        <rect class="cls-24" x="130.05" y="58.06" width="76.23" height="5.73"/>
        <rect class="cls-4" x="250.78" y="58.06" width="63.46" height="5.73"/>
        <rect class="cls-4" x="22.65" y="504.98" width="19.7" height="5.73"/>
        <rect class="cls-4" x="45.25" y="504.98" width="19.7" height="5.73"/>
        <rect class="cls-4" x="67.84" y="504.98" width="19.7" height="5.73"/>
        <rect class="cls-4" x="90.44" y="504.98" width="19.7" height="5.73"/>
        <rect class="cls-4" x="113.04" y="504.98" width="19.7" height="5.73"/>
        <rect class="cls-24" x="210.11" y="58.06" width="24.63" height="5.73"/>
        <rect class="cls-4" x="135.64" y="504.98" width="19.7" height="5.73"/>
        <rect class="cls-27" x="119.61" y="58.06" width="6.57" height="5.73"/>
        <rect class="cls-24" x="238.78" y="58.06" width="6.57" height="5.73"/>
        <rect class="cls-4" x="158.23" y="504.98" width="19.7" height="5.73"/>
        <rect class="cls-4" x="180.83" y="504.98" width="19.7" height="5.73"/>
        <rect class="cls-4" x="203.43" y="504.98" width="19.7" height="5.73"/>
        <rect class="cls-4" x="226.03" y="504.98" width="19.7" height="5.73"/>
        <rect class="cls-4" x="248.63" y="504.98" width="19.7" height="5.73"/>
        <polygon class="cls-4" points="324.99 58.06 319.11 58.06 319.11 63.79 324.99 63.79 328.96 63.79 328.96 58.06 324.99 58.06"/>
        <rect class="cls-4" x="271.22" y="504.98" width="19.7" height="5.73"/>
        <rect class="cls-4" x="293.82" y="504.98" width="19.7" height="5.73"/>
        <rect class="cls-4" x="316.42" y="504.98" width="19.7" height="5.73"/>
        <g class="cls-28">
          <path class="cls-29" d="M4.98,504.98H.05c0-110.39,2.95-166.5,5.8-220.77,2.85-54.18,5.79-110.21,5.79-220.42h4.93c0,110.39-2.95,166.5-5.8,220.77-2.85,54.18-5.79,110.21-5.79,220.42Z"/>
        </g>
        <g class="cls-28">
          <path class="cls-24" d="M9.9,504.98h-4.93c0-111.17,32.19-167.6,63.31-222.19,30.72-53.87,62.49-109.58,62.49-219.01h4.93c0,111.17-32.19,167.6-63.31,222.19-30.72,53.87-62.49,109.58-62.49,219.01Z"/>
        </g>
        <g class="cls-5">
          <path class="cls-4" d="M14.83,504.98h-4.93c0-26.84,3.43-51.11,10.49-74.21,6.29-20.58,15.33-39.72,27.64-58.51,22.77-34.76,53.5-62.91,83.22-90.13,58.74-53.8,119.47-109.44,119.47-218.34h4.93c0,26.84-3.43,51.11-10.49,74.21-6.29,20.58-15.33,39.72-27.64,58.51-22.77,34.76-53.5,62.91-83.22,90.13-58.74,53.8-119.47,109.44-119.47,218.34Z"/>
        </g>
        <g class="cls-5">
          <path class="cls-4" d="M19.75,504.98h-4.93c0-26.92,4.35-51.27,13.31-74.42,7.97-20.6,19.42-39.75,35-58.55,28.78-34.72,67.65-62.86,105.23-90.06,74.34-53.81,151.21-109.46,151.21-218.16h4.93c0,26.92-4.35,51.27-13.31,74.42-7.97,20.6-19.42,39.75-35,58.55-28.78,34.72-67.65,62.86-105.23,90.06-74.34,53.81-151.21,109.46-151.21,218.16Z"/>
        </g>
        <g class="cls-28">
          <path class="cls-29" d="M32.5,504.98h-9.85c0-110.21-1.55-166.23-3.04-220.41-1.5-54.27-3.04-110.39-3.04-220.78h9.85c0,110.21,1.55,166.23,3.04,220.41,1.5,54.27,3.04,110.39,3.04,220.78Z"/>
        </g>
        <g class="cls-28">
          <path class="cls-24" d="M42.35,504.98h-9.85c0-111.76,26.55-168.49,52.22-223.35,26.24-56.06,51.02-109.01,51.02-217.85h9.85c0,111.76-26.55,168.49-52.22,223.35-26.24,56.06-51.02,109.01-51.02,217.85Z"/>
        </g>
        <g class="cls-28">
          <path class="cls-29" d="M51.81,504.98h-6.57c0-110.11-4.78-166.08-9.4-220.22-4.64-54.32-9.43-110.49-9.43-220.97h6.57c0,110.11,4.78,166.08,9.4,220.22,4.64,54.32,9.43,110.49,9.43,220.97Z"/>
        </g>
        <g class="cls-28">
          <path class="cls-24" d="M58.38,504.98h-6.57c0-111.19,24.01-167.67,47.22-222.29,22.88-53.83,46.54-109.49,46.54-218.9h6.57c0,111.19-24.01,167.67-47.22,222.29-22.88,53.83-46.54,109.49-46.54,218.9Z"/>
        </g>
        <g class="cls-5">
          <path class="cls-4" d="M64.95,504.98h-6.57c0-50.22,10.22-93.72,31.25-133,18.67-34.87,43.83-63.07,68.16-90.35,50.09-56.14,97.4-109.17,97.4-217.84h6.57c0,50.22-10.22,93.72-31.25,133-18.67,34.87-43.83,63.07-68.16,90.35-50.09,56.14-97.4,109.17-97.4,217.84Z"/>
        </g>
        <g class="cls-28">
          <path class="cls-29" d="M77.69,504.98h-9.85c0-109.77-8.82-165.58-17.35-219.56-8.61-54.48-17.51-110.81-17.51-221.64h9.85c0,109.77,8.82,165.58,17.35,219.56,8.61,54.48,17.51,110.81,17.51,221.64Z"/>
        </g>
        <g class="cls-5">
          <path class="cls-4" d="M87.54,504.98h-9.85c0-112.63,47.38-169.55,93.2-224.59,46.5-55.86,90.42-108.63,90.42-216.6h9.85c0,112.63-47.38,169.55-93.2,224.59-46.5,55.86-90.42,108.63-90.42,216.6Z"/>
        </g>
        <g class="cls-28">
          <path class="cls-29" d="M97.01,504.98h-6.57c0-109.82-12.05-165.66-23.71-219.66-11.75-54.45-23.9-110.76-23.9-221.53h6.57c0,109.82,12.05,165.66,23.71,219.66,11.75,54.45,23.9,110.76,23.9,221.53Z"/>
        </g>
        <g class="cls-28">
          <path class="cls-24" d="M103.57,504.98h-6.57c0-110.84,13.97-167.18,27.48-221.66,13.38-53.97,27.22-109.78,27.22-219.53h6.57c0,110.84-13.97,167.18-27.48,221.66-13.38,53.97-27.22,109.78-27.22,219.53Z"/>
        </g>
        <g class="cls-5">
          <path class="cls-4" d="M110.14,504.98h-6.57c0-50.12,8.69-93.55,26.58-132.78,15.9-34.87,37.34-63.08,58.07-90.36,42.68-56.16,83-109.21,83-218.06h6.57c0,50.12-8.69,93.55-26.58,132.78-15.9,34.87-37.34,63.08-58.07,90.36-42.68,56.16-83,109.21-83,218.06Z"/>
        </g>
        <g class="cls-28">
          <path class="cls-29" d="M119.61,504.98h-6.57c0-109.67-16.09-165.44-31.65-219.38-15.73-54.52-31.99-110.89-31.99-221.82h6.57c0,109.67,16.09,165.44,31.65,219.38,15.73,54.52,31.99,110.89,31.99,221.82Z"/>
        </g>
        <g class="cls-28">
          <path class="cls-24" d="M126.17,504.98h-6.57c0-110.68,9.85-166.95,19.38-221.36,9.46-54.04,19.25-109.92,19.25-219.83h6.57c0,110.68-9.85,166.95-19.38,221.36-9.46,54.04-19.25,109.92-19.25,219.83Z"/>
        </g>
        <g class="cls-28">
          <path class="cls-24" d="M132.74,504.98h-6.57c0-111.11,21.66-167.57,42.61-222.16,20.67-53.86,42.03-109.55,42.03-219.03h6.57c0,111.11-21.66,167.57-42.61,222.16-20.67,53.86-42.03,109.55-42.03,219.03Z"/>
        </g>
        <g class="cls-28">
          <path class="cls-29" d="M142.2,504.98h-6.57c0-109.53-20.12-165.24-39.58-219.11-19.71-54.58-40.09-111.01-40.09-222.08h6.57c0,109.53,20.12,165.24,39.58,219.11,19.71,54.58,40.09,111.01,40.09,222.08Z"/>
        </g>
        <g class="cls-5">
          <path class="cls-4" d="M155.34,504.98h-6.57c0-111.48,33.08-168.05,65.08-222.75,31.43-53.75,63.94-109.32,63.94-218.44h6.57c0,111.48-33.08,168.05-65.08,222.75-31.43,53.75-63.94,109.32-63.94,218.44Z"/>
        </g>
        <g class="cls-28">
          <path class="cls-29" d="M148.77,504.98h-6.57c0-110.07-5.73-166.03-11.28-220.14-5.57-54.34-11.32-110.52-11.32-221.05h6.57c0,110.07,5.73,166.03,11.28,220.14,5.57,54.34,11.32,110.52,11.32,221.05Z"/>
        </g>
        <g class="cls-28">
          <path class="cls-29" d="M164.8,504.98h-6.57c0-109.39-24.15-165.04-47.5-218.87-23.7-54.63-48.2-111.11-48.2-222.32h6.57c0,109.39,24.15,165.04,47.5,218.87,23.7,54.63,48.2,111.11,48.2,222.32Z"/>
        </g>
        <g class="cls-28">
          <path class="cls-24" d="M171.37,504.98h-6.57c0-110.29-.08-166.37-.15-220.59-.07-54.23-.15-110.3-.15-220.6h6.57c0,110.29.08,166.37.15,220.59.07,54.23.15,110.3.15,220.6Z"/>
        </g>
        <g class="cls-5">
          <path class="cls-4" d="M177.93,504.98h-6.57c0-111.35,28.96-167.89,56.96-222.56,27.55-53.78,56.03-109.39,56.03-218.63h6.57c0,111.35-28.96,167.89-56.96,222.56-27.55,53.78-56.03,109.39-56.03,218.63Z"/>
        </g>
        <g class="cls-28">
          <path class="cls-29" d="M187.4,504.98h-6.57c0-109.25-28.17-164.87-55.41-218.65-27.69-54.67-56.32-111.2-56.32-222.54h6.57c0,109.25,28.17,164.87,55.41,218.65,27.69,54.67,56.32,111.2,56.32,222.54Z"/>
        </g>
        <g class="cls-28">
          <path class="cls-24" d="M193.97,504.98h-6.57c0-110.13-4.23-166.12-8.33-220.26-4.11-54.31-8.35-110.47-8.35-220.93h6.57c0,110.13,4.23,166.12,8.33,220.26,4.11,54.31,8.35,110.47,8.35,220.93Z"/>
        </g>
        <g class="cls-28">
          <path class="cls-24" d="M200.53,504.98h-6.57c0-110.53,5.9-166.72,11.61-221.06,5.68-54.11,11.56-110.07,11.56-220.13h6.57c0,110.53-5.9,166.72-11.61,221.06-5.68,54.11-11.56,110.07-11.56,220.13Z"/>
        </g>
        <g class="cls-28">
          <path class="cls-29" d="M213.28,504.98h-9.85c0-108.54-30.62-161.41-63.04-217.38-31.82-54.94-64.73-111.75-64.73-223.81h9.85c0,108.54,30.62,161.41,63.04,217.38,31.82,54.94,64.73,111.75,64.73,223.81Z"/>
        </g>
        <g class="cls-28">
          <path class="cls-24" d="M223.13,504.98h-9.85c0-109.75-9.19-165.55-18.08-219.51-8.98-54.49-18.26-110.83-18.26-221.68h9.85c0,109.75,9.19,165.55,18.08,219.51,8.98,54.49,18.26,110.83,18.26,221.68Z"/>
        </g>
        <g class="cls-28">
          <path class="cls-29" d="M232.59,504.98h-6.57c0-109.03-33.81-162.11-69.61-218.31-34.86-54.73-70.9-111.31-70.9-222.88h6.57c0,109.03,33.81,162.11,69.61,218.31,34.86,54.73,70.9,111.31,70.9,222.88Z"/>
        </g>
        <g class="cls-28">
          <path class="cls-24" d="M239.16,504.98h-6.57c0-109.84-11.62-165.69-22.85-219.69-11.32-54.44-23.03-110.74-23.03-221.5h6.57c0,109.84,11.62,165.69,22.85,219.69,11.32,54.44,23.03,110.74,23.03,221.5Z"/>
        </g>
        <g class="cls-5">
          <path class="cls-4" d="M245.73,504.98h-6.57c0-110.81,13.09-167.13,25.75-221.6,12.55-53.98,25.52-109.81,25.52-219.59h6.57c0,110.81-13.09,167.13-25.75,221.6-12.55,53.98-25.52,109.81-25.52,219.59Z"/>
        </g>
        <g class="cls-28">
          <path class="cls-29" d="M255.19,504.98h-6.57c0-108.92-37.65-161.98-77.52-218.16-38.85-54.75-79.02-111.36-79.02-223.04h6.57c0,108.92,37.65,161.98,77.52,218.16,38.85,54.75,79.02,111.36,79.02,223.04Z"/>
        </g>
        <g class="cls-28">
          <path class="cls-24" d="M268.33,504.98h-6.57c0-110.07-5.83-166.02-11.47-220.13-5.66-54.34-11.52-110.53-11.52-221.06h6.57c0,110.07,5.83,166.02,11.47,220.13,5.66,54.34,11.52,110.53,11.52,221.06Z"/>
        </g>
        <g class="cls-28">
          <path class="cls-24" d="M261.76,504.98h-6.57c0-109.98-8.02-165.89-15.78-219.96-7.8-54.38-15.87-110.61-15.87-221.23h6.57c0,109.98,8.02,165.89,15.78,219.96,7.8,54.38,15.87,110.61,15.87,221.23Z"/>
        </g>
        <g class="cls-28">
          <path class="cls-29" d="M277.79,504.98h-6.57c0-108.81-41.5-161.86-85.43-218.02-21.34-27.28-43.41-55.49-59.78-90.36-18.42-39.23-27.37-82.68-27.37-132.82h6.57c0,108.81,41.5,161.86,85.43,218.02,21.34,27.28,43.41,55.49,59.78,90.36,18.42,39.23,27.37,82.68,27.37,132.82Z"/>
        </g>
        <g class="cls-28">
          <path class="cls-24" d="M284.36,504.98h-6.57c0-109.48-21.41-165.17-42.12-219.03-20.99-54.59-42.69-111.04-42.69-222.16h6.57c0,109.48,21.41,165.17,42.12,219.03,20.99,54.59,42.69,111.04,42.69,222.16Z"/>
        </g>
        <g class="cls-5">
          <path class="cls-4" d="M290.92,504.98h-6.57c0-110.43,3.24-166.56,6.37-220.85,3.13-54.16,6.36-110.17,6.36-220.34h6.57c0,110.43-3.24,166.56-6.37,220.85-3.13,54.16-6.36,110.17-6.36,220.34Z"/>
        </g>
        <g class="cls-28">
          <path class="cls-29" d="M300.39,504.98h-6.57c0-108.72-45.34-161.75-93.34-217.89-23.32-27.28-47.44-55.48-65.33-90.35-20.14-39.27-29.93-82.75-29.93-132.94h6.57c0,108.72,45.34,161.75,93.34,217.89,23.32,27.28,47.44,55.48,65.33,90.35,20.14,39.27,29.93,82.75,29.93,132.94Z"/>
        </g>
        <g class="cls-28">
          <path class="cls-24" d="M306.95,504.98h-6.57c0-109.34-25.44-164.98-50.05-218.8-24.98-54.64-50.82-111.14-50.82-222.4h6.57c0,109.34,25.44,164.98,50.05,218.8,24.98,54.64,50.82,111.14,50.82,222.4Z"/>
        </g>
        <g class="cls-5">
          <path class="cls-4" d="M313.52,504.98h-6.57c0-110.26-.95-166.31-1.86-220.52-.92-54.24-1.86-110.34-1.86-220.67h6.57c0,110.26.95,166.31,1.86,220.52.92,54.24,1.86,110.34,1.86,220.67Z"/>
        </g>
        <g class="cls-28">
          <path class="cls-29" d="M321.34,504.98h-4.93c0-109.04-51.61-164.68-101.53-218.49-25.26-27.23-51.39-55.39-70.74-90.16-21.78-39.14-32.37-82.49-32.37-132.54h4.93c0,109.04,51.61,164.68,101.53,218.49,25.26,27.23,51.39,55.39,70.74,90.16,21.78,39.14,32.37,82.49,32.37,132.54Z"/>
        </g>
        <g class="cls-28">
          <path class="cls-24" d="M336.12,504.98h-4.93c0-109.58-25.6-165.33-50.35-219.24-25.04-54.54-50.93-110.93-50.93-221.95h4.93c0,109.58,25.6,165.33,50.35,219.24,25.04,54.54,50.93,110.93,50.93,221.95Z"/>
        </g>
        <g class="cls-5">
          <path class="cls-4" d="M331.19,504.98h-4.93c0-110.28-.58-166.34-1.14-220.56-.56-54.23-1.14-110.32-1.14-220.63h4.93c0,110.28.58,166.34,1.14,220.56.56,54.23,1.14,110.32,1.14,220.63Z"/>
        </g>
        <g class="cls-5">
          <path class="cls-4" d="M326.27,504.98h-4.93c0-110.21-3.07-166.23-6.04-220.41-2.97-54.27-6.05-110.39-6.05-220.78h4.93c0,110.21,3.07,166.23,6.04,220.41,2.97,54.27,6.05,110.39,6.05,220.78Z"/>
        </g>
      </g>
      <g>
        <rect class="cls-27" x="244.8" y="599.7" width="5.77" height="41.88"/>
        <rect class="cls-4" x="281.1" y="599.7" width="5.77" height="41.88"/>
        <rect class="cls-24" x="315.4" y="599.7" width="5.77" height="41.88"/>
        <g class="cls-12">
          <text class="cls-6" transform="translate(324.77 608.56)"><tspan x="0" y="0">农</tspan><tspan x="0" y="11.43">事</tspan><tspan x="0" y="22.86">娱</tspan><tspan x="0" y="34.3">乐</tspan><tspan x="0" y="45.73">习</tspan><tspan x="0" y="57.16">俗</tspan></text>
        </g>
        <g class="cls-12">
          <text class="cls-6" transform="translate(287.37 608.56)"><tspan x="0" y="0">祈</tspan><tspan x="0" y="11.43">福</tspan><tspan x="0" y="22.86">祭</tspan><tspan x="0" y="34.3">祀</tspan><tspan x="0" y="45.73">习</tspan><tspan x="0" y="57.16">俗</tspan></text>
        </g>
        <g class="cls-12">
          <text class="cls-6" transform="translate(252.12 608.56)"><tspan x="0" y="0">生</tspan><tspan x="0" y="11.43">产</tspan><tspan x="0" y="22.86">过</tspan><tspan x="0" y="34.3">程</tspan><tspan x="0" y="45.73">习</tspan><tspan x="0" y="57.16">俗</tspan></text>
        </g>
        <rect class="cls-21" x=".36" y="109.57" width="333" height="308.12"/>
      </g>
      <text class="cls-23" transform="translate(57.15 40.88)"><tspan x="0" y="0">丰</tspan><tspan x="0" y="14.05">收</tspan></text>
      <text class="cls-23" transform="translate(165.2 41.01)"><tspan x="0" y="0">宴</tspan><tspan x="0" y="14.05">请</tspan></text>
      <text class="cls-23" transform="translate(277.2 40.87)"><tspan x="0" y="0">祭</tspan><tspan x="0" y="14.05">祀</tspan></text>
      <text class="cls-23" transform="translate(316.08 40.9)"><tspan x="0" y="0">祈</tspan><tspan x="0" y="14.05">福</tspan></text>
      <text class="cls-23" transform="translate(216.23 40.91)"><tspan x="0" y="0">歌</tspan><tspan x="0" y="14.05">舞</tspan></text>
      <text class="cls-23" transform="translate(116.19 40.88)"><tspan x="0" y="0">耕</tspan><tspan x="0" y="14.05">作</tspan></text>
      <text class="cls-23" transform="translate(236.25 40.94)"><tspan x="0" y="0">竞</tspan><tspan x="0" y="14.05">赛</tspan></text>
      <text class="cls-10" transform="translate(3.68 526.11)"><tspan x="0" y="0">尝</tspan><tspan x="0" y="14">新</tspan><tspan class="cls-25" x="0" y="28">节</tspan></text>
      <text class="cls-11" transform="translate(5.65 556.08) rotate(90)"><tspan x="0" y="0">（</tspan></text>
      <text class="cls-11" transform="translate(3.68 582.11)"><tspan x="0" y="0">六</tspan><tspan x="0" y="14">月</tspan><tspan class="cls-25" x="0" y="28">六</tspan></text>
      <text class="cls-11" transform="translate(5.65 612.08) rotate(90)"><tspan x="0" y="0">）</tspan></text>
      <text class="cls-10" transform="translate(26.21 526.67)"><tspan x="0" y="0">阿</tspan><tspan x="0" y="14">昌</tspan><tspan x="0" y="28">族</tspan><tspan x="0" y="42">尝</tspan><tspan x="0" y="56">新</tspan><tspan x="0" y="70">节</tspan></text>
      <text class="cls-10" transform="translate(48.68 526.86)"><tspan x="0" y="0">京</tspan><tspan x="0" y="14">族</tspan><tspan x="0" y="28">食</tspan><tspan x="0" y="42">新</tspan><tspan x="0" y="56">米</tspan></text>
      <text class="cls-10" transform="translate(71.18 526.83)"><tspan x="0" y="0">哈</tspan><tspan x="0" y="14">尼</tspan><tspan x="0" y="28">新</tspan><tspan x="0" y="42">米</tspan><tspan x="0" y="56">节</tspan></text>
      <text class="cls-10" transform="translate(93.68 526.83)"><tspan x="0" y="0">曼</tspan><tspan x="0" y="14">恩</tspan><tspan x="0" y="28">南</tspan><tspan x="0" y="42">沙</tspan><tspan x="0" y="56">拜</tspan></text>
      <text class="cls-10" transform="translate(116.16 526.87)"><tspan x="0" y="0">侗</tspan><tspan x="0" y="14">族</tspan><tspan x="0" y="28">尝</tspan><tspan x="0" y="42">新</tspan><tspan x="0" y="56">节</tspan></text>
      <text class="cls-10" transform="translate(138.66 526.86)"><tspan x="0" y="0">布</tspan><tspan x="0" y="14">依</tspan><tspan x="0" y="28">族</tspan><tspan x="0" y="42">六</tspan><tspan x="0" y="56">月</tspan><tspan x="0" y="70">六</tspan></text>
      <text class="cls-10" transform="translate(161.14 526.93)"><tspan x="0" y="0">茵</tspan><tspan x="0" y="14">果</tspan><tspan x="0" y="28">顶</tspan></text>
      <text class="cls-10" transform="translate(183.67 526.84)"><tspan x="0" y="0">好</tspan><tspan x="0" y="14">希</tspan><tspan x="0" y="28">早</tspan></text>
      <text class="cls-10" transform="translate(206.12 526.99)"><tspan x="0" y="0">彝</tspan><tspan x="0" y="14">族</tspan><tspan x="0" y="28">尝</tspan><tspan x="0" y="42">新</tspan><tspan x="0" y="56">节</tspan></text>
      <text class="cls-10" transform="translate(228.61 526.94)"><tspan x="0" y="0">畲</tspan><tspan x="0" y="14">族</tspan><tspan x="0" y="28">尝</tspan><tspan x="0" y="42">新</tspan><tspan x="0" y="56">节</tspan></text>
      <text class="cls-10" transform="translate(251.12 527)"><tspan x="0" y="0">收</tspan><tspan x="0" y="14">获</tspan><tspan x="0" y="28">节</tspan></text>
      <text class="cls-10" transform="translate(273.61 526.95)"><tspan x="0" y="0">宋</tspan><tspan x="0" y="14">初</tspan><tspan x="0" y="28">节</tspan></text>
      <text class="cls-10" transform="translate(296.1 526.04)"><tspan x="0" y="0">扎</tspan><tspan x="0" y="14">四</tspan><tspan x="0" y="28">俄</tspan><tspan x="0" y="42">扎</tspan></text>
      <text class="cls-10" transform="translate(318.59 526.1)"><tspan x="0" y="0">曲</tspan><tspan x="0" y="14">科</tspan><tspan x="0" y="28">节</tspan></text>
    </g>
    <text class="cls-22" transform="translate(3.06 15.47)"><tspan x="0" y="0">具体节日习俗</tspan></text>
    <text class="cls-22" transform="translate(4.3 666.88)"><tspan x="0" y="0">节日日期分布</tspan></text>
  </g>
</svg>