<?xml version="1.0" encoding="UTF-8"?>
<svg id="_图层_2" data-name="图层 2" xmlns="http://www.w3.org/2000/svg" viewBox="0 0 501.83 1086.73">
  <defs>
    <style>
      .cls-1 {
        font-family: HanyiSentySuciTablet, HanyiSentySuciTablet;
        font-size: 21.27px;
      }

      .cls-1, .cls-2, .cls-3, .cls-4, .cls-5, .cls-6, .cls-7, .cls-8 {
        fill: #231815;
      }

      .cls-9 {
        fill: #e6a275;
      }

      .cls-2 {
        font-size: 11.56px;
      }

      .cls-2, .cls-3, .cls-6, .cls-7, .cls-8 {
        font-family: FZVariableLanTHK-Light, 'FZVariableLanTHK Light';
        font-variation-settings: ';
        font-weight: 300;
      }

      .cls-3 {
        font-size: 9.41px;
      }

      .cls-10 {
        stroke: #e6a275;
      }

      .cls-10, .cls-11, .cls-12, .cls-13, .cls-14, .cls-15, .cls-16 {
        stroke-miterlimit: 10;
      }

      .cls-10, .cls-11, .cls-13, .cls-14, .cls-15, .cls-16 {
        fill: none;
      }

      .cls-10, .cls-13 {
        stroke-width: .25px;
      }

      .cls-4 {
        font-family: FZVariableLanTHK-Normal, 'FZVariableLanTHK Normal';
        font-size: 11.93px;
        font-variation-settings: ';
      }

      .cls-11 {
        stroke: #529960;
      }

      .cls-11, .cls-13, .cls-14, .cls-15 {
        stroke-dasharray: 12 1 1 1;
      }

      .cls-11, .cls-14, .cls-15 {
        stroke-width: .75px;
      }

      .cls-17, .cls-12 {
        fill: #00543f;
      }

      .cls-6 {
        font-size: 13.85px;
      }

      .cls-18 {
        fill: #378d39;
      }

      .cls-7 {
        font-size: 14.06px;
      }

      .cls-8 {
        font-size: 11.61px;
      }

      .cls-12 {
        stroke: #f4f3f2;
        stroke-width: .1px;
      }

      .cls-13 {
        stroke: #00523d;
      }

      .cls-14 {
        stroke: #b89d60;
      }

      .cls-15 {
        stroke: #947466;
      }

      .cls-16 {
        stroke: #378d39;
        stroke-width: 1.5px;
      }

      .cls-19 {
        opacity: .7;
      }
    </style>
  </defs>
  <g id="_图层_1-2" data-name="图层 1">
    <path class="cls-9" d="M404.94,1025.9c6.41,7.57,9.63,19.71,7.04,29.22-6.44-7.56-9.6-19.71-7.04-29.22h0Z"/>
    <line class="cls-10" x1="409.04" y1="1045.22" x2="403.38" y2="1019.33"/>
    <path class="cls-9" d="M419.4,1025.9c-6.41,7.57-9.63,19.71-7.04,29.22,6.44-7.56,9.6-19.71,7.04-29.22h0Z"/>
    <line class="cls-10" x1="415.31" y1="1045.22" x2="420.97" y2="1019.33"/>
    <path class="cls-9" d="M196.62,1046.83c-1.43,1.77-2.53,3.81-3.29,6.03-.76-2.22-1.86-4.26-3.29-6.03,0,6.31-.11,5-.05,8.63.1,6.29.72,9.48,3.35,12.86,2.62-3.38,3.24-6.57,3.35-12.86.06-3.63-.05-2.31-.05-8.63Z"/>
    <path class="cls-9" d="M196.67,1036.99c-1.43,1.77-2.58,3.81-3.35,6.03-.76-2.22-1.91-4.26-3.35-6.03,0,1.19-.06-2.16,0,1.46.1,6.29.72,9.48,3.35,12.86,2.62-3.38,3.24-6.57,3.35-12.86.06-3.63,0-.27,0-1.46Z"/>
    <path class="cls-9" d="M196.67,1027.17c-1.43,1.77-2.58,3.81-3.35,6.03-.76-2.22-1.91-4.26-3.35-6.03,0,1.19-.06-2.16,0,1.46.1,6.29.72,9.48,3.35,12.86,2.62-3.38,3.24-6.57,3.35-12.86.06-3.63,0-.27,0-1.46Z"/>
    <path class="cls-9" d="M460.81,1026.55c.17,6.13-1.41,12.81-4.32,18.77-2.22,4.55-9.14,1.55-7.21-3.12,2.57-6.22,6.57-11.88,11.52-15.65h0Z"/>
    <path class="cls-9" d="M443.15,1024.27c-.32,11.48,5.51,24.92,14.69,31.86.36-11.49-5.54-24.9-14.69-31.86h0Z"/>
    <circle class="cls-18" cx="7.34" cy="814.49" r="6.72"/>
    <g>
      <circle class="cls-18" cx="7.34" cy="3.12" r="3.12"/>
      <text class="cls-7" transform="translate(0 22.93)"><tspan x="0" y="0">东</tspan><tspan x="0" y="16.87">北</tspan></text>
    </g>
    <g>
      <circle class="cls-18" cx="7.34" cy="104.47" r="3.12"/>
      <text class="cls-7" transform="translate(0 124.29)"><tspan x="0" y="0">西</tspan><tspan x="0" y="16.87">北</tspan></text>
    </g>
    <g>
      <circle class="cls-18" cx="7.34" cy="193.38" r="3.12"/>
      <text class="cls-7" transform="translate(0 214.2)"><tspan x="0" y="0">黄</tspan><tspan x="0" y="16.87">淮</tspan></text>
    </g>
    <g>
      <circle class="cls-18" cx="7.34" cy="293.79" r="3.12"/>
      <text class="cls-7" transform="translate(0 313.6)"><tspan x="0" y="0">长</tspan><tspan x="0" y="16.87">中</tspan><tspan x="0" y="33.75">下</tspan></text>
    </g>
    <g>
      <circle class="cls-18" cx="7.34" cy="708.03" r="3.12"/>
      <text class="cls-7" transform="translate(0 728.85)"><tspan x="0" y="0">青</tspan><tspan x="0" y="16.87">藏</tspan></text>
    </g>
    <text class="cls-7" transform="translate(0 837.32)"><tspan x="0" y="0">全</tspan><tspan x="0" y="16.87">国</tspan></text>
    <g>
      <circle class="cls-18" cx="7.34" cy="405.64" r="3.12"/>
      <text class="cls-7" transform="translate(0 427.46)"><tspan x="0" y="0">四</tspan><tspan x="0" y="16.87">川</tspan></text>
    </g>
    <g>
      <circle class="cls-18" cx="7.34" cy="500.73" r="3.12"/>
      <text class="cls-7" transform="translate(0 522.55)"><tspan x="0" y="0">云</tspan><tspan x="0" y="16.87">贵</tspan></text>
    </g>
    <g>
      <circle class="cls-18" cx="7.34" cy="605.72" r="3.12"/>
      <text class="cls-7" transform="translate(0 627.55)"><tspan x="0" y="0">华</tspan><tspan x="0" y="16.87">南</tspan></text>
    </g>
    <g>
      <line class="cls-11" x1="35.5" y1="951.23" x2="35.5" y2="11.06"/>
      <line class="cls-11" x1="150.83" y1="951.23" x2="150.83" y2="11.06"/>
      <line class="cls-14" x1="266.16" y1="593.23" x2="266.16" y2="11.06"/>
      <line class="cls-15" x1="381.49" y1="949.23" x2="381.49" y2="64.06"/>
      <line class="cls-11" x1="496.83" y1="951.23" x2="496.83" y2="11.06"/>
    </g>
    <g>
      <text class="cls-4" transform="translate(37.39 968.1)"><tspan x="0" y="0">春</tspan></text>
      <text class="cls-4" transform="translate(152.07 968.04)"><tspan x="0" y="0">夏</tspan></text>
      <text class="cls-4" transform="translate(266.5 968.07)"><tspan x="0" y="0">秋</tspan></text>
      <text class="cls-4" transform="translate(382.19 968.14)"><tspan x="0" y="0">冬</tspan></text>
      <g>
        <g>
          <path class="cls-5" d="M384.15,985.36v-7.15c-.52.65-1.42,1.27-2.7,1.87l-.02-.93c1.45-.67,2.43-1.53,2.95-2.58h.81v8.8h-1.04Z"/>
          <path class="cls-5" d="M390.56,976.49c.99,0,1.76.39,2.28,1.16s.79,1.89.79,3.34-.26,2.61-.79,3.37c-.51.75-1.27,1.13-2.26,1.13-.9,0-1.61-.33-2.13-.98-.62-.77-.93-1.94-.93-3.52,0-1.43.27-2.53.82-3.32.54-.78,1.28-1.17,2.22-1.17ZM390.59,984.66c.62,0,1.09-.27,1.42-.82.34-.61.52-1.55.52-2.83s-.17-2.21-.5-2.82c-.33-.57-.81-.86-1.45-.86-.6,0-1.07.29-1.4.88-.36.63-.54,1.56-.54,2.8s.18,2.19.55,2.81c.33.56.8.84,1.42.84Z"/>
        </g>
        <g>
          <path class="cls-5" d="M461.63,985.42v-7.15c-.52.65-1.42,1.27-2.7,1.87l-.02-.93c1.45-.67,2.43-1.53,2.95-2.58h.81v8.8h-1.04Z"/>
          <path class="cls-5" d="M466.13,984.52h4.7v.89h-5.95v-.69c.31-.58.7-1.13,1.18-1.67.46-.51,1-1,1.62-1.47.78-.59,1.32-1.07,1.62-1.45.27-.34.41-.7.41-1.1,0-.49-.15-.88-.44-1.16-.31-.3-.76-.45-1.35-.45-.49,0-.9.15-1.24.44s-.57.73-.71,1.31l-.97-.29c.2-.75.56-1.33,1.09-1.72s1.2-.59,2.01-.59c.86,0,1.54.23,2.03.7.45.43.67.98.67,1.66,0,.59-.15,1.09-.45,1.5-.29.4-.84.9-1.68,1.5-1.16.84-2.01,1.7-2.55,2.59Z"/>
        </g>
        <path class="cls-5" d="M40.36,985.02v-6.55c-.52.6-1.42,1.16-2.7,1.71l-.02-.85c1.45-.62,2.43-1.4,2.95-2.36h.81v8.05h-1.04Z"/>
        <path class="cls-5" d="M76.46,984.53h4.7v.89h-5.95v-.69c.31-.58.7-1.13,1.18-1.67.46-.51,1-1,1.62-1.47.78-.59,1.32-1.07,1.62-1.45.27-.34.41-.7.41-1.1,0-.49-.15-.88-.44-1.16-.31-.3-.76-.45-1.35-.45-.49,0-.9.15-1.24.44s-.57.73-.71,1.31l-.97-.29c.2-.75.56-1.33,1.09-1.72s1.2-.59,2.01-.59c.86,0,1.54.23,2.03.7.45.43.67.98.67,1.66,0,.59-.15,1.09-.45,1.5-.29.4-.84.9-1.68,1.5-1.16.84-2.01,1.7-2.55,2.59Z"/>
        <path class="cls-5" d="M113.8,983.14l1.08-.23c.1.59.33,1.04.69,1.33.34.29.77.43,1.31.43.62,0,1.1-.16,1.45-.49.34-.31.5-.74.5-1.28,0-.48-.16-.86-.49-1.14-.37-.32-.95-.49-1.74-.49h-.78v-.83h.64c.59,0,1.05-.1,1.4-.31.46-.27.69-.7.69-1.27,0-.46-.14-.83-.43-1.1-.29-.29-.71-.43-1.24-.43-.51,0-.92.15-1.23.43-.31.28-.51.68-.61,1.22l-1.03-.23c.16-.7.49-1.25.98-1.63.51-.4,1.17-.6,1.96-.6.84,0,1.51.23,2.01.68.45.41.67.93.68,1.57.01.52-.14.96-.47,1.33-.31.35-.73.59-1.24.72.01,0,.03,0,.05.01.62.12,1.11.38,1.46.8.31.39.47.84.47,1.35,0,.75-.26,1.36-.79,1.82-.55.48-1.3.71-2.25.71-.84,0-1.51-.19-2.01-.57-.5-.38-.86-.97-1.05-1.78Z"/>
        <path class="cls-5" d="M157.59,982.53h1.16v.8h-1.16v2.06h-.95v-2.06h-4.33v-.68l4.32-6.06h.97v5.94ZM153.34,982.53h3.29v-3.63c0-.43.01-.8.02-1.12-.21.33-.41.64-.6.93l-2.71,3.82Z"/>
        <path class="cls-5" d="M191.15,983.04l1.04-.23c.1.6.33,1.05.68,1.34.34.29.77.43,1.31.43.61,0,1.09-.2,1.45-.59.37-.39.55-.9.55-1.54s-.18-1.13-.53-1.5c-.37-.39-.85-.58-1.46-.58-.83,0-1.46.34-1.87.99l-.83-.05.43-4.71h4.87v.88s-3.99,0-3.99,0l-.3,2.9c.49-.53,1.14-.79,1.95-.79s1.52.26,2.03.79c.5.51.75,1.19.75,2.02,0,.92-.27,1.65-.8,2.19-.53.55-1.27.82-2.22.82-.83,0-1.5-.2-2.02-.61-.51-.39-.86-.98-1.04-1.74Z"/>
        <path class="cls-5" d="M308.93,980.81h0c-.46-.15-.83-.39-1.11-.75-.28-.37-.42-.79-.42-1.27,0-.64.25-1.17.76-1.61.53-.46,1.21-.69,2.04-.69s1.5.24,2.03.71c.5.44.76.97.76,1.59,0,.49-.13.91-.39,1.25-.28.36-.67.61-1.17.75h0c.55.14.99.4,1.34.79.36.42.54.9.54,1.45,0,.76-.28,1.36-.81,1.79-.56.45-1.34.67-2.36.68-.92,0-1.66-.23-2.22-.68-.55-.45-.82-1.04-.82-1.79,0-.51.15-.97.48-1.38.34-.42.8-.7,1.36-.83ZM310.2,984.71c.61,0,1.1-.16,1.47-.47.37-.3.55-.7.55-1.2,0-.58-.22-1.03-.65-1.35-.35-.27-.82-.43-1.42-.47-.59.04-1.05.21-1.38.48-.4.32-.59.76-.59,1.31,0,.51.19.92.56,1.23.37.31.86.47,1.46.47ZM310.21,977.28c-.51,0-.93.15-1.24.44-.31.29-.47.65-.47,1.1s.14.83.42,1.1c.29.29.72.45,1.29.49.53-.04.94-.18,1.23-.44.31-.29.47-.67.47-1.14s-.16-.83-.47-1.12c-.31-.29-.72-.43-1.23-.43Z"/>
        <path class="cls-5" d="M345.98,983.43l.98-.21c.12.48.34.83.64,1.08.29.25.66.37,1.1.36.67,0,1.18-.26,1.54-.78.39-.55.6-1.37.65-2.46.01-.2.02-.38.01-.54-.23.46-.54.81-.94,1.05-.4.24-.88.36-1.43.36-.77,0-1.4-.24-1.9-.74-.53-.51-.8-1.2-.8-2.06s.26-1.59.79-2.14c.54-.58,1.27-.87,2.17-.87s1.57.24,2.09.73c.5.48.82,1.17.95,2.1.07.48.1.96.1,1.46,0,1.62-.3,2.83-.9,3.61-.54.72-1.33,1.09-2.36,1.09-.72,0-1.31-.18-1.77-.55-.45-.36-.76-.86-.91-1.5ZM350.83,979.55c-.03-.7-.22-1.24-.57-1.62-.35-.4-.83-.59-1.45-.59s-1.09.2-1.44.59c-.34.38-.52.89-.52,1.51,0,.63.17,1.13.53,1.5.34.37.8.55,1.36.55.64,0,1.15-.18,1.53-.55.37-.36.55-.82.56-1.39Z"/>
        <g>
          <path class="cls-5" d="M424.13,985.39v-7.15c-.52.65-1.42,1.27-2.7,1.87l-.02-.93c1.45-.67,2.43-1.53,2.95-2.58h.81v8.8h-1.04Z"/>
          <path class="cls-5" d="M429.95,985.39v-7.15c-.52.65-1.42,1.27-2.7,1.87l-.02-.93c1.45-.67,2.43-1.53,2.95-2.58h.81v8.8h-1.04Z"/>
        </g>
        <path class="cls-5" d="M235.71,978.55l-.98.21c-.13-.48-.34-.83-.64-1.08-.29-.25-.65-.37-1.09-.36-.65,0-1.16.27-1.53.8-.39.55-.6,1.35-.65,2.41,0,.2,0,.38-.01.56.23-.45.54-.8.93-1.04.4-.24.88-.36,1.44-.36.8,0,1.46.27,1.98.82.5.52.75,1.17.75,1.96,0,.88-.26,1.59-.78,2.14-.53.58-1.25.87-2.16.87-.86.01-1.55-.22-2.07-.7-.52-.48-.85-1.19-1-2.13-.07-.44-.11-.94-.11-1.51,0-1.48.28-2.63.84-3.43.56-.8,1.35-1.21,2.38-1.21.73,0,1.33.2,1.81.59.43.36.72.84.88,1.46ZM232.95,984.66c.59,0,1.06-.2,1.42-.6.34-.39.52-.89.52-1.51s-.17-1.09-.5-1.47c-.34-.38-.81-.57-1.39-.57-.69,0-1.23.23-1.61.66-.3.34-.45.77-.46,1.27.04.7.24,1.24.6,1.63.36.4.84.59,1.44.59Z"/>
        <path class="cls-5" d="M271.15,985.34h-1.11c.18-1.28.56-2.6,1.14-3.96.56-1.32,1.27-2.6,2.14-3.86h-4.78v-.88h5.97v.76c-.94,1.29-1.7,2.6-2.26,3.91-.56,1.32-.93,2.67-1.1,4.04Z"/>
      </g>
      <line class="cls-16" x1="38.44" y1="989.11" x2="501.83" y2="989.11"/>
    </g>
    <path class="cls-9" d="M118.39,1035.02c-3.08,3.8-5.55,8.2-7.2,12.97-1.64-4.77-4.12-9.17-7.2-12.97,0,2.57-.13-4.65,0,3.15.22,13.52,1.55,20.38,7.2,27.65,5.64-7.27,6.98-14.13,7.2-27.65.13-7.8,0-.58,0-3.15Z"/>
    <path class="cls-9" d="M346.9,1024.57c-2.36,3.8-4.25,8.2-5.51,12.97-1.26-4.77-3.15-9.17-5.51-12.97,0,2.57-.1-4.65,0,3.15.17,13.52,1.19,20.38,5.51,27.65,4.32-7.27,5.34-14.13,5.51-27.65.1-7.8,0-.58,0-3.15Z"/>
    <g>
      <path class="cls-9" d="M155.76,1040.06c-1.88,2.32-3.33,5.01-4.33,7.93-1-2.92-2.45-5.6-4.33-7.93,0,8.3-.15,6.57-.07,11.34.14,8.27.95,12.46,4.4,16.91,3.45-4.44,4.27-8.64,4.4-16.91.08-4.77-.07-3.04-.07-11.34Z"/>
      <path class="cls-9" d="M155.84,1027.26c-1.88,2.32-3.4,5.01-4.4,7.93-1-2.92-2.52-5.6-4.4-7.93,0,1.57-.08-2.84,0,1.92.14,8.27.95,12.46,4.4,16.91,3.45-4.44,4.27-8.64,4.4-16.91.08-4.77,0-.36,0-1.92Z"/>
    </g>
    <path class="cls-9" d="M75,1033.98c4.41,10.03,4.45,22.19,0,32.22-4.45-10.02-4.41-22.19,0-32.22h0Z"/>
    <text class="cls-3" transform="translate(210.06 1033.85)"><tspan x="0" y="0">非</tspan><tspan x="0" y="9.41">遗</tspan><tspan x="0" y="18.83">级</tspan><tspan x="0" y="28.24">别</tspan><tspan x="0" y="37.65">高</tspan></text>
    <text class="cls-2" transform="translate(221.71 1035.3)"><tspan x="0" y="0">影</tspan><tspan x="0" y="11.56">响</tspan><tspan x="0" y="23.12">力</tspan><tspan x="0" y="34.68">大</tspan></text>
    <text class="cls-3" transform="translate(35.47 1033.85)"><tspan x="0" y="0">非</tspan><tspan x="0" y="9.41">遗</tspan><tspan x="0" y="18.83">级</tspan><tspan x="0" y="28.24">别</tspan><tspan x="0" y="37.65">低</tspan></text>
    <text class="cls-2" transform="translate(48.46 1035.3)"><tspan x="0" y="0">影</tspan><tspan x="0" y="11.56">响</tspan><tspan x="0" y="23.12">力</tspan><tspan x="0" y="34.68">小</tspan></text>
    <text class="cls-8" transform="translate(334.86 1071.33)"><tspan x="0" y="0">春</tspan></text>
    <text class="cls-8" transform="translate(372.29 1070.99)"><tspan x="0" y="0">夏</tspan></text>
    <text class="cls-8" transform="translate(407.61 1071.29)"><tspan x="0" y="0">秋</tspan></text>
    <text class="cls-8" transform="translate(445.57 1071.37)"><tspan x="0" y="0">冬</tspan></text>
    <text class="cls-8" transform="translate(284.86 1071.33)"><tspan x="0" y="0">未标注</tspan></text>
    <path class="cls-9" d="M302.49,1025.54c4.2,9.55,4.24,21.14,0,30.69-4.24-9.55-4.21-21.14,0-30.69h0Z"/>
    <text class="cls-3" transform="translate(249.81 1058.32)"><tspan x="0" y="0">纵</tspan><tspan x="0" y="9.41">坐</tspan><tspan x="0" y="18.83">标</tspan></text>
    <text class="cls-6" transform="translate(259.88 1062.14)"><tspan x="0" y="0">地</tspan><tspan x="0" y="13.85">域</tspan></text>
    <text class="cls-3" transform="translate(468.81 1058.32)"><tspan x="0" y="0">横</tspan><tspan x="0" y="9.41">坐</tspan><tspan x="0" y="18.83">标</tspan></text>
    <text class="cls-6" transform="translate(478.88 1062.14)"><tspan x="0" y="0">日</tspan><tspan x="0" y="13.85">期</tspan></text>
    <polyline class="cls-16" points="285.83 1077.23 462.83 1077.23 454.83 1086.23"/>
    <polyline class="cls-16" points="276.83 1078.23 276.83 1028.23 267.83 1036.23"/>
    <path class="cls-9" d="M383.12,1021.72c-5.47,10.82-7.53,24.54-5.39,36.33,5.49-10.81,7.5-24.54,5.39-36.33h0Z"/>
    <path class="cls-9" d="M371.8,1026.23c4.34,8.59,5.97,19.47,4.27,28.82-4.36-8.58-5.95-19.47-4.27-28.82h0Z"/>
    <g class="cls-19">
      <path class="cls-12" d="M283.55,496.75c6.18,14.04,6.23,31.08,0,45.11-6.23-14.03-6.18-31.07,0-45.11h0Z"/>
    </g>
    <path class="cls-12" d="M296.62,496.75c6.18,14.04,6.23,31.08,0,45.11-6.23-14.03-6.18-31.07,0-45.11h0Z"/>
    <path class="cls-12" d="M338.93,496.75c6.18,14.04,6.23,31.08,0,45.11-6.23-14.03-6.18-31.07,0-45.11h0Z"/>
    <path class="cls-12" d="M353.06,495.75c6.18,14.04,6.23,31.08,0,45.11-6.23-14.03-6.18-31.07,0-45.11h0Z"/>
    <path class="cls-12" d="M252.74,689.69c6.18,14.04,6.23,31.08,0,45.11-6.23-14.03-6.18-31.07,0-45.11h0Z"/>
    <path class="cls-12" d="M279.55,496.75c6.18,14.04,6.23,31.08,0,45.11-6.23-14.03-6.18-31.07,0-45.11h0Z"/>
    <g class="cls-19">
      <path class="cls-12" d="M273.37,496.75c6.18,14.04,6.23,31.08,0,45.11-6.23-14.03-6.18-31.07,0-45.11h0Z"/>
    </g>
    <path class="cls-12" d="M234.89,405.06c6.18,14.04,6.23,31.08,0,45.11-6.23-14.03-6.18-31.07,0-45.11h0Z"/>
    <path class="cls-12" d="M329.74,405.06c6.18,14.04,6.23,31.08,0,45.11-6.23-14.03-6.18-31.07,0-45.11h0Z"/>
    <g>
      <path class="cls-12" d="M238.71,587.92c-6.93,10.62-9.09,26.15-5.68,41.72,6.97-10.6,9.05-26.16,5.68-41.72h0Z"/>
      <path class="cls-12" d="M238.71,556.24c-6.93,10.62-9.09,26.15-5.68,41.72,6.97-10.6,9.05-26.16,5.68-41.72h0Z"/>
      <path class="cls-12" d="M224.76,571.42c6.93,10.62,9.09,26.15,5.68,41.72-6.97-10.6-9.05-26.16-5.68-41.72h0Z"/>
      <path class="cls-12" d="M224.76,539.74c6.93,10.62,9.09,26.15,5.68,41.72-6.97-10.6-9.05-26.16-5.68-41.72h0Z"/>
      <path class="cls-12" d="M238.71,524.56c-6.93,10.62-9.09,26.15-5.68,41.72,6.97-10.6,9.05-26.16,5.68-41.72h0Z"/>
      <path class="cls-12" d="M238.71,492.88c-6.93,10.62-9.09,26.15-5.68,41.72,6.97-10.6,9.05-26.16,5.68-41.72h0Z"/>
      <path class="cls-12" d="M224.76,508.06c6.93,10.62,9.09,26.15,5.68,41.72-6.97-10.6-9.05-26.16-5.68-41.72h0Z"/>
      <path class="cls-12" d="M224.76,476.38c6.93,10.62,9.09,26.15,5.68,41.72-6.97-10.6-9.05-26.16-5.68-41.72h0Z"/>
    </g>
    <path class="cls-17" d="M257.37,496.75c6.18,14.04,6.23,31.08,0,45.11-6.23-14.03-6.18-31.07,0-45.11h0Z"/>
    <g class="cls-19">
      <path class="cls-17" d="M223.03,496.75c6.18,14.04,6.23,31.08,0,45.11-6.23-14.03-6.18-31.07,0-45.11h0Z"/>
    </g>
    <path class="cls-12" d="M385.9,496.75c6.18,14.04,6.23,31.08,0,45.11-6.23-14.03-6.18-31.07,0-45.11h0Z"/>
    <path class="cls-12" d="M344.84,606.42c6.18,14.04,6.23,31.08,0,45.11-6.23-14.03-6.18-31.07,0-45.11h0Z"/>
    <g class="cls-19">
      <path class="cls-12" d="M240.3,405.06c6.18,14.04,6.23,31.08,0,45.11-6.23-14.03-6.18-31.07,0-45.11h0Z"/>
    </g>
    <text class="cls-1" transform="translate(238.45 551.27)"><tspan x="0" y="0">哈</tspan><tspan x="0" y="21.27">尼</tspan><tspan x="0" y="42.55">新</tspan><tspan x="0" y="63.82">米</tspan><tspan x="0" y="85.1">节</tspan></text>
    <text class="cls-1" transform="translate(198.9 550.09)"><tspan x="0" y="0">小</tspan><tspan x="0" y="21.27">暑</tspan><tspan x="0" y="42.55">尝</tspan><tspan x="0" y="63.82">新</tspan><tspan x="0" y="85.1">米</tspan></text>
    <text class="cls-1" transform="translate(243.69 407.52)"><tspan x="0" y="0">侗</tspan><tspan x="0" y="21.27">族</tspan><tspan x="0" y="42.55">吃</tspan><tspan x="0" y="63.82">新</tspan><tspan x="0" y="85.1">节</tspan></text>
    <text class="cls-1" transform="translate(317.96 548.22)"><tspan x="0" y="0">阿</tspan><tspan x="0" y="21.27">昌</tspan><tspan x="0" y="42.55">尝</tspan><tspan x="0" y="63.82">新</tspan><tspan x="0" y="85.1">节</tspan></text>
    <text class="cls-1" transform="translate(354.11 549.22)"><tspan x="0" y="0">傈</tspan><tspan x="0" y="21.27">僳</tspan><tspan x="0" y="42.55">族</tspan><tspan x="0" y="63.82">收</tspan><tspan x="0" y="85.1">获</tspan><tspan x="0" y="106.37">节</tspan></text>
    <text class="cls-1" transform="translate(343.79 657.98)"><tspan x="0" y="0">畲</tspan><tspan x="0" y="21.27">族</tspan><tspan x="0" y="42.55">尝</tspan><tspan x="0" y="63.82">新</tspan><tspan x="0" y="85.1">节</tspan></text>
    <text class="cls-1" transform="translate(214.33 635.2)"><tspan x="0" y="0">六</tspan><tspan x="0" y="21.27">月</tspan><tspan x="0" y="42.55">六</tspan></text>
    <text class="cls-1" transform="translate(282.29 550.06)"><tspan x="0" y="0">曼</tspan><tspan x="0" y="21.27">恩</tspan><tspan x="0" y="42.55">南</tspan><tspan x="0" y="63.82">沙</tspan><tspan x="0" y="85.1">拜</tspan></text>
    <text class="cls-1" transform="translate(299.35 547.06)"><tspan x="0" y="0">好</tspan><tspan x="0" y="21.27">希</tspan><tspan x="0" y="42.55">早</tspan></text>
    <text class="cls-1" transform="translate(250.49 747.29)"><tspan x="0" y="0">曲</tspan><tspan x="0" y="21.27">科</tspan><tspan x="0" y="42.55">节</tspan></text>
    <text class="cls-1" transform="translate(305.36 410.3)"><tspan x="0" y="0">彝</tspan><tspan x="0" y="21.27">族</tspan><tspan x="0" y="42.55">尝</tspan><tspan x="0" y="63.82">新</tspan><tspan x="0" y="85.1">节</tspan></text>
    <text class="cls-1" transform="translate(387.06 550.35)"><tspan x="0" y="0">京</tspan><tspan x="0" y="21.27">族</tspan><tspan x="0" y="42.55">新</tspan><tspan x="0" y="63.82">米</tspan><tspan x="0" y="85.1">节</tspan></text>
    <text class="cls-1" transform="translate(267.92 550.99)"><tspan x="0" y="0">茵</tspan><tspan x="0" y="21.27">果</tspan><tspan x="0" y="42.55">顶</tspan></text>
    <text class="cls-1" transform="translate(255.11 551.3)"><tspan x="0" y="0">宋</tspan><tspan x="0" y="21.27">初</tspan><tspan x="0" y="42.55">节</tspan></text>
    <line class="cls-13" x1="252.54" y1="720" x2="252.54" y2="948.94"/>
    <line class="cls-13" x1="257.54" y1="515.23" x2="257.54" y2="948.94"/>
    <line class="cls-13" x1="273.54" y1="541.23" x2="273.54" y2="948.94"/>
    <line class="cls-13" x1="278.54" y1="541.23" x2="278.54" y2="948.94"/>
    <line class="cls-13" x1="283.54" y1="541.23" x2="283.54" y2="948.94"/>
    <line class="cls-13" x1="296.54" y1="542.23" x2="296.54" y2="949.94"/>
    <line class="cls-13" x1="338.54" y1="538.23" x2="338.54" y2="949.94"/>
    <line class="cls-13" x1="329.54" y1="427.23" x2="329.54" y2="949.94"/>
    <line class="cls-13" x1="240.54" y1="448.23" x2="240.54" y2="949.23"/>
    <line class="cls-13" x1="234.54" y1="448.23" x2="234.54" y2="949.23"/>
    <line class="cls-13" x1="353.54" y1="538.23" x2="353.54" y2="949.94"/>
    <line class="cls-13" x1="385.54" y1="538.23" x2="385.54" y2="949.94"/>
    <line class="cls-13" x1="344.54" y1="629.23" x2="344.54" y2="949.94"/>
    <line class="cls-13" x1="233.54" y1="613.23" x2="233.54" y2="948.94"/>
    <line class="cls-13" x1="222.54" y1="540.23" x2="222.54" y2="948.94"/>
  </g>
</svg>