<?xml version="1.0" encoding="UTF-8"?>
<svg id="_图层_2" data-name="图层 2" xmlns="http://www.w3.org/2000/svg" viewBox="0 0 343 1004.36">
  <defs>
    <style>
      .cls-1 {
        opacity: .85;
      }

      .cls-2 {
        opacity: .6;
      }

      .cls-3 {
        letter-spacing: -.3em;
      }

      .cls-3, .cls-4, .cls-5, .cls-6 {
        fill: #231815;
      }

      .cls-3, .cls-5, .cls-6 {
        font-family: HanyiSentySuciTablet, HanyiSentySuciTablet;
      }

      .cls-3, .cls-6 {
        font-size: 14px;
      }

      .cls-7, .cls-8, .cls-9, .cls-10 {
        fill: #040000;
      }

      .cls-7, .cls-8, .cls-9, .cls-10, .cls-11 {
        isolation: isolate;
      }

      .cls-7, .cls-8, .cls-10 {
        font-family: FZVariableLanTHK-Normal, 'FZVariableLanTHK Normal';
        font-variation-settings: ';
      }

      .cls-7, .cls-9, .cls-10 {
        font-size: 11.43px;
      }

      .cls-8 {
        font-size: 9.74px;
        letter-spacing: 0em;
      }

      .cls-12, .cls-13, .cls-14, .cls-15, .cls-16, .cls-17, .cls-18, .cls-19, .cls-20, .cls-21, .cls-22, .cls-23, .cls-24, .cls-25, .cls-26, .cls-27, .cls-28, .cls-29, .cls-30, .cls-31, .cls-32, .cls-33, .cls-34, .cls-35, .cls-36 {
        fill: none;
        stroke-miterlimit: 10;
      }

      .cls-12, .cls-13, .cls-25, .cls-35 {
        stroke-width: 2px;
      }

      .cls-12, .cls-14, .cls-19, .cls-22, .cls-30, .cls-31 {
        stroke: #e0b153;
      }

      .cls-13, .cls-16, .cls-18, .cls-20, .cls-26, .cls-36 {
        stroke: #06653e;
      }

      .cls-37 {
        fill: #c9d597;
      }

      .cls-14, .cls-15 {
        stroke-dasharray: 2.05 1.03;
      }

      .cls-14, .cls-15, .cls-16, .cls-17, .cls-18, .cls-19, .cls-20, .cls-22, .cls-23, .cls-24, .cls-26, .cls-27, .cls-28, .cls-29, .cls-30, .cls-31, .cls-32, .cls-33, .cls-34, .cls-36 {
        stroke-width: .75px;
      }

      .cls-9 {
        font-family: FZVariableLanTHK-Regular, 'FZVariableLanTHK Regular';
        font-variation-settings: ';
      }

      .cls-15, .cls-17, .cls-23, .cls-25, .cls-33, .cls-34 {
        stroke: #378d39;
      }

      .cls-4 {
        font-family: FZVariableLanTHK-Light, 'FZVariableLanTHK Light';
        font-size: 18px;
        font-variation-settings: ';
        font-weight: 300;
      }

      .cls-16 {
        stroke-dasharray: 2.1 1.05;
      }

      .cls-10 {
        letter-spacing: -.1em;
      }

      .cls-38 {
        fill: #dbbc7e;
      }

      .cls-39 {
        opacity: .4;
      }

      .cls-19, .cls-33 {
        stroke-dasharray: 12.31 1.03 2.05 1.03;
      }

      .cls-5 {
        font-size: 16.25px;
      }

      .cls-20 {
        stroke-dasharray: 12.58 1.05 2.1 1.05;
      }

      .cls-21 {
        stroke: #0d2712;
        stroke-width: 1.5px;
      }

      .cls-40 {
        fill: #e3c873;
      }

      .cls-23, .cls-31 {
        stroke-dasharray: 12.33 1.03 2.05 1.03;
      }

      .cls-24, .cls-27, .cls-28, .cls-29, .cls-32, .cls-35 {
        stroke: #b7947a;
      }

      .cls-26, .cls-28 {
        stroke-dasharray: 12.35 1.03 2.06 1.03;
      }

      .cls-27, .cls-36 {
        stroke-dasharray: 2.06 1.03;
      }

      .cls-41 {
        fill: #5f8443;
      }

      .cls-42 {
        opacity: .35;
      }

      .cls-43 {
        fill: #92c481;
      }

      .cls-29 {
        stroke-dasharray: 12.35 1.03 2.06 1.03;
      }

      .cls-30, .cls-34 {
        stroke-dasharray: 2.05 1.03;
      }

      .cls-44 {
        fill: #76a687;
      }

      .cls-32 {
        stroke-dasharray: 2.06 1.03;
      }

      .cls-45 {
        opacity: .5;
      }

      .cls-46 {
        opacity: .7;
      }

      .cls-47 {
        fill: #d9e47f;
      }
    </style>
  </defs>
  <g id="_图层_1-2" data-name="图层 1">
    <g>
      <g>
        <g>
          <g>
            <line class="cls-24" x1="122.73" y1="740.99" x2="125.73" y2="746.19"/>
            <line class="cls-32" x1="126.25" y1="747.08" x2="127.54" y2="749.31"/>
            <line class="cls-29" x1="127.8" y1="749.75" x2="185.24" y2="849.11"/>
            <line class="cls-24" x1="185.5" y1="849.56" x2="188.5" y2="854.75"/>
          </g>
          <g>
            <line class="cls-18" x1="186.73" y1="851.99" x2="189.73" y2="857.19"/>
            <line class="cls-16" x1="190.25" y1="858.1" x2="191.56" y2="860.37"/>
            <line class="cls-20" x1="191.83" y1="860.83" x2="250.24" y2="962.1"/>
            <line class="cls-18" x1="250.5" y1="962.56" x2="253.5" y2="967.75"/>
          </g>
          <g>
            <line class="cls-22" x1="74.76" y1="920.03" x2="79.96" y2="917.05"/>
            <line class="cls-14" x1="80.85" y1="916.54" x2="83.08" y2="915.26"/>
            <line class="cls-31" x1="83.53" y1="915" x2="182.85" y2="858"/>
            <line class="cls-22" x1="183.29" y1="857.74" x2="188.5" y2="854.75"/>
          </g>
          <g>
            <line class="cls-17" x1="188.76" y1="854.03" x2="193.96" y2="851.05"/>
            <line class="cls-15" x1="194.85" y1="850.54" x2="197.08" y2="849.26"/>
            <line class="cls-23" x1="197.53" y1="849" x2="296.85" y2="792"/>
            <line class="cls-17" x1="297.29" y1="791.74" x2="302.5" y2="788.75"/>
          </g>
          <g>
            <line class="cls-24" x1="74.76" y1="788.97" x2="79.95" y2="791.97"/>
            <line class="cls-27" x1="80.84" y1="792.49" x2="83.07" y2="793.78"/>
            <line class="cls-28" x1="83.52" y1="794.03" x2="182.86" y2="851.49"/>
            <line class="cls-24" x1="183.3" y1="851.75" x2="188.5" y2="854.75"/>
          </g>
          <g>
            <line class="cls-18" x1="187.26" y1="854.47" x2="192.45" y2="857.47"/>
            <line class="cls-36" x1="193.34" y1="857.99" x2="195.57" y2="859.28"/>
            <line class="cls-26" x1="196.02" y1="859.53" x2="295.36" y2="916.99"/>
            <line class="cls-18" x1="295.8" y1="917.25" x2="301" y2="920.25"/>
          </g>
          <g>
            <line class="cls-22" x1="188.5" y1="854.75" x2="185.49" y2="859.94"/>
            <line class="cls-30" x1="184.97" y1="860.83" x2="183.68" y2="863.05"/>
            <line class="cls-19" x1="183.43" y1="863.49" x2="126" y2="962.38"/>
            <line class="cls-22" x1="125.75" y1="962.82" x2="122.73" y2="968.01"/>
          </g>
          <g>
            <line class="cls-17" x1="254.5" y1="740.75" x2="251.49" y2="745.94"/>
            <line class="cls-34" x1="250.97" y1="746.83" x2="249.68" y2="749.05"/>
            <line class="cls-33" x1="249.43" y1="749.49" x2="192" y2="848.38"/>
            <line class="cls-17" x1="191.75" y1="848.82" x2="188.73" y2="854.01"/>
          </g>
          <line class="cls-21" x1="188.27" y1="723.43" x2="188.27" y2="985.57"/>
          <line class="cls-21" x1="319.33" y1="854.5" x2="57.2" y2="854.5"/>
          <path class="cls-25" d="M192.26,719.01c71.18,2.89,128.33,60.21,130.96,131.45"/>
          <path class="cls-13" d="M192.26,990.3c71.18-2.89,128.33-60.21,130.96-131.45"/>
          <path class="cls-35" d="M184.27,719.01c-71.18,2.89-128.33,60.21-130.96,131.45"/>
          <path class="cls-12" d="M184.27,990.3c-71.18-2.89-128.33-60.21-130.96-131.45"/>
          <g class="cls-11">
            <text class="cls-9" transform="translate(191.42 715.13)"><tspan x="0" y="0">春</tspan></text>
          </g>
          <g class="cls-11">
            <text class="cls-9" transform="translate(191.42 1002.76)"><tspan x="0" y="0">夏</tspan></text>
          </g>
          <g class="cls-11">
            <text class="cls-9" transform="translate(171.94 715.13)"><tspan x="0" y="0">冬</tspan></text>
          </g>
          <g class="cls-11">
            <text class="cls-9" transform="translate(171.94 1002.76)"><tspan x="0" y="0">秋</tspan></text>
          </g>
          <g class="cls-11">
            <text class="cls-8" transform="translate(246.53 718.98)"><tspan x="0" y="0">一</tspan><tspan x="0" y="9.73">月</tspan></text>
          </g>
          <g class="cls-11">
            <text class="cls-8" transform="translate(300.51 765)"><tspan x="0" y="0">二</tspan><tspan x="0" y="9.73">月</tspan></text>
          </g>
          <g class="cls-11">
            <text class="cls-7" transform="translate(325.05 840.8)"><tspan x="0" y="0">三</tspan><tspan x="0" y="11.43">月</tspan></text>
          </g>
          <g class="cls-11">
            <text class="cls-7" transform="translate(246.29 989.48)"><tspan x="0" y="0">六</tspan><tspan x="0" y="11.43">月</tspan></text>
          </g>
          <g class="cls-11">
            <text class="cls-7" transform="translate(300.27 943.46)"><tspan x="0" y="0">五</tspan><tspan x="0" y="11.43">月</tspan></text>
          </g>
          <g class="cls-11">
            <text class="cls-7" transform="translate(325.05 869.12)"><tspan x="0" y="0">四</tspan><tspan x="0" y="11.43">月</tspan></text>
          </g>
          <g class="cls-11">
            <text class="cls-10" transform="translate(116.8 708.44)"><tspan x="0" y="0">十</tspan><tspan x="0" y="10.29">二</tspan><tspan x="0" y="20.58">月</tspan></text>
          </g>
          <g class="cls-11">
            <text class="cls-10" transform="translate(65.05 755.73)"><tspan x="0" y="0">十</tspan><tspan x="0" y="10.29">一</tspan><tspan x="0" y="20.58">月</tspan></text>
          </g>
          <g class="cls-11">
            <text class="cls-7" transform="translate(40.96 840.8)"><tspan x="0" y="0">十</tspan><tspan x="0" y="11.43">月</tspan></text>
          </g>
          <g class="cls-11">
            <text class="cls-7" transform="translate(119.76 989.48)"><tspan x="0" y="0">七</tspan><tspan x="0" y="11.43">月</tspan></text>
          </g>
          <g class="cls-11">
            <text class="cls-7" transform="translate(65.62 943.46)"><tspan x="0" y="0">八</tspan><tspan x="0" y="11.43">月</tspan></text>
          </g>
          <g class="cls-11">
            <text class="cls-7" transform="translate(41.11 869.12)"><tspan x="0" y="0">九</tspan><tspan x="0" y="11.43">月</tspan></text>
          </g>
        </g>
        <g class="cls-46">
          <path class="cls-37" d="M120.29,967.19c-18.75-10.87-34.4-26.51-45.27-45.27l107.11-61.84-61.84,107.11Z"/>
        </g>
        <path class="cls-43" d="M118.52,963.22c-.05-1.57.17-3.23.63-4.9-1.22,1.23-2.54,2.25-3.93,2.99,2.38-4.13.71-1.35,2.1-3.71,2.43-4.08,2.59-3.65,5.18-5.1.04,2.97.5,2.89-1.83,7.04-1.34,2.39.23-.46-2.16,3.68Z"/>
        <path class="cls-43" d="M112.6,959.32c.17-1.56.62-3.17,1.3-4.76-1.38,1.05-2.83,1.87-4.31,2.42,2.94-3.76.89-1.24,2.6-3.38,2.97-3.71,3.07-3.25,5.84-4.33-.38,2.95.09,2.94-2.79,6.72-1.66,2.18.29-.42-2.65,3.34Z"/>
        <path class="cls-43" d="M107.19,955.16c.28-1.55.85-3.12,1.65-4.65-1.45.94-2.96,1.66-4.47,2.09,3.21-3.53.98-1.17,2.84-3.18,3.24-3.48,3.31-3.02,6.15-3.89-.59,2.91-.13,2.93-3.28,6.49-1.82,2.05.32-.4-2.89,3.13Z"/>
        <path class="cls-43" d="M102.53,950.82c.47-1.5,1.23-2.99,2.22-4.41-1.56.76-3.14,1.28-4.7,1.52,3.62-3.11,1.11-1.04,3.21-2.8,3.64-3.05,3.65-2.58,6.58-3.1-.95,2.82-.49,2.9-4.06,6.03-2.06,1.81.37-.35-3.25,2.75Z"/>
        <g class="cls-42">
          <path class="cls-37" d="M124.16,740.53c18.79-10.81,40.16-16.54,61.84-16.57v123.68s-61.84-107.11-61.84-107.11Z"/>
        </g>
        <path class="cls-43" d="M128.48,740.98c1.39.74,2.71,1.76,3.93,2.99-.46-1.67-.68-3.33-.63-4.9,2.38,4.13.82,1.29,2.16,3.68,2.32,4.14,1.87,4.07,1.83,7.04-2.59-1.45-2.76-1.02-5.18-5.1-1.4-2.35.28.42-2.1-3.71Z"/>
        <g class="cls-1">
          <path class="cls-37" d="M256.06,741.96c18.75,10.87,34.4,26.51,45.27,45.27l-107.11,61.84,61.84-107.11Z"/>
        </g>
        <path class="cls-43" d="M256.83,745.92c.05,1.57-.17,3.23-.63,4.9,1.22-1.23,2.54-2.25,3.93-2.99-2.38,4.13-.71,1.35-2.1,3.71-2.43,4.08-2.59,3.65-5.18,5.1-.04-2.97-.5-2.89,1.83-7.04,1.34-2.39-.23.46,2.16-3.68Z"/>
        <path class="cls-43" d="M262.75,749.82c-.17,1.56-.62,3.17-1.3,4.76,1.38-1.05,2.83-1.87,4.31-2.42-2.94,3.76-.89,1.24-2.6,3.38-2.97,3.71-3.07,3.25-5.84,4.33.38-2.95-.09-2.94,2.79-6.72,1.66-2.18-.29.42,2.65-3.34Z"/>
        <path class="cls-43" d="M267.98,753.62c-.2,1.56-.69,3.16-1.41,4.73,1.4-1.02,2.87-1.81,4.36-2.32-3.02,3.69-.91,1.22-2.67,3.32-3.05,3.64-3.15,3.18-5.94,4.2.44-2.94-.02-2.94,2.94-6.65,1.71-2.14-.3.41,2.72-3.28Z"/>
        <path class="cls-43" d="M273.2,758.43c-.42,1.52-1.12,3.03-2.05,4.49,1.53-.81,3.1-1.39,4.64-1.69-3.5,3.24-1.08,1.08-3.11,2.91-3.53,3.18-3.56,2.72-6.46,3.33.85-2.85.39-2.91,3.84-6.18,1.99-1.88-.35.37,3.15-2.87Z"/>
        <path class="cls-43" d="M277.36,762.52c-.47,1.5-1.22,2.99-2.2,4.42,1.56-.76,3.14-1.29,4.69-1.54-3.61,3.12-1.11,1.05-3.2,2.81-3.63,3.06-3.64,2.6-6.57,3.12.94-2.82.48-2.9,4.03-6.05,2.05-1.82-.36.36,3.24-2.77Z"/>
      </g>
      <text class="cls-5" transform="translate(28.41 542.68)"><tspan x="0" y="0">春社日</tspan></text>
      <text class="cls-5" transform="translate(270.41 541.94)"><tspan x="0" y="0">秋社日</tspan></text>
      <text class="cls-5" transform="translate(142.41 541.94)"><tspan x="0" y="0">春、秋社日</tspan></text>
      <rect class="cls-41" x="70.22" y="94.43" width="34.91" height="6.07"/>
      <rect class="cls-41" x="13.44" y="94.43" width="53.08" height="6.07"/>
      <rect class="cls-47" x="109.31" y="94.43" width="54.12" height="6.07"/>
      <rect class="cls-38" x="166.26" y="94.43" width="162.35" height="6.07"/>
      <g class="cls-39">
        <path class="cls-44" d="M24.38,479.46H6.34c0-94.82,1.75-143.02,3.44-189.64,1.69-46.5,3.43-94.59,3.43-189.18h18.04c0,94.82-1.75,143.02-3.44,189.64-1.69,46.5-3.43,94.59-3.43,189.18Z"/>
      </g>
      <g class="cls-45">
        <path class="cls-38" d="M42.42,479.46h-18.04c0-96.89,36.77-145.97,72.33-193.44,35.77-47.75,69.56-92.86,69.56-185.38h18.04c0,96.89-36.77,145.97-72.33,193.44-35.77,47.75-69.56,92.86-69.56,185.38Z"/>
      </g>
      <g class="cls-45">
        <path class="cls-38" d="M237,479.46h-18.04c0-95.33,9.59-143.79,18.87-190.65,9.16-46.26,18.63-94.09,18.63-188.17h18.04c0,95.33-9.59,143.79-18.87,190.65-9.16,46.26-18.63,94.09-18.63,188.17Z"/>
      </g>
      <g class="cls-2">
        <path class="cls-47" d="M218.96,479.46h-18.04c0-93.5-17.65-138.95-36.34-187.06-18.3-47.12-37.23-95.85-37.23-191.76h18.04c0,93.5,17.65,138.95,36.34,187.06,18.3,47.12,37.23,95.85,37.23,191.76Z"/>
      </g>
      <g class="cls-39">
        <path class="cls-44" d="M180.04,479.46h-18.04c0-92.91-27.12-138.13-55.83-186-28.4-47.35-57.76-96.31-57.76-192.81h18.04c0,92.91,27.12,138.13,55.83,186,28.4,47.35,57.76,96.31,57.76,192.81Z"/>
      </g>
      <g class="cls-39">
        <path class="cls-44" d="M162,479.46h-18.04c0-93.49-17.75-138.94-36.54-187.05-18.4-47.12-37.44-95.85-37.44-191.77h18.04c0,93.49,17.75,138.94,36.54,187.05,18.4,47.12,37.44,95.85,37.44,191.77Z"/>
      </g>
      <g class="cls-45">
        <path class="cls-38" d="M198.08,479.46h-18.04c0-95.67,14.98-144.29,29.48-191.3,14.21-46.1,28.9-93.77,28.9-187.51h18.04c0,95.67-14.98,144.29-29.47,191.3-14.21,46.1-28.9,93.77-28.9,187.51Z"/>
      </g>
      <g class="cls-45">
        <path class="cls-38" d="M141.13,479.46h-18.04c0-96.27,25.1-145.14,49.38-192.41,24.64-47.96,47.91-93.27,47.91-186.41h18.04c0,96.27-25.1,145.14-49.38,192.41-24.64,47.96-47.91,93.27-47.91,186.41Z"/>
      </g>
      <g class="cls-2">
        <path class="cls-47" d="M123.09,479.46h-18.04c0-94.78,1.11-142.96,2.19-189.55,1.07-46.52,2.18-94.63,2.18-189.26h18.04c0,94.78-1.11,142.96-2.19,189.55-1.07,46.52-2.18,94.63-2.18,189.26Z"/>
      </g>
      <g class="cls-39">
        <path class="cls-44" d="M84.18,479.47h-18.04c0-94.11-9.07-141.95-17.83-188.22-8.88-46.85-18.06-95.29-18.06-190.6h18.04c0,94.11,9.07,141.95,17.83,188.22,8.88,46.85,18.06,95.29,18.06,190.6Z"/>
      </g>
      <g class="cls-45">
        <path class="cls-38" d="M102.21,479.46h-18.04c0-96.57,30.56-145.55,60.11-192.92,29.86-47.85,58.05-93.05,58.05-185.89h18.04c0,96.57-30.56,145.55-60.11,192.92-29.86,47.85-58.05,93.05-58.05,185.89Z"/>
      </g>
      <g class="cls-39">
        <path class="cls-44" d="M257.88,479.46h-18.04c0-92.38-36.36-137.45-74.85-185.16-38.33-47.51-77.96-96.63-77.96-193.65h18.04c0,92.38,36.36,137.45,74.85,185.16,38.33,47.51,77.96,96.63,77.96,193.65Z"/>
      </g>
      <g class="cls-45">
        <path class="cls-38" d="M275.91,479.46h-18.04c0-94.98,4.24-143.27,8.33-189.96,4.07-46.42,8.28-94.43,8.28-188.85h18.04c0,94.98-4.24,143.27-8.33,189.96-4.07,46.42-8.28,94.43-8.28,188.85Z"/>
      </g>
      <g class="cls-45">
        <path class="cls-38" d="M63.29,479.46h-18.04c0-96.85,36.03-145.92,70.86-193.38,35.06-47.76,68.18-92.88,68.18-185.43h18.04c0,96.85-36.03,145.92-70.86,193.38-35.06,47.76-68.18,92.88-68.18,185.43Z"/>
      </g>
      <g class="cls-45">
        <path class="cls-38" d="M296.79,479.46h-18.04c0-94.93,3.51-143.2,6.91-189.87,3.38-46.45,6.87-94.47,6.87-188.95h18.04c0,94.93-3.51,143.2-6.91,189.87-3.38,46.45-6.87,94.47-6.87,188.95Z"/>
      </g>
      <g class="cls-2">
        <path class="cls-47" d="M317.67,479.46h-18.04c0-92.36-36.79-137.42-75.74-185.13-38.79-47.51-78.9-96.64-78.9-193.69h18.04c0,92.36,36.79,137.42,75.74,185.13,38.79,47.51,78.9,96.64,78.9,193.69Z"/>
      </g>
      <g class="cls-45">
        <path class="cls-38" d="M335.71,479.46h-18.04c0-94.58-1.8-142.67-3.54-189.17-1.75-46.62-3.55-94.82-3.55-189.65h18.04c0,94.58,1.8,142.67,3.54,189.17,1.75,46.62,3.55,94.82,3.55,189.65Z"/>
      </g>
      <text class="cls-5" transform="translate(27.19 89.2)"><tspan x="0" y="0">丰收</tspan></text>
      <text class="cls-5" transform="translate(123.5 88.97)"><tspan x="0" y="0">宴请</tspan></text>
      <text class="cls-5" transform="translate(75.36 89.83)"><tspan x="0" y="0">开耕</tspan></text>
      <text class="cls-5" transform="translate(243.48 90.17)"><tspan x="0" y="0">祭祀</tspan></text>
      <rect class="cls-37" x="105.06" y="477.78" width="131.84" height="48.48"/>
      <rect class="cls-43" y="477.78" width="101.93" height="48.48"/>
      <rect class="cls-40" x="239.84" y="477.77" width="103.16" height="48.49"/>
      <text class="cls-6" transform="translate(78.5 491.34)"><tspan x="0" y="0">赶</tspan><tspan x="0" y="14">分</tspan><tspan x="0" y="28">社</tspan></text>
      <text class="cls-6" transform="translate(211.42 490.93)"><tspan x="0" y="0">赶</tspan><tspan x="0" y="14">社</tspan><tspan x="0" y="28">节</tspan></text>
      <text class="cls-6" transform="translate(47.47 497.65)"><tspan x="0" y="0">头</tspan><tspan x="0" y="14">牙</tspan></text>
      <text class="cls-6" transform="translate(282.47 497.64)"><tspan x="0" y="0">尾</tspan><tspan x="0" y="14">牙</tspan></text>
      <text class="cls-3" transform="translate(164.22 490.98)"><tspan x="0" y="0">瑶</tspan><tspan x="0" y="9.8">族</tspan><tspan x="0" y="19.6">社</tspan><tspan x="0" y="29.4">日</tspan></text>
      <text class="cls-6" transform="translate(117.42 490.57)"><tspan x="0" y="0">社</tspan><tspan x="0" y="14">饭</tspan><tspan x="0" y="28">节</tspan></text>
      <text class="cls-6" transform="translate(254.22 497.7)"><tspan x="0" y="0">秋</tspan><tspan x="0" y="14">社</tspan></text>
      <text class="cls-3" transform="translate(311.28 489.74)"><tspan x="0" y="0">分</tspan><tspan x="0" y="9.8">肉</tspan><tspan x="0" y="19.6">串</tspan><tspan x="0" y="29.4">节</tspan></text>
      <text class="cls-6" transform="translate(16.58 498.3)"><tspan x="0" y="0">春</tspan><tspan x="0" y="14">社</tspan></text>
      <g>
        <rect class="cls-41" x="233.63" y=".96" width="5.77" height="41.88"/>
        <rect class="cls-38" x="269.93" y=".96" width="5.77" height="41.88"/>
        <rect class="cls-47" x="304.22" y=".96" width="5.77" height="41.88"/>
        <g class="cls-11">
          <text class="cls-7" transform="translate(313.59 9.82)"><tspan x="0" y="0">农</tspan><tspan x="0" y="11.43">事</tspan><tspan x="0" y="22.86">娱</tspan><tspan x="0" y="34.3">乐</tspan><tspan x="0" y="45.73">习</tspan><tspan x="0" y="57.16">俗</tspan></text>
        </g>
        <g class="cls-11">
          <text class="cls-7" transform="translate(276.2 9.82)"><tspan x="0" y="0">祈</tspan><tspan x="0" y="11.43">福</tspan><tspan x="0" y="22.86">祭</tspan><tspan x="0" y="34.3">祀</tspan><tspan x="0" y="45.73">习</tspan><tspan x="0" y="57.16">俗</tspan></text>
        </g>
        <g class="cls-11">
          <text class="cls-7" transform="translate(240.95 9.82)"><tspan x="0" y="0">生</tspan><tspan x="0" y="11.43">产</tspan><tspan x="0" y="22.86">过</tspan><tspan x="0" y="34.3">程</tspan><tspan x="0" y="45.73">习</tspan><tspan x="0" y="57.16">俗</tspan></text>
        </g>
      </g>
    </g>
    <text class="cls-4" transform="translate(28.14 16.67)"><tspan x="0" y="0">具体节日习俗</tspan></text>
    <text class="cls-4" transform="translate(29.38 668.08)"><tspan x="0" y="0">节日日期分布</tspan></text>
  </g>
</svg>