<?xml version="1.0" encoding="UTF-8"?>
<svg id="_图层_1" data-name="图层 1" xmlns="http://www.w3.org/2000/svg" viewBox="0 0 597.95 597.95">
  <defs>
    <style>
      .cls-1 {
        fill: #7ab194;
      }

      .cls-2 {
        fill: #fff;
      }

      .cls-3 {
        fill: #aa5f52;
      }

      .cls-4 {
        fill: #e1c05e;
      }

      .cls-5 {
        fill: #ecc76c;
      }

      .cls-6 {
        fill: #2a843a;
      }

      .cls-7 {
        fill: #97cc8a;
      }
    </style>
  </defs>
  <path class="cls-1" d="M298.97,597.95c-79.86,0-154.94-31.1-211.41-87.57C31.1,453.91,0,378.83,0,298.97S31.1,144.04,87.57,87.57C144.04,31.1,219.11,0,298.97,0s154.94,31.1,211.41,87.57c56.47,56.47,87.57,131.55,87.57,211.41s-31.1,154.94-87.57,211.41c-56.47,56.47-131.55,87.57-211.41,87.57ZM298.97,71.98c-125.17,0-227,101.83-227,227s101.83,227,227,227,227-101.83,227-227-101.83-227-227-227Z"/>
  <path class="cls-6" d="M301.51,563.96c-70.78,0-137.32-27.56-187.37-77.61s-77.61-116.59-77.61-187.37,27.56-137.32,77.61-187.37,116.59-77.61,187.37-77.61,137.32,27.56,187.37,77.61,77.61,116.59,77.61,187.37-27.56,137.32-77.61,187.37-116.59,77.61-187.37,77.61ZM301.51,37.99c-143.91,0-260.99,117.08-260.99,260.98s117.08,260.99,260.99,260.99,260.99-117.08,260.99-260.99S445.42,37.99,301.51,37.99Z"/>
  <circle class="cls-5" cx="140.84" cy="91.8" r="24.52"/>
  <circle class="cls-5" cx="509.53" cy="137.46" r="24.52"/>
  <circle class="cls-5" cx="91.8" cy="458.79" r="24.52"/>
  <circle class="cls-5" cx="460.48" cy="506.15" r="24.52"/>
  <g>
    <circle class="cls-7" cx="41.22" cy="265.06" r="17.17"/>
    <path class="cls-2" d="M41.22,283.23h-.03c-4.85,0-9.41-1.91-12.84-5.34-3.43-3.44-5.31-8-5.3-12.85,0-4.85,1.91-9.41,5.34-12.84,3.43-3.42,7.98-5.3,12.82-5.3,0,0,.02,0,.03,0,4.85,0,9.41,1.91,12.84,5.34h0c3.43,3.44,5.31,8,5.3,12.85s-1.91,9.41-5.34,12.84c-3.43,3.42-7.98,5.3-12.82,5.3ZM41.21,248.89c-4.31,0-8.36,1.67-11.41,4.72-3.06,3.05-4.75,7.11-4.75,11.42,0,4.32,1.67,8.38,4.72,11.44,3.05,3.06,7.11,4.75,11.42,4.75,4.29.05,8.38-1.67,11.44-4.72,3.06-3.05,4.75-7.11,4.75-11.42,0-4.32-1.67-8.38-4.72-11.44h0c-3.05-3.06-7.11-4.75-11.42-4.75h-.03Z"/>
  </g>
  <g>
    <circle class="cls-7" cx="334.58" cy="37.13" r="17.17"/>
    <path class="cls-2" d="M334.58,55.29c-4.66,0-9.32-1.78-12.87-5.33-7.07-7.09-7.05-18.62.04-25.69,3.43-3.42,7.98-5.3,12.82-5.3.01,0,.02,0,.03,0,4.85,0,9.41,1.9,12.84,5.34,7.07,7.09,7.05,18.62-.04,25.69-3.54,3.53-8.18,5.29-12.82,5.29ZM334.58,20.97c-4.31,0-8.36,1.67-11.41,4.72-6.31,6.29-6.33,16.55-.04,22.86,6.29,6.31,16.55,6.33,22.86.04,6.31-6.29,6.33-16.55.04-22.86-3.05-3.06-7.11-4.75-11.42-4.75h-.03Z"/>
  </g>
  <g>
    <circle class="cls-7" cx="265.55" cy="559.62" r="17.17"/>
    <path class="cls-2" d="M265.55,577.78s-.02,0-.03,0c-4.85,0-9.41-1.9-12.84-5.34-7.07-7.09-7.05-18.62.04-25.69,7.1-7.07,18.62-7.05,25.69.04h0c3.43,3.44,5.31,8,5.3,12.85,0,4.85-1.91,9.41-5.34,12.84-3.43,3.42-7.98,5.3-12.82,5.3ZM265.55,543.46c-4.13,0-8.26,1.57-11.41,4.71-6.31,6.29-6.33,16.55-.04,22.86,3.05,3.06,7.11,4.75,11.42,4.75h.03c4.31,0,8.36-1.67,11.41-4.72,3.06-3.05,4.75-7.1,4.75-11.42s-1.67-8.38-4.72-11.44c-3.15-3.16-7.3-4.75-11.45-4.75Z"/>
  </g>
  <g>
    <circle class="cls-7" cx="560.11" cy="332.89" r="17.17"/>
    <path class="cls-2" d="M560.11,351.05s-.02,0-.03,0c-4.85,0-9.41-1.9-12.84-5.34-3.43-3.44-5.31-8-5.3-12.85,0-4.85,1.91-9.41,5.34-12.84,7.1-7.07,18.62-7.05,25.69.04h0c7.07,7.09,7.05,18.62-.04,25.69-3.43,3.42-7.98,5.3-12.82,5.3ZM560.11,316.73c-4.13,0-8.26,1.57-11.41,4.71-3.06,3.05-4.75,7.11-4.75,11.42,0,4.32,1.67,8.38,4.72,11.44,3.05,3.06,7.11,4.75,11.42,4.75,4.34,0,8.38-1.67,11.44-4.72,3.06-3.05,4.75-7.1,4.75-11.42,0-4.32-1.67-8.38-4.72-11.44h0c-3.15-3.16-7.3-4.75-11.45-4.75Z"/>
  </g>
  <path class="cls-6" d="M434.31,474.05H164.72l24.73-32.23-65.7-8.65,175.91-134.98,109.08-142.16-243.08-32,.07-1h269.59l-24.73,32.23,65.7,8.65-175.91,134.98-109.08,142.15,243.08,32-.07,1ZM166.75,473.05h259.94l-236.09-31.08-23.85,31.08ZM126.27,432.5l63.88,8.41,107.16-139.65-171.04,131.24ZM409.89,156.18l-107.16,139.65,171.04-131.24-63.88-8.41ZM173.36,124.03l236.09,31.08,23.85-31.08H173.36Z"/>
  <path class="cls-6" d="M270.64,517.93l2.99-22.72-58.82,7.74.33-.8,84.39-203.74,25.72-195.38-159.46,20.99-.19-.98,163.8-43.89-2.99,22.72,58.82-7.74-.33.8-84.39,203.74-25.72,195.38,159.46-20.99.19.98-163.8,43.89ZM274.65,495.08l-2.83,21.5,154.99-41.53-152.16,20.03ZM299.03,302.24l-82.63,199.49,57.36-7.55,25.27-191.94ZM326.28,102.9l-25.27,191.94,82.63-199.5-57.36,7.55ZM328.22,80.51l-154.99,41.53,152.16-20.03,2.83-21.5Z"/>
  <path class="cls-6" d="M328.4,517.96l-28.87-219.29-81.33-196.34-52.29,21.66-.44-.9,50.37-29.08,2.9,7.01,52.89-21.91,28.87,219.29,81.32,196.33,52.29-21.66.44.9-50.37,29.08-2.9-7.01-52.89,21.91ZM301.01,302.24l28.21,214.3,51.69-21.41-79.9-192.89ZM382.22,495.67l2.47,5.96,42.77-24.7-45.24,18.74ZM219.13,101.96l79.9,192.89-28.21-214.3-51.69,21.41ZM215.36,95.46l-42.77,24.7,45.24-18.74-2.47-5.96Z"/>
  <path class="cls-6" d="M433.96,473.91L124.66,164.61l.66-.75,172,131.98L165.34,123.84l.75-.66,309.3,309.3-.66.75-172-131.98,131.98,172-.75.66ZM130.76,169.29l298.51,298.51-129.61-168.91-168.91-129.61ZM300.38,298.19l168.91,129.61L170.77,129.28l129.61,168.91Z"/>
  <path class="cls-6" d="M434.06,473.99L78.89,268.93l106.14,13.97-92.12-70.69,207.25,85.85,111.3,14.65L165.43,123.93l.55-.83,355.17,205.06-106.14-13.97,92.12,70.69-207.25-85.85-111.3-14.65,246.02,188.78-.55.83ZM83.74,270.57l344.22,198.73-241.34-185.19-102.87-13.54ZM303.72,299.53l196.79,81.51-87.47-67.12-109.31-14.39ZM413.43,312.97l102.87,13.54L172.09,127.78l241.34,185.19ZM187.01,283.16l109.31,14.39-196.79-81.51,87.47,67.12Z"/>
  <path class="cls-6" d="M434.18,474.04l-339.51-90.97,59.94-24.83-75.21-31.15,220.49-29.03,142.93-59.21L165.54,124l.32-.94,339.51,90.97-59.94,24.83,75.21,31.15-220.49,29.03-142.93,59.21,277.28,114.85-.32.94ZM97.77,382.86l329.3,88.24-271.16-112.32-58.14,24.08ZM83.23,327.59l72.68,30.11,140.41-58.16-213.09,28.05ZM444.13,239.39l-140.41,58.16,213.09-28.05-72.68-30.11ZM172.97,125.99l271.16,112.32,58.14-24.08L172.97,125.99Z"/>
  <g>
    <path class="cls-3" d="M434.6,453.35c-7.17-3.17-15.57.09-18.74,7.26-3.17,7.17.09,15.57,7.26,18.74,7.17,3.17,15.57-.09,18.74-7.26,3.17-7.17-.09-15.57-7.26-18.74Z"/>
    <path class="cls-2" d="M428.84,481.56c-2.05,0-4.13-.42-6.12-1.3-3.71-1.64-6.56-4.63-8.03-8.42-1.47-3.79-1.38-7.92.26-11.63,1.64-3.71,4.63-6.56,8.42-8.03,3.79-1.47,7.92-1.38,11.63.26,7.67,3.39,11.15,12.39,7.77,20.06-2.51,5.68-8.09,9.06-13.93,9.06ZM428.88,453.14c-1.61,0-3.23.3-4.79.9-3.29,1.28-5.89,3.75-7.32,6.98s-1.5,6.81-.23,10.1,3.75,5.89,6.97,7.31c6.66,2.94,14.48-.08,17.42-6.75,2.94-6.66-.08-14.48-6.75-17.42-1.7-.75-3.51-1.13-5.32-1.13Z"/>
  </g>
  <path class="cls-4" d="M383.11,473.29c-7.17-3.17-15.57.09-18.74,7.26-3.17,7.17.09,15.57,7.26,18.74,7.17,3.17,15.57-.09,18.74-7.26,3.17-7.17-.09-15.57-7.26-18.74Z"/>
  <g>
    <path class="cls-6" d="M333.17,476.84c-7.17-3.17-15.57.09-18.74,7.26-3.17,7.17.09,15.57,7.26,18.74,7.17,3.17,15.57-.09,18.74-7.26s-.09-15.57-7.26-18.74Z"/>
    <path class="cls-2" d="M327.41,505.05c-2.08,0-4.17-.43-6.13-1.3-7.67-3.39-11.15-12.38-7.77-20.06,3.39-7.67,12.39-11.15,20.06-7.77h0c3.71,1.64,6.56,4.63,8.03,8.42s1.38,7.92-.26,11.63c-1.64,3.71-4.63,6.56-8.42,8.03-1.79.69-3.65,1.04-5.51,1.04ZM327.45,476.63c-1.61,0-3.23.3-4.79.9-3.29,1.28-5.89,3.75-7.32,6.98-2.94,6.66.08,14.48,6.75,17.42,3.22,1.42,6.81,1.5,10.1.23,3.29-1.28,5.89-3.75,7.32-6.97,1.42-3.22,1.5-6.81.23-10.11-1.28-3.29-3.75-5.89-6.98-7.32h0c-1.7-.75-3.51-1.13-5.32-1.13Z"/>
  </g>
  <g>
    <path class="cls-7" d="M282.67,468.77c-7.17-3.17-15.57.09-18.74,7.26-3.17,7.17.09,15.57,7.26,18.74,7.17,3.17,15.57-.09,18.74-7.26,3.17-7.17-.09-15.57-7.26-18.74Z"/>
    <path class="cls-2" d="M276.92,496.98c-2.09,0-4.17-.43-6.13-1.3-7.67-3.39-11.16-12.39-7.77-20.06,3.39-7.67,12.39-11.16,20.06-7.77,3.71,1.64,6.56,4.63,8.03,8.42,1.47,3.79,1.38,7.92-.26,11.63-1.64,3.71-4.63,6.56-8.42,8.03-1.79.69-3.65,1.04-5.51,1.04ZM276.95,468.55c-5.08,0-9.92,2.94-12.1,7.87-2.94,6.66.08,14.48,6.75,17.42,3.22,1.42,6.81,1.5,10.1.23,3.29-1.28,5.89-3.75,7.31-6.97s1.5-6.81.23-10.1c-1.28-3.29-3.75-5.89-6.97-7.32h0c-1.73-.76-3.54-1.13-5.32-1.13Z"/>
  </g>
  <g>
    <path class="cls-3" d="M238.49,446.4c-7.17-3.17-15.57.09-18.74,7.26-3.17,7.17.09,15.57,7.26,18.74,7.17,3.17,15.57-.09,18.74-7.26,3.17-7.17-.09-15.57-7.26-18.74Z"/>
    <path class="cls-2" d="M232.72,474.61c-2.05,0-4.13-.42-6.12-1.3-3.71-1.64-6.56-4.63-8.03-8.42s-1.38-7.92.26-11.63c3.39-7.67,12.38-11.16,20.06-7.77,7.67,3.39,11.16,12.39,7.77,20.06-2.51,5.68-8.09,9.06-13.93,9.06ZM232.77,446.19c-5.08,0-9.92,2.94-12.1,7.87-1.42,3.22-1.5,6.81-.23,10.1s3.75,5.89,6.97,7.31c6.66,2.94,14.48-.08,17.42-6.75,2.94-6.66-.08-14.48-6.75-17.42-1.73-.76-3.54-1.13-5.32-1.13Z"/>
  </g>
  <path class="cls-4" d="M211.19,411.58c-7.17-3.17-15.57.09-18.74,7.26-3.17,7.17.09,15.57,7.26,18.74,7.17,3.17,15.57-.09,18.74-7.26,3.17-7.17-.09-15.57-7.26-18.74Z"/>
  <g>
    <path class="cls-6" d="M198.67,369.06c-7.17-3.17-15.57.09-18.74,7.26-3.17,7.17.09,15.57,7.26,18.74,7.17,3.17,15.57-.09,18.74-7.26,3.17-7.17-.09-15.57-7.26-18.74Z"/>
    <path class="cls-2" d="M192.9,397.27c-2.05,0-4.13-.42-6.12-1.3-3.71-1.64-6.56-4.63-8.03-8.42-1.47-3.79-1.38-7.92.26-11.63,3.39-7.67,12.39-11.15,20.06-7.77,7.67,3.39,11.16,12.39,7.77,20.06-2.51,5.68-8.09,9.06-13.93,9.06ZM192.95,368.85c-5.08,0-9.92,2.94-12.1,7.87-1.42,3.22-1.5,6.81-.23,10.1,1.28,3.29,3.75,5.89,6.97,7.32,6.66,2.94,14.48-.08,17.42-6.75,2.94-6.66-.08-14.48-6.75-17.42-1.73-.76-3.54-1.13-5.32-1.13Z"/>
  </g>
  <g>
    <path class="cls-7" d="M214.24,343.21c3.17-7.17-.09-15.57-7.26-18.74-7.17-3.17-15.57.09-18.74,7.26-3.17,7.17.09,15.57,7.26,18.74,7.17,3.17,15.57-.09,18.74-7.26Z"/>
    <path class="cls-2" d="M201.22,352.68c-2.05,0-4.13-.42-6.12-1.3-7.67-3.39-11.16-12.39-7.77-20.06,3.39-7.67,12.39-11.15,20.06-7.77,3.71,1.64,6.56,4.63,8.03,8.42s1.38,7.92-.26,11.63h0c-2.51,5.68-8.09,9.06-13.93,9.06ZM201.26,324.27c-5.08,0-9.92,2.94-12.1,7.87-2.94,6.66.08,14.48,6.75,17.42,6.66,2.94,14.47-.08,17.42-6.75,1.42-3.22,1.5-6.81.23-10.1s-3.75-5.89-6.97-7.31c-1.73-.76-3.54-1.13-5.32-1.13Z"/>
  </g>
  <g>
    <path class="cls-3" d="M227.74,322.03c7.17,3.17,15.57-.09,18.74-7.26,3.17-7.17-.09-15.57-7.26-18.74-7.17-3.17-15.57.09-18.74,7.26-3.17,7.17.09,15.57,7.26,18.74Z"/>
    <path class="cls-2" d="M233.46,324.24c-2.05,0-4.13-.42-6.12-1.3h0c-7.67-3.39-11.15-12.39-7.77-20.06,3.39-7.67,12.39-11.15,20.06-7.77,3.71,1.64,6.56,4.63,8.03,8.42,1.47,3.79,1.38,7.92-.26,11.63-2.51,5.68-8.09,9.06-13.93,9.06ZM233.5,295.83c-5.07,0-9.92,2.94-12.1,7.87-2.94,6.66.08,14.48,6.75,17.42h0c6.66,2.94,14.48-.08,17.42-6.75,1.42-3.22,1.5-6.81.23-10.1-1.28-3.29-3.75-5.89-6.98-7.31-1.73-.76-3.54-1.13-5.32-1.13Z"/>
  </g>
  <path class="cls-4" d="M280.42,285.72c-7.17-3.17-15.57.09-18.74,7.26-3.17,7.17.09,15.57,7.26,18.74,7.17,3.17,15.57-.09,18.74-7.26,3.17-7.17-.09-15.57-7.26-18.74Z"/>
  <g>
    <path class="cls-7" d="M176.25,117.3c-7.17-3.17-15.57.09-18.74,7.26-3.17,7.17.09,15.57,7.26,18.74,7.17,3.17,15.57-.09,18.74-7.26,3.17-7.17-.09-15.57-7.26-18.74Z"/>
    <path class="cls-2" d="M170.49,145.51c-2.08,0-4.16-.43-6.13-1.3-7.67-3.39-11.15-12.39-7.77-20.06,3.39-7.67,12.39-11.15,20.06-7.77,3.71,1.64,6.56,4.63,8.03,8.42,1.47,3.79,1.38,7.92-.26,11.63-1.64,3.71-4.63,6.56-8.42,8.03-1.79.69-3.65,1.04-5.51,1.04ZM170.53,117.08c-5.08,0-9.92,2.94-12.1,7.87-2.94,6.66.08,14.48,6.75,17.42,3.22,1.42,6.81,1.5,10.1.23,3.29-1.28,5.89-3.75,7.32-6.98s1.5-6.81.23-10.1-3.75-5.89-6.97-7.31c-1.73-.76-3.54-1.13-5.32-1.13Z"/>
  </g>
  <g>
    <path class="cls-6" d="M227.74,97.36c-7.17-3.17-15.57.09-18.74,7.26-3.17,7.17.09,15.57,7.26,18.74,7.17,3.17,15.57-.09,18.74-7.26,3.17-7.17-.09-15.57-7.26-18.74Z"/>
    <path class="cls-2" d="M221.98,125.57c-2.08,0-4.17-.43-6.13-1.3-7.67-3.39-11.15-12.39-7.77-20.06,3.39-7.67,12.39-11.15,20.06-7.77,3.71,1.64,6.56,4.63,8.03,8.42,1.47,3.79,1.38,7.92-.26,11.63-1.64,3.71-4.63,6.56-8.42,8.03-1.79.69-3.65,1.04-5.51,1.04ZM222.02,97.15c-5.08,0-9.92,2.94-12.1,7.87-2.94,6.66.08,14.48,6.75,17.42,3.22,1.42,6.81,1.5,10.1.23,3.29-1.28,5.89-3.75,7.32-6.97,1.42-3.22,1.5-6.81.23-10.1-1.28-3.29-3.75-5.89-6.98-7.31-1.73-.76-3.54-1.13-5.32-1.13Z"/>
  </g>
  <path class="cls-4" d="M277.68,93.81c-7.17-3.17-15.57.09-18.74,7.26-3.17,7.17.09,15.57,7.26,18.74,7.17,3.17,15.57-.09,18.74-7.26,3.17-7.17-.09-15.57-7.26-18.74Z"/>
  <g>
    <path class="cls-3" d="M316.7,127.88c7.17,3.17,15.57-.09,18.74-7.26,3.17-7.17-.09-15.57-7.26-18.74-7.17-3.17-15.57.09-18.74,7.26-3.17,7.17.09,15.57,7.26,18.74Z"/>
    <path class="cls-2" d="M322.42,130.09c-2.09,0-4.17-.43-6.13-1.3h0c-3.71-1.64-6.56-4.63-8.03-8.42-1.47-3.79-1.37-7.92.27-11.63,1.64-3.71,4.63-6.56,8.42-8.03,3.79-1.47,7.92-1.37,11.63.26,3.71,1.64,6.56,4.63,8.03,8.42,1.47,3.79,1.38,7.92-.26,11.63-1.64,3.71-4.63,6.56-8.42,8.03-1.79.69-3.65,1.04-5.51,1.04ZM317.1,126.96c3.22,1.42,6.81,1.5,10.11.23,3.29-1.28,5.89-3.75,7.32-6.97,1.42-3.22,1.5-6.81.23-10.1-1.28-3.29-3.75-5.89-6.98-7.31-3.22-1.42-6.81-1.5-10.1-.23-3.29,1.28-5.89,3.75-7.31,6.97s-1.5,6.81-.23,10.1c1.28,3.29,3.75,5.89,6.97,7.32h0Z"/>
  </g>
  <g>
    <path class="cls-7" d="M360.88,150.24c7.17,3.17,15.57-.09,18.74-7.26,3.17-7.17-.09-15.57-7.26-18.74-7.17-3.17-15.57.09-18.74,7.26-3.17,7.17.09,15.57,7.26,18.74Z"/>
    <path class="cls-2" d="M366.6,152.45c-2.05,0-4.13-.42-6.12-1.3-3.71-1.64-6.56-4.63-8.03-8.42s-1.38-7.92.26-11.63c3.39-7.67,12.39-11.15,20.06-7.77,7.67,3.39,11.15,12.39,7.77,20.06-2.51,5.68-8.09,9.06-13.93,9.06ZM366.64,124.03c-5.07,0-9.92,2.94-12.1,7.87-1.42,3.22-1.5,6.81-.23,10.11,1.28,3.29,3.75,5.89,6.98,7.32,6.66,2.94,14.48-.08,17.42-6.75,2.94-6.66-.08-14.48-6.75-17.42-1.73-.76-3.54-1.13-5.32-1.13Z"/>
  </g>
  <g>
    <path class="cls-6" d="M388.18,185.06c7.17,3.17,15.57-.09,18.74-7.26,3.17-7.17-.09-15.57-7.26-18.74-7.17-3.17-15.57.09-18.74,7.26-3.17,7.17.09,15.57,7.26,18.74Z"/>
    <path class="cls-2" d="M393.91,187.28c-2.09,0-4.17-.43-6.13-1.3-3.71-1.64-6.56-4.63-8.03-8.42-1.47-3.79-1.38-7.92.26-11.63,1.64-3.71,4.63-6.56,8.42-8.03,3.79-1.47,7.92-1.38,11.63.26,3.71,1.64,6.56,4.63,8.03,8.42,1.47,3.79,1.38,7.92-.26,11.63-1.64,3.71-4.63,6.56-8.42,8.03-1.79.69-3.65,1.04-5.51,1.04ZM393.94,158.85c-1.61,0-3.23.3-4.78.9-3.29,1.28-5.89,3.75-7.31,6.97-1.42,3.22-1.5,6.81-.23,10.1s3.75,5.89,6.97,7.31c3.22,1.42,6.81,1.5,10.1.23,3.29-1.28,5.89-3.75,7.31-6.97s1.5-6.81.23-10.1-3.75-5.89-6.97-7.31c-1.7-.75-3.51-1.13-5.32-1.13Z"/>
  </g>
  <path class="cls-4" d="M400.7,227.58c7.17,3.17,15.57-.09,18.74-7.26,3.17-7.17-.09-15.57-7.26-18.74-7.17-3.17-15.57.09-18.74,7.26-3.17,7.17.09,15.57,7.26,18.74Z"/>
  <g>
    <path class="cls-3" d="M403.87,246.17c-7.17-3.17-15.57.09-18.74,7.26-3.17,7.17.09,15.57,7.26,18.74,7.17,3.17,15.57-.09,18.74-7.26,3.17-7.17-.09-15.57-7.26-18.74Z"/>
    <path class="cls-2" d="M398.11,274.38c-2.05,0-4.13-.42-6.12-1.3-3.71-1.64-6.56-4.63-8.03-8.42-1.47-3.79-1.38-7.92.26-11.63,1.64-3.71,4.63-6.56,8.42-8.03,3.79-1.47,7.92-1.37,11.63.26,7.67,3.39,11.16,12.39,7.77,20.06-2.51,5.68-8.09,9.06-13.93,9.06ZM398.15,245.96c-1.61,0-3.23.3-4.79.9-3.29,1.28-5.89,3.75-7.31,6.97s-1.5,6.81-.23,10.1,3.75,5.89,6.97,7.31c6.66,2.94,14.48-.08,17.42-6.74,2.94-6.66-.08-14.48-6.75-17.42-1.7-.75-3.51-1.13-5.32-1.13Z"/>
  </g>
  <g>
    <path class="cls-7" d="M371.63,274.61c-7.17-3.17-15.57.09-18.74,7.26-3.17,7.17.09,15.57,7.26,18.74,7.17,3.17,15.57-.09,18.74-7.26,3.17-7.17-.09-15.57-7.26-18.74Z"/>
    <path class="cls-2" d="M365.86,302.82c-2.05,0-4.13-.42-6.12-1.3-3.71-1.64-6.56-4.63-8.03-8.42-1.47-3.79-1.38-7.92.26-11.63,1.64-3.71,4.63-6.56,8.42-8.03,3.79-1.47,7.92-1.37,11.64.26,7.67,3.39,11.15,12.39,7.77,20.06-2.51,5.68-8.09,9.06-13.93,9.06ZM365.9,274.4c-1.62,0-3.23.3-4.79.9-3.29,1.28-5.89,3.75-7.32,6.97-1.42,3.22-1.5,6.81-.23,10.1,1.28,3.29,3.75,5.89,6.97,7.31,6.66,2.94,14.48-.08,17.42-6.75,2.94-6.66-.08-14.48-6.75-17.42-1.7-.75-3.51-1.13-5.32-1.13Z"/>
  </g>
  <g>
    <path class="cls-6" d="M336.17,289.55c-2.24-3.07-5.54-5.08-9.28-5.67-3.75-.59-7.5.32-10.57,2.56-3.07,2.24-5.08,5.53-5.67,9.28-.59,3.75.32,7.5,2.56,10.57,1.49,2.05,3.46,3.62,5.72,4.62,1.12.5,2.32.85,3.57,1.04,3.75.59,7.5-.32,10.57-2.56,3.07-2.24,5.08-5.53,5.67-9.28.59-3.75-.32-7.5-2.56-10.57Z"/>
    <path class="cls-2" d="M324.72,313.14c-.79,0-1.59-.06-2.38-.19-1.32-.21-2.61-.58-3.82-1.12-2.42-1.07-4.54-2.78-6.12-4.95-2.39-3.28-3.37-7.3-2.74-11.31.63-4.01,2.78-7.54,6.06-9.94,3.28-2.39,7.29-3.37,11.31-2.74,4.01.63,7.54,2.78,9.94,6.06h0c2.39,3.28,3.37,7.3,2.74,11.31-.63,4.01-2.78,7.54-6.06,9.94-2.63,1.92-5.73,2.92-8.93,2.92ZM324.66,284.71c-2.78,0-5.47.87-7.76,2.54-2.85,2.08-4.72,5.14-5.27,8.63-.55,3.49.3,6.98,2.38,9.83,1.37,1.88,3.21,3.37,5.31,4.3,1.05.46,2.17.79,3.32.97,3.49.55,6.98-.3,9.83-2.38,2.85-2.08,4.72-5.14,5.27-8.63.54-3.49-.3-6.98-2.38-9.83-2.08-2.85-5.15-4.72-8.63-5.27-.69-.11-1.38-.16-2.07-.16Z"/>
  </g>
</svg>